<svg xmlns="http://www.w3.org/2000/svg" width="200" height="236.99" viewBox="0 0 200 236.99">
  <g id="COMPONENT">
    <g id="Base">
      <rect x="56.3" y="75.49" width="91" height="91" fill="#0c0c0c"/>
      <path d="M151.8,97v90h-90V97h90m1-1h-92v92h92V96Z" transform="translate(-5 -21.01)"/>
    </g>
    <g id="Background">
      <circle cx="101.8" cy="120.64" r="42.32" fill="#b7a9a9"/>
      <path d="M106.8,99.83A41.82,41.82,0,1,1,65,141.65,41.87,41.87,0,0,1,106.8,99.83m0-1a42.82,42.82,0,1,0,42.82,42.82A42.82,42.82,0,0,0,106.8,98.83Z" transform="translate(-5 -21.01)"/>
    </g>
    <g id="MOVING_PIECE">
      <circle cx="112.8" cy="110.64" r="23.21" fill="#0c0c0c"/>
      <path d="M117.8,108.94a22.71,22.71,0,1,1-22.7,22.71,22.73,22.73,0,0,1,22.7-22.71m0-1a23.71,23.71,0,1,0,23.71,23.71,23.7,23.7,0,0,0-23.71-23.71Z" transform="translate(-5 -21.01)"/>
    </g>
  </g>
  <g id="WIRES">
    <g id="PIN_GND">
      <line x1="8.24" y1="216.49" x2="8.24" y2="235.74" fill="none" stroke="#ada8a8" stroke-linecap="round" stroke-miterlimit="10" stroke-width="2"/>
    </g>
    <g id="PIN_POWER">
      <line x1="45" y1="216.74" x2="45" y2="235.99" fill="none" stroke="#ada8a8" stroke-linecap="round" stroke-miterlimit="10" stroke-width="2"/>
    </g>
    <g id="PIN_X">
      <line x1="84" y1="216.74" x2="84" y2="235.99" fill="none" stroke="#ada8a8" stroke-linecap="round" stroke-miterlimit="10" stroke-width="2"/>
    </g>
    <g id="PIN_Y">
      <line x1="126" y1="216.74" x2="126" y2="235.99" fill="none" stroke="#ada8a8" stroke-linecap="round" stroke-miterlimit="10" stroke-width="2"/>
    </g>
    <g id="PIN_SW">
      <line x1="175" y1="216.74" x2="175" y2="235.99" fill="none" stroke="#ada8a8" stroke-linecap="round" stroke-miterlimit="10" stroke-width="2"/>
    </g>
    <g id="WIRE_BASE">
      <rect x="0.5" y="186.49" width="199" height="30" fill="#f7f0f0"/>
      <path d="M204,208v29H6V208H204m1-1H5v31H205V207Z" transform="translate(-5 -21.01)"/>
    </g>
  </g>
  <g id="TEXT">
    <text id="BUTTON_TEXT" transform="translate(9.86 21.1)" font-size="24" font-family="Biryani-SemiBold, Biryani" font-weight="600">Button Pressed</text>
    <text id="DEGREES_TEXT" transform="translate(12.31 59.33)" font-size="24" font-family="Biryani-SemiBold, Biryani" font-weight="600">Joystick @ 350°</text>
  </g>
  <g id="WIRE_TEXT">
    <text id="PIN_TEXT_MINUS" transform="translate(2.79 211.7)" font-size="24" font-family="Biryani-SemiBold, Biryani" font-weight="600">-</text>
    <text id="PIN_TEXT_PLUS" transform="translate(38.79 211.7)" font-size="24" font-family="Biryani-SemiBold, Biryani" font-weight="600">+</text>
    <text id="PIN_TEXT_X" transform="translate(74.79 211.7)" font-size="24" font-family="Biryani-SemiBold, Biryani" font-weight="600">X</text>
    <text id="PIN_TEXT_Y" transform="translate(116.79 211.7)" font-size="24" font-family="Biryani-SemiBold, Biryani" font-weight="600">Y</text>
    <text id="PIN_TEXT_SW" transform="translate(152.79 211.7)" font-size="24" font-family="Biryani-SemiBold, Biryani" font-weight="600">SW</text>
  </g>
</svg>
