<svg xmlns="http://www.w3.org/2000/svg" width="740.25" height="145.56" viewBox="0 0 740.25 145.56">
  <title>lcd_16_2</title>
  <g id="background">
    <rect id="base" x="207.01" y="18.18" width="533.24" height="97.03" fill="#39b54a"/>
  </g>
  <g id="WIRES">
    <line id="_5V_BOX_1" x1="150.22" y1="14.48" x2="1" y2="14.48" stroke-width="2" stroke="#c1272d" stroke-linecap="round" stroke-linejoin="round" fill="#f7e8e8"/>
    <line id="GND_BOX_1" x1="151.21" y1="47.38" x2="37" y2="46.56" stroke-width="2" stroke="#000" stroke-linecap="round" stroke-linejoin="round" fill="#f7e8e8"/>
    <line id="SDA_WIRE_2" x1="150.21" y1="79.42" x2="72" y2="79.42" stroke-width="2" stroke="#0071bc" stroke-linecap="round" stroke-linejoin="round" fill="#f7e8e8"/>
    <line id="SCL_WIRE_1" x1="150.21" y1="111.47" x2="108" y2="111.56" stroke-width="2" stroke="#f15a24" stroke-linecap="round" stroke-linejoin="round" fill="#f7e8e8"/>
    <rect x="121.78" y="66.79" width="129.32" height="51.31" transform="translate(264.14 -121.78) rotate(90)" fill="#e5d6d6"/>
    <text id="VCC_TEXT" transform="translate(149.4 19.9)" font-size="16.72" fill="#2d2d2d" font-family="Biryani-SemiBold, Biryani" font-weight="600">VCC</text>
    <text id="GND_TEXT" transform="translate(149.4 53.34)" font-size="16.72" fill="#2d2d2d" font-family="Biryani-SemiBold, Biryani" font-weight="600">GND</text>
    <text id="GND_TEXT-2" data-name="GND_TEXT" transform="translate(149.4 85.39)" font-size="16.72" fill="#2d2d2d" font-family="Biryani-SemiBold, Biryani" font-weight="600">SDA</text>
    <text id="GND_TEXT-3" data-name="GND_TEXT" transform="translate(149.4 117.44)" font-size="16.72" fill="#2d2d2d" font-family="Biryani-SemiBold, Biryani" font-weight="600">SCL</text>
    <line id="_5V_BOX" x1="1" y1="14.72" x2="1" y2="46.56" stroke-width="2" stroke="#c1272d" stroke-linecap="round" stroke-linejoin="round" fill="none"/>
    <line id="GND_BOX" x1="37" y1="46.56" x2="37" y2="76.56" stroke-width="2" stroke="#000" stroke-linecap="round" stroke-linejoin="round" fill="#f7e8e8"/>
    <line id="SDA_WIRE" x1="72" y1="79.56" x2="72" y2="110.56" stroke-width="2" stroke="#0071bc" stroke-linecap="round" stroke-linejoin="round" fill="#f7e8e8"/>
    <line id="SCL_WIRE" x1="108" y1="111.56" x2="108" y2="144.56" stroke-width="2" stroke="#f15a24" stroke-linecap="round" stroke-linejoin="round" fill="#f7e8e8"/>
  </g>
  <g id="col-16">
    <g id="space-16-1">
      <rect x="699.27" y="40.81" width="31.37" height="31.37" fill="#fff"/>
      <path d="M744.89,69.1V99.47H714.52V69.1h30.37m1-1H713.52v32.37h32.37V68.1Z" transform="translate(-14.75 -27.79)"/>
    </g>
    <text id="letter-16-1" transform="translate(701.96 66.3)" font-size="24.09" font-family="PTMono-Bold, PT Mono" font-weight="700">W</text>
    <g id="space-16-2">
      <rect x="699.27" y="72.53" width="31.37" height="31.37" fill="#fff"/>
      <path d="M744.89,100.82V131.2H714.52V100.82h30.37m1-1H713.52V132.2h32.37V99.82Z" transform="translate(-14.75 -27.79)"/>
    </g>
    <text id="letter-16-2" transform="translate(701.96 98.03)" font-size="24.09" font-family="PTMono-Bold, PT Mono" font-weight="700">W</text>
  </g>
  <g id="col-15">
    <g id="space-15-1">
      <rect x="667.55" y="40.81" width="31.37" height="31.37" fill="#fff"/>
      <path d="M713.17,69.1V99.47H682.79V69.1h30.38m1-1H681.79v32.37h32.38V68.1Z" transform="translate(-14.75 -27.79)"/>
    </g>
    <text id="letter-15-1" transform="translate(670.23 66.3)" font-size="24.09" font-family="PTMono-Bold, PT Mono" font-weight="700">W</text>
    <g id="space-15-2">
      <rect x="667.55" y="72.53" width="31.37" height="31.37" fill="#fff"/>
      <path d="M713.17,100.82V131.2H682.79V100.82h30.38m1-1H681.79V132.2h32.38V99.82Z" transform="translate(-14.75 -27.79)"/>
    </g>
    <text id="letter-15-2" transform="translate(670.23 98.03)" font-size="24.09" font-family="PTMono-Bold, PT Mono" font-weight="700">W</text>
  </g>
  <g id="col-14">
    <g id="space-14-1">
      <rect x="635.81" y="40.81" width="31.37" height="31.37" fill="#fff"/>
      <path d="M681.43,69.1V99.47H651.06V69.1h30.37m1-1H650.06v32.37h32.37V68.1Z" transform="translate(-14.75 -27.79)"/>
    </g>
    <text id="letter-14-1" transform="translate(638.5 66.3)" font-size="24.09" font-family="PTMono-Bold, PT Mono" font-weight="700">W</text>
    <g id="space-14-2">
      <rect x="635.81" y="72.53" width="31.37" height="31.37" fill="#fff"/>
      <path d="M681.43,100.82V131.2H651.06V100.82h30.37m1-1H650.06V132.2h32.37V99.82Z" transform="translate(-14.75 -27.79)"/>
    </g>
    <text id="letter-14-2" transform="translate(638.5 98.03)" font-size="24.09" font-family="PTMono-Bold, PT Mono" font-weight="700">W</text>
  </g>
  <g id="col-13">
    <g id="space-13-1">
      <rect x="604.07" y="40.81" width="31.37" height="31.37" fill="#fff"/>
      <path d="M649.69,69.1V99.47H619.32V69.1h30.37m1-1H618.32v32.37h32.37V68.1Z" transform="translate(-14.75 -27.79)"/>
    </g>
    <text id="letter-13-1" transform="translate(606.75 66.3)" font-size="24.09" font-family="PTMono-Bold, PT Mono" font-weight="700">W</text>
    <g id="space-13-2">
      <rect x="604.07" y="72.53" width="31.37" height="31.37" fill="#fff"/>
      <path d="M649.69,100.82V131.2H619.32V100.82h30.37m1-1H618.32V132.2h32.37V99.82Z" transform="translate(-14.75 -27.79)"/>
    </g>
    <text id="letter-13-2" transform="translate(606.75 98.03)" font-size="24.09" font-family="PTMono-Bold, PT Mono" font-weight="700">W</text>
  </g>
  <g id="col-12">
    <g id="space-12-1">
      <rect x="572.29" y="40.81" width="31.37" height="31.37" fill="#fff"/>
      <path d="M617.91,69.1V99.47H587.53V69.1h30.38m1-1H586.53v32.37h32.38V68.1Z" transform="translate(-14.75 -27.79)"/>
    </g>
    <text id="letter-12-1" transform="translate(574.97 66.3)" font-size="24.09" font-family="PTMono-Bold, PT Mono" font-weight="700">W</text>
    <g id="space-12-2">
      <rect x="572.29" y="72.53" width="31.37" height="31.37" fill="#fff"/>
      <path d="M617.91,100.82V131.2H587.53V100.82h30.38m1-1H586.53V132.2h32.38V99.82Z" transform="translate(-14.75 -27.79)"/>
    </g>
    <text id="letter-12-2" transform="translate(574.97 98.03)" font-size="24.09" font-family="PTMono-Bold, PT Mono" font-weight="700">W</text>
  </g>
  <g id="col-11">
    <g id="space-11-1">
      <rect x="540.4" y="40.81" width="31.37" height="31.37" fill="#fff"/>
      <path d="M586,69.1V99.47H555.65V69.1H586m1-1H554.65v32.37H587V68.1Z" transform="translate(-14.75 -27.79)"/>
    </g>
    <text id="letter-11-1" transform="translate(543.08 66.3)" font-size="24.09" font-family="PTMono-Bold, PT Mono" font-weight="700">W</text>
    <g id="space-11-2">
      <rect x="540.4" y="72.53" width="31.37" height="31.37" fill="#fff"/>
      <path d="M586,100.82V131.2H555.65V100.82H586m1-1H554.65V132.2H587V99.82Z" transform="translate(-14.75 -27.79)"/>
    </g>
    <text id="letter-11-2" transform="translate(543.08 98.03)" font-size="24.09" font-family="PTMono-Bold, PT Mono" font-weight="700">W</text>
  </g>
  <g id="col-10">
    <g id="space-10-1">
      <rect x="508.67" y="40.81" width="31.37" height="31.37" fill="#fff"/>
      <path d="M554.29,69.1V99.47H523.92V69.1h30.37m1-1H522.92v32.37h32.37V68.1Z" transform="translate(-14.75 -27.79)"/>
    </g>
    <text id="letter-10-1" transform="translate(511.36 66.3)" font-size="24.09" font-family="PTMono-Bold, PT Mono" font-weight="700">W</text>
    <g id="space-10-2">
      <rect x="508.67" y="72.53" width="31.37" height="31.37" fill="#fff"/>
      <path d="M554.29,100.82V131.2H523.92V100.82h30.37m1-1H522.92V132.2h32.37V99.82Z" transform="translate(-14.75 -27.79)"/>
    </g>
    <text id="letter-10-2" transform="translate(511.36 98.03)" font-size="24.09" font-family="PTMono-Bold, PT Mono" font-weight="700">W</text>
  </g>
  <g id="col-9">
    <g id="space-9-1">
      <rect x="477.71" y="40.81" width="31.37" height="31.37" fill="#fff"/>
      <path d="M523.34,69.1V99.47H493V69.1h30.38m1-1H492v32.37h32.38V68.1Z" transform="translate(-14.75 -27.79)"/>
    </g>
    <text id="letter-9-1" transform="translate(480.4 66.3)" font-size="24.09" font-family="PTMono-Bold, PT Mono" font-weight="700">W</text>
    <g id="space-9-2">
      <rect x="477.71" y="72.53" width="31.37" height="31.37" fill="#fff"/>
      <path d="M523.34,100.82V131.2H493V100.82h30.38m1-1H492V132.2h32.38V99.82Z" transform="translate(-14.75 -27.79)"/>
    </g>
    <text id="letter-9-2" transform="translate(480.4 98.03)" font-size="24.09" font-family="PTMono-Bold, PT Mono" font-weight="700">W</text>
  </g>
  <g id="col-8">
    <g id="space-8-1">
      <rect x="445.99" y="40.81" width="31.37" height="31.37" fill="#fff"/>
      <path d="M491.61,69.1V99.47H461.24V69.1h30.37m1-1H460.24v32.37h32.37V68.1Z" transform="translate(-14.75 -27.79)"/>
    </g>
    <text id="letter-8-1" transform="translate(448.67 66.3)" font-size="24.09" font-family="PTMono-Bold, PT Mono" font-weight="700">W</text>
    <g id="space-8-2">
      <rect x="445.99" y="72.53" width="31.37" height="31.37" fill="#fff"/>
      <path d="M491.61,100.82V131.2H461.24V100.82h30.37m1-1H460.24V132.2h32.37V99.82Z" transform="translate(-14.75 -27.79)"/>
    </g>
    <text id="letter-8-2" transform="translate(448.67 98.03)" font-size="24.09" font-family="PTMono-Bold, PT Mono" font-weight="700">W</text>
  </g>
  <g id="col-7">
    <g id="space-7-1">
      <rect x="414.26" y="40.81" width="31.37" height="31.37" fill="#fff"/>
      <path d="M459.88,69.1V99.47H429.51V69.1h30.37m1-1H428.51v32.37h32.37V68.1Z" transform="translate(-14.75 -27.79)"/>
    </g>
    <text id="letter-7-1" transform="translate(416.94 66.3)" font-size="24.09" font-family="PTMono-Bold, PT Mono" font-weight="700">W</text>
    <g id="space-7-2">
      <rect x="414.26" y="72.53" width="31.37" height="31.37" fill="#fff"/>
      <path d="M459.88,100.82V131.2H429.51V100.82h30.37m1-1H428.51V132.2h32.37V99.82Z" transform="translate(-14.75 -27.79)"/>
    </g>
    <text id="letter-7-2" transform="translate(416.94 98.03)" font-size="24.09" font-family="PTMono-Bold, PT Mono" font-weight="700">W</text>
  </g>
  <g id="col-6">
    <g id="space-6-1">
      <rect x="382.53" y="40.81" width="31.37" height="31.37" fill="#fff"/>
      <path d="M428.16,69.1V99.47H397.78V69.1h30.38m1-1H396.78v32.37h32.38V68.1Z" transform="translate(-14.75 -27.79)"/>
    </g>
    <text id="letter-6-1" transform="translate(385.22 66.3)" font-size="24.09" font-family="PTMono-Bold, PT Mono" font-weight="700">W</text>
    <g id="space-6-2">
      <rect x="382.53" y="72.53" width="31.37" height="31.37" fill="#fff"/>
      <path d="M428.16,100.82V131.2H397.78V100.82h30.38m1-1H396.78V132.2h32.38V99.82Z" transform="translate(-14.75 -27.79)"/>
    </g>
    <text id="letter-6-2" transform="translate(385.22 98.03)" font-size="24.09" font-family="PTMono-Bold, PT Mono" font-weight="700">W</text>
  </g>
  <g id="col-5">
    <g id="space-5-1">
      <rect x="350.81" y="40.81" width="31.37" height="31.37" fill="#fff"/>
      <path d="M396.43,69.1V99.47H366.06V69.1h30.37m1-1H365.06v32.37h32.37V68.1Z" transform="translate(-14.75 -27.79)"/>
    </g>
    <text id="letter-5-1" transform="translate(353.49 66.3)" font-size="24.09" font-family="PTMono-Bold, PT Mono" font-weight="700">W</text>
    <g id="space-5-2">
      <rect x="350.81" y="72.53" width="31.37" height="31.37" fill="#fff"/>
      <path d="M396.43,100.82V131.2H366.06V100.82h30.37m1-1H365.06V132.2h32.37V99.82Z" transform="translate(-14.75 -27.79)"/>
    </g>
    <text id="letter-5-2" transform="translate(353.49 98.03)" font-size="24.09" font-family="PTMono-Bold, PT Mono" font-weight="700">W</text>
  </g>
  <g id="col-4">
    <g id="space-4-1">
      <rect x="319.34" y="40.81" width="31.37" height="31.37" fill="#fff"/>
      <path d="M365,69.1V99.47H334.59V69.1H365m1-1H333.59v32.37H366V68.1Z" transform="translate(-14.75 -27.79)"/>
    </g>
    <text id="letter-4-1" transform="translate(322.54 66.3)" font-size="24.09" font-family="PTMono-Bold, PT Mono" font-weight="700">W</text>
    <g id="space-4-2">
      <rect x="319.34" y="72.53" width="31.37" height="31.37" fill="#fff"/>
      <path d="M365,100.82V131.2H334.59V100.82H365m1-1H333.59V132.2H366V99.82Z" transform="translate(-14.75 -27.79)"/>
    </g>
    <text id="letter-4-2" transform="translate(322.54 98.03)" font-size="24.09" font-family="PTMono-Bold, PT Mono" font-weight="700">W</text>
  </g>
  <g id="col-3">
    <g id="space-3-1">
      <rect x="287.62" y="40.81" width="31.37" height="31.37" fill="#fff"/>
      <path d="M333.24,69.1V99.47H302.86V69.1h30.38m1-1H301.86v32.37h32.38V68.1Z" transform="translate(-14.75 -27.79)"/>
    </g>
    <text id="letter-3-1" transform="translate(290.81 66.3)" font-size="24.09" font-family="PTMono-Bold, PT Mono" font-weight="700">W</text>
    <g id="space-3-2">
      <rect x="287.62" y="72.53" width="31.37" height="31.37" fill="#fff"/>
      <path d="M333.24,100.82V131.2H302.86V100.82h30.38m1-1H301.86V132.2h32.38V99.82Z" transform="translate(-14.75 -27.79)"/>
    </g>
    <text id="letter-3-2" transform="translate(290.81 98.03)" font-size="24.09" font-family="PTMono-Bold, PT Mono" font-weight="700">W</text>
  </g>
  <g id="col-2">
    <g id="space-2-1">
      <rect x="256.4" y="40.81" width="31.37" height="31.37" fill="#fff"/>
      <path d="M302,69.1V99.47H271.65V69.1H302m1-1H270.65v32.37H303V68.1Z" transform="translate(-14.75 -27.79)"/>
    </g>
    <text id="letter-2-1" transform="translate(257.38 66.2) rotate(1.04)" font-size="24.09" font-family="PTMono-Bold, PT Mono" font-weight="700">W</text>
    <g id="space-2-2">
      <rect x="256.4" y="72.53" width="31.37" height="31.37" fill="#fff"/>
      <path d="M302,100.82V131.2H271.65V100.82H302m1-1H270.65V132.2H303V99.82Z" transform="translate(-14.75 -27.79)"/>
    </g>
    <text id="letter-2-2" transform="translate(259.08 97.93) rotate(1.04)" font-size="24.09" font-family="PTMono-Bold, PT Mono" font-weight="700">W</text>
  </g>
  <g id="col-1">
    <g id="space-1-1">
      <rect x="224.67" y="40.81" width="31.37" height="31.37" fill="#fff"/>
      <path d="M270.29,69.1V99.47H239.92V69.1h30.37m1-1H238.92v32.37h32.37V68.1Z" transform="translate(-14.75 -27.79)"/>
    </g>
    <text id="letter-1-1" transform="translate(227.06 66.3)" font-size="24.09" font-family="PTMono-Bold, PT Mono" font-weight="700">W</text>
    <g id="space-1-2">
      <rect x="224.67" y="72.53" width="31.37" height="31.37" fill="#fff"/>
      <path d="M270.29,100.82V131.2H239.92V100.82h30.37m1-1H238.92V132.2h32.37V99.82Z" transform="translate(-14.75 -27.79)"/>
    </g>
    <text id="letter-1-2" transform="translate(227.06 98.03)" font-size="24.09" font-family="PTMono-Bold, PT Mono" font-weight="700">W</text>
  </g>
  <g id="row">
    <text id="num-row-2" transform="translate(212.48 61.57)" font-size="15.54" fill="#2d2d2d" font-family="Biryani-SemiBold, Biryani" font-weight="600">1</text>
    <text id="num-row-2-2" data-name="num-row-2" transform="translate(212.48 95.24)" font-size="15.54" fill="#2d2d2d" font-family="Biryani-SemiBold, Biryani" font-weight="600">2</text>
  </g>
  <g id="coloumns">
    <text id="num-col-1" transform="translate(236.32 34.88)" font-size="15.54" fill="#2d2d2d" font-family="Biryani-SemiBold, Biryani" font-weight="600">1</text>
    <text id="num-col-2" transform="translate(267.47 34.88)" font-size="15.54" fill="#2d2d2d" font-family="Biryani-SemiBold, Biryani" font-weight="600">2</text>
    <text id="num-col-3" transform="translate(298.69 34.88)" font-size="15.54" fill="#2d2d2d" font-family="Biryani-SemiBold, Biryani" font-weight="600">3</text>
    <text id="num-col-4" transform="translate(330.41 34.88)" font-size="15.54" fill="#2d2d2d" font-family="Biryani-SemiBold, Biryani" font-weight="600">4</text>
    <text id="num-col-5" transform="translate(361.88 34.88)" font-size="15.54" fill="#2d2d2d" font-family="Biryani-SemiBold, Biryani" font-weight="600">5</text>
    <text id="num-col-6" transform="translate(393.6 34.88)" font-size="15.54" fill="#2d2d2d" font-family="Biryani-SemiBold, Biryani" font-weight="600">6</text>
    <text id="num-col-7" transform="translate(425.33 34.88)" font-size="15.54" fill="#2d2d2d" font-family="Biryani-SemiBold, Biryani" font-weight="600">7</text>
    <text id="num-col-8" transform="translate(457.06 34.88)" font-size="15.54" fill="#2d2d2d" font-family="Biryani-SemiBold, Biryani" font-weight="600">8</text>
    <text id="num-col-9" transform="translate(488.78 34.88)" font-size="15.54" fill="#2d2d2d" font-family="Biryani-SemiBold, Biryani" font-weight="600">9</text>
    <text id="num-col-10" transform="translate(515.13 34.88)" font-size="15.54" fill="#2d2d2d" font-family="Biryani-SemiBold, Biryani" font-weight="600">10</text>
    <text id="num-col-11" transform="translate(546.85 34.88)" font-size="15.54" fill="#2d2d2d" font-family="Biryani-SemiBold, Biryani" font-weight="600">11</text>
    <text id="num-col-12" transform="translate(578.74 34.88)" font-size="15.54" fill="#2d2d2d" font-family="Biryani-SemiBold, Biryani" font-weight="600">12</text>
    <text id="num-col-13" transform="translate(610.52 34.88)" font-size="15.54" fill="#2d2d2d" font-family="Biryani-SemiBold, Biryani" font-weight="600">13</text>
    <text id="num-col-14" transform="translate(642.26 34.88)" font-size="15.54" fill="#2d2d2d" font-family="Biryani-SemiBold, Biryani" font-weight="600">14</text>
    <text id="num-col-15" transform="translate(674 34.88)" font-size="15.54" fill="#2d2d2d" font-family="Biryani-SemiBold, Biryani" font-weight="600">15</text>
    <text id="num-col-16" transform="translate(705.73 34.88)" font-size="15.54" fill="#2d2d2d" font-family="Biryani-SemiBold, Biryani" font-weight="600">16</text>
  </g>
</svg>
