<?xml version="1.0" encoding="UTF-8" standalone="no"?>
<!-- Created with Fritzing (https://fritzing.org/) -->

<svg
   height="34"
   version="1.2"
   viewBox="0 0 20.400046 25.499968"
   width="27.199997"
   x="0"
   y="0"
   id="svg26"
   sodipodi:docname="push_button.svg"
   inkscape:version="1.3.2 (091e20e, 2023-11-25)"
   inkscape:export-filename="push_button.png"
   inkscape:export-xdpi="96"
   inkscape:export-ydpi="96"
   xmlns:inkscape="http://www.inkscape.org/namespaces/inkscape"
   xmlns:sodipodi="http://sodipodi.sourceforge.net/DTD/sodipodi-0.dtd"
   xmlns="http://www.w3.org/2000/svg"
   xmlns:svg="http://www.w3.org/2000/svg">
  <defs
     id="defs26" />
  <sodipodi:namedview
     id="namedview26"
     pagecolor="#ffffff"
     bordercolor="#000000"
     borderopacity="0.25"
     inkscape:showpageshadow="2"
     inkscape:pageopacity="0.0"
     inkscape:pagecheckerboard="0"
     inkscape:deskcolor="#d1d1d1"
     inkscape:document-units="px"
     inkscape:zoom="21.392932"
     inkscape:cx="13.532507"
     inkscape:cy="22.25034"
     inkscape:window-width="1728"
     inkscape:window-height="973"
     inkscape:window-x="0"
     inkscape:window-y="38"
     inkscape:window-maximized="0"
     inkscape:current-layer="svg26" />
  <rect
     style="opacity:0.912209;fill:#d7a41c;fill-opacity:1;stroke-width:1.07775255;stroke-linecap:round;stroke-linejoin:round;paint-order:stroke fill markers;stroke-dasharray:none"
     id="PIN_4"
     width="2.5412927"
     height="8.7962503"
     x="16.46629"
     y="16.438391"
     inkscape:label="PIN_4" />
  <rect
     style="opacity:0.912209;fill:#d7a41c;fill-opacity:1;stroke-width:0.70255;stroke-linecap:round;stroke-linejoin:round;paint-order:fill markers stroke"
     id="PIN_3"
     width="2.5412927"
     height="8.7962503"
     x="16.46629"
     y="0.17656375"
     inkscape:label="PIN_3" />
  <rect
     style="opacity:0.912209;fill:#d7a41c;fill-opacity:1;stroke-width:0.70255;stroke-linecap:round;stroke-linejoin:round;paint-order:fill markers stroke"
     id="PIN_2"
     width="2.5412927"
     height="8.7962503"
     x="2.0214808"
     y="0.19182827"
     inkscape:label="PIN_2" />
  <rect
     style="opacity:0.912209;fill:#d7a41c;fill-opacity:1;stroke-width:0.70255;stroke-linecap:round;stroke-linejoin:round;paint-order:fill markers stroke"
     id="PIN_1"
     width="2.5412927"
     height="8.7962503"
     x="2.0214808"
     y="16.509672"
     inkscape:label="PIN_1" />
  <polygon
     fill="#8c8c8c"
     points="16.9819,15.4706 16.9819,23.7449 14.8219,23.7449 14.8219,15.4706 "
     id="polygon11"
     style="display:none"
     transform="translate(0.21035032,-0.80634291)" />
  <polygon
     fill="#8c8c8c"
     points="2.58048,0.00072 2.58048,8.27496 0.42192,8.27496 0.42192,0.00072 "
     id="polygon12"
     style="display:none"
     transform="translate(0.21035032,-0.80634291)" />
  <polygon
     fill="#8c8c8c"
     points="16.9819,8.27568 14.8219,8.27568 14.8219,0 16.9819,0 "
     id="polygon13"
     style="display:none"
     transform="translate(0.21035032,-0.80634291)" />
  <polygon
     fill="#8c8c8c"
     points="2.58192,15.4706 2.58192,23.7463 0.42264,23.7463 0.42264,15.4706 "
     id="polygon14"
     inkscape:label="polygon14"
     style="display:none"
     transform="translate(0.21035032,-0.80634291)" />
  <rect
     height="17.6544"
     width="17.653"
     x="0.21899033"
     y="2.2406971"
     id="rect14"
     style="display:none" />
  <path
     d="m 20.150045,20.75482 c 0,0.883981 -0.719432,1.604975 -1.605875,1.604975 l -16.4746984,2.3e-5 c -0.8840345,0 -1.60507254,-0.720995 -1.60507254,-1.604976 V 4.277973 c 0,-0.8831782 0.72103804,-1.6041726 1.60507254,-1.6041726 H 18.546534 c 0.88564,0 1.603467,0.7209944 1.603467,1.6041726 z"
     fill="#999999"
     id="path14"
     style="display:inline;stroke-width:0.37500089;fill:#fffcfc;fill-opacity:1;stroke:#000000;stroke-opacity:1;stroke-dasharray:none" />
  <rect
     style="opacity:0.912209;fill:#d39b07;fill-opacity:1;stroke:none;stroke-width:0.382734;stroke-linecap:round;stroke-linejoin:round;stroke-dasharray:none;stroke-opacity:1;paint-order:fill markers stroke"
     id="rect2"
     width="1.0868101"
     height="11.393977"
     x="2.5192559"
     y="7.011632"
     inkscape:label="rect2" />
  <rect
     style="display:none;opacity:0.912209;fill:#d39b07;fill-opacity:1;stroke:none;stroke-width:0.405603;stroke-linecap:round;stroke-linejoin:round;stroke-dasharray:none;stroke-opacity:1;paint-order:fill markers stroke"
     id="TOP_WIRE"
     width="1.0868101"
     height="12.796312"
     x="4.9732537"
     y="-16.482473"
     inkscape:label="TOP_WIRE"
     transform="rotate(90)" />
  <rect
     style="display:none;opacity:0.912209;fill:#d39b07;fill-opacity:1;stroke:none;stroke-width:0.405603;stroke-linecap:round;stroke-linejoin:round;stroke-dasharray:none;stroke-opacity:1;paint-order:fill markers stroke"
     id="BOTTOM_WIRE"
     width="1.0868101"
     height="12.796312"
     x="19.049196"
     y="-16.840565"
     inkscape:label="BOTTOM_WIRE"
     transform="rotate(90)" />
  <rect
     style="opacity:0.912209;fill:#d39b07;fill-opacity:1;stroke:none;stroke-width:0.392042;stroke-linecap:round;stroke-linejoin:round;stroke-dasharray:none;stroke-opacity:1;paint-order:fill markers stroke"
     id="rect2-7"
     width="1.0868101"
     height="11.954911"
     x="17.11804"
     y="6.6310191"
     inkscape:label="rect2" />
  <ellipse
     cx="3.3316898"
     cy="5.5409174"
     id="circle14"
     style="display:inline;stroke-width:1.11516"
     rx="1.7054397"
     ry="1.7053366" />
  <ellipse
     cx="17.330954"
     cy="5.5706248"
     id="circle15"
     style="display:inline;stroke-width:1.11516"
     rx="1.7054397"
     ry="1.7053366" />
  <ellipse
     cx="17.301178"
     cy="19.568996"
     id="circle16"
     style="display:inline;stroke-width:1.11516"
     rx="1.7054397"
     ry="1.7053366" />
  <ellipse
     cx="3.301981"
     cy="19.537663"
     id="circle17"
     style="display:inline;stroke-width:1.11516"
     rx="1.7054397"
     ry="1.7053366" />
  <ellipse
     cx="10.306809"
     cy="12.516397"
     fill="#3f3f3f"
     id="circle18"
     style="display:inline;stroke-width:0.86653"
     rx="4.5139608"
     ry="4.4084387" />
  <circle
     cx="9.0447502"
     cy="11.067157"
     fill="url(#SVGID_1_)"
     r="5.1479998"
     id="circle19"
     style="display:none;fill:url(#SVGID_1_)" />
  <circle
     cx="9.1347504"
     cy="11.679157"
     enable-background="new    "
     opacity="0.6"
     r="4.5302401"
     id="circle20"
     style="display:none" />
  <ellipse
     cx="10.312491"
     cy="12.542343"
     fdata-push-off="transform:scale(1.0)"
     fdata-push-on="transform:translate(12.279 16.533) scale(0.9) translate(-12.279 -16.533)"
     fill="#735348"
     fpush="push"
     id="HIDE_PRESSED"
     style="display:inline;stroke-width:0.86653"
     inkscape:label="HIDE_PRESSED"
     rx="3.8712738"
     ry="3.7807758" />
  <path
     d="M 3.1108818,5.451797 C 3.1446048,5.371508 3.2064318,5.3096856 3.2939516,5.2944307 L 3.1253347,4.2201649 c -0.064235,0.010438 -0.1324847,0.00161 -0.1959168,0.020875 l -0.00161,-0.00482 C 2.5303578,4.3590648 2.2332709,4.6553309 2.0815156,5.0334917 Z"
     enable-background="new    "
     fill="#ffffff"
     opacity="0.5"
     id="path21"
     style="display:inline;stroke-width:1.11516" />
  <path
     d="m 17.108473,5.480701 c 0.03292,-0.081895 0.09475,-0.1437172 0.183872,-0.1581692 L 17.126137,4.2482661 c -0.06584,0.012043 -0.133287,0.00161 -0.19672,0.020875 l -0.0025,-0.00562 C 16.531069,4.3855602 16.233179,4.6818263 16.081424,5.06079 Z"
     enable-background="new    "
     fill="#ffffff"
     opacity="0.5"
     id="path22"
     style="display:inline;stroke-width:1.11516" />
  <path
     d="m 17.08115,19.479118 c 0.03292,-0.08189 0.09314,-0.14452 0.182267,-0.158169 l -0.166208,-1.073463 c -0.06584,0.01204 -0.133287,0.0016 -0.197523,0.02088 l -0.0016,-0.008 c -0.396651,0.122039 -0.694541,0.418306 -0.845493,0.798072 z"
     enable-background="new    "
     fill="#ffffff"
     opacity="0.5"
     id="path23"
     style="display:inline;stroke-width:1.11516" />
  <path
     d="m 3.0811731,19.449344 c 0.03292,-0.08189 0.094747,-0.141308 0.1838728,-0.156563 l -0.168617,-1.075069 c -0.065841,0.01365 -0.1332876,0.0016 -0.1967197,0.02168 l -0.00161,-0.0056 C 2.5006451,18.354225 2.2035581,18.652097 2.050197,19.030258 Z"
     enable-background="new    "
     fill="#ffffff"
     opacity="0.5"
     id="path24"
     style="display:inline;stroke-width:1.11516" />
  <path
     d="m 10.63095,6.9826171 c -0.342,-0.1332 -0.7019997,-0.22896 -1.0828797,-0.27216 -0.94752,-0.10584 -1.85472,0.1044 -2.63016,0.53424 l -0.09652,0.25056 c 0.86616,-0.46296 1.87488,-0.67752 2.92464,-0.56016 0.3225597,0.03744 0.6364797,0.10944 0.9367197,0.20448 z"
     enable-background="new    "
     fill="#ffffff"
     opacity="0.6"
     id="path25"
     style="display:none" />
</svg>
