<svg id="svg2985" xmlns="http://www.w3.org/2000/svg" width="308" height="232.2" viewBox="0 0 308 232.2">
  <title>bluetooth</title>
  <rect id="rect3336" x="251.3" y="87.6" width="56.7" height="128" fill="#0a73b1"/>
  <g id="text3064">
    <text id="tspan3066" transform="translate(298.55 199.15) rotate(90) scale(1.04 1)" font-size="4.94" fill="#fff" font-family="Biryani-Light, Biryani" font-weight="300" style="isolation: isolate">VCC</text>
  </g>
  <g id="text3064-1">
    <text id="tspan3066-7" transform="translate(284.84 199.15) rotate(90) scale(1.04 1)" font-size="4.94" fill="#fff" font-family="Biryani-Light, Biryani" font-weight="300" style="isolation: isolate">GND</text>
  </g>
  <g id="text3064-1-4">
    <text id="tspan3066-7-0" transform="translate(271.08 199.15) rotate(90) scale(1.04 1)" font-size="4.94" fill="#fff" font-family="Biryani-Light, Biryani" font-weight="300" style="isolation: isolate">TXD</text>
  </g>
  <g id="text3064-1-4-9">
    <text id="tspan3066-7-0-4" transform="translate(256.95 199.15) rotate(90) scale(1.04 1)" font-size="4.94" fill="#fff" font-family="Biryani-Light, Biryani" font-weight="300" style="isolation: isolate">RXD</text>
  </g>
  <rect id="rect3450" x="270.5" y="126.5" width="27.9" height="28.8" fill="#28220b" fill-opacity="0"/>
  <path id="path3452" d="M295.73,134.1H309v27.8h-26.7V134.1Zm-4,3.1a1.07,1.07,0,0,0,1.1.1c.2-.1.2-.1.3,0a1.23,1.23,0,0,0,1-.1c.3-.2.3-.3.3-1v-.8h-2.8v.8C291.33,136.8,291.43,137,291.73,137.2Zm-.1,2.7c.1,0,.2-.1.2-.3s.1-.3,1.2-.3h1.2v-.5c0-.4,0-.5-.2-.5s-.2.1-.3.3-.2.3-1,.3-.9,0-.9-.3c0-.1-.1-.3-.2-.3s-.2.2-.2.8S291.43,139.9,291.63,139.9Zm.8,3c.9,0,1,0,1-.3s-.1-.3-.7-.3-.7,0-.8-.4-.2-.5.4-.5,1.1-.1,1.1-.3-.1-.2-.7-.2c-1.2,0-1.2,0-1.2,1v.9C291.43,142.9,292.43,142.9,292.43,142.9Zm-.8,2.7c.1,0,.2-.1.2-.5q0-.9.3-.9c.1,0,.1.3.1.7v.7h.4a.78.78,0,0,0,.9-.7v-.2c0-.7-.3-1-1.1-1a1.08,1.08,0,0,0-.8.2,2.77,2.77,0,0,0-.1.9C291.33,145.4,291.43,145.6,291.63,145.6Zm.2,2.7c.4,0,.5-.2.2-.5s-.1-.5.5-.5.5,0,.6.4.1.4.2.4.2-.1.2-.4.1-.4.3-.4a.3.3,0,1,0,0-.6h0a.52.52,0,0,1-.4-.2c-.2-.2-.2-.2-.3,0s-.3.2-.8.2c-.7,0-.9.2-.9.9S291.43,148.3,291.83,148.3Zm0,2.8a1.54,1.54,0,0,0,1.6-.1,1.39,1.39,0,0,0-.1-1.4,1.6,1.6,0,0,0-1.5-.1,1.14,1.14,0,0,0-.3.8C291.33,150.8,291.43,150.9,291.83,151.1Zm-.2,2.7c.1.2.4.2.8.2.7,0,1-.3,1-1s-.5-1-1.2-.9a1.85,1.85,0,0,0-.7.2A2,2,0,0,0,291.63,153.8Zm0,2.8c.2.2.6.2.6,0s-.1-.2-.2-.4c-.3-.3-.1-.5.5-.5s.5,0,.5.4c0,.2.1.4.2.4s.3,0,.3-.4.1-.4.3-.4c.4-.1.4-.5,0-.5-.2,0-.3-.1-.3-.2a.2.2,0,1,0-.4,0h0c0,.1-.2.2-.6.2-.7,0-.9.1-.9.8A.38.38,0,0,0,291.63,156.6Zm.5,1.5c.6,0,.9.2.9.7,0,.2-.1.2-.6.2-.7,0-1,.1-1,.3s.2.2.9.2c1.1,0,1.2-.1,1.1-.9-.1-.5-.1-.5.3-.5s.4,0,.4-.3-.1-.3-1.4-.3-1.4,0-1.4.3S291.43,158.1,292.13,158.1Zm5.1-21.8a3.4,3.4,0,0,0,1,.1h1v1.8h-.9c-1,0-1.3.1-1.1.5.1.2.4.2,2.5.2H302v-.3c0-.4-.2-.5-1.2-.5H300v-1.8h1c1,0,1,0,1-.3v-.3h-2.3c-2.4,0-2.6,0-2.5.6Zm0,7c0,.1.2.2.4.2s.3,0,.3-.7c0-.9.1-.9,1.1-1.4l.7-.4.8.4.8.4.1.8c.1.8.1.8.4.9h.3v-1c0-.9,0-1-.3-1.2a5.54,5.54,0,0,0-2.2-1,5.64,5.64,0,0,0-2.4,1.3A2.48,2.48,0,0,0,297.23,143.3Zm0,9c.1.4.6.5,2.4.5,2.4,0,2.4,0,2.4-1.6,0-1.8.1-1.7-2.4-1.7s-2.4,0-2.4,1.5A1.48,1.48,0,0,0,297.23,152.3Zm.1,4.9c.1.2.3.2,1.3.2,1.3,0,1.4-.1,1.4-1.2v-.7h1.4v.9c0,.9.2,1.2.5,1.1.1-.2.1-.4.1-1.5v-1.3h-2.8v1.9h-1.4V156c0-.3.1-.8.1-1.1.1-.5.1-.6,0-.7-.3-.2-.4-.1-.6.4A3,3,0,0,0,297.33,157.2Zm2.3-9.5h.4v-2.4h-.3c-.2,0-.4,0-.4.1a4.87,4.87,0,0,0-.1,1.2v1.1Z" transform="translate(-11.43 -7)" fill="#28220b" fill-opacity="0"/>
  <rect id="rect3454" x="270.5" y="161.5" width="27.9" height="21.6" fill="#222b00" fill-opacity="0"/>
  <path id="path3456" d="M295.63,168.5H309v21.1h-26.8V168.5Z" transform="translate(-11.43 -7)" fill="#222b00" fill-opacity="0"/>
  <rect id="rect3494" x="270.4" y="126.5" width="28.2" height="28.6" fill-opacity="0"/>
  <path id="path4264" d="M295.73,134.1H309v27.8h-26.7V134.1Zm-4.1,2.9c.2.2.3.3,1.3.3,1.4,0,1.5-.1,1.5-1.2v-.8h-3v.7A1.23,1.23,0,0,0,291.63,137Zm0,2.9c.1,0,.2-.1.2-.3s.1-.3,1.2-.3h1.2v-.4c0-.5-.3-.6-.4-.2s-.1.3-1,.3-1,0-1-.2-.1-.2-.1-.3c-.3-.2-.4.1-.3.8C291.33,139.7,291.43,139.9,291.63,139.9Zm-.2,2.3c.1.2.1.2,0,.2s-.1.1-.1.2.2.2,1,.2a4.1,4.1,0,0,0,1.1-.1c.1-.2-.3-.4-.8-.4a.76.76,0,0,1-.8-.6v-.1c0-.2.1-.2.8-.2.5,0,.8-.1.8-.2.1-.3,0-.3-.9-.3a1.8,1.8,0,0,0-1,.2A1.38,1.38,0,0,0,291.43,142.2Zm.2,3.4c.1,0,.2-.2.2-.6.1-.9.3-1,.3-.2s0,.7.3.8a.92.92,0,0,0,1.1-.7.75.75,0,0,0-.1-.8c-.2-.3-.4-.3-.9-.4-.9-.1-1.1.2-1.1,1.2C291.33,145.4,291.43,145.6,291.63,145.6Zm0,2.6c.3.3.5.2.5-.1,0-.1-.1-.2-.1-.3s-.1-.1-.1-.3.1-.3.6-.3h.6v.5c0,.4,0,.4.2.4s.2-.2.2-.4.1-.4.3-.4.3-.2,0-.4c-.1-.1-.3-.2-.4-.3a.19.19,0,0,0-.3,0c-.1.1-.2.2-.6.2-.7,0-1.1.3-1.1.8A.73.73,0,0,0,291.63,148.2Zm0,2.7a1.14,1.14,0,0,0,.8.3,2.2,2.2,0,0,0,.8-.1,1.36,1.36,0,0,0,.2-1.6,2.48,2.48,0,0,0-1.7,0A1,1,0,0,0,291.63,150.9Zm0,2.8c.2.3,1.5.3,1.7.1a1.23,1.23,0,0,0-.2-1.6c-.1-.1-.4-.1-.8-.1s-.7,0-.8.3A1.06,1.06,0,0,0,291.63,153.7Zm.1,2.9c.3.3.6.1.4-.3s-.2-.6.5-.6h.6v.4c0,.3.1.4.2.4s.3-.3.3-.6q0-.15.3-.3c.3,0,.4-.4,0-.5-.2,0-.3-.1-.4-.3s-.2-.2-.3,0-.3.2-.8.2c-.7,0-1,.2-1,.8S291.53,156.5,291.73,156.6Zm.2,1.5c.6,0,.7,0,.8.4s.1.6-.8.7c-.5,0-.7.1-.7.2s.2.2.9.2c1.2,0,1.4-.3,1-1.2-.1-.2,0-.2.3-.2.5,0,.6-.1.4-.3.1-.3-.2-.3-1.1-.3-1.2,0-1.4,0-1.4.3C291.33,158,291.63,158.1,291.93,158.1Zm5.4-21.8c.1,0,.6.1,1,.1h.8v1.8h-2v.6h2.3c2.4,0,2.7,0,2.5-.5-.1-.2-.3-.2-1.1-.2h-1v-1.8h.8c.9,0,1.3-.1,1.3-.4,0-.1-.1-.2-.2-.3a33.81,33.81,0,0,0-4.5-.1c-.1,0-.2.2-.2.4S297.13,136.2,297.33,136.3Zm0,7.2c.3.1.4-.2.4-1v-.7l.7-.4a3,3,0,0,1,1-.4,5.56,5.56,0,0,1,1.7.9c0,.1.1.5.1.8,0,.7.2.9.5.6a3.08,3.08,0,0,0,0-1.9,3.47,3.47,0,0,0-2.3-1.2,3.84,3.84,0,0,0-2.3,1.1,4.87,4.87,0,0,0-.1,1.2C297.23,143.4,297.23,143.5,297.33,143.5Zm0,9.1c.2.2.5.2,2.3.2,2.5,0,2.5,0,2.5-1.6s.1-1.6-2.5-1.6c-1.5,0-2.2,0-2.3.2A4.47,4.47,0,0,0,297.33,152.6Zm0,4.6c.1.1.4.2,1.2.2,1.3,0,1.4-.1,1.4-1.1v-.7h1.4v.9c0,.8.1.9.3.9.4.1.4-.2.4-1.4v-1.2h-2.9v1.8h-1.4l.1-.8c0-.5.1-1,.1-1.2s0-.4-.2-.4c-.4-.1-.6.5-.6,1.7C297.13,156.8,297.13,157.1,297.33,157.2Zm2.2-9.5h.4v-1c0-1.1-.1-1.4-.6-1.2-.2.1-.2.3-.2,1.2v1.1Z" transform="translate(-11.43 -7)" fill-opacity="0"/>
  <rect id="rect4270" x="255.1" y="87.8" width="52" height="25.6" fill-opacity="0"/>
  <path id="path4272" d="M291.63,95.8h22.1v24.8h-1.6v1.6c0,1.8,0,1.9,1,1.9h.6v1.8h-1.6v1.7c0,1.9,0,2,1,2h.6v.6c0,.5,0,.6-.2.6a.22.22,0,0,0-.2.2c0,.1-.1.2-.3.2a.37.37,0,0,0-.3.1.37.37,0,0,1-.3.1h-.3V133c0,1.9.1,2.1,1,2.1h.6v.6c0,.5,0,.6-.2.6a.22.22,0,0,0-.2.2c0,.1-.1.2-.4.2-.7,0-.8.2-.8,1.9s.1,2,1,2h.6v.6c0,.5,0,.6-.2.6s-.1,0-.2.1a.9.9,0,0,1-.5.1c-.3,0-.5.1-.5.2s0,.1-.1.2-.1.6-.1,1.6c0,1.8,0,1.9,1,1.9h.6v1.3l-.5.1c-.3,0-.5.1-.5.2s0,.1-.1.1c-.4,0-.5.4-.5,1.9,0,1,0,1.6.1,1.6s.1.1.1.2.2.2.7.2h.7v1.2h-.6c-.5,0-.6,0-.7.3s-.1.3-.2.3-.1.6-.1,1.6c0,1.9.1,2.1,1,2.1h.6v.5c0,.6-.1.7-.9.7-.2,0-.3.1-.4.3s-.1.3-.2.3-.1.6-.1,1.4,0,1.4.1,1.4.1.1.1.3,0,.3.7.3h.7v.6c0,.7-.1.8-.9.8-.2,0-.3.1-.4.3s-.1.3-.2.3a11.3,11.3,0,0,0,0,3c.1,0,.1.1.2.3s.1.3.7.3h.6V169h-.6c-.5,0-.6,0-.7.3s-.1.3-.2.3a11.3,11.3,0,0,0,0,3c.1,0,.1.1.2.3s.2.3.4.3c.7,0,.9.1.9.6s-.2.6-.9.6c-.2,0-.3.1-.4.3s-.1.3-.2.3a11.3,11.3,0,0,0,0,3c.1,0,.1.1.2.3s.2.3.4.3c.7,0,.9.1.9.8v.6h-.6c-.5,0-.6,0-.7.3s-.1.3-.2.3a11.3,11.3,0,0,0,0,3c.1,0,.1.1.2.3s.2.3.4.3c.7,0,.9.1.9.7s-.1.7-.9.7c-.2,0-.3.1-.4.3s-.1.3-.2.3-.1.6-.1,1.4,0,1.4.1,1.4.1.1.1.2.1.2.5.2a.9.9,0,0,1,.5.1c0,.1.1.1.2.1s.2.3.2,1.6,0,1.6-.2,1.6-.1,0-.2.1-.4.1-.9.1h-.9v-.6c0-.5,0-.6-.2-.6a.22.22,0,0,1-.2-.2.22.22,0,0,0-.2-.2c-.1,0-.1,0-.2-.1s-.5-.1-1.3-.1c-1.6,0-1.7.1-1.7,1.2v.7h-1.5v-.6a1.27,1.27,0,0,0-.1-.6c-.1,0-.1-.1-.1-.2a.22.22,0,0,0-.2-.2c-.1,0-.1,0-.2-.1s-.5-.1-1.4-.1h-1.4v1.8h-.9c-1.1,0-1.3-.1-1.3-1,0-.5,0-.6-.2-.6s-.1,0-.2-.1-.5-.1-1.4-.1h-1.4v.8c0,.6,0,.8-.2.8s-.1,0-.2.1-.4.1-.9.1h-.9v-.8c0-.6,0-.8-.2-.8s-.1,0-.2-.1-.5-.1-1.3-.1c-1.6,0-1.7.1-1.7,1.2v.7H290v-.8c0-.6,0-.8-.2-.8s-.1,0-.2-.1-.5-.1-1.3-.1c-1.6,0-1.8.1-1.8,1.2v.7H285v-.8c0-.6,0-.8-.2-.8s-.1,0-.2-.1-.5-.1-1.4-.1-1.4,0-1.4.1-.1.2-.2.3a1.08,1.08,0,0,0-.2.8v.6h-.6a1.27,1.27,0,0,1-.6-.1c0-.1-.1-.1-.2-.1s-.2-.1-.2-.5a.9.9,0,0,0-.1-.5c-.1,0-.1,0-.1-.1,0-.4-.4-.5-1.7-.5-1.7,0-1.8.1-1.8,1.2v.7h-.5c-.7,0-.9-.2-.9-.8,0-.3-.1-.4-.2-.4s-.1,0-.2-.1c0-.4-.4-.5-1.7-.5-.8,0-1.3,0-1.3.1s-.1.1-.2.1-.2.2-.2.8v.8h-1.6v-3.8h.8a3.55,3.55,0,0,0,1-.2c.2-.2.4-.2.4-.1s.1.2.3.2.3.1.3.2a42.1,42.1,0,0,0,5.8,0c0-.1.1-.1.2-.1s.2-.2.2-1.1a5.7,5.7,0,0,0-.1-1.3c-.1-.2-.5-.2-3.3-.2s-3.2,0-3.2.2,0,.1-.1.2-.1-.2-.1-.4a.91.91,0,0,0-.4-.8c-.3-.3-.4-.4-1.1-.4h-.7v-1.4h.8a2.2,2.2,0,0,0,.8-.1c.1-.7.2-.7.3-.7s.1,0,.2-.1,0-.1.1-.1.1.3.1.8a2.2,2.2,0,0,0,.1.8c.1,0,.1.1.1.2a.52.52,0,0,0,.2.4c.2.2.6.2,3.1.2,2.9,0,2.9,0,2.9-.3,0-.1.1-.3.2-.3s.2-.2.2-1.3,0-1.3-.2-1.3-.1,0-.2-.1-.5-.1-1.1-.2h-.1c.5,0,1-.1,1-.2a39.25,39.25,0,0,0-5.6,0c0,.1.4.1.9.2h0c-.5,0-.9.1-.9.2s-.1.1-.2.1a.22.22,0,0,0-.2.2c0,.1,0,.1-.1.2s-.1-.4-.1-1c0-1,0-1,.3-.9.1,0,.3.1.3.2a29.08,29.08,0,0,0,5.9,0c0-.1.1-.1.2-.1.3,0,.3-2.3,0-2.6s-.6-.2-3.3-.2c-3,0-3.1,0-3.1.3,0,.1-.1.3-.2.3s-.1.3-.1.8a2.2,2.2,0,0,1-.1.8c-.1,0-.1,0-.1-.1s-.1-.1-.2-.1-.2-.4-.2-.5-.2-.2-.8-.2h-.8v-1.4h.8a2.2,2.2,0,0,0,.8-.1c0-.1,0-.1.1-.1.3,0,.5-.4.5-.8s.2-.6.3-.1l.1.3h3.1c2.6,0,3.1,0,3.1-.2a.22.22,0,0,1,.2-.2c.1,0,.2-.2.2-1.3s0-1.3-.2-1.3-.1,0-.2-.1-.5-.1-1.1-.2H277c.5,0,1-.1,1-.2a39.25,39.25,0,0,0-5.6,0c0,.1.4.1,1,.2h0c-.5,0-1,.1-1,.2s-.1.1-.2.1a.22.22,0,0,0-.2.2c0,.2-.2.2-.4,0a.6.6,0,0,0-.4-.1c-.1,0-.1,0-.1-.1s-.3-.1-.8-.1h-.8v-1.2h.8a2.2,2.2,0,0,0,.8-.1c0-.1,0-.1.1-.1.4,0,.5-.4.5-1.8s-.1-1.8-.5-1.8c-.1,0-.1-.1-.1-.2s-.2-.2-.8-.2h-.8v-1.2h.7c.6,0,.8,0,1.1-.4s.4-.4.4-1.8-.1-1.8-.5-1.8c-.1,0-.1,0-.1-.1s-.3-.1-.8-.1h-.8v-1.4h.7c.6,0,.8,0,1.1-.4s.4-.4.4-1.8c0-.9,0-1.4-.1-1.4a.64.64,0,0,1-.5-.5c0-.1-.3-.1-.8-.1h-.8v-1h.8c.6,0,.8-.1.9-.2s.2-.3.3-.4a8.08,8.08,0,0,0,0-3.1.64.64,0,0,1-.5-.5c0-.1-.3-.1-.8-.1h-.8v-1.2h.9c.7,0,.9,0,.9-.2a.22.22,0,0,1,.2-.2c.2,0,.2-.3.2-1.5s0-1.5-.2-1.8a.76.76,0,0,0-.5-.2c-.1,0-.1,0-.2-.1a1.27,1.27,0,0,0-.6-.1h-.6v-1.5h.8c.7,0,.9,0,1.1-.3s.2-.4.2-1.1c0-.9.1-1,.4-.7s.8.2,4,.2a26.73,26.73,0,0,0,4-.1c.2-.1.2-.7.2-6V132h-4c-3.4,0-4,0-4.2.2s-.4.2-.4-.2-.2-.6-.4-.6H271c-.1,0-.1,0-.2-.1a1.7,1.7,0,0,0-.7-.1h-.7v-1.6h.8a2.2,2.2,0,0,0,.8-.1c0-.1.1-.1.3-.2s.3-.1.3-1.6c0-1.8.1-1.7-1.3-1.7h-.9v-1.8h.8a2.2,2.2,0,0,0,.8-.1c0-.1.1-.1.3-.2s.3-.1.3-1.6v-1.6h-2.2v-21H271v4.6c0,5,0,5,.6,5,.1,0,.1,0,.2.1a36.5,36.5,0,0,0,5.4,0c0-.1.3-.1.7-.1h.7v-.5c0-.4.1-.5.2-.5s.2-.5.2-4a26.73,26.73,0,0,1,.1-4c.1,0,.1-.1.1-.2a.22.22,0,0,1,.2-.2c.1,0,.1,0,.2-.1s.1-.1.3-.1.3.1.3.2,0,.1-.1.2a24.13,24.13,0,0,0-.1,3.8,24.13,24.13,0,0,0,.1,3.8c.1,0,.1.4.1.8,0,.6,0,.8.2.8s.1,0,.2.1.2.1.5.1.5.1.5.2.4.2,2.6.2,2.6,0,2.6-.2.1-.2.3-.2a.37.37,0,0,0,.3-.1c0-.1.2-.1.4-.1h.4v-.8a2.2,2.2,0,0,1,.1-.8,26.73,26.73,0,0,0,.1-4,26.73,26.73,0,0,1,.1-4c.1,0,.1,1.9.2,4.6,0,3.5.1,4.6.2,4.6a.22.22,0,0,1,.2.2c0,.1.1.2.3.2a.37.37,0,0,1,.3.1c0,.1.1.1.2.1a.22.22,0,0,1,.2.2c0,.2.4.2,2.8.2s2.8,0,2.8-.2.1-.2.5-.2a.9.9,0,0,0,.5-.1c0-.1.1-.1.3-.1s.3-.1.3-.2V109a.37.37,0,0,1,.1-.3,29.46,29.46,0,0,0,.1-4.2,33.81,33.81,0,0,1,.1-4.5.27.27,0,0,1,.3-.3c.3,0,.4.5.4,5.1a29.46,29.46,0,0,0,.1,4.2c.1,0,.1.1.1.2a.22.22,0,0,0,.2.2c.1,0,.1,0,.2.1s.1.1.2.1a.22.22,0,0,1,.2.2c0,.2.4.2,3,.2h3v-.4l.4-.4v-4.6c0-5.1,0-4.9.8-4.9h.4v6.4c0,5.6,0,6.4.2,6.4s.1,0,.2.1.5.1,1.3.1c1.1,0,1.4,0,1.5-.2s.2-.9.2-7.8c0-6,0-7.6-.2-7.7a.22.22,0,0,1-.2-.2c0-.1-.6-.2-3.5-.2h-3.5V106h-1.2V97.2l-.4-.3c-.3-.3-.4-.3-3.9-.3-3,0-3.6,0-3.6.2a.22.22,0,0,1-.2.2c-.1,0-.2,1.1-.2,4.5V106h-1.2v-4.4c0-4,0-4.5-.2-4.7s-.6-.2-3.5-.2h-3.3v2.1a7.41,7.41,0,0,1-.1,2.1c-.2,0-.2.1-.2.2s0,.1.1.2a9.66,9.66,0,0,1,.1,2.4v2.4h-1.8v-4.6c0-3.9,0-4.5-.2-4.5a.22.22,0,0,1-.2-.2c0-.2-.5-.2-3.5-.2s-3.5,0-3.5.2-.1.2-.3.2h-.3v9h-1.4v-4.4c0-4.4,0-4.5-.3-4.7s-.5-.2-2.3-.2h-2v-.9Zm-19.2,62.6c.1,0,.1,0,.2.1s.1.2.2.3.2.5.2,1.5,0,1.3-.2,1.5-.2.2-.2.3-.1.1-.2.1-.2.3-.2,2.4,0,2.4.2,2.4a.22.22,0,0,1,.2.2c0,.1,0,.1.1.2s.1.1.1.2.4.2,2.4.2,2.5,0,2.5-.2.1-1.4.1-2.9c0-2.3,0-2.8-.2-2.9s-.2-.5-.2-1.4,0-1.2.2-1.3.3-5.7,0-6-4.9-.3-4.9,0c0,.1,0,.1-.1.2s-.1.1-.1.2a.22.22,0,0,1-.2.2c-.2,0-.2.3-.2,2.4s.1,2.3.3,2.3Zm.5-8.8c0,.1.2.2.4.2a.37.37,0,0,1,.3.1c0,.1.4.1,1,.1a3.4,3.4,0,0,0,1-.1c0-.1.4-.1.8-.1a2.2,2.2,0,0,1,.8.1c0,.1.4.1.9.1a2.77,2.77,0,0,0,.9-.1c0-.1.1-.1.3-.1s.3-.1.3-.2,0-.1.1-.2.1-.4.1-1.1c0-.9,0-1.1-.2-1.1a.22.22,0,0,1-.2-.2,45.05,45.05,0,0,0-6,0c0,.1-.1.1-.2.1s-.3,0-.3.1A4.88,4.88,0,0,0,272.93,149.6Zm.6-20.4c.2,0,.3.1.3.2a14.08,14.08,0,0,0,2.9.1h2.9v-.3a.37.37,0,0,1,.1-.3c.1,0,.1-.5.1-1.1s0-1.1-.1-1.1-.1-.1-.1-.3a.52.52,0,0,0-.2-.4c-.1,0-1.4-.1-2.9-.1-2.3,0-2.7,0-2.7.2a.22.22,0,0,1-.2.2.22.22,0,0,0-.2.2c0,.1,0,.1-.1.2s-.2.5-.2,1.2C273.23,129.1,273.23,129.2,273.53,129.2Zm2.2-4.8c.1,0,.3.1.3.2v.4h3.8v-.3c0-.2.1-.3.1-.4a66.08,66.08,0,0,0,0-8.9c-.1,0-.1-.1-.1-.2s-.4-.2-2-.2-2,0-2,.2a.22.22,0,0,1-.2.2c-.2,0-.2.6-.2,4.5v4.5Zm4.2,42.2c.1.2.4.2,3.1.2,3.7,0,3.5.1,3.5-1.7,0-1.2,0-1.2-.3-1.2a.37.37,0,0,1-.3-.1c0-.1-.4-.1-.8-.1h0c.4,0,.8-.1.8-.2a39.25,39.25,0,0,0-5.6,0c0,.1.4.1.8.2h0a2.2,2.2,0,0,0-.8.1c-.1.1-.1.1-.2.1s-.2.2-.2,1.2Zm1.5,23.5c.2.2.4.3,14,.3,8.9,0,13.8,0,13.8-.1s.1-.2.3-.2l.3-.1V179.2c0-7.6,0-10.7-.1-10.7s-.2-.1-.3-.2-1.9-.2-13.9-.2-13.8,0-13.9.2-.2.2-.3.2-.1,3.2-.1,10.7C281.23,189.6,281.23,189.8,281.43,190.1Zm.1-28c0,.1.2.2.4.2a.37.37,0,0,1,.3.1c0,.1,4.5.1,13.4.1s13.4,0,13.4-.1.2-.1.5-.1h.5V148.1c0-12.9,0-14.2-.2-14.3s-28.1-.1-28.2,0S281.43,161.8,281.53,162.1Zm1-34.6c.1,0,.1.4.1.9a2.77,2.77,0,0,1-.1.9c-.1,0-.1.4-.1.9,0,.8,0,.9.4,1.3s.4.4,1.4.4a3.4,3.4,0,0,0,1-.1c0-.1.1-.1.2-.1a.22.22,0,0,0,.2-.2c0-.1,0-.1.1-.2a14.08,14.08,0,0,0,.1-2.9,14.08,14.08,0,0,0-.1-2.9c-.1,0-.1-.1-.1-.3s-.1-.3-.4-.4a2.44,2.44,0,0,0-1.2,0,1.19,1.19,0,0,0-1.1.4c-.4.4-.4.4-.4,1.4A1.17,1.17,0,0,0,282.53,127.5Zm3.5-8.6a16.08,16.08,0,0,0,3.1-.1c0-.1.1-.1.2-.1s.2-.2.2-1.3v-1.3h-1.2c-.8,0-1.2,0-1.2-.2s-.4-.2-1-.2c-.8,0-.9,0-.9.2s-.2.2-1.1.2h-1.2v2.8Zm-2.7,4.2a4.1,4.1,0,0,0,1.1.1c.6,0,.8,0,.8-.2a.22.22,0,0,1,.2-.2c.1,0,.2,0,.2.1a3.21,3.21,0,0,0,1.7.2c1.4.1,1.7.1,1.8-.1s.2-.1.3-.2.1-.4.1-1.3c0-1.2-.1-1.6-.5-1.6-.1,0-.1-.1-.1-.2s-.4-.2-2.8-.2-2.8,0-2.8.2a.22.22,0,0,1-.2.2c-.2,0-.2.3-.2,1.5C282.93,123,283.13,123,283.33,123.1Zm10.8,43.7c3.7,0,3.5.1,3.5-1.7,0-1.2,0-1.2-.3-1.2a.37.37,0,0,1-.3-.1c0-.1-.4-.1-.9-.2h0c.5,0,.9-.1.9-.2a39.25,39.25,0,0,0-5.6,0c0,.1.4.1.8.2h0a3.55,3.55,0,0,0-1,.2c-.1.1-.2.5-.2,1.6v1.4Zm-1-36c.1,0,.1.1.1.2s.5.2,3.4.2H300V130h1c.7,0,.9,0,.9-.2a.22.22,0,0,1,.2-.2c.1,0,.2-.2.2-.8s0-.8-.2-.8a.22.22,0,0,1-.2-.2c0-.1-.3-.1-.7-.1-1,0-1.1,0-1.1-.7a1.27,1.27,0,0,1,.1-.6c.1,0,.1-.3.1-.6a1.09,1.09,0,0,0-.4-.9c-.3-.3-.4-.4-1.1-.4h-.7v.6a1.27,1.27,0,0,1-.1.6c-.1,0-.1-.3-.1-.6v-.6h-.8c-.6,0-.8,0-.8.2a.2.2,0,0,1-.4,0c0-.1-.2-.2-.8-.2a2.2,2.2,0,0,0-.8.1c0,.1-.1.2-.2.3s-.2.2-.3.2-.1.2-.1.4-.1.4-.3.4a.52.52,0,0,0-.4.2c-.1.3-.1.3-.1,2.5A16.35,16.35,0,0,0,293.13,130.8Zm10.8,36c3.8,0,3.5.1,3.5-1.7v-1.2h-.3a.6.6,0,0,1-.4-.1,1.85,1.85,0,0,0-.7-.2h0a2.2,2.2,0,0,0,.8-.1,39.25,39.25,0,0,0-5.6,0c0,.1.4.1.8.2h0a2.2,2.2,0,0,0-.8.1c-.1.1-.1.1-.2.1s-.2.2-.2,1.4v1.4Zm-.1-47.9c.2,0,.3.1.3.2s.4.2,2.9.2h2.9V119a.37.37,0,0,1,.1-.3c.1,0,.1-.1.1-.2a.22.22,0,0,1,.2-.2c.1,0,.2-.2.2-.8s0-.8-.3-1.1a.55.55,0,0,1-.3-.5c0-.3-.1-.3-2.9-.3-2.5,0-2.9,0-2.9.2s0,.1-.1.2c-.4,0-.5.3-.5,1.6v1.3Zm0,3.9c.2,0,.3.1.3.2s.4.2,2.8.2c2.6,0,2.8,0,3.1-.2.1-.1.3-.3.3-.4s.1-.1.2-.1.2-.2.2-.9,0-.9-.2-.9-.1,0-.2-.1-.1-.2-.2-.3-.7-.2-3.1-.2a14.08,14.08,0,0,0-2.9.1c0,.1-.1.1-.3.1h-.3v2.6C303.43,122.8,303.83,122.8,303.83,122.8Zm-.3,7.2c.1.1.2.2.3.2s.1.1.1.2.4.2,2.8.2a14.08,14.08,0,0,0,2.9-.1c.1,0,.2-.2.2-.3s0-.1.1-.2.1-.1.1-.2a.22.22,0,0,1,.2-.2c.1,0,.2-.2.2-.9s0-.9-.2-.9a.22.22,0,0,1-.2-.2c0-.1,0-.1-.1-.2s-.1-.1-.1-.2-.4-.2-2.9-.2-3,0-3.1.2-.2.2-.3.2A5.71,5.71,0,0,0,303.53,130Z" transform="translate(-11.43 -7)" fill-opacity="0"/>
  <path id="path4274" d="M313.83,95.8c.1,0,.1,4.2.1,12.4s0,12.4-.1,12.4-.1-4.2-.1-12.4S313.73,95.8,313.83,95.8Z" transform="translate(-11.43 -7)" fill-opacity="0"/>
  <path id="path4276" d="M313.83,95.8c.1,0,.1,4.2.1,12.4s0,12.4-.1,12.4-.1-4.2-.1-12.4S313.73,95.8,313.83,95.8Z" transform="translate(-11.43 -7)" fill-opacity="0"/>
  <path id="path4278" d="M313.83,95.8c.1,0,.1,4.2.1,12.4s0,12.4-.1,12.4-.1-4.2-.1-12.4S313.73,95.8,313.83,95.8Z" transform="translate(-11.43 -7)" fill-opacity="0"/>
  <path id="path4282" d="M289.43,99.7c11.9,0,18.3,2.2,18.3,6.3s-6.3,6.3-18.3,6.3-18.3-2.2-18.3-6.3S277.53,99.7,289.43,99.7Z" transform="translate(-11.43 -7)" fill-opacity="0"/>
  <rect id="rect5807" x="257.4" y="88.9" width="45.2" height="97.8" fill="#0d9557"/>
  <rect id="rect4318" x="270.5" y="127" width="27.4" height="28.4" fill="none"/>
  <rect id="rect3085" x="271.1" y="127.7" width="26.1" height="26.8" fill="#333"/>
  <g id="text3014">
    <text id="tspan3016" x="-11.43" y="-7" style="isolation: isolate"/>  </g>
  <path id="path4280" d="M297.33,141.6c.1-.4,1.7-1.2,2.2-1.2a5.7,5.7,0,0,1,2.2,1.1c.2.4.1,1.8-.1,1.8s-.2-.2-.2-.8v-.8l-.8-.4c-1-.5-1.2-.5-2.1,0s-.8.6-.9,1.5c0,.5-.2.8-.4.5A4.88,4.88,0,0,1,297.33,141.6Z" transform="translate(-11.43 -7)" fill-opacity="0"/>
  <rect id="rect4318-6" x="270.5" y="161.6" width="27.4" height="21.5" fill="none"/>
  <rect id="Antenna" x="261.7" y="91.7" width="37.9" height="19.3" fill="#d4aa00"/>
  <rect id="rect5811" x="260.1" y="107.6" width="37.5" height="3.9" fill="#0d9557"/>
  <rect id="rect5813" x="295.3" y="94.1" width="2.4" height="13.6" fill="#0d9557"/>
  <rect id="rect5813-0" x="290.8" y="91.4" width="2.4" height="13.6" fill="#0d9557"/>
  <rect id="rect5813-0-3" x="286.5" y="94" width="2.4" height="13.6" fill="#0d9557"/>
  <rect id="rect5813-0-6" x="282.2" y="91.6" width="2.4" height="13.6" fill="#0d9557"/>
  <rect id="rect5813-0-3-2" x="277.8" y="94.2" width="2.4" height="13.6" fill="#0d9557"/>
  <rect id="rect5813-0-4" x="273.1" y="91.4" width="2.4" height="13.6" fill="#0d9557"/>
  <rect id="rect5813-0-3-5" x="268.5" y="94.1" width="2.4" height="13.6" fill="#0d9557"/>
  <rect id="rect5898" x="300.9" y="113.7" width="5.6" height="3.5" fill="#9393ac"/>
  <rect id="rect5898-8" x="300.9" y="119.1" width="5.6" height="3.5" fill="#9393ac"/>
  <rect id="rect5898-1" x="301" y="124.8" width="5.6" height="3.5" fill="#9393ac"/>
  <rect id="rect5898-8-2" x="301.1" y="130.1" width="5.6" height="3.5" fill="#9393ac"/>
  <rect id="rect5898-14" x="301" y="135.6" width="5.6" height="3.5" fill="#9393ac"/>
  <rect id="rect5898-8-9" x="301.1" y="141" width="5.6" height="3.5" fill="#9393ac"/>
  <rect id="rect5898-1-8" x="301.3" y="146.7" width="5.6" height="3.5" fill="#9393ac"/>
  <rect id="rect5898-8-2-2" x="301.3" y="152.1" width="5.6" height="3.5" fill="#9393ac"/>
  <rect id="rect5898-14-4" x="301" y="157.1" width="5.6" height="3.5" fill="#9393ac"/>
  <rect id="rect5898-8-9-5" x="301.1" y="162.5" width="5.6" height="3.5" fill="#9393ac"/>
  <rect id="rect5898-1-8-2" x="301.3" y="168.2" width="5.6" height="3.5" fill="#9393ac"/>
  <rect id="rect5898-8-2-2-9" x="301.3" y="173.6" width="5.6" height="3.5" fill="#9393ac"/>
  <rect id="rect5898-8-2-2-9-9" x="301.1" y="179" width="5.6" height="3.5" fill="#9393ac"/>
  <rect id="rect5898-83" x="253.2" y="113.7" width="5.6" height="3.5" fill="#9393ac"/>
  <rect id="rect5898-8-8" x="253.3" y="119.1" width="5.6" height="3.5" fill="#9393ac"/>
  <rect id="rect5898-1-6" x="253.4" y="124.8" width="5.6" height="3.5" fill="#9393ac"/>
  <rect id="rect5898-8-2-9" x="253.5" y="130.1" width="5.6" height="3.5" fill="#9393ac"/>
  <rect id="rect5898-14-8" x="253.4" y="135.6" width="5.6" height="3.5" fill="#9393ac"/>
  <rect id="rect5898-8-9-6" x="253.5" y="141" width="5.6" height="3.5" fill="#9393ac"/>
  <rect id="rect5898-1-8-6" x="253.6" y="146.7" width="5.6" height="3.5" fill="#9393ac"/>
  <rect id="rect5898-8-2-2-2" x="253.7" y="152.1" width="5.6" height="3.5" fill="#9393ac"/>
  <rect id="rect5898-14-4-3" x="253.4" y="157.1" width="5.6" height="3.5" fill="#9393ac"/>
  <rect id="rect5898-8-9-5-8" x="253.5" y="162.5" width="5.6" height="3.5" fill="#9393ac"/>
  <rect id="rect5898-1-8-2-2" x="253.6" y="168.2" width="5.6" height="3.5" fill="#9393ac"/>
  <rect id="rect5898-8-2-2-9-6" x="253.7" y="173.6" width="5.6" height="3.5" fill="#9393ac"/>
  <rect id="rect5898-8-2-2-9-9-2" x="253.5" y="179" width="5.6" height="3.5" fill="#9393ac"/>
  <rect id="rect5898-8-9-6-7" x="271.53" y="192.2" width="3.4" height="5.9" transform="translate(-11.91 -6.33) rotate(-0.14)" fill="#9393ac"/>
  <rect id="rect5898-1-8-6-5" x="277.03" y="192.1" width="3.4" height="5.9" transform="translate(-11.91 -6.32) rotate(-0.14)" fill="#9393ac"/>
  <rect id="rect5898-8-2-2-2-7" x="282.13" y="192" width="3.4" height="5.9" transform="translate(-11.91 -6.31) rotate(-0.14)" fill="#9393ac"/>
  <rect id="rect5898-14-4-3-8" x="286.93" y="192.2" width="3.4" height="5.9" transform="translate(-11.91 -6.29) rotate(-0.14)" fill="#9393ac"/>
  <rect id="rect5898-8-9-5-8-2" x="292.23" y="192.1" width="3.4" height="5.9" transform="translate(-11.91 -6.28) rotate(-0.14)" fill="#9393ac"/>
  <rect id="rect5898-1-8-2-2-7" x="297.63" y="192.1" width="3.4" height="5.9" transform="translate(-11.91 -6.27) rotate(-0.14)" fill="#9393ac"/>
  <rect id="rect5898-8-2-2-9-6-8" x="302.73" y="192.1" width="3.4" height="5.9" transform="translate(-11.91 -6.26) rotate(-0.14)" fill="#9393ac"/>
  <rect id="rect5898-8-2-2-9-9-2-0" x="307.93" y="192.1" width="3.4" height="5.9" transform="translate(-11.91 -6.24) rotate(-0.14)" fill="#9393ac"/>
  <rect id="rect3085-1" x="271.4" y="162.5" width="25.9" height="20" fill="#333"/>
  <rect id="rect5813-0-6-8" x="263.8" y="91.6" width="2.4" height="13.6" fill="#0d9557"/>
  <rect id="_5V_BOX" x="298.29" y="212.2" width="4.5" height="20" fill="#c9bfb5"/>
  <rect id="GND_BOX" x="284.42" y="212.2" width="4.5" height="20" fill="#c9bfb5"/>
  <rect id="WIRE_TX" x="270.55" y="212.2" width="4.5" height="20" fill="#c9bfb5"/>
  <rect id="WIRE_RX" x="256.69" y="212.2" width="4.5" height="20" fill="#c9bfb5"/>
  <g id="HELPER_TEXT">
    <path id="HELPER_PIN_RX" d="M15.84,171.57h9.25a0,0,0,0,1,0,0v35.67a3,3,0,0,1-3,3H18.84a3,3,0,0,1-3-3V171.57A0,0,0,0,1,15.84,171.57Z" fill="#c9bfb5" stroke="#cc0e2a" stroke-miterlimit="10" stroke-width="4"/>
    <path id="HELPER_PIN_TX" d="M79.21,171.57h9.25a0,0,0,0,1,0,0v35.67a3,3,0,0,1-3,3H82.21a3,3,0,0,1-3-3V171.57A0,0,0,0,1,79.21,171.57Z" fill="#c9bfb5" stroke="#cc0e2a" stroke-miterlimit="10" stroke-width="4"/>
    <path id="HELPER_PIN_GND" d="M142,171.57h9.25a0,0,0,0,1,0,0v35.67a3,3,0,0,1-3,3H145a3,3,0,0,1-3-3V171.57A0,0,0,0,1,142,171.57Z" fill="#c9bfb5" stroke="#cc0e2a" stroke-miterlimit="10" stroke-width="4"/>
    <path id="HELPER_PIN_VCC" d="M204.48,171.57h9.25a0,0,0,0,1,0,0v35.67a3,3,0,0,1-3,3h-3.25a3,3,0,0,1-3-3V171.57A0,0,0,0,1,204.48,171.57Z" fill="#c9bfb5" stroke="#cc0e2a" stroke-miterlimit="10" stroke-width="4"/>
    <rect id="HELPER_BASE" y="154.5" width="229.61" height="20.6" fill="#0f0f0f"/>
    <text id="GND_PIN_TEXT" transform="translate(125.56 150.2) scale(1.11 1)" font-size="16" font-family="Biryani-SemiBold, Biryani" font-weight="600">GND</text>
    <text id="TXD_PIN_TEXT" transform="translate(64.24 149.74) scale(1.11 1)" font-size="16" font-family="Biryani-SemiBold, Biryani" font-weight="600">TXD</text>
    <text id="RXD_PIN_TEXT" transform="translate(0.23 148.45) scale(1.11 1)" font-size="16" font-family="Biryani-SemiBold, Biryani" font-weight="600">RXD</text>
    <text id="VCC_PIN_TEXT" transform="translate(191.66 149.74)" font-size="16" font-family="Biryani-SemiBold, Biryani" font-weight="600">VCC</text>
    <text id="HELPER_TITLE" transform="translate(25.08 124.9)" font-size="21" font-family="Biryani-Bold, Biryani" font-weight="700">Recieve Data Pin</text>
  </g>
  <g id="MESSAGE_LAYER">
    <path id="MESSAGE_BUBBLE" d="M41.53,8.5H212.91c5.54,0,10.14,2.9,10.14,16.74v57.1s7.61,14.36,30.43,39.76l-69.3-25.2H41.53C36,96.9,31.39,94,31.39,90.4V14.9C31.39,11.4,36,8.5,41.53,8.5Z" transform="translate(-11.43 -7)" fill="#fff" stroke="#000" stroke-miterlimit="10" stroke-width="3"/>
    <text id="MESSAGE_LINE_3" transform="translate(36.25 74.3)" font-size="16" font-family="Biryani-Regular, Biryani" style="isolation: isolate">THIS IS LINE OF MES</text>
    <text id="MESSAGE_LINE_2" transform="translate(35.25 51.3)" font-size="16" font-family="Biryani-Regular, Biryani" style="isolation: isolate">THIS IS LINE OF MES</text>
    <text id="MESSAGE_LINE_1" transform="translate(34.25 27.59)" font-size="16" font-family="Biryani-Regular, Biryani" style="isolation: isolate">THIS IS LINE OF MES</text>
  </g>
</svg>
