<svg id="Thermistor" xmlns="http://www.w3.org/2000/svg" width="65.28" height="92.82" viewBox="0 0 65.28 92.82">
  <path id="WIRE_1" d="M10.67,44.67,8.35,47a9.24,9.24,0,0,0-2.68,5,37.46,37.46,0,0,0-.42,7.17V86.69H9.38V59.16h0a34.28,34.28,0,0,1,.33-6.34,5.13,5.13,0,0,1,1.55-2.91l2.33-2.32Z" transform="translate(-5.25 -1.74)" style="fill: #ff5656"/>
  <path id="WIRE_2" d="M36.9,59.16h0A37.46,37.46,0,0,0,36.48,52a9.31,9.31,0,0,0-2.68-5l-2.32-2.33-2.92,2.92,2.32,2.33a5.15,5.15,0,0,1,1.56,2.9,34.28,34.28,0,0,1,.33,6.34h0V86.69H36.9V59.16Z" transform="translate(-5.25 -1.74)"/>
  <circle id="circle14" cx="15.83" cy="38.55" r="12.44" style="fill: #555"/>
  <path id="path18" d="M9,43.29a1.56,1.56,0,0,1-.38,1.47c-.3.47-.71.75-1.29,1.54a6.18,6.18,0,0,0-1,2.07,2.32,2.32,0,0,0,0,1.29l3.52,2.45a1.86,1.86,0,0,0,.66-.49c.2-.22.66-.61.89-.84a1.58,1.58,0,0,1,1.29-.58,1.93,1.93,0,0,1,1.37.38c.58.41,2.82-1.95,2.82-1.95l-5-3.36L9.75,42.58S8.85,42.62,9,43.29Z" transform="translate(-5.25 -1.74)" style="fill: #555"/>
  <path id="path20" d="M33.12,43.29a1.56,1.56,0,0,0,.38,1.47c.31.47.71.75,1.3,1.54a6.16,6.16,0,0,1,.94,2.07,2.32,2.32,0,0,1,0,1.29l-3.53,2.45a2,2,0,0,1-.66-.49c-.2-.22-.65-.61-.88-.84a1.58,1.58,0,0,0-1.29-.58,1.91,1.91,0,0,0-1.37.38c-.58.41-2.82-1.95-2.82-1.95l5-3.36,2.21-2.69S33.3,42.62,33.12,43.29Z" transform="translate(-5.25 -1.74)" style="fill: #555"/>
  <path id="path22" d="M30.46,50.56a4,4,0,0,0-2.63-1.93c-.82,0-4,.6-5.38.6s-4.73-.69-5.8-.69a11,11,0,0,0-3.14.43,3.85,3.85,0,0,0-2.35,1.81c-.22.32-.37.54-.46.7.22-.23.55-.51.74-.7a1.56,1.56,0,0,1,1.29-.58,2,2,0,0,1,1.37.37h0a12.39,12.39,0,0,0,14,0h0a1.92,1.92,0,0,1,1.37-.37A1.44,1.44,0,0,1,30.46,50.56Z" transform="translate(-5.25 -1.74)" style="opacity: 0.300000011920929;isolation: isolate"/>
  <path id="path24" d="M32.65,45.47a6.92,6.92,0,0,1,3,2.66,5.76,5.76,0,0,0-.87-1.82c-.58-.8-1-1.08-1.29-1.55a1.61,1.61,0,0,1-.39-1.38,12.66,12.66,0,0,0,.4-3.1,12.32,12.32,0,0,0-1.63-6.12A6.58,6.58,0,0,1,32,35.47,44.45,44.45,0,0,1,31.65,40,21.22,21.22,0,0,0,31,43.35C31,44.43,32.32,45.32,32.65,45.47Z" transform="translate(-5.25 -1.74)" style="opacity: 0.300000011920929;isolation: isolate"/>
  <text id="WIRE_TEXT" transform="translate(35.37 77.57)" style="font-size: 22.939029693603516px;font-family: Biryani-SemiBold, Biryani;font-weight: 600">A0</text>
  <text id="TEMP_TEXT" transform="translate(0 20.16)" style="font-size: 22.939029693603516px;font-family: Biryani-SemiBold, Biryani;font-weight: 600">125°</text>
  <text id="PLUS_SIGN" transform="translate(4.39 78.87)" style="font-size: 22.939029693603516px;font-family: Biryani-SemiBold, Biryani;font-weight: 600">+</text>
  <rect id="PIN_GND" x="27.53" y="84.95" width="4.13" height="3.01"/>
  <rect id="PIN_POWER" y="84.95" width="4.12" height="3.01" style="fill: #ff5656"/>
</svg>
