<svg id="svg2985" xmlns="http://www.w3.org/2000/svg" width="305.6" height="190.4" viewBox="0 0 305.6 190.4">
  <title>bluetooth</title>
  <rect id="rect3336" y="45.8" width="56.7" height="128" fill="#0a73b1"/>
  <g id="text3064">
    <text id="tspan3066" transform="translate(47.25 157.35) rotate(90) scale(1.04 1)" font-size="4.94" fill="#fff" font-family="Biryani-Light, Biryani" font-weight="300" style="isolation: isolate">VCC</text>
  </g>
  <g id="text3064-1">
    <text id="tspan3066-7" transform="translate(32.54 157.35) rotate(90) scale(1.04 1)" font-size="4.94" fill="#fff" font-family="Biryani-Light, Biryani" font-weight="300" style="isolation: isolate">GND</text>
  </g>
  <g id="text3064-1-4">
    <text id="tspan3066-7-0" transform="translate(17.78 157.35) rotate(90) scale(1.04 1)" font-size="4.94" fill="#fff" font-family="Biryani-Light, Biryani" font-weight="300" style="isolation: isolate">TXD</text>
  </g>
  <g id="text3064-1-4-9">
    <text id="tspan3066-7-0-4" transform="translate(5.65 157.35) rotate(90) scale(1.04 1)" font-size="4.94" fill="#fff" font-family="Biryani-Light, Biryani" font-weight="300" style="isolation: isolate">RXD</text>
  </g>
  <rect id="rect3450" x="19.2" y="84.7" width="27.9" height="28.8" fill="#28220b" fill-opacity="0"/>
  <path id="path3452" d="M48.6,91.2H61.9V119H35.2V91.2Zm-4,3.1a1.07,1.07,0,0,0,1.1.1c.2-.1.2-.1.3,0a1.23,1.23,0,0,0,1-.1c.3-.2.3-.3.3-1v-.8H44.5v.8C44.2,93.9,44.3,94.1,44.6,94.3ZM44.5,97c.1,0,.2-.1.2-.3s.1-.3,1.2-.3h1.2v-.5c0-.4,0-.5-.2-.5s-.2.1-.3.3-.2.3-1,.3-.9,0-.9-.3c0-.1-.1-.3-.2-.3s-.2.2-.2.8S44.3,97,44.5,97Zm.8,3c.9,0,1,0,1-.3s-.1-.3-.7-.3-.7,0-.8-.4-.2-.5.4-.5,1.1-.1,1.1-.3-.1-.2-.7-.2c-1.2,0-1.2,0-1.2,1v.9C44.3,100,45.3,100,45.3,100Zm-.8,2.7c.1,0,.2-.1.2-.5q0-.9.3-.9c.1,0,.1.3.1.7v.7h.4a.78.78,0,0,0,.9-.7v-.2c0-.7-.3-1-1.1-1a1.08,1.08,0,0,0-.8.2,2.77,2.77,0,0,0-.1.9C44.2,102.5,44.3,102.7,44.5,102.7Zm.2,2.7c.4,0,.5-.2.2-.5s-.1-.5.5-.5.5,0,.6.4.1.4.2.4.2-.1.2-.4.1-.4.3-.4a.3.3,0,1,0,0-.6h0a.52.52,0,0,1-.4-.2c-.2-.2-.2-.2-.3,0s-.3.2-.8.2c-.7,0-.9.2-.9.9S44.3,105.4,44.7,105.4Zm0,2.8a1.54,1.54,0,0,0,1.6-.1,1.39,1.39,0,0,0-.1-1.4,1.6,1.6,0,0,0-1.5-.1,1.14,1.14,0,0,0-.3.8C44.2,107.9,44.3,108,44.7,108.2Zm-.2,2.7c.1.2.4.2.8.2.7,0,1-.3,1-1s-.5-1-1.2-.9a1.85,1.85,0,0,0-.7.2A2,2,0,0,0,44.5,110.9Zm0,2.8c.2.2.6.2.6,0s-.1-.2-.2-.4c-.3-.3-.1-.5.5-.5s.5,0,.5.4c0,.2.1.4.2.4s.3,0,.3-.4.1-.4.3-.4c.4-.1.4-.5,0-.5-.2,0-.3-.1-.3-.2a.2.2,0,0,0-.4,0h0c0,.1-.2.2-.6.2-.7,0-.9.1-.9.8A.37.37,0,0,0,44.5,113.7Zm.5,1.5c.6,0,.9.2.9.7,0,.2-.1.2-.6.2-.7,0-1,.1-1,.3s.2.2.9.2c1.1,0,1.2-.1,1.1-.9-.1-.5-.1-.5.3-.5s.4,0,.4-.3-.1-.3-1.4-.3-1.4,0-1.4.3S44.3,115.2,45,115.2Zm5.1-21.8a3.4,3.4,0,0,0,1,.1h1v1.8h-.9c-1,0-1.3.1-1.1.5.1.2.4.2,2.5.2h2.3v-.3c0-.4-.2-.5-1.2-.5h-.8V93.4h1c1,0,1,0,1-.3v-.3H52.6c-2.4,0-2.6,0-2.5.6Zm0,7c0,.1.2.2.4.2s.3,0,.3-.7c0-.9.1-.9,1.1-1.4l.7-.4.8.4.8.4.1.8c.1.8.1.8.4.9H55v-1c0-.9,0-1-.3-1.2a5.54,5.54,0,0,0-2.2-1,5.64,5.64,0,0,0-2.4,1.3A2.48,2.48,0,0,0,50.1,100.4Zm0,9c.1.4.6.5,2.4.5,2.4,0,2.4,0,2.4-1.6,0-1.8.1-1.7-2.4-1.7s-2.4,0-2.4,1.5A1.48,1.48,0,0,0,50.1,109.4Zm.1,4.9c.1.2.3.2,1.3.2,1.3,0,1.4-.1,1.4-1.2v-.7h1.4v.9c0,.9.2,1.2.5,1.1.1-.2.1-.4.1-1.5v-1.3H52.1v1.9H50.7v-.6c0-.3.1-.8.1-1.1.1-.5.1-.6,0-.7-.3-.2-.4-.1-.6.4A3,3,0,0,0,50.2,114.3Zm2.3-9.5h.4v-2.4h-.3c-.2,0-.4,0-.4.1a4.87,4.87,0,0,0-.1,1.2v1.1Z" transform="translate(-15.6 -5.9)" fill="#28220b" fill-opacity="0"/>
  <rect id="rect3454" x="19.2" y="119.7" width="27.9" height="21.6" fill="#222b00" fill-opacity="0"/>
  <path id="path3456" d="M48.5,125.6H61.9v21.1H35.1V125.6Z" transform="translate(-15.6 -5.9)" fill="#222b00" fill-opacity="0"/>
  <rect id="rect3494" x="19.1" y="84.7" width="28.2" height="28.6" fill-opacity="0"/>
  <path id="path4264" d="M48.6,91.2H61.9V119H35.2V91.2Zm-4.1,2.9c.2.2.3.3,1.3.3,1.4,0,1.5-.1,1.5-1.2v-.8h-3v.7A1.23,1.23,0,0,0,44.5,94.1Zm0,2.9c.1,0,.2-.1.2-.3s.1-.3,1.2-.3h1.2V96c0-.5-.3-.6-.4-.2s-.1.3-1,.3-1,0-1-.2-.1-.2-.1-.3c-.3-.2-.4.1-.3.8C44.2,96.8,44.3,97,44.5,97Zm-.2,2.3c.1.2.1.2,0,.2s-.1.1-.1.2.2.2,1,.2a4.1,4.1,0,0,0,1.1-.1c.1-.2-.3-.4-.8-.4a.76.76,0,0,1-.8-.6v-.1c0-.2.1-.2.8-.2.5,0,.8-.1.8-.2.1-.3,0-.3-.9-.3a1.8,1.8,0,0,0-1,.2A1.38,1.38,0,0,0,44.3,99.3Zm.2,3.4c.1,0,.2-.2.2-.6.1-.9.3-1,.3-.2s0,.7.3.8a.92.92,0,0,0,1.1-.7.75.75,0,0,0-.1-.8c-.2-.3-.4-.3-.9-.4-.9-.1-1.1.2-1.1,1.2C44.2,102.5,44.3,102.7,44.5,102.7Zm0,2.6c.3.3.5.2.5-.1,0-.1-.1-.2-.1-.3s-.1-.1-.1-.3.1-.3.6-.3H46v.5c0,.4,0,.4.2.4s.2-.2.2-.4.1-.4.3-.4.3-.2,0-.4c-.1-.1-.3-.2-.4-.3a.19.19,0,0,0-.3,0c-.1.1-.2.2-.6.2-.7,0-1.1.3-1.1.8A.73.73,0,0,0,44.5,105.3Zm0,2.7a1.14,1.14,0,0,0,.8.3,2.2,2.2,0,0,0,.8-.1,1.36,1.36,0,0,0,.2-1.6,2.48,2.48,0,0,0-1.7,0A1,1,0,0,0,44.5,108Zm0,2.8c.2.3,1.5.3,1.7.1a1.23,1.23,0,0,0-.2-1.6c-.1-.1-.4-.1-.8-.1s-.7,0-.8.3A1.06,1.06,0,0,0,44.5,110.8Zm.1,2.9c.3.3.6.1.4-.3s-.2-.6.5-.6h.6v.4c0,.3.1.4.2.4s.3-.3.3-.6q0-.15.3-.3c.3,0,.4-.4,0-.5-.2,0-.3-.1-.4-.3s-.2-.2-.3,0-.3.2-.8.2c-.7,0-1,.2-1,.8S44.4,113.6,44.6,113.7Zm.2,1.5c.6,0,.7,0,.8.4s.1.6-.8.7c-.5,0-.7.1-.7.2s.2.2.9.2c1.2,0,1.4-.3,1-1.2-.1-.2,0-.2.3-.2.5,0,.6-.1.4-.3.1-.3-.2-.3-1.1-.3-1.2,0-1.4,0-1.4.3C44.2,115.1,44.5,115.2,44.8,115.2Zm5.4-21.8c.1,0,.6.1,1,.1H52v1.8H50v.6h2.3c2.4,0,2.7,0,2.5-.5-.1-.2-.3-.2-1.1-.2h-1V93.4h.8c.9,0,1.3-.1,1.3-.4,0-.1-.1-.2-.2-.3a33.81,33.81,0,0,0-4.5-.1c-.1,0-.2.2-.2.4S50,93.3,50.2,93.4Zm0,7.2c.3.1.4-.2.4-1v-.7l.7-.4a3,3,0,0,1,1-.4A5.56,5.56,0,0,1,54,99c0,.1.1.5.1.8,0,.7.2.9.5.6a3.08,3.08,0,0,0,0-1.9,3.47,3.47,0,0,0-2.3-1.2A3.84,3.84,0,0,0,50,98.4a4.87,4.87,0,0,0-.1,1.2C50.1,100.5,50.1,100.6,50.2,100.6Zm0,9.1c.2.2.5.2,2.3.2,2.5,0,2.5,0,2.5-1.6s.1-1.6-2.5-1.6c-1.5,0-2.2,0-2.3.2A4.47,4.47,0,0,0,50.2,109.7Zm0,4.6c.1.1.4.2,1.2.2,1.3,0,1.4-.1,1.4-1.1v-.7h1.4v.9c0,.8.1.9.3.9.4.1.4-.2.4-1.4v-1.2H52v1.8H50.6l.1-.8c0-.5.1-1,.1-1.2s0-.4-.2-.4c-.4-.1-.6.5-.6,1.7C50,113.9,50,114.2,50.2,114.3Zm2.2-9.5h.4v-1c0-1.1-.1-1.4-.6-1.2-.2.1-.2.3-.2,1.2v1.1Z" transform="translate(-15.6 -5.9)" fill-opacity="0"/>
  <rect id="rect4270" x="3.8" y="46" width="52" height="25.6" fill-opacity="0"/>
  <path id="path4272" d="M44.5,52.9H66.6V77.7H65v1.6c0,1.8,0,1.9,1,1.9h.6V83H65v1.7c0,1.9,0,2,1,2h.6v.6c0,.5,0,.6-.2.6a.22.22,0,0,0-.2.2c0,.1-.1.2-.3.2a.37.37,0,0,0-.3.1.37.37,0,0,1-.3.1H65v1.6c0,1.9.1,2.1,1,2.1h.6v.6c0,.5,0,.6-.2.6a.22.22,0,0,0-.2.2c0,.1-.1.2-.4.2-.7,0-.8.2-.8,1.9s.1,2,1,2h.6v.6c0,.5,0,.6-.2.6s-.1,0-.2.1a.9.9,0,0,1-.5.1c-.3,0-.5.1-.5.2s0,.1-.1.2-.1.6-.1,1.6c0,1.8,0,1.9,1,1.9h.6v1.3l-.5.1c-.3,0-.5.1-.5.2s0,.1-.1.1c-.4,0-.5.4-.5,1.9,0,1,0,1.6.1,1.6s.1.1.1.2.2.2.7.2h.7v1.2H66c-.5,0-.6,0-.7.3s-.1.3-.2.3-.1.6-.1,1.6c0,1.9.1,2.1,1,2.1h.6v.5c0,.6-.1.7-.9.7-.2,0-.3.1-.4.3s-.1.3-.2.3-.1.6-.1,1.4,0,1.4.1,1.4.1.1.1.3,0,.3.7.3h.7v.6c0,.7-.1.8-.9.8-.2,0-.3.1-.4.3s-.1.3-.2.3a11.3,11.3,0,0,0,0,3c.1,0,.1.1.2.3s.1.3.7.3h.6v1.2H66c-.5,0-.6,0-.7.3s-.1.3-.2.3a11.3,11.3,0,0,0,0,3c.1,0,.1.1.2.3s.2.3.4.3c.7,0,.9.1.9.6s-.2.6-.9.6c-.2,0-.3.1-.4.3s-.1.3-.2.3a11.3,11.3,0,0,0,0,3c.1,0,.1.1.2.3s.2.3.4.3c.7,0,.9.1.9.8v.6H66c-.5,0-.6,0-.7.3s-.1.3-.2.3a11.3,11.3,0,0,0,0,3c.1,0,.1.1.2.3s.2.3.4.3c.7,0,.9.1.9.7s-.1.7-.9.7c-.2,0-.3.1-.4.3s-.1.3-.2.3-.1.6-.1,1.4,0,1.4.1,1.4.1.1.1.2.1.2.5.2a.9.9,0,0,1,.5.1c0,.1.1.1.2.1s.2.3.2,1.6,0,1.6-.2,1.6-.1,0-.2.1-.4.1-.9.1h-.9v-.6c0-.5,0-.6-.2-.6a.22.22,0,0,1-.2-.2.22.22,0,0,0-.2-.2c-.1,0-.1,0-.2-.1s-.5-.1-1.3-.1c-1.6,0-1.7.1-1.7,1.2v.7H59.1v-.6a1.27,1.27,0,0,0-.1-.6c-.1,0-.1-.1-.1-.2a.22.22,0,0,0-.2-.2c-.1,0-.1,0-.2-.1s-.5-.1-1.4-.1H55.7v1.8h-.9c-1.1,0-1.3-.1-1.3-1,0-.5,0-.6-.2-.6s-.1,0-.2-.1-.5-.1-1.4-.1H50.3v.8c0,.6,0,.8-.2.8s-.1,0-.2.1-.4.1-.9.1h-.9v-.8c0-.6,0-.8-.2-.8s-.1,0-.2-.1-.5-.1-1.3-.1c-1.6,0-1.7.1-1.7,1.2v.7H42.9v-.8c0-.6,0-.8-.2-.8s-.1,0-.2-.1-.5-.1-1.3-.1c-1.6,0-1.8.1-1.8,1.2v.7H37.9v-.8c0-.6,0-.8-.2-.8s-.1,0-.2-.1-.5-.1-1.4-.1-1.4,0-1.4.1-.1.2-.2.3a1.08,1.08,0,0,0-.2.8v.6h-.6a1.27,1.27,0,0,1-.6-.1c0-.1-.1-.1-.2-.1s-.2-.1-.2-.5a.9.9,0,0,0-.1-.5c-.1,0-.1,0-.1-.1,0-.4-.4-.5-1.7-.5-1.7,0-1.8.1-1.8,1.2v.7h-.5c-.7,0-.9-.2-.9-.8,0-.3-.1-.4-.2-.4s-.1,0-.2-.1c0-.4-.4-.5-1.7-.5-.8,0-1.3,0-1.3.1s-.1.1-.2.1-.2.2-.2.8v.8H22.2v-3.8H23a3.55,3.55,0,0,0,1-.2c.2-.2.4-.2.4-.1s.1.2.3.2.3.1.3.2a14.08,14.08,0,0,0,2.9.1,14.08,14.08,0,0,0,2.9-.1c0-.1.1-.1.2-.1s.2-.2.2-1.1a5.7,5.7,0,0,0-.1-1.3c-.1-.2-.5-.2-3.3-.2s-3.2,0-3.2.2,0,.1-.1.2-.1-.2-.1-.4a.91.91,0,0,0-.4-.8c-.3-.3-.4-.4-1.1-.4h-.7v-1.4H23a2.2,2.2,0,0,0,.8-.1c.1-.7.2-.7.3-.7s.1,0,.2-.1,0-.1.1-.1.1.3.1.8a2.2,2.2,0,0,0,.1.8c.1,0,.1.1.1.2a.52.52,0,0,0,.2.4c.2.2.6.2,3.1.2,2.9,0,2.9,0,2.9-.3,0-.1.1-.3.2-.3s.2-.2.2-1.3,0-1.3-.2-1.3-.1,0-.2-.1-.5-.1-1.1-.2h-.1c.5,0,1-.1,1-.2a13.13,13.13,0,0,0-2.8-.1,13.13,13.13,0,0,0-2.8.1c0,.1.4.1.9.2h0c-.5,0-.9.1-.9.2s-.1.1-.2.1a.22.22,0,0,0-.2.2c0,.1,0,.1-.1.2s-.1-.4-.1-1c0-1,0-1,.3-.9.1,0,.3.1.3.2a29.08,29.08,0,0,0,5.9,0c0-.1.1-.1.2-.1.3,0,.3-2.3,0-2.6s-.6-.2-3.3-.2c-3,0-3.1,0-3.1.3,0,.1-.1.3-.2.3s-.1.3-.1.8a2.2,2.2,0,0,1-.1.8c-.1,0-.1,0-.1-.1s-.1-.1-.2-.1-.2-.4-.2-.5-.2-.2-.8-.2h-.8v-1.4h.8a2.2,2.2,0,0,0,.8-.1c0-.1,0-.1.1-.1.3,0,.5-.4.5-.8s.2-.6.3-.1l.1.3H28c2.6,0,3.1,0,3.1-.2a.22.22,0,0,1,.2-.2c.1,0,.2-.2.2-1.3s0-1.3-.2-1.3-.1,0-.2-.1-.5-.1-1.1-.2h-.1c.5,0,1-.1,1-.2a13.13,13.13,0,0,0-2.8-.1,13.13,13.13,0,0,0-2.8.1c0,.1.4.1,1,.2h0c-.5,0-1,.1-1,.2s-.1.1-.2.1a.22.22,0,0,0-.2.2c0,.2-.2.2-.4,0a.6.6,0,0,0-.4-.1c-.1,0-.1,0-.1-.1s-.3-.1-.8-.1h-.8v-1.2h.8a2.2,2.2,0,0,0,.8-.1c0-.1,0-.1.1-.1.4,0,.5-.4.5-1.8s-.1-1.8-.5-1.8c-.1,0-.1-.1-.1-.2s-.2-.2-.8-.2h-.8v-1.2h.7c.6,0,.8,0,1.1-.4s.4-.4.4-1.8-.1-1.8-.5-1.8c-.1,0-.1,0-.1-.1s-.3-.1-.8-.1h-.8v-1.4h.7c.6,0,.8,0,1.1-.4s.4-.4.4-1.8c0-.9,0-1.4-.1-1.4a.64.64,0,0,1-.5-.5c0-.1-.3-.1-.8-.1h-.8v-1h.8c.6,0,.8-.1.9-.2s.2-.3.3-.4a8.08,8.08,0,0,0,0-3.1.64.64,0,0,1-.5-.5c0-.1-.3-.1-.8-.1h-.8v-1.2h.9c.7,0,.9,0,.9-.2a.22.22,0,0,1,.2-.2c.2,0,.2-.3.2-1.5s0-1.5-.2-1.8a.76.76,0,0,0-.5-.2c-.1,0-.1,0-.2-.1a1.27,1.27,0,0,0-.6-.1h-.6V103h.8c.7,0,.9,0,1.1-.3s.2-.4.2-1.1c0-.9.1-1,.4-.7s.8.2,4,.2a26.73,26.73,0,0,0,4-.1c.2-.1.2-.7.2-6V89.1h-4c-3.4,0-4,0-4.2.2s-.4.2-.4-.2-.2-.6-.4-.6h-.2c-.1,0-.1,0-.2-.1a1.7,1.7,0,0,0-.7-.1h-.7V86.7h.8a2.2,2.2,0,0,0,.8-.1c0-.1.1-.1.3-.2s.3-.1.3-1.6c0-1.8.1-1.7-1.3-1.7h-.9V81.3h.8a2.2,2.2,0,0,0,.8-.1c0-.1.1-.1.3-.2s.3-.1.3-1.6V77.8H22.3v-21h1.6v4.6c0,5,0,5,.6,5,.1,0,.1,0,.2.1a12.21,12.21,0,0,0,2.7.1,12.21,12.21,0,0,0,2.7-.1c0-.1.3-.1.7-.1h.7v-.5c0-.4.1-.5.2-.5s.2-.5.2-4a26.73,26.73,0,0,1,.1-4c.1,0,.1-.1.1-.2a.22.22,0,0,1,.2-.2c.1,0,.1,0,.2-.1s.1-.1.3-.1.3.1.3.2,0,.1-.1.2a24.13,24.13,0,0,0-.1,3.8,24.13,24.13,0,0,0,.1,3.8c.1,0,.1.4.1.8,0,.6,0,.8.2.8s.1,0,.2.1.2.1.5.1.5.1.5.2.4.2,2.6.2,2.6,0,2.6-.2.1-.2.3-.2a.37.37,0,0,0,.3-.1c0-.1.2-.1.4-.1h.4v-.8a2.2,2.2,0,0,1,.1-.8,26.73,26.73,0,0,0,.1-4,26.73,26.73,0,0,1,.1-4c.1,0,.1,1.9.2,4.6,0,3.5.1,4.6.2,4.6a.22.22,0,0,1,.2.2c0,.1.1.2.3.2a.37.37,0,0,1,.3.1c0,.1.1.1.2.1a.22.22,0,0,1,.2.2c0,.2.4.2,2.8.2s2.8,0,2.8-.2.1-.2.5-.2a.9.9,0,0,0,.5-.1c0-.1.1-.1.3-.1s.3-.1.3-.2v-.1a.37.37,0,0,1,.1-.3,29.46,29.46,0,0,0,.1-4.2,33.81,33.81,0,0,1,.1-4.5.27.27,0,0,1,.3-.3c.3,0,.4.5.4,5.1a29.46,29.46,0,0,0,.1,4.2c.1,0,.1.1.1.2a.22.22,0,0,0,.2.2c.1,0,.1,0,.2.1s.1.1.2.1a.22.22,0,0,1,.2.2c0,.2.4.2,3,.2h3v-.4l.4-.4V61.7c0-5.1,0-4.9.8-4.9h.4v6.4c0,5.6,0,6.4.2,6.4s.1,0,.2.1.5.1,1.3.1c1.1,0,1.4,0,1.5-.2s.2-.9.2-7.8c0-6,0-7.6-.2-7.7a.22.22,0,0,1-.2-.2c0-.1-.6-.2-3.5-.2H55.8v9.4H54.6V54.3l-.4-.3c-.3-.3-.4-.3-3.9-.3-3,0-3.6,0-3.6.2a.22.22,0,0,1-.2.2c-.1,0-.2,1.1-.2,4.5v4.5H45.1V58.7c0-4,0-4.5-.2-4.7s-.6-.2-3.5-.2H38.1v2.1A7.41,7.41,0,0,1,38,58c-.2,0-.2.1-.2.2s0,.1.1.2a9.66,9.66,0,0,1,.1,2.4v2.4H36.2V58.6c0-3.9,0-4.5-.2-4.5a.22.22,0,0,1-.2-.2c0-.2-.5-.2-3.5-.2s-3.5,0-3.5.2-.1.2-.3.2h-.3v9H26.8V58.7c0-4.4,0-4.5-.3-4.7s-.5-.2-2.3-.2h-2v-.9ZM25.3,115.5c.1,0,.1,0,.2.1s.1.2.2.3.2.5.2,1.5,0,1.3-.2,1.5-.2.2-.2.3-.1.1-.2.1-.2.3-.2,2.4,0,2.4.2,2.4a.22.22,0,0,1,.2.2c0,.1,0,.1.1.2s.1.1.1.2.4.2,2.4.2,2.5,0,2.5-.2.1-1.4.1-2.9c0-2.3,0-2.8-.2-2.9s-.2-.5-.2-1.4,0-1.2.2-1.3.3-5.7,0-6-4.9-.3-4.9,0c0,.1,0,.1-.1.2s-.1.1-.1.2a.22.22,0,0,1-.2.2c-.2,0-.2.3-.2,2.4s.1,2.3.3,2.3Zm.5-8.8c0,.1.2.2.4.2a.37.37,0,0,1,.3.1c0,.1.4.1,1,.1a3.4,3.4,0,0,0,1-.1c0-.1.4-.1.8-.1a2.2,2.2,0,0,1,.8.1c0,.1.4.1.9.1a2.77,2.77,0,0,0,.9-.1c0-.1.1-.1.3-.1s.3-.1.3-.2,0-.1.1-.2.1-.4.1-1.1c0-.9,0-1.1-.2-1.1a.22.22,0,0,1-.2-.2,15.06,15.06,0,0,0-3-.1,15.06,15.06,0,0,0-3,.1c0,.1-.1.1-.2.1s-.3,0-.3.1A4.87,4.87,0,0,0,25.8,106.7Zm.6-20.4c.2,0,.3.1.3.2a14.08,14.08,0,0,0,2.9.1h2.9v-.3a.37.37,0,0,1,.1-.3c.1,0,.1-.5.1-1.1s0-1.1-.1-1.1-.1-.1-.1-.3a.52.52,0,0,0-.2-.4c-.1,0-1.4-.1-2.9-.1-2.3,0-2.7,0-2.7.2a.22.22,0,0,1-.2.2.22.22,0,0,0-.2.2c0,.1,0,.1-.1.2s-.2.5-.2,1.2C26.1,86.2,26.1,86.3,26.4,86.3Zm2.2-4.8c.1,0,.3.1.3.2v.4h3.8v-.3c0-.2.1-.3.1-.4a66.08,66.08,0,0,0,0-8.9c-.1,0-.1-.1-.1-.2s-.4-.2-2-.2-2,0-2,.2a.22.22,0,0,1-.2.2c-.2,0-.2.6-.2,4.5v4.5Zm4.2,42.2c.1.2.4.2,3.1.2,3.7,0,3.5.1,3.5-1.7,0-1.2,0-1.2-.3-1.2a.37.37,0,0,1-.3-.1c0-.1-.4-.1-.8-.1h0c.4,0,.8-.1.8-.2a13.13,13.13,0,0,0-2.8-.1,13.13,13.13,0,0,0-2.8.1c0,.1.4.1.8.2h0a2.2,2.2,0,0,0-.8.1c-.1.1-.1.1-.2.1s-.2.2-.2,1.2Zm1.5,23.5c.2.2.4.3,14,.3,8.9,0,13.8,0,13.8-.1s.1-.2.3-.2l.3-.1V136.3c0-7.6,0-10.7-.1-10.7s-.2-.1-.3-.2-1.9-.2-13.9-.2-13.8,0-13.9.2-.2.2-.3.2-.1,3.2-.1,10.7C34.1,146.7,34.1,146.9,34.3,147.2Zm.1-28c0,.1.2.2.4.2a.37.37,0,0,1,.3.1c0,.1,4.5.1,13.4.1s13.4,0,13.4-.1.2-.1.5-.1h.5V105.2c0-12.9,0-14.2-.2-14.3s-28.1-.1-28.2,0S34.3,118.9,34.4,119.2Zm1-34.6c.1,0,.1.4.1.9a2.77,2.77,0,0,1-.1.9c-.1,0-.1.4-.1.9,0,.8,0,.9.4,1.3s.4.4,1.4.4a3.4,3.4,0,0,0,1-.1c0-.1.1-.1.2-.1a.22.22,0,0,0,.2-.2c0-.1,0-.1.1-.2a14.08,14.08,0,0,0,.1-2.9,14.08,14.08,0,0,0-.1-2.9c-.1,0-.1-.1-.1-.3s-.1-.3-.4-.4a2.44,2.44,0,0,0-1.2,0,1.19,1.19,0,0,0-1.1.4c-.4.4-.4.4-.4,1.4A1.17,1.17,0,0,0,35.4,84.6ZM38.9,76a16.08,16.08,0,0,0,3.1-.1c0-.1.1-.1.2-.1s.2-.2.2-1.3V73.2H41.2c-.8,0-1.2,0-1.2-.2s-.4-.2-1-.2c-.8,0-.9,0-.9.2s-.2.2-1.1.2H35.8V76Zm-2.7,4.2a4.1,4.1,0,0,0,1.1.1c.6,0,.8,0,.8-.2a.22.22,0,0,1,.2-.2c.1,0,.2,0,.2.1a3.21,3.21,0,0,0,1.7.2c1.4.1,1.7.1,1.8-.1s.2-.1.3-.2.1-.4.1-1.3c0-1.2-.1-1.6-.5-1.6-.1,0-.1-.1-.1-.2s-.4-.2-2.8-.2-2.8,0-2.8.2a.22.22,0,0,1-.2.2c-.2,0-.2.3-.2,1.5C35.8,80.1,36,80.1,36.2,80.2ZM47,123.9c3.7,0,3.5.1,3.5-1.7,0-1.2,0-1.2-.3-1.2a.37.37,0,0,1-.3-.1c0-.1-.4-.1-.9-.2h0c.5,0,.9-.1.9-.2a13.13,13.13,0,0,0-2.8-.1,13.13,13.13,0,0,0-2.8.1c0,.1.4.1.8.2h0a3.55,3.55,0,0,0-1,.2c-.1.1-.2.5-.2,1.6v1.4Zm-1-36c.1,0,.1.1.1.2s.5.2,3.4.2h3.4V87.1h1c.7,0,.9,0,.9-.2a.22.22,0,0,1,.2-.2c.1,0,.2-.2.2-.8s0-.8-.2-.8a.22.22,0,0,1-.2-.2c0-.1-.3-.1-.7-.1-1,0-1.1,0-1.1-.7a1.27,1.27,0,0,1,.1-.6c.1,0,.1-.3.1-.6a1.09,1.09,0,0,0-.4-.9c-.3-.3-.4-.4-1.1-.4H51v.6a1.27,1.27,0,0,1-.1.6c-.1,0-.1-.3-.1-.6v-.6H50c-.6,0-.8,0-.8.2a.2.2,0,1,1-.4,0c0-.1-.2-.2-.8-.2a2.2,2.2,0,0,0-.8.1c0,.1-.1.2-.2.3s-.2.2-.3.2-.1.2-.1.4-.1.4-.3.4a.52.52,0,0,0-.4.2c-.1.3-.1.3-.1,2.5A16.35,16.35,0,0,0,46,87.9Zm10.8,36c3.8,0,3.5.1,3.5-1.7V121H60a.6.6,0,0,1-.4-.1,1.85,1.85,0,0,0-.7-.2h0a2.2,2.2,0,0,0,.8-.1,13.13,13.13,0,0,0-2.8-.1,13.13,13.13,0,0,0-2.8.1c0,.1.4.1.8.2h0a2.2,2.2,0,0,0-.8.1c-.1.1-.1.1-.2.1s-.2.2-.2,1.4v1.4ZM56.7,76c.2,0,.3.1.3.2s.4.2,2.9.2h2.9v-.3a.37.37,0,0,1,.1-.3c.1,0,.1-.1.1-.2a.22.22,0,0,1,.2-.2c.1,0,.2-.2.2-.8s0-.8-.3-1.1a.55.55,0,0,1-.3-.5c0-.3-.1-.3-2.9-.3-2.5,0-2.9,0-2.9.2s0,.1-.1.2c-.4,0-.5.3-.5,1.6V76Zm0,3.9c.2,0,.3.1.3.2s.4.2,2.8.2c2.6,0,2.8,0,3.1-.2.1-.1.3-.3.3-.4s.1-.1.2-.1.2-.2.2-.9,0-.9-.2-.9-.1,0-.2-.1-.1-.2-.2-.3-.7-.2-3.1-.2a14.08,14.08,0,0,0-2.9.1c0,.1-.1.1-.3.1h-.3V80C56.3,79.9,56.7,79.9,56.7,79.9Zm-.3,7.2c.1.1.2.2.3.2s.1.1.1.2.4.2,2.8.2a14.08,14.08,0,0,0,2.9-.1c.1,0,.2-.2.2-.3s0-.1.1-.2.1-.1.1-.2a.22.22,0,0,1,.2-.2c.1,0,.2-.2.2-.9s0-.9-.2-.9a.22.22,0,0,1-.2-.2c0-.1,0-.1-.1-.2s-.1-.1-.1-.2-.4-.2-2.9-.2-3,0-3.1.2-.2.2-.3.2A5.71,5.71,0,0,0,56.4,87.1Z" transform="translate(-15.6 -5.9)" fill-opacity="0"/>
  <path id="path4274" d="M66.7,52.9c.1,0,.1,4.2.1,12.4s0,12.4-.1,12.4-.1-4.2-.1-12.4S66.6,52.9,66.7,52.9Z" transform="translate(-15.6 -5.9)" fill-opacity="0"/>
  <path id="path4276" d="M66.7,52.9c.1,0,.1,4.2.1,12.4s0,12.4-.1,12.4-.1-4.2-.1-12.4S66.6,52.9,66.7,52.9Z" transform="translate(-15.6 -5.9)" fill-opacity="0"/>
  <path id="path4278" d="M66.7,52.9c.1,0,.1,4.2.1,12.4s0,12.4-.1,12.4-.1-4.2-.1-12.4S66.6,52.9,66.7,52.9Z" transform="translate(-15.6 -5.9)" fill-opacity="0"/>
  <path id="path4282" d="M42.3,56.8c11.9,0,18.3,2.2,18.3,6.3s-6.3,6.3-18.3,6.3S24,67.2,24,63.1,30.4,56.8,42.3,56.8Z" transform="translate(-15.6 -5.9)" fill-opacity="0"/>
  <rect id="rect5807" x="6.1" y="47.1" width="45.2" height="97.8" fill="#0d9557"/>
  <rect id="rect4318" x="19.2" y="85.2" width="27.4" height="28.4" fill="none"/>
  <rect id="rect3085" x="19.8" y="85.9" width="26.1" height="26.8" fill="#333"/>
  <g id="text3014">
    <text id="tspan3016" transform="translate(24.48 98.77) scale(1.04 1)" font-size="6.17" fill="#fff" font-family="Biryani-Regular, Biryani" style="isolation: isolate">HC-05</text>
    <text id="tspan3018" transform="translate(25.62 104.22) scale(1.04 1)" font-size="3.7" fill="#fff" font-family="Biryani-Regular, Biryani" style="isolation: isolate">Bluetooth</text>
  </g>
  <path id="path4280" d="M50.2,98.7c.1-.4,1.7-1.2,2.2-1.2a5.7,5.7,0,0,1,2.2,1.1c.2.4.1,1.8-.1,1.8s-.2-.2-.2-.8v-.8l-.8-.4c-1-.5-1.2-.5-2.1,0s-.8.6-.9,1.5c0,.5-.2.8-.4.5A4.88,4.88,0,0,1,50.2,98.7Z" transform="translate(-15.6 -5.9)" fill-opacity="0"/>
  <rect id="rect4318-6" x="19.2" y="119.8" width="27.4" height="21.5" fill="none"/>
  <rect id="Antenna" x="10.4" y="49.9" width="37.9" height="19.3" fill="#d4aa00"/>
  <rect id="rect5811" x="8.8" y="65.8" width="37.5" height="3.9" fill="#0d9557"/>
  <rect id="rect5813" x="44" y="52.3" width="2.4" height="13.6" fill="#0d9557"/>
  <rect id="rect5813-0" x="39.5" y="49.6" width="2.4" height="13.6" fill="#0d9557"/>
  <rect id="rect5813-0-3" x="35.2" y="52.2" width="2.4" height="13.6" fill="#0d9557"/>
  <rect id="rect5813-0-6" x="30.9" y="49.8" width="2.4" height="13.6" fill="#0d9557"/>
  <rect id="rect5813-0-3-2" x="26.5" y="52.4" width="2.4" height="13.6" fill="#0d9557"/>
  <rect id="rect5813-0-4" x="21.8" y="49.6" width="2.4" height="13.6" fill="#0d9557"/>
  <rect id="rect5813-0-3-5" x="17.2" y="52.3" width="2.4" height="13.6" fill="#0d9557"/>
  <rect id="rect5898" x="49.6" y="71.9" width="5.6" height="3.5" fill="#9393ac"/>
  <rect id="rect5898-8" x="49.6" y="77.3" width="5.6" height="3.5" fill="#9393ac"/>
  <rect id="rect5898-1" x="49.7" y="83" width="5.6" height="3.5" fill="#9393ac"/>
  <rect id="rect5898-8-2" x="49.8" y="88.3" width="5.6" height="3.5" fill="#9393ac"/>
  <rect id="rect5898-14" x="49.7" y="93.8" width="5.6" height="3.5" fill="#9393ac"/>
  <rect id="rect5898-8-9" x="49.8" y="99.2" width="5.6" height="3.5" fill="#9393ac"/>
  <rect id="rect5898-1-8" x="50" y="104.9" width="5.6" height="3.5" fill="#9393ac"/>
  <rect id="rect5898-8-2-2" x="50" y="110.3" width="5.6" height="3.5" fill="#9393ac"/>
  <rect id="rect5898-14-4" x="49.7" y="115.3" width="5.6" height="3.5" fill="#9393ac"/>
  <rect id="rect5898-8-9-5" x="49.8" y="120.7" width="5.6" height="3.5" fill="#9393ac"/>
  <rect id="rect5898-1-8-2" x="50" y="126.4" width="5.6" height="3.5" fill="#9393ac"/>
  <rect id="rect5898-8-2-2-9" x="50" y="131.8" width="5.6" height="3.5" fill="#9393ac"/>
  <rect id="rect5898-8-2-2-9-9" x="49.8" y="137.2" width="5.6" height="3.5" fill="#9393ac"/>
  <rect id="rect5898-83" x="1.9" y="71.9" width="5.6" height="3.5" fill="#9393ac"/>
  <rect id="rect5898-8-8" x="2" y="77.3" width="5.6" height="3.5" fill="#9393ac"/>
  <rect id="rect5898-1-6" x="2.1" y="83" width="5.6" height="3.5" fill="#9393ac"/>
  <rect id="rect5898-8-2-9" x="2.2" y="88.3" width="5.6" height="3.5" fill="#9393ac"/>
  <rect id="rect5898-14-8" x="2.1" y="93.8" width="5.6" height="3.5" fill="#9393ac"/>
  <rect id="rect5898-8-9-6" x="2.2" y="99.2" width="5.6" height="3.5" fill="#9393ac"/>
  <rect id="rect5898-1-8-6" x="2.3" y="104.9" width="5.6" height="3.5" fill="#9393ac"/>
  <rect id="rect5898-8-2-2-2" x="2.4" y="110.3" width="5.6" height="3.5" fill="#9393ac"/>
  <rect id="rect5898-14-4-3" x="2.1" y="115.3" width="5.6" height="3.5" fill="#9393ac"/>
  <rect id="rect5898-8-9-5-8" x="2.2" y="120.7" width="5.6" height="3.5" fill="#9393ac"/>
  <rect id="rect5898-1-8-2-2" x="2.3" y="126.4" width="5.6" height="3.5" fill="#9393ac"/>
  <rect id="rect5898-8-2-2-9-6" x="2.4" y="131.8" width="5.6" height="3.5" fill="#9393ac"/>
  <rect id="rect5898-8-2-2-9-9-2" x="2.2" y="137.2" width="5.6" height="3.5" fill="#9393ac"/>
  <rect id="rect5898-8-9-6-7" x="24.4" y="149.3" width="3.4" height="5.9" transform="translate(-15.97 -5.84) rotate(-0.14)" fill="#9393ac"/>
  <rect id="rect5898-1-8-6-5" x="29.9" y="149.2" width="3.4" height="5.9" transform="translate(-15.97 -5.82) rotate(-0.14)" fill="#9393ac"/>
  <rect id="rect5898-8-2-2-2-7" x="35" y="149.1" width="3.4" height="5.9" transform="translate(-15.97 -5.81) rotate(-0.14)" fill="#9393ac"/>
  <rect id="rect5898-14-4-3-8" x="39.8" y="149.3" width="3.4" height="5.9" transform="translate(-15.97 -5.8) rotate(-0.14)" fill="#9393ac"/>
  <rect id="rect5898-8-9-5-8-2" x="45.1" y="149.2" width="3.4" height="5.9" transform="translate(-15.97 -5.79) rotate(-0.14)" fill="#9393ac"/>
  <rect id="rect5898-1-8-2-2-7" x="50.5" y="149.2" width="3.4" height="5.9" transform="translate(-15.97 -5.77) rotate(-0.14)" fill="#9393ac"/>
  <rect id="rect5898-8-2-2-9-6-8" x="55.6" y="149.2" width="3.4" height="5.9" transform="translate(-15.97 -5.76) rotate(-0.14)" fill="#9393ac"/>
  <rect id="rect5898-8-2-2-9-9-2-0" x="60.8" y="149.2" width="3.4" height="5.9" transform="translate(-15.97 -5.75) rotate(-0.14)" fill="#9393ac"/>
  <rect id="rect3085-1" x="20.1" y="120.7" width="25.9" height="20" fill="#333"/>
  <rect id="rect5813-0-6-8" x="12.5" y="49.8" width="2.4" height="13.6" fill="#0d9557"/>
  <rect id="_5V_BOX" x="46.99" y="170.4" width="4.5" height="20" fill="#c9bfb5"/>
  <rect id="GND_BOX" x="32.28" y="170.4" width="4.5" height="20" fill="#c9bfb5"/>
  <rect id="WIRE_TX" x="17.52" y="170.4" width="4.5" height="20" fill="#c9bfb5"/>
  <rect id="WIRE_RX" x="5.39" y="170.4" width="4.5" height="20" fill="#c9bfb5"/>
  <path id="MESSAGE_BUBBLE" d="M308.9,7.4H126.4c-5.9,0-10.8,2.9-10.8,6.5V71s-8.1,24.6-32.4,50L157,95.8H308.9c5.9,0,10.8-2.9,10.8-6.5V13.8C319.7,10.3,314.8,7.4,308.9,7.4Z" transform="translate(-15.6 -5.9)" fill="#fff" stroke="#000" stroke-miterlimit="10" stroke-width="3"/>
  <text id="MESSAGE_LINE_3" transform="translate(119.4 71.2)" font-size="16" font-family="Biryani-Regular, Biryani" style="isolation: isolate">THIS IS LINE OF MES</text>
  <text id="MESSAGE_LINE_2" transform="translate(119.4 51.1)" font-size="16" font-family="Biryani-Regular, Biryani" style="isolation: isolate">THIS IS LINE OF MES</text>
  <text id="MESSAGE_LINE_1" transform="translate(119.4 32.1)" font-size="16" font-family="Biryani-Regular, Biryani" style="isolation: isolate">THIS IS LINE OF MES</text>
</svg>
