<svg id="Layer_1" data-name="Layer 1" xmlns="http://www.w3.org/2000/svg" width="46" height="57.43" viewBox="0 0 46 57.43">
  <title>built-in-color-led</title>
  <g id="RED_PIN">
    <line x1="7.67" y1="46.46" x2="7.67" y2="56.14" fill="none" stroke="#ef401d" stroke-linecap="round" stroke-miterlimit="10" stroke-width="2"/>
  </g>
  <g id="GND_PIN">
    <line x1="17.89" y1="46.75" x2="17.89" y2="56.43" fill="none" stroke="#000" stroke-linecap="round" stroke-miterlimit="10" stroke-width="2"/>
  </g>
  <g id="GREEN_PIN">
    <line x1="28.11" y1="46.75" x2="28.11" y2="56.43" fill="none" stroke="#4dc16e" stroke-linecap="round" stroke-miterlimit="10" stroke-width="2"/>
  </g>
  <g id="BLUE_PIN">
    <line x1="38.33" y1="46.75" x2="38.33" y2="56.43" fill="none" stroke="#4c5dbf" stroke-linecap="round" stroke-miterlimit="10" stroke-width="2"/>
  </g>
  <g id="base">
    <rect x="0.5" y="0.5" width="45" height="45.92" fill="#d8d8cb"/>
    <path d="M52,3V47.92H8V3H52m1-1H7V48.92H53V2Z" transform="translate(-7 -2)"/>
  </g>
  <g id="COLOR_LED">
    <path d="M30,37.38A14.84,14.84,0,1,1,44.83,22.55,14.84,14.84,0,0,1,30,37.38Z" transform="translate(-7 -2)" fill="#2d2de2"/>
    <path d="M30,8.21A14.34,14.34,0,1,1,15.67,22.55,14.35,14.35,0,0,1,30,8.21m0-1A15.34,15.34,0,1,0,45.33,22.55,15.33,15.33,0,0,0,30,7.21Z" transform="translate(-7 -2)"/>
  </g>
  <text transform="translate(6.06 45.11)" font-size="6" font-family="Biryani-Regular, Biryani">R</text>
  <text transform="translate(16.08 46.11)" font-size="9" font-family="Biryani-Regular, Biryani">-</text>
  <text transform="translate(25.69 45.11)" font-size="6" font-family="Biryani-Regular, Biryani">G</text>
  <text transform="translate(36.02 45.11)" font-size="6" font-family="Biryani-Regular, Biryani">B</text>
</svg>
