<svg xmlns="http://www.w3.org/2000/svg" xmlns:xlink="http://www.w3.org/1999/xlink" width="150" height="221.99" viewBox="0 0 150 221.99">
  <defs>
    <radialGradient id="radial-gradient" cx="150" cy="152.62" r="17.61" gradientTransform="translate(-75.2 -87) scale(1 1.26)" gradientUnits="userSpaceOnUse">
      <stop offset="0" stop-color="#fff"/>
      <stop offset="1" stop-color="#fcee21"/>
    </radialGradient>
  </defs>
  <title>digital_write</title>
  <g id="wires">
    <line id="GND" x1="13.3" y1="221.5" x2="31.3" y2="149.5" style="fill: none;stroke: #f0f;stroke-miterlimit: 10;stroke-width: 4px"/>
    <line id="PIN" x1="141.3" y1="221.5" x2="123.3" y2="149.5" style="fill: none;stroke: #000;stroke-miterlimit: 10;stroke-width: 4px"/>
    <text transform="translate(19.22 143.62)" style="font-size: 14px;font-family: ArialRoundedMTBold, Arial Rounded MT Bold">PIN </text>
    <text transform="translate(106.1 143.62)" style="font-size: 14px;font-family: ArialRoundedMTBold, Arial Rounded MT Bold">GND</text>
  </g>
  <g id="base_text">
    <g id="big_base">
      <rect x="0.5" y="0.5" width="149" height="149" style="fill: #fff"/>
      <path d="M224.2,28V176H76.2V28h148m1-1H75.2V177h150V27Z" transform="translate(-75.2 -27)"/>
    </g>
    <text id="pin_text" transform="translate(6.85 37.93)" style="font-size: 24px;font-family: ArialRoundedMTBold, Arial Rounded MT Bold">Digital Pin 7</text>
    <text id="state_text" transform="translate(13.76 73.56)" style="font-size: 24px;font-family: ArialRoundedMTBold, Arial Rounded MT Bold"><tspan style="letter-spacing: -0.0498046875em">T</tspan><tspan x="13.8" y="0">urned On</tspan></text>
  </g>
  <g id="Lightbulb">
    <g id="base">
      <path d="M147.5,174.39a5.51,5.51,0,0,1-5.5-5.5V151.38h16v17.51a5.51,5.51,0,0,1-5.5,5.5Z" transform="translate(-75.2 -27)" style="fill: #aaa0a0"/>
      <path d="M157.5,151.89v17a5,5,0,0,1-5,5h-5a5,5,0,0,1-5-5v-17h15m1-1h-17v18a6,6,0,0,0,6,6h5a6,6,0,0,0,6-6v-18Z" transform="translate(-75.2 -27)"/>
    </g>
    <path id="light_bulb" d="M69.3,85.5h11a14,14,0,0,1,14,14v12a13,13,0,0,1-13,13h-13a13,13,0,0,1-13-13v-12A14,14,0,0,1,69.3,85.5Z" style="stroke: #000;stroke-miterlimit: 10;fill: url(#radial-gradient)"/>
    <line x1="66.65" y1="141.5" x2="82.15" y2="141.5" style="fill: none;stroke: #000;stroke-miterlimit: 10"/>
    <line x1="66.65" y1="137.5" x2="82.15" y2="137.5" style="fill: none;stroke: #000;stroke-miterlimit: 10"/>
    <line x1="66.65" y1="133.5" x2="82.15" y2="133.5" style="fill: none;stroke: #000;stroke-miterlimit: 10"/>
    <line x1="66.65" y1="129.5" x2="82.15" y2="129.5" style="fill: none;stroke: #000;stroke-miterlimit: 10"/>
  </g>
</svg>
