<svg xmlns="http://www.w3.org/2000/svg" width="486.72" height="108.78" viewBox="0 0 486.72 108.78">
  <title>LCD</title>
  <g id="background">
    <rect id="wire-base" x="55.97" y="8.37" width="42.98" height="89" fill="#d4f4ef"/>
    <rect id="base" x="98.76" width="387.95" height="108.78" fill="#39b54a"/>
    <text transform="translate(59.06 47.05)" font-size="7.61" font-family="Biryani-Bold, Biryani" font-weight="700">GND</text>
    <text transform="translate(59.06 66.64)" font-size="7.61" font-family="Biryani-Bold, Biryani" font-weight="700">SDA (A4)</text>
    <text transform="translate(59.06 87.37)" font-size="7.61" font-family="Biryani-Bold, Biryani" font-weight="700">SCL (A5)</text>
    <text transform="translate(59.06 25.37)" font-size="7.61" font-family="Biryani-Bold, Biryani" font-weight="700">VCC</text>
  </g>
  <g id="wires">
    <g id="VCC">
      <line id="VCC_CONNECT" x1="1" y1="22.78" x2="1" y2="34.78" stroke-width="2" stroke="red" stroke-linecap="round" stroke-linejoin="round" fill="none"/>
      <line x1="56" y1="22.78" x2="1" y2="22.78" fill="none" stroke="red" stroke-linecap="round" stroke-linejoin="round" stroke-width="2"/>
    </g>
    <g id="GND">
      <line x1="56.49" y1="44.78" x2="9.76" y2="44.78" fill="none" stroke="#000" stroke-linecap="round" stroke-miterlimit="10" stroke-width="2"/>
      <line id="GND_CONNECT" x1="9" y1="44.78" x2="9" y2="56.78" stroke-width="2" stroke="#000" stroke-linecap="round" stroke-linejoin="round" fill="none"/>
    </g>
    <g id="SDA">
      <line x1="55.97" y1="64.15" x2="24" y2="64.15" fill="none" stroke="#f15a24" stroke-linecap="round" stroke-miterlimit="10" stroke-width="2"/>
      <line id="SDA_CONNECT" x1="24" y1="64.15" x2="24" y2="76.15" stroke-width="2" stroke="#f15a24" stroke-linecap="round" stroke-linejoin="round" fill="none"/>
    </g>
    <g id="SCL">
      <line x1="55.99" y1="84.88" x2="37" y2="84.88" fill="none" stroke="#f0f" stroke-linecap="round" stroke-miterlimit="10" stroke-width="2"/>
      <line id="SCL_CONNECT" x1="37.01" y1="84.88" x2="37.01" y2="96.88" fill="none" stroke="#f0f" stroke-linecap="round" stroke-miterlimit="10" stroke-width="2"/>
    </g>
  </g>
  <g id="col-20">
    <g id="space-20-1">
      <rect x="462.68" y="20.28" width="18.02" height="18.02" fill="#fff"/>
      <path d="M485.2,29.32v17h-17v-17h17m1-1h-19v19h19v-19Z" transform="translate(-5 -8.54)"/>
    </g>
    <text id="letter-20-1" transform="translate(464.05 35.05)" font-size="14.15" font-family="PTMono-Bold, PT Mono" font-weight="700">W</text>
    <g id="space-20-2">
      <rect x="462.68" y="38.91" width="18.02" height="18.02" fill="#fff"/>
      <path d="M485.2,48V65h-17V48h17m1-1h-19V66h19V47Z" transform="translate(-5 -8.54)"/>
    </g>
    <text id="letter-20-2" transform="translate(464.05 53.69)" font-size="14.15" font-family="PTMono-Bold, PT Mono" font-weight="700">W</text>
    <g id="space-20-3">
      <rect x="462.68" y="57.55" width="18.02" height="18.02" fill="#fff"/>
      <path d="M485.2,66.59v17h-17v-17h17m1-1h-19v19h19v-19Z" transform="translate(-5 -8.54)"/>
    </g>
    <text id="letter-20-3" transform="translate(464.05 72.32)" font-size="14.15" font-family="PTMono-Bold, PT Mono" font-weight="700">W</text>
    <g id="space-20-4">
      <rect x="462.68" y="76.19" width="18.02" height="18.02" fill="#fff"/>
      <path d="M485.2,85.23v17h-17v-17h17m1-1h-19v19h19v-19Z" transform="translate(-5 -8.54)"/>
    </g>
    <text id="letter-20-4" transform="translate(464.05 90.96)" font-size="14.15" font-family="PTMono-Bold, PT Mono" font-weight="700">W</text>
  </g>
  <g id="col-19">
    <g id="space-19-1">
      <rect x="444.05" y="20.28" width="18.02" height="18.02" fill="#fff"/>
      <path d="M466.56,29.32v17h-17v-17h17m1-1h-19v19h19v-19Z" transform="translate(-5 -8.54)"/>
    </g>
    <text id="letter-19-1" transform="translate(445.42 35.05)" font-size="14.15" font-family="PTMono-Bold, PT Mono" font-weight="700">W</text>
    <g id="space-19-2">
      <rect x="444.05" y="38.91" width="18.02" height="18.02" fill="#fff"/>
      <path d="M466.56,48V65h-17V48h17m1-1h-19V66h19V47Z" transform="translate(-5 -8.54)"/>
    </g>
    <text id="letter-19-2" transform="translate(445.42 53.69)" font-size="14.15" font-family="PTMono-Bold, PT Mono" font-weight="700">W</text>
    <g id="space-19-3">
      <rect x="444.05" y="57.55" width="18.02" height="18.02" fill="#fff"/>
      <path d="M466.56,66.59v17h-17v-17h17m1-1h-19v19h19v-19Z" transform="translate(-5 -8.54)"/>
    </g>
    <text id="letter-19-3" transform="translate(445.42 72.32)" font-size="14.15" font-family="PTMono-Bold, PT Mono" font-weight="700">W</text>
    <g id="space-19-4">
      <rect x="444.05" y="76.19" width="18.02" height="18.02" fill="#fff"/>
      <path d="M466.56,85.23v17h-17v-17h17m1-1h-19v19h19v-19Z" transform="translate(-5 -8.54)"/>
    </g>
    <text id="letter-19-4" transform="translate(445.42 90.96)" font-size="14.15" font-family="PTMono-Bold, PT Mono" font-weight="700">W</text>
  </g>
  <g id="col-18">
    <g id="space-18-1">
      <rect x="425.41" y="20.28" width="18.02" height="18.02" fill="#fff"/>
      <path d="M447.92,29.32v17h-17v-17h17m1-1h-19v19h19v-19Z" transform="translate(-5 -8.54)"/>
    </g>
    <text id="letter-18-1" transform="translate(426.78 35.05)" font-size="14.15" font-family="PTMono-Bold, PT Mono" font-weight="700">W</text>
    <g id="space-18-2">
      <rect x="425.41" y="38.91" width="18.02" height="18.02" fill="#fff"/>
      <path d="M447.92,48V65h-17V48h17m1-1h-19V66h19V47Z" transform="translate(-5 -8.54)"/>
    </g>
    <text id="letter-18-2" transform="translate(426.78 53.69)" font-size="14.15" font-family="PTMono-Bold, PT Mono" font-weight="700">W</text>
    <g id="space-18-3">
      <rect x="425.41" y="57.55" width="18.02" height="18.02" fill="#fff"/>
      <path d="M447.92,66.59v17h-17v-17h17m1-1h-19v19h19v-19Z" transform="translate(-5 -8.54)"/>
    </g>
    <text id="letter-18-3" transform="translate(426.78 72.32)" font-size="14.15" font-family="PTMono-Bold, PT Mono" font-weight="700">W</text>
    <g id="space-18-4">
      <rect x="425.41" y="76.19" width="18.02" height="18.02" fill="#fff"/>
      <path d="M447.92,85.23v17h-17v-17h17m1-1h-19v19h19v-19Z" transform="translate(-5 -8.54)"/>
    </g>
    <text id="letter-18-4" transform="translate(426.78 90.96)" font-size="14.15" font-family="PTMono-Bold, PT Mono" font-weight="700">W</text>
  </g>
  <g id="col-17">
    <g id="space-17-1">
      <rect x="406.77" y="20.28" width="18.02" height="18.02" fill="#fff"/>
      <path d="M429.29,29.32v17h-17v-17h17m1-1h-19v19h19v-19Z" transform="translate(-5 -8.54)"/>
    </g>
    <text id="letter-17-1" transform="translate(408.14 35.05)" font-size="14.15" font-family="PTMono-Bold, PT Mono" font-weight="700">W</text>
    <g id="space-17-2">
      <rect x="406.77" y="38.91" width="18.02" height="18.02" fill="#fff"/>
      <path d="M429.29,48V65h-17V48h17m1-1h-19V66h19V47Z" transform="translate(-5 -8.54)"/>
    </g>
    <text id="letter-17-2" transform="translate(408.14 53.69)" font-size="14.15" font-family="PTMono-Bold, PT Mono" font-weight="700">W</text>
    <g id="space-17-3">
      <rect x="406.77" y="57.55" width="18.02" height="18.02" fill="#fff"/>
      <path d="M429.29,66.59v17h-17v-17h17m1-1h-19v19h19v-19Z" transform="translate(-5 -8.54)"/>
    </g>
    <text id="letter-17-3" transform="translate(408.14 72.32)" font-size="14.15" font-family="PTMono-Bold, PT Mono" font-weight="700">W</text>
    <g id="space-17-4">
      <rect x="406.77" y="76.19" width="18.02" height="18.02" fill="#fff"/>
      <path d="M429.29,85.23v17h-17v-17h17m1-1h-19v19h19v-19Z" transform="translate(-5 -8.54)"/>
    </g>
    <text id="letter-17-4" transform="translate(408.14 90.96)" font-size="14.15" font-family="PTMono-Bold, PT Mono" font-weight="700">W</text>
  </g>
  <g id="col-16">
    <g id="space-16-1">
      <rect x="388.14" y="20.28" width="18.02" height="18.02" fill="#fff"/>
      <path d="M410.65,29.32v17h-17v-17h17m1-1h-19v19h19v-19Z" transform="translate(-5 -8.54)"/>
    </g>
    <text id="letter-16-1" transform="translate(389.51 35.05)" font-size="14.15" font-family="PTMono-Bold, PT Mono" font-weight="700">W</text>
    <g id="space-16-2">
      <rect x="388.14" y="38.91" width="18.02" height="18.02" fill="#fff"/>
      <path d="M410.65,48V65h-17V48h17m1-1h-19V66h19V47Z" transform="translate(-5 -8.54)"/>
    </g>
    <text id="letter-16-2" transform="translate(389.51 53.69)" font-size="14.15" font-family="PTMono-Bold, PT Mono" font-weight="700">W</text>
    <g id="space-16-3">
      <rect x="388.14" y="57.55" width="18.02" height="18.02" fill="#fff"/>
      <path d="M410.65,66.59v17h-17v-17h17m1-1h-19v19h19v-19Z" transform="translate(-5 -8.54)"/>
    </g>
    <text id="letter-16-3" transform="translate(389.51 72.32)" font-size="14.15" font-family="PTMono-Bold, PT Mono" font-weight="700">W</text>
    <g id="space-16-4">
      <rect x="388.14" y="76.19" width="18.02" height="18.02" fill="#fff"/>
      <path d="M410.65,85.23v17h-17v-17h17m1-1h-19v19h19v-19Z" transform="translate(-5 -8.54)"/>
    </g>
    <text id="letter-16-4" transform="translate(389.51 90.96)" font-size="14.15" font-family="PTMono-Bold, PT Mono" font-weight="700">W</text>
  </g>
  <g id="col-15">
    <g id="space-15-1">
      <rect x="369.5" y="20.28" width="18.02" height="18.02" fill="#fff"/>
      <path d="M392,29.32v17H375v-17h17m1-1H374v19h19v-19Z" transform="translate(-5 -8.54)"/>
    </g>
    <text id="letter-15-1" transform="translate(370.87 35.05)" font-size="14.15" font-family="PTMono-Bold, PT Mono" font-weight="700">W</text>
    <g id="space-15-2">
      <rect x="369.5" y="38.91" width="18.02" height="18.02" fill="#fff"/>
      <path d="M392,48V65H375V48h17m1-1H374V66h19V47Z" transform="translate(-5 -8.54)"/>
    </g>
    <text id="letter-15-2" transform="translate(370.87 53.69)" font-size="14.15" font-family="PTMono-Bold, PT Mono" font-weight="700">W</text>
    <g id="space-15-3">
      <rect x="369.5" y="57.55" width="18.02" height="18.02" fill="#fff"/>
      <path d="M392,66.59v17H375v-17h17m1-1H374v19h19v-19Z" transform="translate(-5 -8.54)"/>
    </g>
    <text id="letter-15-3" transform="translate(370.87 72.32)" font-size="14.15" font-family="PTMono-Bold, PT Mono" font-weight="700">W</text>
    <g id="space-15-4">
      <rect x="369.5" y="76.19" width="18.02" height="18.02" fill="#fff"/>
      <path d="M392,85.23v17H375v-17h17m1-1H374v19h19v-19Z" transform="translate(-5 -8.54)"/>
    </g>
    <text id="letter-15-4" transform="translate(370.87 90.96)" font-size="14.15" font-family="PTMono-Bold, PT Mono" font-weight="700">W</text>
  </g>
  <g id="col-14">
    <g id="space-14-1">
      <rect x="350.86" y="20.28" width="18.02" height="18.02" fill="#fff"/>
      <path d="M373.37,29.32v17h-17v-17h17m1-1h-19v19h19v-19Z" transform="translate(-5 -8.54)"/>
    </g>
    <text id="letter-14-1" transform="translate(352.23 35.05)" font-size="14.15" font-family="PTMono-Bold, PT Mono" font-weight="700">W</text>
    <g id="space-14-2">
      <rect x="350.86" y="38.91" width="18.02" height="18.02" fill="#fff"/>
      <path d="M373.37,48V65h-17V48h17m1-1h-19V66h19V47Z" transform="translate(-5 -8.54)"/>
    </g>
    <text id="letter-14-2" transform="translate(352.23 53.69)" font-size="14.15" font-family="PTMono-Bold, PT Mono" font-weight="700">W</text>
    <g id="space-14-3">
      <rect x="350.86" y="57.55" width="18.02" height="18.02" fill="#fff"/>
      <path d="M373.37,66.59v17h-17v-17h17m1-1h-19v19h19v-19Z" transform="translate(-5 -8.54)"/>
    </g>
    <text id="letter-14-3" transform="translate(352.23 72.32)" font-size="14.15" font-family="PTMono-Bold, PT Mono" font-weight="700">W</text>
    <g id="space-14-4">
      <rect x="350.86" y="76.19" width="18.02" height="18.02" fill="#fff"/>
      <path d="M373.37,85.23v17h-17v-17h17m1-1h-19v19h19v-19Z" transform="translate(-5 -8.54)"/>
    </g>
    <text id="letter-14-4" transform="translate(352.23 90.96)" font-size="14.15" font-family="PTMono-Bold, PT Mono" font-weight="700">W</text>
  </g>
  <g id="col-13">
    <g id="space-13-1">
      <rect x="332.21" y="20.28" width="18.02" height="18.02" fill="#fff"/>
      <path d="M354.72,29.32v17h-17v-17h17m1-1h-19v19h19v-19Z" transform="translate(-5 -8.54)"/>
    </g>
    <text id="letter-13-1" transform="translate(333.58 35.05)" font-size="14.15" font-family="PTMono-Bold, PT Mono" font-weight="700">W</text>
    <g id="space-13-2">
      <rect x="332.21" y="38.91" width="18.02" height="18.02" fill="#fff"/>
      <path d="M354.72,48V65h-17V48h17m1-1h-19V66h19V47Z" transform="translate(-5 -8.54)"/>
    </g>
    <text id="letter-13-2" transform="translate(333.58 53.69)" font-size="14.15" font-family="PTMono-Bold, PT Mono" font-weight="700">W</text>
    <g id="space-13-3">
      <rect x="332.21" y="57.55" width="18.02" height="18.02" fill="#fff"/>
      <path d="M354.72,66.59v17h-17v-17h17m1-1h-19v19h19v-19Z" transform="translate(-5 -8.54)"/>
    </g>
    <text id="letter-13-3" transform="translate(333.58 72.32)" font-size="14.15" font-family="PTMono-Bold, PT Mono" font-weight="700">W</text>
    <g id="space-13-4">
      <rect x="332.21" y="76.19" width="18.02" height="18.02" fill="#fff"/>
      <path d="M354.72,85.23v17h-17v-17h17m1-1h-19v19h19v-19Z" transform="translate(-5 -8.54)"/>
    </g>
    <text id="letter-13-4" transform="translate(333.58 90.96)" font-size="14.15" font-family="PTMono-Bold, PT Mono" font-weight="700">W</text>
  </g>
  <g id="col-12">
    <g id="space-12-1">
      <rect x="313.54" y="20.28" width="18.02" height="18.02" fill="#fff"/>
      <path d="M336.06,29.32v17H319v-17h17m1-1H318v19h19v-19Z" transform="translate(-5 -8.54)"/>
    </g>
    <text id="letter-12-1" transform="translate(314.91 35.05)" font-size="14.15" font-family="PTMono-Bold, PT Mono" font-weight="700">W</text>
    <g id="space-12-2">
      <rect x="313.54" y="38.91" width="18.02" height="18.02" fill="#fff"/>
      <path d="M336.06,48V65H319V48h17m1-1H318V66h19V47Z" transform="translate(-5 -8.54)"/>
    </g>
    <text id="letter-12-2" transform="translate(314.91 53.69)" font-size="14.15" font-family="PTMono-Bold, PT Mono" font-weight="700">W</text>
    <g id="space-12-3">
      <rect x="313.54" y="57.55" width="18.02" height="18.02" fill="#fff"/>
      <path d="M336.06,66.59v17H319v-17h17m1-1H318v19h19v-19Z" transform="translate(-5 -8.54)"/>
    </g>
    <text id="letter-12-3" transform="translate(314.91 72.32)" font-size="14.15" font-family="PTMono-Bold, PT Mono" font-weight="700">W</text>
    <g id="space-12-4">
      <rect x="313.54" y="76.19" width="18.02" height="18.02" fill="#fff"/>
      <path d="M336.06,85.23v17H319v-17h17m1-1H318v19h19v-19Z" transform="translate(-5 -8.54)"/>
    </g>
    <text id="letter-12-4" transform="translate(314.91 90.96)" font-size="14.15" font-family="PTMono-Bold, PT Mono" font-weight="700">W</text>
  </g>
  <g id="col-11">
    <g id="space-11-1">
      <rect x="294.81" y="20.28" width="18.02" height="18.02" fill="#fff"/>
      <path d="M317.32,29.32v17h-17v-17h17m1-1h-19v19h19v-19Z" transform="translate(-5 -8.54)"/>
    </g>
    <text id="letter-11-1" transform="translate(296.18 35.05)" font-size="14.15" font-family="PTMono-Bold, PT Mono" font-weight="700">W</text>
    <g id="space-11-2">
      <rect x="294.81" y="38.91" width="18.02" height="18.02" fill="#fff"/>
      <path d="M317.32,48V65h-17V48h17m1-1h-19V66h19V47Z" transform="translate(-5 -8.54)"/>
    </g>
    <text id="letter-11-2" transform="translate(296.18 53.69)" font-size="14.15" font-family="PTMono-Bold, PT Mono" font-weight="700">W</text>
    <g id="space-11-3">
      <rect x="294.81" y="57.55" width="18.02" height="18.02" fill="#fff"/>
      <path d="M317.32,66.59v17h-17v-17h17m1-1h-19v19h19v-19Z" transform="translate(-5 -8.54)"/>
    </g>
    <text id="letter-11-3" transform="translate(296.18 72.32)" font-size="14.15" font-family="PTMono-Bold, PT Mono" font-weight="700">W</text>
    <g id="space-11-4">
      <rect x="294.81" y="76.19" width="18.02" height="18.02" fill="#fff"/>
      <path d="M317.32,85.23v17h-17v-17h17m1-1h-19v19h19v-19Z" transform="translate(-5 -8.54)"/>
    </g>
    <text id="letter-11-4" transform="translate(296.18 90.96)" font-size="14.15" font-family="PTMono-Bold, PT Mono" font-weight="700">W</text>
  </g>
  <g id="col-10">
    <g id="space-10-1">
      <rect x="276.17" y="20.28" width="18.02" height="18.02" fill="#fff"/>
      <path d="M298.69,29.32v17h-17v-17h17m1-1h-19v19h19v-19Z" transform="translate(-5 -8.54)"/>
    </g>
    <text id="letter-10-1" transform="translate(277.54 35.05)" font-size="14.15" font-family="PTMono-Bold, PT Mono" font-weight="700">W</text>
    <g id="space-10-2">
      <rect x="276.17" y="38.91" width="18.02" height="18.02" fill="#fff"/>
      <path d="M298.69,48V65h-17V48h17m1-1h-19V66h19V47Z" transform="translate(-5 -8.54)"/>
    </g>
    <text id="letter-10-2" transform="translate(277.54 53.69)" font-size="14.15" font-family="PTMono-Bold, PT Mono" font-weight="700">W</text>
    <g id="space-10-3">
      <rect x="276.17" y="57.55" width="18.02" height="18.02" fill="#fff"/>
      <path d="M298.69,66.59v17h-17v-17h17m1-1h-19v19h19v-19Z" transform="translate(-5 -8.54)"/>
    </g>
    <text id="letter-10-3" transform="translate(277.54 72.32)" font-size="14.15" font-family="PTMono-Bold, PT Mono" font-weight="700">W</text>
    <g id="space-10-4">
      <rect x="276.17" y="76.19" width="18.02" height="18.02" fill="#fff"/>
      <path d="M298.69,85.23v17h-17v-17h17m1-1h-19v19h19v-19Z" transform="translate(-5 -8.54)"/>
    </g>
    <text id="letter-10-4" transform="translate(277.54 90.96)" font-size="14.15" font-family="PTMono-Bold, PT Mono" font-weight="700">W</text>
  </g>
  <g id="col-9">
    <g id="space-9-1">
      <rect x="257.99" y="20.28" width="18.02" height="18.02" fill="#fff"/>
      <path d="M280.5,29.32v17h-17v-17h17m1-1h-19v19h19v-19Z" transform="translate(-5 -8.54)"/>
    </g>
    <text id="letter-9-1" transform="translate(259.36 35.05)" font-size="14.15" font-family="PTMono-Bold, PT Mono" font-weight="700">W</text>
    <g id="space-9-2">
      <rect x="257.99" y="38.91" width="18.02" height="18.02" fill="#fff"/>
      <path d="M280.5,48V65h-17V48h17m1-1h-19V66h19V47Z" transform="translate(-5 -8.54)"/>
    </g>
    <text id="letter-9-2" transform="translate(259.36 53.69)" font-size="14.15" font-family="PTMono-Bold, PT Mono" font-weight="700">W</text>
    <g id="space-9-3">
      <rect x="257.99" y="57.55" width="18.02" height="18.02" fill="#fff"/>
      <path d="M280.5,66.59v17h-17v-17h17m1-1h-19v19h19v-19Z" transform="translate(-5 -8.54)"/>
    </g>
    <text id="letter-9-3" transform="translate(259.36 72.32)" font-size="14.15" font-family="PTMono-Bold, PT Mono" font-weight="700">W</text>
    <g id="space-9-4">
      <rect x="257.99" y="76.19" width="18.02" height="18.02" fill="#fff"/>
      <path d="M280.5,85.23v17h-17v-17h17m1-1h-19v19h19v-19Z" transform="translate(-5 -8.54)"/>
    </g>
    <text id="letter-9-4" transform="translate(259.36 90.96)" font-size="14.15" font-family="PTMono-Bold, PT Mono" font-weight="700">W</text>
  </g>
  <g id="col-8">
    <g id="space-8-1">
      <rect x="239.35" y="20.28" width="18.02" height="18.02" fill="#fff"/>
      <path d="M261.86,29.32v17h-17v-17h17m1-1h-19v19h19v-19Z" transform="translate(-5 -8.54)"/>
    </g>
    <text id="letter-8-1" transform="translate(240.72 35.05)" font-size="14.15" font-family="PTMono-Bold, PT Mono" font-weight="700">W</text>
    <g id="space-8-2">
      <rect x="239.35" y="38.91" width="18.02" height="18.02" fill="#fff"/>
      <path d="M261.86,48V65h-17V48h17m1-1h-19V66h19V47Z" transform="translate(-5 -8.54)"/>
    </g>
    <text id="letter-8-2" transform="translate(240.72 53.69)" font-size="14.15" font-family="PTMono-Bold, PT Mono" font-weight="700">W</text>
    <g id="space-8-3">
      <rect x="239.35" y="57.55" width="18.02" height="18.02" fill="#fff"/>
      <path d="M261.86,66.59v17h-17v-17h17m1-1h-19v19h19v-19Z" transform="translate(-5 -8.54)"/>
    </g>
    <text id="letter-8-3" transform="translate(240.72 72.32)" font-size="14.15" font-family="PTMono-Bold, PT Mono" font-weight="700">W</text>
    <g id="space-8-4">
      <rect x="239.35" y="76.19" width="18.02" height="18.02" fill="#fff"/>
      <path d="M261.86,85.23v17h-17v-17h17m1-1h-19v19h19v-19Z" transform="translate(-5 -8.54)"/>
    </g>
    <text id="letter-8-4" transform="translate(240.72 90.96)" font-size="14.15" font-family="PTMono-Bold, PT Mono" font-weight="700">W</text>
  </g>
  <g id="col-7">
    <g id="space-7-1">
      <rect x="220.71" y="20.28" width="18.02" height="18.02" fill="#fff"/>
      <path d="M243.23,29.32v17h-17v-17h17m1-1h-19v19h19v-19Z" transform="translate(-5 -8.54)"/>
    </g>
    <text id="letter-7-1" transform="translate(222.08 35.05)" font-size="14.15" font-family="PTMono-Bold, PT Mono" font-weight="700">W</text>
    <g id="space-7-2">
      <rect x="220.71" y="38.91" width="18.02" height="18.02" fill="#fff"/>
      <path d="M243.23,48V65h-17V48h17m1-1h-19V66h19V47Z" transform="translate(-5 -8.54)"/>
    </g>
    <text id="letter-7-2" transform="translate(222.08 53.69)" font-size="14.15" font-family="PTMono-Bold, PT Mono" font-weight="700">W</text>
    <g id="space-7-3">
      <rect x="220.71" y="57.55" width="18.02" height="18.02" fill="#fff"/>
      <path d="M243.23,66.59v17h-17v-17h17m1-1h-19v19h19v-19Z" transform="translate(-5 -8.54)"/>
    </g>
    <text id="letter-7-3" transform="translate(222.08 72.32)" font-size="14.15" font-family="PTMono-Bold, PT Mono" font-weight="700">W</text>
    <g id="space-7-4">
      <rect x="220.71" y="76.19" width="18.02" height="18.02" fill="#fff"/>
      <path d="M243.23,85.23v17h-17v-17h17m1-1h-19v19h19v-19Z" transform="translate(-5 -8.54)"/>
    </g>
    <text id="letter-7-4" transform="translate(222.08 90.96)" font-size="14.15" font-family="PTMono-Bold, PT Mono" font-weight="700">W</text>
  </g>
  <g id="col-6">
    <g id="space-6-1">
      <rect x="202.08" y="20.28" width="18.02" height="18.02" fill="#fff"/>
      <path d="M224.59,29.32v17h-17v-17h17m1-1h-19v19h19v-19Z" transform="translate(-5 -8.54)"/>
    </g>
    <text id="letter-6-1" transform="translate(203.45 35.05)" font-size="14.15" font-family="PTMono-Bold, PT Mono" font-weight="700">W</text>
    <g id="space-6-2">
      <rect x="202.08" y="38.91" width="18.02" height="18.02" fill="#fff"/>
      <path d="M224.59,48V65h-17V48h17m1-1h-19V66h19V47Z" transform="translate(-5 -8.54)"/>
    </g>
    <text id="letter-6-2" transform="translate(203.45 53.69)" font-size="14.15" font-family="PTMono-Bold, PT Mono" font-weight="700">W</text>
    <g id="space-6-3">
      <rect x="202.08" y="57.55" width="18.02" height="18.02" fill="#fff"/>
      <path d="M224.59,66.59v17h-17v-17h17m1-1h-19v19h19v-19Z" transform="translate(-5 -8.54)"/>
    </g>
    <text id="letter-6-3" transform="translate(203.45 72.32)" font-size="14.15" font-family="PTMono-Bold, PT Mono" font-weight="700">W</text>
    <g id="space-6-4">
      <rect x="202.08" y="76.19" width="18.02" height="18.02" fill="#fff"/>
      <path d="M224.59,85.23v17h-17v-17h17m1-1h-19v19h19v-19Z" transform="translate(-5 -8.54)"/>
    </g>
    <text id="letter-6-4" transform="translate(203.45 90.96)" font-size="14.15" font-family="PTMono-Bold, PT Mono" font-weight="700">W</text>
  </g>
  <g id="col-5">
    <g id="space-5-1">
      <rect x="183.44" y="20.28" width="18.02" height="18.02" fill="#fff"/>
      <path d="M206,29.32v17h-17v-17h17m1-1h-19v19h19v-19Z" transform="translate(-5 -8.54)"/>
    </g>
    <text id="letter-5-1" transform="translate(184.81 35.05)" font-size="14.15" font-family="PTMono-Bold, PT Mono" font-weight="700">W</text>
    <g id="space-5-2">
      <rect x="183.44" y="38.91" width="18.02" height="18.02" fill="#fff"/>
      <path d="M206,48V65h-17V48h17m1-1h-19V66h19V47Z" transform="translate(-5 -8.54)"/>
    </g>
    <text id="letter-5-2" transform="translate(184.81 53.69)" font-size="14.15" font-family="PTMono-Bold, PT Mono" font-weight="700">W</text>
    <g id="space-5-3">
      <rect x="183.44" y="57.55" width="18.02" height="18.02" fill="#fff"/>
      <path d="M206,66.59v17h-17v-17h17m1-1h-19v19h19v-19Z" transform="translate(-5 -8.54)"/>
    </g>
    <text id="letter-5-3" transform="translate(184.81 72.32)" font-size="14.15" font-family="PTMono-Bold, PT Mono" font-weight="700">W</text>
    <g id="space-5-4">
      <rect x="183.44" y="76.19" width="18.02" height="18.02" fill="#fff"/>
      <path d="M206,85.23v17h-17v-17h17m1-1h-19v19h19v-19Z" transform="translate(-5 -8.54)"/>
    </g>
    <text id="letter-5-4" transform="translate(184.81 90.96)" font-size="14.15" font-family="PTMono-Bold, PT Mono" font-weight="700">W</text>
  </g>
  <g id="col-4">
    <g id="space-4-1">
      <rect x="164.96" y="20.28" width="18.02" height="18.02" fill="#fff"/>
      <path d="M187.47,29.32v17h-17v-17h17m1-1h-19v19h19v-19Z" transform="translate(-5 -8.54)"/>
    </g>
    <text id="letter-4-1" transform="translate(166.62 35.05)" font-size="14.15" font-family="PTMono-Bold, PT Mono" font-weight="700">W</text>
    <g id="space-4-2">
      <rect x="164.96" y="38.91" width="18.02" height="18.02" fill="#fff"/>
      <path d="M187.47,48V65h-17V48h17m1-1h-19V66h19V47Z" transform="translate(-5 -8.54)"/>
    </g>
    <text id="letter-4-2" transform="translate(166.62 53.69)" font-size="14.15" font-family="PTMono-Bold, PT Mono" font-weight="700">W</text>
    <g id="space-4-3">
      <rect x="164.96" y="57.55" width="18.02" height="18.02" fill="#fff"/>
      <path d="M187.47,66.59v17h-17v-17h17m1-1h-19v19h19v-19Z" transform="translate(-5 -8.54)"/>
    </g>
    <text id="letter-4-3" transform="translate(166.62 72.32)" font-size="14.15" font-family="PTMono-Bold, PT Mono" font-weight="700">W</text>
    <g id="space-4-4">
      <rect x="164.96" y="76.19" width="18.02" height="18.02" fill="#fff"/>
      <path d="M187.47,85.23v17h-17v-17h17m1-1h-19v19h19v-19Z" transform="translate(-5 -8.54)"/>
    </g>
    <text id="letter-4-4" transform="translate(166.62 90.96)" font-size="14.15" font-family="PTMono-Bold, PT Mono" font-weight="700">W</text>
  </g>
  <g id="col-3">
    <g id="space-3-1">
      <rect x="146.32" y="20.28" width="18.02" height="18.02" fill="#fff"/>
      <path d="M168.83,29.32v17h-17v-17h17m1-1h-19v19h19v-19Z" transform="translate(-5 -8.54)"/>
    </g>
    <text id="letter-3-1" transform="translate(147.99 35.05)" font-size="14.15" font-family="PTMono-Bold, PT Mono" font-weight="700">W</text>
    <g id="space-3-2">
      <rect x="146.32" y="38.91" width="18.02" height="18.02" fill="#fff"/>
      <path d="M168.83,48V65h-17V48h17m1-1h-19V66h19V47Z" transform="translate(-5 -8.54)"/>
    </g>
    <text id="letter-3-2" transform="translate(147.99 53.69)" font-size="14.15" font-family="PTMono-Bold, PT Mono" font-weight="700">W</text>
    <g id="space-3-3">
      <rect x="146.32" y="57.55" width="18.02" height="18.02" fill="#fff"/>
      <path d="M168.83,66.59v17h-17v-17h17m1-1h-19v19h19v-19Z" transform="translate(-5 -8.54)"/>
    </g>
    <text id="letter-3-3" transform="translate(147.99 72.32)" font-size="14.15" font-family="PTMono-Bold, PT Mono" font-weight="700">W</text>
    <g id="space-3-4">
      <rect x="146.32" y="76.19" width="18.02" height="18.02" fill="#fff"/>
      <path d="M168.83,85.23v17h-17v-17h17m1-1h-19v19h19v-19Z" transform="translate(-5 -8.54)"/>
    </g>
    <text id="letter-3-4" transform="translate(147.99 90.96)" font-size="14.15" font-family="PTMono-Bold, PT Mono" font-weight="700">W</text>
  </g>
  <g id="col-2">
    <g id="space-2-1">
      <rect x="127.98" y="20.28" width="18.02" height="18.02" fill="#fff"/>
      <path d="M150.49,29.32v17h-17v-17h17m1-1h-19v19h19v-19Z" transform="translate(-5 -8.54)"/>
    </g>
    <text id="letter-2-1" transform="translate(128.33 34.97) rotate(1.04)" font-size="14.15" font-family="PTMono-Bold, PT Mono" font-weight="700">W</text>
    <g id="space-2-2">
      <rect x="127.98" y="38.91" width="18.02" height="18.02" fill="#fff"/>
      <path d="M150.49,48V65h-17V48h17m1-1h-19V66h19V47Z" transform="translate(-5 -8.54)"/>
    </g>
    <text id="letter-2-2" transform="translate(129.33 53.6) rotate(1.04)" font-size="14.15" font-family="PTMono-Bold, PT Mono" font-weight="700">W</text>
    <g id="space-2-3">
      <rect x="127.98" y="57.55" width="18.02" height="18.02" fill="#fff"/>
      <path d="M150.49,66.59v17h-17v-17h17m1-1h-19v19h19v-19Z" transform="translate(-5 -8.54)"/>
    </g>
    <text id="letter-2-3" transform="translate(129.33 72.24) rotate(1.04)" font-size="14.15" font-family="PTMono-Bold, PT Mono" font-weight="700">W</text>
    <g id="space-2-4">
      <rect x="127.98" y="76.19" width="18.02" height="18.02" fill="#fff"/>
      <path d="M150.49,85.23v17h-17v-17h17m1-1h-19v19h19v-19Z" transform="translate(-5 -8.54)"/>
    </g>
    <text id="letter-2-4" transform="translate(129.33 90.88) rotate(1.04)" font-size="14.15" font-family="PTMono-Bold, PT Mono" font-weight="700">W</text>
  </g>
  <g id="col-1">
    <g id="space-1-1">
      <rect x="109.34" y="20.28" width="18.02" height="18.02" fill="#fff"/>
      <path d="M131.86,29.32v17h-17v-17h17m1-1h-19v19h19v-19Z" transform="translate(-5 -8.54)"/>
    </g>
    <text id="letter-1-1" transform="translate(110.54 35.05)" font-size="14.15" font-family="PTMono-Bold, PT Mono" font-weight="700">W</text>
    <g id="space-1-2">
      <rect x="109.34" y="38.91" width="18.02" height="18.02" fill="#fff"/>
      <path d="M131.86,48V65h-17V48h17m1-1h-19V66h19V47Z" transform="translate(-5 -8.54)"/>
    </g>
    <text id="letter-1-2" transform="translate(110.54 53.69)" font-size="14.15" font-family="PTMono-Bold, PT Mono" font-weight="700">W</text>
    <g id="space-1-3">
      <rect x="109.34" y="57.55" width="18.02" height="18.02" fill="#fff"/>
      <path d="M131.86,66.59v17h-17v-17h17m1-1h-19v19h19v-19Z" transform="translate(-5 -8.54)"/>
    </g>
    <text id="letter-1-3" transform="translate(110.54 72.32)" font-size="14.15" font-family="PTMono-Bold, PT Mono" font-weight="700">W</text>
    <g id="space-1-4">
      <rect x="109.34" y="76.19" width="18.02" height="18.02" fill="#fff"/>
      <path d="M131.86,85.23v17h-17v-17h17m1-1h-19v19h19v-19Z" transform="translate(-5 -8.54)"/>
    </g>
    <text id="letter-1-4" transform="translate(110.61 90.96)" font-size="14.15" font-family="PTMono-Bold, PT Mono" font-weight="700">W</text>
  </g>
  <g id="row">
    <text id="num-row-2" transform="translate(101.98 32.27)" font-size="9.13" font-family="Biryani-SemiBold, Biryani" font-weight="600">1</text>
    <text id="num-row-2-2" data-name="num-row-2" transform="translate(101.98 52.05)" font-size="9.13" font-family="Biryani-SemiBold, Biryani" font-weight="600">2</text>
    <text id="num-row-3" transform="translate(101.98 70.68)" font-size="9.13" font-family="Biryani-SemiBold, Biryani" font-weight="600">3</text>
    <text id="num-row-4" transform="translate(101.98 89.32)" font-size="9.13" font-family="Biryani-SemiBold, Biryani" font-weight="600">4</text>
  </g>
  <g id="coloumns">
    <text id="num-col-1" transform="translate(115.98 16.59)" font-size="9.13" font-family="Biryani-SemiBold, Biryani" font-weight="600">1</text>
    <text id="num-col-2" transform="translate(134.28 16.59)" font-size="9.13" font-family="Biryani-SemiBold, Biryani" font-weight="600">2</text>
    <text id="num-col-3" transform="translate(152.62 16.59)" font-size="9.13" font-family="Biryani-SemiBold, Biryani" font-weight="600">3</text>
    <text id="num-col-4" transform="translate(171.25 16.59)" font-size="9.13" font-family="Biryani-SemiBold, Biryani" font-weight="600">4</text>
    <text id="num-col-5" transform="translate(189.73 16.59)" font-size="9.13" font-family="Biryani-SemiBold, Biryani" font-weight="600">5</text>
    <text id="num-col-6" transform="translate(208.37 16.59)" font-size="9.13" font-family="Biryani-SemiBold, Biryani" font-weight="600">6</text>
    <text id="num-col-7" transform="translate(227.01 16.59)" font-size="9.13" font-family="Biryani-SemiBold, Biryani" font-weight="600">7</text>
    <text id="num-col-8" transform="translate(245.65 16.59)" font-size="9.13" font-family="Biryani-SemiBold, Biryani" font-weight="600">8</text>
    <text id="num-col-9" transform="translate(264.28 16.59)" font-size="9.13" font-family="Biryani-SemiBold, Biryani" font-weight="600">9</text>
    <text id="num-col-10" transform="translate(279.76 16.59)" font-size="9.13" font-family="Biryani-SemiBold, Biryani" font-weight="600">10</text>
    <text id="num-col-11" transform="translate(298.39 16.59)" font-size="9.13" font-family="Biryani-SemiBold, Biryani" font-weight="600">11</text>
    <text id="num-col-12" transform="translate(317.12 16.59)" font-size="9.13" font-family="Biryani-SemiBold, Biryani" font-weight="600">12</text>
    <text id="num-col-13" transform="translate(335.79 16.59)" font-size="9.13" font-family="Biryani-SemiBold, Biryani" font-weight="600">13</text>
    <text id="num-col-14" transform="translate(354.44 16.59)" font-size="9.13" font-family="Biryani-SemiBold, Biryani" font-weight="600">14</text>
    <text id="num-col-15" transform="translate(373.08 16.59)" font-size="9.13" font-family="Biryani-SemiBold, Biryani" font-weight="600">15</text>
    <text id="num-col-16" transform="translate(391.72 16.59)" font-size="9.13" font-family="Biryani-SemiBold, Biryani" font-weight="600">16</text>
    <text id="num-col-17" transform="translate(410.36 16.59)" font-size="9.13" font-family="Biryani-SemiBold, Biryani" font-weight="600">17</text>
    <text id="num-col-18" transform="translate(429 16.59)" font-size="9.13" font-family="Biryani-SemiBold, Biryani" font-weight="600">18</text>
    <text id="num-col-19" transform="translate(447.63 16.59)" font-size="9.13" font-family="Biryani-SemiBold, Biryani" font-weight="600">19</text>
    <text id="num-col-20" transform="translate(466.27 16.59)" font-size="9.13" font-family="Biryani-SemiBold, Biryani" font-weight="600">20</text>
  </g>
</svg>
