<svg xmlns="http://www.w3.org/2000/svg" width="594.33" height="294.41" viewBox="0 0 594.33 294.41">
  <title>led_light_strip</title>
  <g id="simple_wires">
    <g id="GND">
      <line id="CONNECT_GND" x1="1" y1="293.41" x2="1" y2="236.41" fill="none" stroke="#000" stroke-linecap="round" stroke-miterlimit="10" stroke-width="2"/>
      <line x1="0.78" y1="236.41" x2="93.78" y2="236.41" fill="none" stroke="#000" stroke-miterlimit="10" stroke-width="2"/>
    </g>
    <g id="POWER">
      <line x1="41.78" y1="255.41" x2="58.78" y2="255.41" fill="none" stroke="red" stroke-linecap="round" stroke-miterlimit="10" stroke-width="2"/>
      <line id="CONNECT_POWER" x1="41.78" y1="255.41" x2="41.78" y2="293.41" fill="none" stroke="red" stroke-linecap="round" stroke-miterlimit="10" stroke-width="2"/>
    </g>
    <g id="DATA">
      <line x1="20.78" y1="245.41" x2="74.78" y2="245.41" fill="none" stroke="#006837" stroke-miterlimit="10" stroke-width="2"/>
      <line id="CONNECT_DATA" x1="20.39" y1="293.41" x2="20.39" y2="245.41" fill="none" stroke="#006837" stroke-linecap="round" stroke-miterlimit="10" stroke-width="2"/>
    </g>
    <text transform="translate(556.16 36.65)" font-size="12" font-family="Biryani-SemiBold, Biryani" font-weight="600">60</text>
    <text id="GND_TEXT" transform="translate(3.9 286.66)" font-size="12" font-family="Biryani-SemiBold, Biryani" font-weight="600">-</text>
    <text id="DATA_TEXT" transform="translate(23.52 286.66)" font-size="12" font-family="Biryani-SemiBold, Biryani" font-weight="600">D</text>
    <text id="POWER_TEXT" transform="translate(46.39 286.66)" font-size="12" font-family="Biryani-SemiBold, Biryani" font-weight="600">+</text>
  </g>
  <g id="_1" data-name="1">
    <g id="BASE">
      <rect x="59.28" y="234.91" width="44" height="23" fill="#f2d4b6"/>
      <rect x="59.28" y="234.91" width="44" height="23" fill="none" stroke="#000" stroke-miterlimit="10"/>
    </g>
    <g id="LED">
      <circle cx="80.78" cy="246.41" r="8.5"/>
      <circle cx="80.78" cy="246.41" r="8.5" fill="none" stroke="#000" stroke-miterlimit="10"/>
    </g>
    <text transform="translate(76.16 270.65)" font-size="12" font-family="Biryani-SemiBold, Biryani" font-weight="600">1</text>
  </g>
  <g id="_2" data-name="2">
    <g id="BASE-2" data-name="BASE">
      <rect x="103.28" y="234.91" width="44" height="23" fill="#f2d4b6"/>
      <rect x="103.28" y="234.91" width="44" height="23" fill="none" stroke="#000" stroke-miterlimit="10"/>
    </g>
    <g id="LED-2" data-name="LED">
      <circle cx="124.78" cy="246.41" r="8.5"/>
      <circle cx="124.78" cy="246.41" r="8.5" fill="none" stroke="#000" stroke-miterlimit="10"/>
    </g>
    <text transform="translate(120.16 270.65)" font-size="12" font-family="Biryani-SemiBold, Biryani" font-weight="600">2</text>
  </g>
  <g id="_3" data-name="3">
    <g id="BASE-3" data-name="BASE">
      <rect x="147.28" y="234.91" width="44" height="23" fill="#f2d4b6"/>
      <rect x="147.28" y="234.91" width="44" height="23" fill="none" stroke="#000" stroke-miterlimit="10"/>
    </g>
    <g id="LED-3" data-name="LED">
      <circle cx="168.78" cy="246.41" r="8.5"/>
      <circle cx="168.78" cy="246.41" r="8.5" fill="none" stroke="#000" stroke-miterlimit="10"/>
    </g>
    <text transform="translate(164.16 270.65)" font-size="12" font-family="Biryani-SemiBold, Biryani" font-weight="600">3</text>
  </g>
  <g id="_4" data-name="4">
    <g id="BASE-4" data-name="BASE">
      <rect x="191.28" y="234.91" width="44" height="23" fill="#f2d4b6"/>
      <rect x="191.28" y="234.91" width="44" height="23" fill="none" stroke="#000" stroke-miterlimit="10"/>
    </g>
    <g id="LED-4" data-name="LED">
      <circle cx="212.78" cy="246.41" r="8.5"/>
      <circle cx="212.78" cy="246.41" r="8.5" fill="none" stroke="#000" stroke-miterlimit="10"/>
    </g>
    <text transform="translate(208.16 270.65)" font-size="12" font-family="Biryani-SemiBold, Biryani" font-weight="600">4</text>
  </g>
  <g id="_5" data-name="5">
    <g id="BASE-5" data-name="BASE">
      <rect x="235.28" y="234.91" width="44" height="23" fill="#f2d4b6"/>
      <rect x="235.28" y="234.91" width="44" height="23" fill="none" stroke="#000" stroke-miterlimit="10"/>
    </g>
    <g id="LED-5" data-name="LED">
      <circle cx="256.78" cy="246.41" r="8.5"/>
      <circle cx="256.78" cy="246.41" r="8.5" fill="none" stroke="#000" stroke-miterlimit="10"/>
    </g>
    <text transform="translate(252.16 270.65)" font-size="12" font-family="Biryani-SemiBold, Biryani" font-weight="600">5</text>
  </g>
  <g id="_6" data-name="6">
    <g id="BASE-6" data-name="BASE">
      <rect x="279.28" y="234.91" width="44" height="23" fill="#f2d4b6"/>
      <rect x="279.28" y="234.91" width="44" height="23" fill="none" stroke="#000" stroke-miterlimit="10"/>
    </g>
    <g id="LED-6" data-name="LED">
      <circle cx="300.78" cy="246.41" r="8.5"/>
      <circle cx="300.78" cy="246.41" r="8.5" fill="none" stroke="#000" stroke-miterlimit="10"/>
    </g>
    <text transform="translate(296.16 270.65)" font-size="12" font-family="Biryani-SemiBold, Biryani" font-weight="600">6</text>
  </g>
  <g id="_7" data-name="7">
    <g id="BASE-7" data-name="BASE">
      <rect x="323.28" y="234.91" width="44" height="23" fill="#f2d4b6"/>
      <rect x="323.28" y="234.91" width="44" height="23" fill="none" stroke="#000" stroke-miterlimit="10"/>
    </g>
    <g id="LED-7" data-name="LED">
      <circle cx="344.78" cy="246.41" r="8.5"/>
      <circle cx="344.78" cy="246.41" r="8.5" fill="none" stroke="#000" stroke-miterlimit="10"/>
    </g>
    <text transform="translate(340.16 270.65)" font-size="12" font-family="Biryani-SemiBold, Biryani" font-weight="600">7</text>
  </g>
  <g id="_8" data-name="8">
    <g id="BASE-8" data-name="BASE">
      <rect x="366.28" y="234.91" width="44" height="23" fill="#f2d4b6"/>
      <rect x="366.28" y="234.91" width="44" height="23" fill="none" stroke="#000" stroke-miterlimit="10"/>
    </g>
    <g id="LED-8" data-name="LED">
      <circle cx="387.78" cy="246.41" r="8.5"/>
      <circle cx="387.78" cy="246.41" r="8.5" fill="none" stroke="#000" stroke-miterlimit="10"/>
    </g>
    <text transform="translate(383.16 270.65)" font-size="12" font-family="Biryani-SemiBold, Biryani" font-weight="600">8</text>
  </g>
  <g id="_9" data-name="9">
    <g id="BASE-9" data-name="BASE">
      <rect x="410.28" y="234.91" width="44" height="23" fill="#f2d4b6"/>
      <rect x="410.28" y="234.91" width="44" height="23" fill="none" stroke="#000" stroke-miterlimit="10"/>
    </g>
    <g id="LED-9" data-name="LED">
      <circle cx="431.78" cy="246.41" r="8.5"/>
      <circle cx="431.78" cy="246.41" r="8.5" fill="none" stroke="#000" stroke-miterlimit="10"/>
    </g>
    <text transform="translate(427.16 270.65)" font-size="12" font-family="Biryani-SemiBold, Biryani" font-weight="600">9</text>
  </g>
  <g id="_10" data-name="10">
    <g id="BASE-10" data-name="BASE">
      <rect x="454.28" y="234.91" width="44" height="23" fill="#f2d4b6"/>
      <rect x="454.28" y="234.91" width="44" height="23" fill="none" stroke="#000" stroke-miterlimit="10"/>
    </g>
    <g id="LED-10" data-name="LED">
      <circle cx="475.78" cy="246.41" r="8.5"/>
      <circle cx="475.78" cy="246.41" r="8.5" fill="none" stroke="#000" stroke-miterlimit="10"/>
    </g>
    <text transform="translate(469.16 270.65)" font-size="12" font-family="Biryani-SemiBold, Biryani" font-weight="600">10</text>
  </g>
  <g id="_11" data-name="11">
    <g id="BASE-11" data-name="BASE">
      <rect x="498.28" y="234.91" width="44" height="23" fill="#f2d4b6"/>
      <rect x="498.28" y="234.91" width="44" height="23" fill="none" stroke="#000" stroke-miterlimit="10"/>
    </g>
    <g id="LED-11" data-name="LED">
      <circle cx="519.78" cy="246.41" r="8.5"/>
      <circle cx="519.78" cy="246.41" r="8.5" fill="none" stroke="#000" stroke-miterlimit="10"/>
    </g>
    <text transform="translate(513.16 270.65)" font-size="12" font-family="Biryani-SemiBold, Biryani" font-weight="600">11</text>
  </g>
  <g id="_12" data-name="12">
    <g id="BASE-12" data-name="BASE">
      <rect x="542.28" y="234.91" width="44" height="23" fill="#f2d4b6"/>
      <rect x="542.28" y="234.91" width="44" height="23" fill="none" stroke="#000" stroke-miterlimit="10"/>
    </g>
    <g id="LED-12" data-name="LED">
      <circle cx="563.78" cy="246.41" r="8.5"/>
      <circle cx="563.78" cy="246.41" r="8.5" fill="none" stroke="#000" stroke-miterlimit="10"/>
    </g>
    <text transform="translate(557.16 270.65)" font-size="12" font-family="Biryani-SemiBold, Biryani" font-weight="600">12</text>
  </g>
  <g id="_13" data-name="13">
    <g id="BASE-13" data-name="BASE">
      <rect x="542.28" y="175.91" width="44" height="23" fill="#f2d4b6"/>
      <rect x="542.28" y="175.91" width="44" height="23" fill="none" stroke="#000" stroke-miterlimit="10"/>
    </g>
    <g id="LED-13" data-name="LED">
      <circle cx="563.78" cy="187.41" r="8.5"/>
      <circle cx="563.78" cy="187.41" r="8.5" fill="none" stroke="#000" stroke-miterlimit="10"/>
    </g>
    <text transform="translate(557.16 211.65)" font-size="12" font-family="Biryani-SemiBold, Biryani" font-weight="600">13</text>
  </g>
  <g id="ENDS">
    <path id="LEVEL1" d="M585.78,175.91h1.5a6,6,0,0,1,6,6v70a6,6,0,0,1-6,6h-1.5a0,0,0,0,1,0,0v-82A0,0,0,0,1,585.78,175.91Z" fill="#f2d4b6" stroke="#000" stroke-miterlimit="10"/>
    <path id="LEVEL2" d="M96,125.1H97.5a6,6,0,0,1,6,6v69.4a6,6,0,0,1-6,6H96a0,0,0,0,1,0,0V125.1A0,0,0,0,1,96,125.1Z" transform="translate(155.28 324.01) rotate(180)" fill="#f2d4b6" stroke="#000" stroke-miterlimit="10"/>
    <path id="LEVEL4" d="M96.5,8.1h1a6,6,0,0,1,6,6v69a6,6,0,0,1-6,6h-1a0,0,0,0,1,0,0V8.1A0,0,0,0,1,96.5,8.1Z" transform="translate(155.78 89.61) rotate(180)" fill="#f2d4b6" stroke="#000" stroke-miterlimit="10"/>
    <path id="LEVEL3" d="M586.33,58.51h1.5a6,6,0,0,1,6,6v70a6,6,0,0,1-6,6h-1.5a0,0,0,0,1,0,0v-82A0,0,0,0,1,586.33,58.51Z" fill="#f2d4b6" stroke="#000" stroke-miterlimit="10"/>
  </g>
  <g id="_14" data-name="14">
    <text transform="translate(513.16 211.65)" font-size="12" font-family="Biryani-SemiBold, Biryani" font-weight="600">14</text>
    <g id="BASE-14" data-name="BASE">
      <rect x="498.28" y="175.91" width="44" height="23" fill="#f2d4b6"/>
      <rect x="498.28" y="175.91" width="44" height="23" fill="none" stroke="#000" stroke-miterlimit="10"/>
    </g>
    <g id="LED-14" data-name="LED">
      <circle cx="519.78" cy="187.41" r="8.5"/>
      <circle cx="519.78" cy="187.41" r="8.5" fill="none" stroke="#000" stroke-miterlimit="10"/>
    </g>
  </g>
  <g id="_15" data-name="15">
    <text transform="translate(469.16 211.65)" font-size="12" font-family="Biryani-SemiBold, Biryani" font-weight="600">15</text>
    <g id="BASE-15" data-name="BASE">
      <rect x="454.28" y="175.91" width="44" height="23" fill="#f2d4b6"/>
      <rect x="454.28" y="175.91" width="44" height="23" fill="none" stroke="#000" stroke-miterlimit="10"/>
    </g>
    <g id="LED-15" data-name="LED">
      <circle cx="475.78" cy="187.41" r="8.5"/>
      <circle cx="475.78" cy="187.41" r="8.5" fill="none" stroke="#000" stroke-miterlimit="10"/>
    </g>
  </g>
  <g id="_16" data-name="16">
    <text transform="translate(425.16 211.65)" font-size="12" font-family="Biryani-SemiBold, Biryani" font-weight="600">16</text>
    <g id="BASE-16" data-name="BASE">
      <rect x="410.28" y="175.91" width="44" height="23" fill="#f2d4b6"/>
      <rect x="410.28" y="175.91" width="44" height="23" fill="none" stroke="#000" stroke-miterlimit="10"/>
    </g>
    <g id="LED-16" data-name="LED">
      <circle cx="431.78" cy="187.41" r="8.5"/>
      <circle cx="431.78" cy="187.41" r="8.5" fill="none" stroke="#000" stroke-miterlimit="10"/>
    </g>
  </g>
  <g id="_17" data-name="17">
    <text transform="translate(381.16 211.65)" font-size="12" font-family="Biryani-SemiBold, Biryani" font-weight="600">17</text>
    <g id="BASE-17" data-name="BASE">
      <rect x="366.28" y="175.91" width="44" height="23" fill="#f2d4b6"/>
      <rect x="366.28" y="175.91" width="44" height="23" fill="none" stroke="#000" stroke-miterlimit="10"/>
    </g>
    <g id="LED-17" data-name="LED">
      <circle cx="387.78" cy="187.41" r="8.5"/>
      <circle cx="387.78" cy="187.41" r="8.5" fill="none" stroke="#000" stroke-miterlimit="10"/>
    </g>
  </g>
  <g id="_18" data-name="18">
    <text transform="translate(337.16 211.65)" font-size="12" font-family="Biryani-SemiBold, Biryani" font-weight="600">18</text>
    <g id="BASE-18" data-name="BASE">
      <rect x="322.28" y="175.91" width="44" height="23" fill="#f2d4b6"/>
      <rect x="322.28" y="175.91" width="44" height="23" fill="none" stroke="#000" stroke-miterlimit="10"/>
    </g>
    <g id="LED-18" data-name="LED">
      <circle cx="343.78" cy="187.41" r="8.5"/>
      <circle cx="343.78" cy="187.41" r="8.5" fill="none" stroke="#000" stroke-miterlimit="10"/>
    </g>
  </g>
  <g id="_19" data-name="19">
    <text transform="translate(293.16 211.65)" font-size="12" font-family="Biryani-SemiBold, Biryani" font-weight="600">19</text>
    <g id="BASE-19" data-name="BASE">
      <rect x="278.28" y="175.91" width="44" height="23" fill="#f2d4b6"/>
      <rect x="278.28" y="175.91" width="44" height="23" fill="none" stroke="#000" stroke-miterlimit="10"/>
    </g>
    <g id="LED-19" data-name="LED">
      <circle cx="299.78" cy="187.41" r="8.5"/>
      <circle cx="299.78" cy="187.41" r="8.5" fill="none" stroke="#000" stroke-miterlimit="10"/>
    </g>
  </g>
  <g id="_20" data-name="20">
    <text transform="translate(250.16 211.65)" font-size="12" font-family="Biryani-SemiBold, Biryani" font-weight="600">20</text>
    <g id="BASE-20" data-name="BASE">
      <rect x="235.28" y="175.91" width="44" height="23" fill="#f2d4b6"/>
      <rect x="235.28" y="175.91" width="44" height="23" fill="none" stroke="#000" stroke-miterlimit="10"/>
    </g>
    <g id="LED-20" data-name="LED">
      <circle cx="256.78" cy="187.41" r="8.5"/>
      <circle cx="256.78" cy="187.41" r="8.5" fill="none" stroke="#000" stroke-miterlimit="10"/>
    </g>
  </g>
  <g id="_21" data-name="21">
    <g id="BASE-21" data-name="BASE">
      <rect x="191.28" y="175.91" width="44" height="23" fill="#f2d4b6"/>
      <rect x="191.28" y="175.91" width="44" height="23" fill="none" stroke="#000" stroke-miterlimit="10"/>
    </g>
    <g id="LED-21" data-name="LED">
      <circle cx="212.78" cy="187.41" r="8.5"/>
      <circle cx="212.78" cy="187.41" r="8.5" fill="none" stroke="#000" stroke-miterlimit="10"/>
    </g>
    <text transform="translate(206.16 211.65)" font-size="12" font-family="Biryani-SemiBold, Biryani" font-weight="600">21</text>
  </g>
  <g id="_22" data-name="22">
    <g id="BASE-22" data-name="BASE">
      <rect x="147.28" y="175.91" width="44" height="23" fill="#f2d4b6"/>
      <rect x="147.28" y="175.91" width="44" height="23" fill="none" stroke="#000" stroke-miterlimit="10"/>
    </g>
    <g id="LED-22" data-name="LED">
      <circle cx="168.78" cy="187.41" r="8.5"/>
      <circle cx="168.78" cy="187.41" r="8.5" fill="none" stroke="#000" stroke-miterlimit="10"/>
    </g>
    <text transform="translate(162.16 211.65)" font-size="12" font-family="Biryani-SemiBold, Biryani" font-weight="600">22</text>
  </g>
  <g id="_23" data-name="23">
    <g id="BASE-23" data-name="BASE">
      <rect x="103.28" y="175.91" width="44" height="23" fill="#f2d4b6"/>
      <rect x="103.28" y="175.91" width="44" height="23" fill="none" stroke="#000" stroke-miterlimit="10"/>
    </g>
    <g id="LED-23" data-name="LED">
      <circle cx="124.78" cy="187.41" r="8.5"/>
      <circle cx="124.78" cy="187.41" r="8.5" fill="none" stroke="#000" stroke-miterlimit="10"/>
    </g>
    <text transform="translate(118.16 211.65)" font-size="12" font-family="Biryani-SemiBold, Biryani" font-weight="600">23</text>
  </g>
  <g id="_24" data-name="24">
    <g id="BASE-24" data-name="BASE">
      <rect x="59.28" y="175.91" width="44" height="23" fill="#f2d4b6"/>
      <rect x="59.28" y="175.91" width="44" height="23" fill="none" stroke="#000" stroke-miterlimit="10"/>
    </g>
    <g id="LED-24" data-name="LED">
      <circle cx="80.78" cy="187.41" r="8.5"/>
      <circle cx="80.78" cy="187.41" r="8.5" fill="none" stroke="#000" stroke-miterlimit="10"/>
    </g>
    <text transform="translate(74.16 211.65)" font-size="12" font-family="Biryani-SemiBold, Biryani" font-weight="600">24</text>
  </g>
  <g id="_25" data-name="25">
    <g id="BASE-25" data-name="BASE">
      <rect x="59.28" y="117.5" width="44" height="23" fill="#f2d4b6"/>
      <rect x="59.28" y="117.5" width="44" height="23" fill="none" stroke="#000" stroke-miterlimit="10"/>
    </g>
    <g id="LED-25" data-name="LED">
      <circle cx="80.78" cy="129.41" r="8.5"/>
      <circle cx="80.78" cy="129.41" r="8.5" fill="none" stroke="#000" stroke-miterlimit="10"/>
    </g>
    <text transform="translate(73.16 153.65)" font-size="12" font-family="Biryani-SemiBold, Biryani" font-weight="600">25</text>
  </g>
  <g id="_26" data-name="26">
    <g id="BASE-26" data-name="BASE">
      <rect x="103.28" y="117.5" width="44" height="23" fill="#f2d4b6"/>
      <rect x="103.28" y="117.5" width="44" height="23" fill="none" stroke="#000" stroke-miterlimit="10"/>
    </g>
    <g id="LED-26" data-name="LED">
      <circle cx="124.78" cy="129.41" r="8.5"/>
      <circle cx="124.78" cy="129.41" r="8.5" fill="none" stroke="#000" stroke-miterlimit="10"/>
    </g>
    <text transform="translate(117.16 153.65)" font-size="12" font-family="Biryani-SemiBold, Biryani" font-weight="600">26</text>
  </g>
  <g id="_27" data-name="27">
    <g id="BASE-27" data-name="BASE">
      <rect x="147.28" y="117.5" width="44" height="23" fill="#f2d4b6"/>
      <rect x="147.28" y="117.5" width="44" height="23" fill="none" stroke="#000" stroke-miterlimit="10"/>
    </g>
    <g id="LED-27" data-name="LED">
      <circle cx="168.78" cy="129.41" r="8.5"/>
      <circle cx="168.78" cy="129.41" r="8.5" fill="none" stroke="#000" stroke-miterlimit="10"/>
    </g>
    <text transform="translate(161.16 153.65)" font-size="12" font-family="Biryani-SemiBold, Biryani" font-weight="600">27</text>
  </g>
  <g id="_28" data-name="28">
    <g id="BASE-28" data-name="BASE">
      <rect x="191.28" y="117.5" width="44" height="23" fill="#f2d4b6"/>
      <rect x="191.28" y="117.5" width="44" height="23" fill="none" stroke="#000" stroke-miterlimit="10"/>
    </g>
    <g id="LED-28" data-name="LED">
      <circle cx="212.78" cy="129.41" r="8.5"/>
      <circle cx="212.78" cy="129.41" r="8.5" fill="none" stroke="#000" stroke-miterlimit="10"/>
    </g>
    <text transform="translate(205.16 153.65)" font-size="12" font-family="Biryani-SemiBold, Biryani" font-weight="600">28</text>
  </g>
  <g id="_29" data-name="29">
    <g id="BASE-29" data-name="BASE">
      <rect x="235.28" y="117.5" width="44" height="23" fill="#f2d4b6"/>
      <rect x="235.28" y="117.5" width="44" height="23" fill="none" stroke="#000" stroke-miterlimit="10"/>
    </g>
    <g id="LED-29" data-name="LED">
      <circle cx="256.78" cy="129.41" r="8.5"/>
      <circle cx="256.78" cy="129.41" r="8.5" fill="none" stroke="#000" stroke-miterlimit="10"/>
    </g>
    <text transform="translate(249.16 153.65)" font-size="12" font-family="Biryani-SemiBold, Biryani" font-weight="600">29</text>
  </g>
  <g id="_30" data-name="30">
    <g id="BASE-30" data-name="BASE">
      <rect x="279.28" y="117.5" width="44" height="23" fill="#f2d4b6"/>
      <rect x="279.28" y="117.5" width="44" height="23" fill="none" stroke="#000" stroke-miterlimit="10"/>
    </g>
    <g id="LED-30" data-name="LED">
      <circle cx="300.78" cy="129.41" r="8.5"/>
      <circle cx="300.78" cy="129.41" r="8.5" fill="none" stroke="#000" stroke-miterlimit="10"/>
    </g>
    <text transform="translate(293.16 153.65)" font-size="12" font-family="Biryani-SemiBold, Biryani" font-weight="600">30</text>
  </g>
  <g id="_31" data-name="31">
    <g id="BASE-31" data-name="BASE">
      <rect x="323.28" y="117.5" width="44" height="23" fill="#f2d4b6"/>
      <rect x="323.28" y="117.5" width="44" height="23" fill="none" stroke="#000" stroke-miterlimit="10"/>
    </g>
    <g id="LED-31" data-name="LED">
      <circle cx="344.78" cy="129.41" r="8.5"/>
      <circle cx="344.78" cy="129.41" r="8.5" fill="none" stroke="#000" stroke-miterlimit="10"/>
    </g>
    <text transform="translate(337.16 153.65)" font-size="12" font-family="Biryani-SemiBold, Biryani" font-weight="600">31</text>
  </g>
  <g id="_32" data-name="32">
    <g id="BASE-32" data-name="BASE">
      <rect x="366.28" y="117.5" width="44" height="23" fill="#f2d4b6"/>
      <rect x="366.28" y="117.5" width="44" height="23" fill="none" stroke="#000" stroke-miterlimit="10"/>
    </g>
    <g id="LED-32" data-name="LED">
      <circle cx="387.78" cy="129.41" r="8.5"/>
      <circle cx="387.78" cy="129.41" r="8.5" fill="none" stroke="#000" stroke-miterlimit="10"/>
    </g>
    <text transform="translate(380.16 153.65)" font-size="12" font-family="Biryani-SemiBold, Biryani" font-weight="600">32</text>
  </g>
  <g id="_33" data-name="33">
    <g id="BASE-33" data-name="BASE">
      <rect x="410.28" y="117.5" width="44" height="23" fill="#f2d4b6"/>
      <rect x="410.28" y="117.5" width="44" height="23" fill="none" stroke="#000" stroke-miterlimit="10"/>
    </g>
    <g id="LED-33" data-name="LED">
      <circle cx="431.78" cy="129.41" r="8.5"/>
      <circle cx="431.78" cy="129.41" r="8.5" fill="none" stroke="#000" stroke-miterlimit="10"/>
    </g>
    <text transform="translate(424.16 153.65)" font-size="12" font-family="Biryani-SemiBold, Biryani" font-weight="600">33</text>
  </g>
  <g id="_34" data-name="34">
    <g id="BASE-34" data-name="BASE">
      <rect x="454.28" y="117.5" width="44" height="23" fill="#f2d4b6"/>
      <rect x="454.28" y="117.5" width="44" height="23" fill="none" stroke="#000" stroke-miterlimit="10"/>
    </g>
    <g id="LED-34" data-name="LED">
      <circle cx="475.78" cy="129.41" r="8.5"/>
      <circle cx="475.78" cy="129.41" r="8.5" fill="none" stroke="#000" stroke-miterlimit="10"/>
    </g>
    <text transform="translate(468.16 153.65)" font-size="12" font-family="Biryani-SemiBold, Biryani" font-weight="600">34</text>
  </g>
  <g id="_35" data-name="35">
    <g id="BASE-35" data-name="BASE">
      <rect x="498.28" y="117.5" width="44" height="23" fill="#f2d4b6"/>
      <rect x="498.28" y="117.5" width="44" height="23" fill="none" stroke="#000" stroke-miterlimit="10"/>
    </g>
    <g id="LED-35" data-name="LED">
      <circle cx="519.78" cy="129.41" r="8.5"/>
      <circle cx="519.78" cy="129.41" r="8.5" fill="none" stroke="#000" stroke-miterlimit="10"/>
    </g>
    <text transform="translate(512.16 153.65)" font-size="12" font-family="Biryani-SemiBold, Biryani" font-weight="600">35</text>
  </g>
  <g id="_36" data-name="36">
    <g id="BASE-36" data-name="BASE">
      <rect x="542.28" y="117.5" width="44" height="23" fill="#f2d4b6"/>
      <rect x="542.28" y="117.5" width="44" height="23" fill="none" stroke="#000" stroke-miterlimit="10"/>
    </g>
    <g id="LED-36" data-name="LED">
      <circle cx="563.78" cy="129.41" r="8.5"/>
      <circle cx="563.78" cy="129.41" r="8.5" fill="none" stroke="#000" stroke-miterlimit="10"/>
    </g>
    <text transform="translate(556.16 153.65)" font-size="12" font-family="Biryani-SemiBold, Biryani" font-weight="600">36</text>
  </g>
  <g id="_37" data-name="37">
    <g id="BASE-37" data-name="BASE">
      <rect x="542.28" y="58.5" width="44" height="23" fill="#f2d4b6"/>
      <rect x="542.28" y="58.5" width="44" height="23" fill="none" stroke="#000" stroke-miterlimit="10"/>
    </g>
    <g id="LED-37" data-name="LED">
      <circle cx="563.78" cy="70.41" r="8.5"/>
      <circle cx="563.78" cy="70.41" r="8.5" fill="none" stroke="#000" stroke-miterlimit="10"/>
    </g>
    <text transform="translate(556.16 94.65)" font-size="12" font-family="Biryani-SemiBold, Biryani" font-weight="600">37</text>
  </g>
  <g id="_38" data-name="38">
    <g id="BASE-38" data-name="BASE">
      <rect x="498.28" y="58.5" width="44" height="23" fill="#f2d4b6"/>
      <rect x="498.28" y="58.5" width="44" height="23" fill="none" stroke="#000" stroke-miterlimit="10"/>
    </g>
    <g id="LED-38" data-name="LED">
      <circle cx="519.78" cy="70.41" r="8.5"/>
      <circle cx="519.78" cy="70.41" r="8.5" fill="none" stroke="#000" stroke-miterlimit="10"/>
    </g>
    <text transform="translate(512.16 94.65)" font-size="12" font-family="Biryani-SemiBold, Biryani" font-weight="600">38</text>
  </g>
  <g id="_39" data-name="39">
    <g id="BASE-39" data-name="BASE">
      <rect x="454.28" y="58.5" width="44" height="23" fill="#f2d4b6"/>
      <rect x="454.28" y="58.5" width="44" height="23" fill="none" stroke="#000" stroke-miterlimit="10"/>
    </g>
    <g id="LED-39" data-name="LED">
      <circle cx="475.78" cy="70.41" r="8.5"/>
      <circle cx="475.78" cy="70.41" r="8.5" fill="none" stroke="#000" stroke-miterlimit="10"/>
    </g>
    <text transform="translate(468.16 94.65)" font-size="12" font-family="Biryani-SemiBold, Biryani" font-weight="600">39</text>
  </g>
  <g id="_40" data-name="40">
    <g id="BASE-40" data-name="BASE">
      <rect x="410.28" y="58.5" width="44" height="23" fill="#f2d4b6"/>
      <rect x="410.28" y="58.5" width="44" height="23" fill="none" stroke="#000" stroke-miterlimit="10"/>
    </g>
    <g id="LED-40" data-name="LED">
      <circle cx="431.78" cy="70.41" r="8.5"/>
      <circle cx="431.78" cy="70.41" r="8.5" fill="none" stroke="#000" stroke-miterlimit="10"/>
    </g>
    <text transform="translate(424.16 94.65)" font-size="12" font-family="Biryani-SemiBold, Biryani" font-weight="600">40</text>
  </g>
  <g id="_41" data-name="41">
    <g id="BASE-41" data-name="BASE">
      <rect x="366.28" y="58.5" width="44" height="23" fill="#f2d4b6"/>
      <rect x="366.28" y="58.5" width="44" height="23" fill="none" stroke="#000" stroke-miterlimit="10"/>
    </g>
    <g id="LED-41" data-name="LED">
      <circle cx="387.78" cy="70.41" r="8.5"/>
      <circle cx="387.78" cy="70.41" r="8.5" fill="none" stroke="#000" stroke-miterlimit="10"/>
    </g>
    <text transform="translate(380.16 94.65)" font-size="12" font-family="Biryani-SemiBold, Biryani" font-weight="600">41</text>
  </g>
  <g id="_42" data-name="42">
    <g id="BASE-42" data-name="BASE">
      <rect x="322.28" y="58.5" width="44" height="23" fill="#f2d4b6"/>
      <rect x="322.28" y="58.5" width="44" height="23" fill="none" stroke="#000" stroke-miterlimit="10"/>
    </g>
    <g id="LED-42" data-name="LED">
      <circle cx="343.78" cy="70.41" r="8.5"/>
      <circle cx="343.78" cy="70.41" r="8.5" fill="none" stroke="#000" stroke-miterlimit="10"/>
    </g>
    <text transform="translate(336.16 94.65)" font-size="12" font-family="Biryani-SemiBold, Biryani" font-weight="600">42</text>
  </g>
  <g id="_43" data-name="43">
    <g id="BASE-43" data-name="BASE">
      <rect x="279.28" y="58.5" width="44" height="23" fill="#f2d4b6"/>
      <rect x="279.28" y="58.5" width="44" height="23" fill="none" stroke="#000" stroke-miterlimit="10"/>
    </g>
    <g id="LED-43" data-name="LED">
      <circle cx="300.78" cy="70.41" r="8.5"/>
      <circle cx="300.78" cy="70.41" r="8.5" fill="none" stroke="#000" stroke-miterlimit="10"/>
    </g>
    <text transform="translate(293.16 94.65)" font-size="12" font-family="Biryani-SemiBold, Biryani" font-weight="600">43</text>
  </g>
  <g id="_44" data-name="44">
    <g id="BASE-44" data-name="BASE">
      <rect x="235.28" y="58.5" width="44" height="23" fill="#f2d4b6"/>
      <rect x="235.28" y="58.5" width="44" height="23" fill="none" stroke="#000" stroke-miterlimit="10"/>
    </g>
    <g id="LED-44" data-name="LED">
      <circle cx="256.78" cy="70.41" r="8.5"/>
      <circle cx="256.78" cy="70.41" r="8.5" fill="none" stroke="#000" stroke-miterlimit="10"/>
    </g>
    <text transform="translate(249.16 94.65)" font-size="12" font-family="Biryani-SemiBold, Biryani" font-weight="600">44</text>
  </g>
  <g id="_45" data-name="45">
    <g id="BASE-45" data-name="BASE">
      <rect x="191.28" y="58.5" width="44" height="23" fill="#f2d4b6"/>
      <rect x="191.28" y="58.5" width="44" height="23" fill="none" stroke="#000" stroke-miterlimit="10"/>
    </g>
    <g id="LED-45" data-name="LED">
      <circle cx="212.78" cy="70.41" r="8.5"/>
      <circle cx="212.78" cy="70.41" r="8.5" fill="none" stroke="#000" stroke-miterlimit="10"/>
    </g>
    <text transform="translate(205.16 94.65)" font-size="12" font-family="Biryani-SemiBold, Biryani" font-weight="600">45</text>
  </g>
  <g id="_46" data-name="46">
    <g id="BASE-46" data-name="BASE">
      <rect x="147.28" y="58.5" width="44" height="23" fill="#f2d4b6"/>
      <rect x="147.28" y="58.5" width="44" height="23" fill="none" stroke="#000" stroke-miterlimit="10"/>
    </g>
    <g id="LED-46" data-name="LED">
      <circle cx="168.78" cy="70.41" r="8.5"/>
      <circle cx="168.78" cy="70.41" r="8.5" fill="none" stroke="#000" stroke-miterlimit="10"/>
    </g>
    <text transform="translate(161.16 94.65)" font-size="12" font-family="Biryani-SemiBold, Biryani" font-weight="600">46</text>
  </g>
  <g id="_47" data-name="47">
    <g id="BASE-47" data-name="BASE">
      <rect x="103.28" y="58.5" width="44" height="23" fill="#f2d4b6"/>
      <rect x="103.28" y="58.5" width="44" height="23" fill="none" stroke="#000" stroke-miterlimit="10"/>
    </g>
    <g id="LED-47" data-name="LED">
      <circle cx="124.78" cy="70.41" r="8.5"/>
      <circle cx="124.78" cy="70.41" r="8.5" fill="none" stroke="#000" stroke-miterlimit="10"/>
    </g>
    <text transform="translate(117.16 94.65)" font-size="12" font-family="Biryani-SemiBold, Biryani" font-weight="600">47</text>
  </g>
  <g id="_48" data-name="48">
    <g id="BASE-48" data-name="BASE">
      <rect x="59.28" y="58.5" width="44" height="23" fill="#f2d4b6"/>
      <rect x="59.28" y="58.5" width="44" height="23" fill="none" stroke="#000" stroke-miterlimit="10"/>
    </g>
    <g id="LED-48" data-name="LED">
      <circle cx="80.78" cy="70.41" r="8.5"/>
      <circle cx="80.78" cy="70.41" r="8.5" fill="none" stroke="#000" stroke-miterlimit="10"/>
    </g>
    <text transform="translate(73.16 94.65)" font-size="12" font-family="Biryani-SemiBold, Biryani" font-weight="600">48</text>
  </g>
  <g id="_49" data-name="49">
    <g id="BASE-49" data-name="BASE">
      <rect x="59.28" y="0.5" width="44" height="23" fill="#f2d4b6"/>
      <rect x="59.28" y="0.5" width="44" height="23" fill="none" stroke="#000" stroke-miterlimit="10"/>
    </g>
    <g id="LED-49" data-name="LED">
      <circle cx="80.78" cy="12.41" r="8.5"/>
      <circle cx="80.78" cy="12.41" r="8.5" fill="none" stroke="#000" stroke-miterlimit="10"/>
    </g>
    <text transform="translate(73.16 36.65)" font-size="12" font-family="Biryani-SemiBold, Biryani" font-weight="600">49</text>
  </g>
  <g id="_50" data-name="50">
    <g id="BASE-50" data-name="BASE">
      <rect x="103.28" y="0.5" width="44" height="23" fill="#f2d4b6"/>
      <rect x="103.28" y="0.5" width="44" height="23" fill="none" stroke="#000" stroke-miterlimit="10"/>
    </g>
    <g id="LED-50" data-name="LED">
      <circle cx="124.78" cy="12.41" r="8.5"/>
      <circle cx="124.78" cy="12.41" r="8.5" fill="none" stroke="#000" stroke-miterlimit="10"/>
    </g>
    <text transform="translate(117.16 36.65)" font-size="12" font-family="Biryani-SemiBold, Biryani" font-weight="600">50</text>
  </g>
  <g id="_51" data-name="51">
    <g id="BASE-51" data-name="BASE">
      <rect x="147.28" y="0.5" width="44" height="23" fill="#f2d4b6"/>
      <rect x="147.28" y="0.5" width="44" height="23" fill="none" stroke="#000" stroke-miterlimit="10"/>
    </g>
    <g id="LED-51" data-name="LED">
      <circle cx="168.78" cy="12.41" r="8.5"/>
      <circle cx="168.78" cy="12.41" r="8.5" fill="none" stroke="#000" stroke-miterlimit="10"/>
    </g>
    <text transform="translate(161.16 36.65)" font-size="12" font-family="Biryani-SemiBold, Biryani" font-weight="600">51</text>
  </g>
  <g id="_52" data-name="52">
    <g id="BASE-52" data-name="BASE">
      <rect x="191.28" y="0.5" width="44" height="23" fill="#f2d4b6"/>
      <rect x="191.28" y="0.5" width="44" height="23" fill="none" stroke="#000" stroke-miterlimit="10"/>
    </g>
    <g id="LED-52" data-name="LED">
      <circle cx="212.78" cy="12.41" r="8.5"/>
      <circle cx="212.78" cy="12.41" r="8.5" fill="none" stroke="#000" stroke-miterlimit="10"/>
    </g>
    <text transform="translate(205.16 36.65)" font-size="12" font-family="Biryani-SemiBold, Biryani" font-weight="600">52</text>
  </g>
  <g id="_53" data-name="53">
    <g id="BASE-53" data-name="BASE">
      <rect x="235.28" y="0.5" width="44" height="23" fill="#f2d4b6"/>
      <rect x="235.28" y="0.5" width="44" height="23" fill="none" stroke="#000" stroke-miterlimit="10"/>
    </g>
    <g id="LED-53" data-name="LED">
      <circle cx="256.78" cy="12.41" r="8.5"/>
      <circle cx="256.78" cy="12.41" r="8.5" fill="none" stroke="#000" stroke-miterlimit="10"/>
    </g>
    <text transform="translate(249.16 36.65)" font-size="12" font-family="Biryani-SemiBold, Biryani" font-weight="600">53</text>
  </g>
  <g id="_54" data-name="54">
    <g id="BASE-54" data-name="BASE">
      <rect x="279.28" y="0.5" width="44" height="23" fill="#f2d4b6"/>
      <rect x="279.28" y="0.5" width="44" height="23" fill="none" stroke="#000" stroke-miterlimit="10"/>
    </g>
    <g id="LED-54" data-name="LED">
      <circle cx="300.78" cy="12.41" r="8.5"/>
      <circle cx="300.78" cy="12.41" r="8.5" fill="none" stroke="#000" stroke-miterlimit="10"/>
    </g>
    <text transform="translate(293.16 36.65)" font-size="12" font-family="Biryani-SemiBold, Biryani" font-weight="600">54</text>
  </g>
  <g id="_55" data-name="55">
    <g id="BASE-55" data-name="BASE">
      <rect x="323.28" y="0.5" width="44" height="23" fill="#f2d4b6"/>
      <rect x="323.28" y="0.5" width="44" height="23" fill="none" stroke="#000" stroke-miterlimit="10"/>
    </g>
    <g id="LED-55" data-name="LED">
      <circle cx="344.78" cy="12.41" r="8.5"/>
      <circle cx="344.78" cy="12.41" r="8.5" fill="none" stroke="#000" stroke-miterlimit="10"/>
    </g>
    <text transform="translate(337.16 36.65)" font-size="12" font-family="Biryani-SemiBold, Biryani" font-weight="600">55</text>
  </g>
  <g id="_56" data-name="56">
    <g id="BASE-56" data-name="BASE">
      <rect x="366.28" y="0.5" width="44" height="23" fill="#f2d4b6"/>
      <rect x="366.28" y="0.5" width="44" height="23" fill="none" stroke="#000" stroke-miterlimit="10"/>
    </g>
    <g id="LED-56" data-name="LED">
      <circle cx="387.78" cy="12.41" r="8.5"/>
      <circle cx="387.78" cy="12.41" r="8.5" fill="none" stroke="#000" stroke-miterlimit="10"/>
    </g>
    <text transform="translate(380.16 36.65)" font-size="12" font-family="Biryani-SemiBold, Biryani" font-weight="600">56</text>
  </g>
  <g id="_57" data-name="57">
    <g id="BASE-57" data-name="BASE">
      <rect x="410.28" y="0.5" width="44" height="23" fill="#f2d4b6"/>
      <rect x="410.28" y="0.5" width="44" height="23" fill="none" stroke="#000" stroke-miterlimit="10"/>
    </g>
    <g id="LED-57" data-name="LED">
      <circle cx="431.78" cy="12.41" r="8.5"/>
      <circle cx="431.78" cy="12.41" r="8.5" fill="none" stroke="#000" stroke-miterlimit="10"/>
    </g>
    <text transform="translate(424.16 36.65)" font-size="12" font-family="Biryani-SemiBold, Biryani" font-weight="600">57</text>
  </g>
  <g id="_58" data-name="58">
    <g id="BASE-58" data-name="BASE">
      <rect x="454.28" y="0.5" width="44" height="23" fill="#f2d4b6"/>
      <rect x="454.28" y="0.5" width="44" height="23" fill="none" stroke="#000" stroke-miterlimit="10"/>
    </g>
    <g id="LED-58" data-name="LED">
      <circle cx="475.78" cy="12.41" r="8.5"/>
      <circle cx="475.78" cy="12.41" r="8.5" fill="none" stroke="#000" stroke-miterlimit="10"/>
    </g>
    <text transform="translate(468.16 36.65)" font-size="12" font-family="Biryani-SemiBold, Biryani" font-weight="600">58</text>
  </g>
  <g id="_59" data-name="59">
    <g id="BASE-59" data-name="BASE">
      <rect x="498.28" y="0.5" width="44" height="23" fill="#f2d4b6"/>
      <rect x="498.28" y="0.5" width="44" height="23" fill="none" stroke="#000" stroke-miterlimit="10"/>
    </g>
    <g id="LED-59" data-name="LED">
      <circle cx="519.78" cy="12.41" r="8.5"/>
      <circle cx="519.78" cy="12.41" r="8.5" fill="none" stroke="#000" stroke-miterlimit="10"/>
    </g>
    <text transform="translate(512.16 36.65)" font-size="12" font-family="Biryani-SemiBold, Biryani" font-weight="600">59</text>
  </g>
  <g id="_60" data-name="60">
    <g id="BASE-60" data-name="BASE">
      <rect x="542.28" y="0.5" width="44" height="23" fill="#f2d4b6"/>
      <rect x="542.28" y="0.5" width="44" height="23" fill="none" stroke="#000" stroke-miterlimit="10"/>
    </g>
    <g id="LED-60" data-name="LED">
      <circle cx="563.78" cy="12.41" r="8.5"/>
      <circle cx="563.78" cy="12.41" r="8.5" fill="none" stroke="#000" stroke-miterlimit="10"/>
    </g>
  </g>
</svg>
