<svg id="Layer_1" data-name="Layer 1" xmlns="http://www.w3.org/2000/svg" width="460.26" height="553.26" viewBox="0 0 460.26 553.26">
  <title>matrix</title>
  <g id="Base">
    <line id="VCC" x1="164.26" y1="502.26" x2="164.26" y2="552.26" fill="none" stroke="#000" stroke-miterlimit="10" stroke-width="10"/>
    <line id="GND" x1="210.26" y1="503.26" x2="210.26" y2="553.26" fill="none" stroke="#000" stroke-miterlimit="10" stroke-width="10"/>
    <line id="DATA" x1="260.26" y1="503.26" x2="260.26" y2="553.26" fill="none" stroke="#000" stroke-miterlimit="10" stroke-width="10"/>
    <line id="CS" x1="310.26" y1="503.26" x2="310.26" y2="553.26" fill="none" stroke="#000" stroke-miterlimit="10" stroke-width="10"/>
    <line id="CLK" x1="360.26" y1="503.26" x2="360.26" y2="553.26" fill="none" stroke="#000" stroke-miterlimit="10" stroke-width="10"/>
    <rect x="135.26" y="461.26" width="250" height="42" fill="#b59191"/>
    <g style="isolation: isolate">
      <text transform="translate(149.05 498.31)" font-size="14" font-family="ArialRoundedMTBold, Arial Rounded MT Bold" letter-spacing="-0.01em" style="isolation: isolate">V</text>
      <text transform="translate(158.5 498.31)" font-size="14" font-family="ArialRoundedMTBold, Arial Rounded MT Bold" style="isolation: isolate">CC</text>
    </g>
    <text transform="translate(194.09 498.31)" font-size="14" font-family="ArialRoundedMTBold, Arial Rounded MT Bold" style="isolation: isolate">GND</text>
    <g style="isolation: isolate">
      <text transform="translate(245.25 481.51) scale(0.82 1)" font-size="14" font-family="ArialRoundedMTBold, Arial Rounded MT Bold" letter-spacing="-0.04em" style="isolation: isolate">D</text>
      <text transform="translate(253.31 481.51) scale(0.82 1)" font-size="14" font-family="ArialRoundedMTBold, Arial Rounded MT Bold" letter-spacing="-0.09em" style="isolation: isolate">A</text>
      <text transform="translate(260.55 481.51) scale(0.82 1)" font-size="14" font-family="ArialRoundedMTBold, Arial Rounded MT Bold" letter-spacing="-0.06em" style="isolation: isolate">T</text>
      <text transform="translate(267.01 481.51) scale(0.82 1)" font-size="14" font-family="ArialRoundedMTBold, Arial Rounded MT Bold" style="isolation: isolate">A</text>
      <text transform="translate(243.15 498.31) scale(0.82 1)" font-size="14" font-family="ArialRoundedMTBold, Arial Rounded MT Bold" style="isolation: isolate">Pin 12</text>
    </g>
    <g style="isolation: isolate">
      <text transform="translate(302.18 481.51) scale(0.82 1)" font-size="14" font-family="ArialRoundedMTBold, Arial Rounded MT Bold" style="isolation: isolate">CS</text>
      <text transform="translate(293.15 498.31) scale(0.82 1)" font-size="14" font-family="ArialRoundedMTBold, Arial Rounded MT Bold" style="isolation: isolate">Pin 10</text>
    </g>
    <g style="isolation: isolate">
      <text transform="translate(348.29 481.51) scale(0.82 1)" font-size="14" font-family="ArialRoundedMTBold, Arial Rounded MT Bold" style="isolation: isolate">CLK</text>
      <text transform="translate(343.14 498.31) scale(0.82 1)" font-size="14" font-family="ArialRoundedMTBold, Arial Rounded MT Bold" style="isolation: isolate">Pin 11</text>
    </g>
  </g>
  <g id="_8-8" data-name=" 8-8">
    <rect x="410.26" y="411.26" width="50" height="50"/>
    <circle cx="435.26" cy="436.26" r="17.5" fill="#fff"/>
  </g>
  <g id="_8-7" data-name=" 8-7">
    <rect x="360.26" y="411.26" width="50" height="50"/>
    <circle cx="385.26" cy="436.26" r="17.5" fill="#fff"/>
  </g>
  <g id="_8-6" data-name=" 8-6">
    <rect x="310.26" y="411.26" width="50" height="50"/>
    <circle cx="335.26" cy="436.26" r="17.5" fill="#fff"/>
  </g>
  <g id="_8-5" data-name=" 8-5">
    <rect x="260.26" y="411.26" width="50" height="50"/>
    <circle cx="285.26" cy="436.26" r="17.5" fill="#fff"/>
  </g>
  <g id="_8-4" data-name=" 8-4">
    <rect x="210.26" y="411.26" width="50" height="50"/>
    <circle cx="235.26" cy="436.26" r="17.5" fill="#fff"/>
  </g>
  <g id="_8-3" data-name=" 8-3">
    <rect x="160.26" y="411.26" width="50" height="50"/>
    <circle cx="185.26" cy="436.26" r="17.5" fill="#fff"/>
  </g>
  <g id="_8-2" data-name=" 8-2">
    <rect x="110.26" y="411.26" width="50" height="50"/>
    <circle cx="135.26" cy="436.26" r="17.5" fill="#fff"/>
  </g>
  <g id="_8-1" data-name=" 8-1">
    <rect x="60.26" y="411.26" width="50" height="50"/>
    <circle cx="85.26" cy="436.26" r="17.5" fill="#fff"/>
  </g>
  <g id="_7-8" data-name=" 7-8">
    <rect x="410.26" y="361.26" width="50" height="50"/>
    <circle cx="435.26" cy="386.26" r="17.5" fill="#fff"/>
  </g>
  <g id="_7-7" data-name=" 7-7">
    <rect x="360.26" y="361.26" width="50" height="50"/>
    <circle cx="385.26" cy="386.26" r="17.5" fill="#fff"/>
  </g>
  <g id="_7-6" data-name=" 7-6">
    <rect x="310.26" y="361.26" width="50" height="50"/>
    <circle cx="335.26" cy="386.26" r="17.5" fill="#fff"/>
  </g>
  <g id="_7-5" data-name=" 7-5">
    <rect x="260.26" y="361.26" width="50" height="50"/>
    <circle cx="285.26" cy="386.26" r="17.5" fill="#fff"/>
  </g>
  <g id="_7-4" data-name=" 7-4">
    <rect x="210.26" y="361.26" width="50" height="50"/>
    <circle cx="235.26" cy="386.26" r="17.5" fill="#fff"/>
  </g>
  <g id="_7-3" data-name=" 7-3">
    <rect x="160.26" y="361.26" width="50" height="50"/>
    <circle cx="185.26" cy="386.26" r="17.5" fill="#fff"/>
  </g>
  <g id="_7-2" data-name=" 7-2">
    <rect x="110.26" y="361.26" width="50" height="50"/>
    <circle cx="135.26" cy="386.26" r="17.5" fill="#fff"/>
  </g>
  <g id="_7-1" data-name=" 7-1">
    <rect x="60.26" y="361.26" width="50" height="50"/>
    <circle cx="85.26" cy="386.26" r="17.5" fill="#fff"/>
  </g>
  <g id="_6-8" data-name=" 6-8">
    <rect x="410.26" y="311.26" width="50" height="50"/>
    <circle cx="435.26" cy="336.26" r="17.5" fill="#fff"/>
  </g>
  <g id="_6-7" data-name=" 6-7">
    <rect x="360.26" y="311.26" width="50" height="50"/>
    <circle cx="385.26" cy="336.26" r="17.5" fill="#fff"/>
  </g>
  <g id="_6-6" data-name=" 6-6">
    <rect x="310.26" y="311.26" width="50" height="50"/>
    <circle cx="335.26" cy="336.26" r="17.5" fill="#fff"/>
  </g>
  <g id="_6-5" data-name=" 6-5">
    <rect x="260.26" y="311.26" width="50" height="50"/>
    <circle cx="285.26" cy="336.26" r="17.5" fill="#fff"/>
  </g>
  <g id="_6-4" data-name=" 6-4">
    <rect x="210.26" y="311.26" width="50" height="50"/>
    <circle cx="235.26" cy="336.26" r="17.5" fill="#fff"/>
  </g>
  <g id="_6-3" data-name=" 6-3">
    <rect x="160.26" y="311.26" width="50" height="50"/>
    <circle cx="185.26" cy="336.26" r="17.5" fill="#fff"/>
  </g>
  <g id="_6-2" data-name=" 6-2">
    <rect x="110.26" y="311.26" width="50" height="50"/>
    <circle cx="135.26" cy="336.26" r="17.5" fill="#fff"/>
  </g>
  <g id="_6-1" data-name=" 6-1">
    <rect x="60.26" y="311.26" width="50" height="50"/>
    <circle cx="85.26" cy="336.26" r="17.5" fill="#fff"/>
  </g>
  <g id="_5-8" data-name=" 5-8">
    <rect x="410.26" y="261.26" width="50" height="50"/>
    <circle cx="435.26" cy="286.26" r="17.5" fill="#fff"/>
  </g>
  <g id="_5-7" data-name=" 5-7">
    <rect x="360.26" y="261.26" width="50" height="50"/>
    <circle cx="385.26" cy="286.26" r="17.5" fill="#fff"/>
  </g>
  <g id="_5-6" data-name=" 5-6">
    <rect x="310.26" y="261.26" width="50" height="50"/>
    <circle cx="335.26" cy="286.26" r="17.5" fill="#fff"/>
  </g>
  <g id="_5-5" data-name=" 5-5">
    <rect x="260.26" y="261.26" width="50" height="50"/>
    <circle cx="285.26" cy="286.26" r="17.5" fill="#fff"/>
  </g>
  <g id="_5-4" data-name=" 5-4">
    <rect x="210.26" y="261.26" width="50" height="50"/>
    <circle cx="235.26" cy="286.26" r="17.5" fill="#fff"/>
  </g>
  <g id="_5-3" data-name=" 5-3">
    <rect x="160.26" y="261.26" width="50" height="50"/>
    <circle cx="185.26" cy="286.26" r="17.5" fill="#fff"/>
  </g>
  <g id="_5-2" data-name=" 5-2">
    <rect x="110.26" y="261.26" width="50" height="50"/>
    <circle cx="135.26" cy="286.26" r="17.5" fill="#fff"/>
  </g>
  <g id="_5-1" data-name=" 5-1">
    <rect x="60.26" y="261.26" width="50" height="50"/>
    <circle cx="85.26" cy="286.26" r="17.5" fill="#fff"/>
  </g>
  <g id="_4-8" data-name=" 4-8">
    <rect x="410.26" y="211.26" width="50" height="50"/>
    <circle cx="435.26" cy="236.26" r="17.5" fill="#fff"/>
  </g>
  <g id="_4-7" data-name=" 4-7">
    <rect x="360.26" y="211.26" width="50" height="50"/>
    <circle cx="385.26" cy="236.26" r="17.5" fill="#fff"/>
  </g>
  <g id="_4-6" data-name=" 4-6">
    <rect x="310.26" y="211.26" width="50" height="50"/>
    <circle cx="335.26" cy="236.26" r="17.5" fill="#fff"/>
  </g>
  <g id="_4-5" data-name=" 4-5">
    <rect x="260.26" y="211.26" width="50" height="50"/>
    <circle cx="285.26" cy="236.26" r="17.5" fill="#fff"/>
  </g>
  <g id="_4-4" data-name=" 4-4">
    <rect x="210.26" y="211.26" width="50" height="50"/>
    <circle cx="235.26" cy="236.26" r="17.5" fill="#fff"/>
  </g>
  <g id="_4-3" data-name=" 4-3">
    <rect x="160.26" y="211.26" width="50" height="50"/>
    <circle cx="185.26" cy="236.26" r="17.5" fill="#fff"/>
  </g>
  <g id="_4-2" data-name=" 4-2">
    <rect x="110.26" y="211.26" width="50" height="50"/>
    <circle cx="135.26" cy="236.26" r="17.5" fill="#fff"/>
  </g>
  <g id="_4-1" data-name=" 4-1">
    <rect x="60.26" y="211.26" width="50" height="50"/>
    <circle cx="85.26" cy="236.26" r="17.5" fill="#fff"/>
  </g>
  <g id="_3-8" data-name=" 3-8">
    <rect x="410.26" y="161.26" width="50" height="50"/>
    <circle cx="435.26" cy="186.26" r="17.5" fill="#fff"/>
  </g>
  <g id="_3-7" data-name=" 3-7">
    <rect x="360.26" y="161.26" width="50" height="50"/>
    <circle cx="385.26" cy="186.26" r="17.5" fill="#fff"/>
  </g>
  <g id="_3-6" data-name=" 3-6">
    <rect x="310.26" y="161.26" width="50" height="50"/>
    <circle cx="335.26" cy="186.26" r="17.5" fill="#fff"/>
  </g>
  <g id="_3-5" data-name=" 3-5">
    <rect x="260.26" y="161.26" width="50" height="50"/>
    <circle cx="285.26" cy="186.26" r="17.5" fill="#fff"/>
  </g>
  <g id="_3-4" data-name=" 3-4">
    <rect x="210.26" y="161.26" width="50" height="50"/>
    <circle cx="235.26" cy="186.26" r="17.5" fill="#fff"/>
  </g>
  <g id="_3-3" data-name=" 3-3">
    <rect x="160.26" y="161.26" width="50" height="50"/>
    <circle cx="185.26" cy="186.26" r="17.5" fill="#fff"/>
  </g>
  <g id="_3-2" data-name=" 3-2">
    <rect x="110.26" y="161.26" width="50" height="50"/>
    <circle cx="135.26" cy="186.26" r="17.5" fill="#fff"/>
  </g>
  <g id="_3-1" data-name=" 3-1">
    <rect x="60.26" y="161.26" width="50" height="50"/>
    <circle cx="85.26" cy="186.26" r="17.5" fill="#fff"/>
  </g>
  <g id="_2-8" data-name=" 2-8">
    <rect x="410.26" y="111.26" width="50" height="50"/>
    <circle cx="435.26" cy="136.26" r="17.5" fill="#fff"/>
  </g>
  <g id="_2-7" data-name=" 2-7">
    <rect x="360.26" y="111.26" width="50" height="50"/>
    <circle cx="385.26" cy="136.26" r="17.5" fill="#fff"/>
  </g>
  <g id="_2-6" data-name=" 2-6">
    <rect x="310.26" y="111.26" width="50" height="50"/>
    <circle cx="335.26" cy="136.26" r="17.5" fill="#fff"/>
  </g>
  <g id="_2-5" data-name=" 2-5">
    <rect x="260.26" y="111.26" width="50" height="50"/>
    <circle cx="285.26" cy="136.26" r="17.5" fill="#fff"/>
  </g>
  <g id="_2-4" data-name=" 2-4">
    <rect x="210.26" y="111.26" width="50" height="50"/>
    <circle cx="235.26" cy="136.26" r="17.5" fill="#fff"/>
  </g>
  <g id="_2-3" data-name=" 2-3">
    <rect x="160.26" y="111.26" width="50" height="50"/>
    <circle cx="185.26" cy="136.26" r="17.5" fill="#fff"/>
  </g>
  <g id="_2-2" data-name=" 2-2">
    <rect x="110.26" y="111.26" width="50" height="50"/>
    <circle cx="135.26" cy="136.26" r="17.5" fill="#fff"/>
  </g>
  <g id="_2-1" data-name=" 2-1">
    <rect x="60.26" y="111.26" width="50" height="50"/>
    <circle cx="85.26" cy="136.26" r="17.5" fill="#fff"/>
  </g>
  <g id="_1-8" data-name=" 1-8">
    <rect x="410.26" y="61.26" width="50" height="50"/>
    <circle cx="435.26" cy="86.26" r="17.5" fill="#fff"/>
  </g>
  <g id="_1-7" data-name=" 1-7">
    <rect x="360.26" y="61.26" width="50" height="50"/>
    <circle cx="385.26" cy="86.26" r="17.5" fill="#fff"/>
  </g>
  <g id="_1-6" data-name=" 1-6">
    <rect x="310.26" y="61.26" width="50" height="50"/>
    <circle cx="335.26" cy="86.26" r="17.5" fill="#fff"/>
  </g>
  <g id="_1-5" data-name=" 1-5">
    <rect x="260.26" y="61.26" width="50" height="50"/>
    <circle cx="285.26" cy="86.26" r="17.5" fill="#fff"/>
  </g>
  <g id="_1-4" data-name=" 1-4">
    <rect x="210.26" y="61.26" width="50" height="50"/>
    <circle cx="235.26" cy="86.26" r="17.5" fill="#fff"/>
  </g>
  <g id="_1-3" data-name=" 1-3">
    <rect x="160.26" y="61.26" width="50" height="50"/>
    <circle cx="185.26" cy="86.26" r="17.5" fill="#fff"/>
  </g>
  <g id="_1-2" data-name=" 1-2">
    <rect x="110.26" y="61.26" width="50" height="50"/>
    <circle cx="135.26" cy="86.26" r="17.5" fill="#fff"/>
  </g>
  <g id="_1-1" data-name=" 1-1">
    <rect x="60.26" y="61.26" width="50" height="50"/>
    <circle cx="85.26" cy="86.26" r="17.5" fill="#fff"/>
  </g>
  <g id="NUMBERS">
    <text transform="translate(37.95 93.3)" font-size="24" font-family="Biryani-SemiBold, Biryani" font-weight="600" style="isolation: isolate">1</text>
    <text transform="translate(79.1 50.26)" font-size="24" font-family="Biryani-SemiBold, Biryani" font-weight="600" style="isolation: isolate">1</text>
    <text transform="translate(129.1 50.26)" font-size="24" font-family="Biryani-SemiBold, Biryani" font-weight="600" style="isolation: isolate">2</text>
    <text transform="translate(179.1 50.26)" font-size="24" font-family="Biryani-SemiBold, Biryani" font-weight="600" style="isolation: isolate">3</text>
    <text transform="translate(229.1 50.26)" font-size="24" font-family="Biryani-SemiBold, Biryani" font-weight="600" style="isolation: isolate">4</text>
    <text transform="translate(279.51 50.26) scale(0.93 1)" font-size="24" font-family="Biryani-SemiBold, Biryani" font-weight="600" style="isolation: isolate">5</text>
    <text transform="translate(329.5 50.26) scale(0.93 1)" font-size="24" font-family="Biryani-SemiBold, Biryani" font-weight="600" style="isolation: isolate">6</text>
    <text transform="translate(379.5 50.26) scale(0.93 1)" font-size="24" font-family="Biryani-SemiBold, Biryani" font-weight="600" style="isolation: isolate">7</text>
    <text transform="translate(429.51 50.26) scale(0.93 1)" font-size="24" font-family="Biryani-SemiBold, Biryani" font-weight="600" style="isolation: isolate">8</text>
    <text transform="translate(37.95 143.3)" font-size="24" font-family="Biryani-SemiBold, Biryani" font-weight="600" style="isolation: isolate">2</text>
    <text transform="translate(37.95 193.3)" font-size="24" font-family="Biryani-SemiBold, Biryani" font-weight="600" style="isolation: isolate">3</text>
    <text transform="translate(37.95 243.3)" font-size="24" font-family="Biryani-SemiBold, Biryani" font-weight="600" style="isolation: isolate">4</text>
    <text transform="translate(37.95 293.3)" font-size="24" font-family="Biryani-SemiBold, Biryani" font-weight="600" style="isolation: isolate">5</text>
    <text transform="translate(38.75 343.3) scale(0.93 1)" font-size="24" font-family="Biryani-SemiBold, Biryani" font-weight="600" style="isolation: isolate">6</text>
    <text transform="translate(38.75 393.3) scale(0.93 1)" font-size="24" font-family="Biryani-SemiBold, Biryani" font-weight="600" style="isolation: isolate">7</text>
    <text transform="translate(38.75 443.3) scale(0.93 1)" font-size="24" font-family="Biryani-SemiBold, Biryani" font-weight="600" style="isolation: isolate">8</text>
    <g style="isolation: isolate">
      <text transform="translate(198.99 21.1)" font-size="24" font-family="Biryani-SemiBold, Biryani" font-weight="600" style="isolation: isolate">CO</text>
      <text transform="translate(235.76 21.1)" font-size="24" font-family="Biryani-SemiBold, Biryani" font-weight="600" letter-spacing="-0.05em" style="isolation: isolate">L</text>
      <text transform="translate(249.06 21.1)" font-size="24" font-family="Biryani-SemiBold, Biryani" font-weight="600" style="isolation: isolate">UMNS</text>
    </g>
    <g style="isolation: isolate">
      <text transform="translate(21.1 298.79) rotate(-90)" font-size="24" font-family="Biryani-SemiBold, Biryani" font-weight="600" style="isolation: isolate">R</text>
      <text transform="translate(21.1 281.54) rotate(-90)" font-size="24" font-family="Biryani-SemiBold, Biryani" font-weight="600" letter-spacing="0.01em" style="isolation: isolate">O</text>
      <text transform="translate(21.1 262.24) rotate(-90)" font-size="24" font-family="Biryani-SemiBold, Biryani" font-weight="600" style="isolation: isolate">WS</text>
    </g>
  </g>
</svg>
