<svg xmlns="http://www.w3.org/2000/svg" width="336.5" height="351.81" viewBox="0 0 336.5 351.81">
  <title>motor</title>
  <g id="motor">
    <g>
      <path d="M153.23,283c-7.42-1.36-9.21-5.74-11.81-13.4L116.23,208.2c-6.94-22.19,6.35-35.73,21.94-40.25,23.33-6.76,59.41-.1,76,14.09a21.38,21.38,0,0,1,2.38,30.29c-15.13,17.21-32.34,11.35-32.58,11.3-14.45-2.83-19.42,5.52-18,17.05L168,253.24c3.81,11.24,7.18,25.15-4.06,29a21.49,21.49,0,0,1-10.74.79Z" transform="translate(-11.16 -10.19)" fill="#8aa8bd"/>
      <path d="M144.87,247.83c4.8-5.83,9.5-5.25,17.45-3.78L228.2,252c22.76,4.76,28.1,23,24.44,38.79-5.48,23.66-28.89,51.91-49.36,59.48a21.38,21.38,0,0,1-27.61-12.7c-7.63-21.6,5.87-33.77,6-33.95,9.53-11.23,4.67-19.65-6.1-24l-12-4.32c-11.66-2.16-25.45-6-23.29-17.68a21.28,21.28,0,0,1,4.54-9.75Z" transform="translate(-11.16 -10.19)" fill="#8aa8bd"/>
      <path d="M179.54,255.89c2.56,7.1-.32,10.85-5.63,16.95l-40.34,52.68C117.9,342.7,99.5,338,87.74,326.84c-17.59-16.75-30-51.28-26.1-72.76a21.37,21.37,0,0,1,25-17.31c22.48,4.41,26.09,22.23,26.17,22.45,4.83,13.92,14.54,14,23.79,7l9.81-8.11c7.79-8.94,18.12-18.86,27.07-11.07a21.55,21.55,0,0,1,6.09,8.88Z" transform="translate(-11.16 -10.19)" fill="#8aa8bd"/>
    </g>
    <circle id="inner-circle" cx="147.32" cy="251.5" r="25.47" fill="#c5d3de"/>
    <path d="M249.85,242.87a3.94,3.94,0,0,0,3.84,3.13,4.23,4.23,0,0,0,.79-.08,3.92,3.92,0,0,0,3-4.63,100.46,100.46,0,0,0-11.92-30.93,3.92,3.92,0,0,0-6.75,4,92.43,92.43,0,0,1,11,28.52Z" transform="translate(-11.16 -10.19)"/>
    <path d="M231.72,236a3.92,3.92,0,1,0,7.39-2.6,86.31,86.31,0,0,0-5.5-12.4,3.92,3.92,0,0,0-6.89,3.75,76.44,76.44,0,0,1,5,11.25Z" transform="translate(-11.16 -10.19)"/>
    <path d="M71.89,219.05a3.9,3.9,0,0,0,5.28-1.66A92.57,92.57,0,0,1,95.61,193a3.92,3.92,0,0,0-5.39-5.69,100.37,100.37,0,0,0-20,26.44A3.92,3.92,0,0,0,71.89,219.05Z" transform="translate(-11.16 -10.19)"/>
    <path d="M93.21,207.15a84.18,84.18,0,0,0-7.63,11.21,3.92,3.92,0,1,0,6.81,3.88,77,77,0,0,1,6.92-10.18,3.92,3.92,0,1,0-6.1-4.91Z" transform="translate(-11.16 -10.19)"/>
    <path d="M164.5,354a93.37,93.37,0,0,1-38.43-5.95,3.92,3.92,0,1,0-2.79,7.32,101.49,101.49,0,0,0,36,6.62c1.9,0,3.79-.05,5.68-.16a3.92,3.92,0,0,0-.45-7.83Z" transform="translate(-11.16 -10.19)"/>
    <path d="M159.16,346.33l1.86,0a3.92,3.92,0,1,0-.18-7.84,77.32,77.32,0,0,1-19.16-2,3.92,3.92,0,0,0-1.77,7.63A84.92,84.92,0,0,0,159.16,346.33Z" transform="translate(-11.16 -10.19)"/>
    <path d="M250.45,263.1c-4.84-7.59-12.95-12.76-23.45-15l-.33-.06-48.14-5.8a29.5,29.5,0,0,0-10.71-7.72A9,9,0,0,1,170.3,229c2.65-2.47,7.28-2.23,10.75-1.57,3.67,1.06,21.1,4.91,36.44-12.53a24.77,24.77,0,0,0,6.12-18.25,25.37,25.37,0,0,0-8.89-17.61c-8.41-7.19-22-12.94-37.31-15.77s-30.64-2.49-42.33.9c-10.4,3-18.57,9.2-23,17.42-4.26,7.93-4.81,17.53-1.61,27.77a2,2,0,0,0,.12.31L128.39,253a29.25,29.25,0,0,0-1,12.87c-2.85,1.2-6.23,1.3-8.66-.79-1.14-1-2.79-3-4.2-7-5-14.27-18.34-25.65-34-25.65-11.88,0-22.66,9.17-24.8,20.92a52.17,52.17,0,0,0-.78,9.29,81.68,81.68,0,0,0,2,17.2,4,4,0,0,0,1.39,2.23,3.93,3.93,0,0,0,2.44.85,3.3,3.3,0,0,0,.83-.09,3.91,3.91,0,0,0,3-4.66,73.3,73.3,0,0,1-1.81-15.53,45,45,0,0,1,.65-7.89,17.66,17.66,0,0,1,17.06-14.48h0a17.28,17.28,0,0,1,3.28.32c8.42,1.67,14.66,5.37,19.09,11.28s4.81,14,10.61,19.11a14.31,14.31,0,0,0,9.68,3.7,18.57,18.57,0,0,0,6.34-1.21,29.47,29.47,0,0,0,23.58,17.39L128.57,323c-6.16,6.66-12.69,9.91-20,9.94h0c-14,0-24.66-12.31-31.35-23.31a3.92,3.92,0,0,0-6.7,4.07c8.18,13.46,21.16,27.05,38.1,27.08h.11c10.07,0,19.15-5.31,25.76-12.61l.22-.26,28.86-37.69a29.43,29.43,0,0,0,11.38-5.66c3.18,1.77,5.2,3.93,5.77,6.24.86,3.52-1.61,7.44-3.87,10.15-2.72,2.68-14.58,16-6.84,37.93a24.76,24.76,0,0,0,13,14.24,26.51,26.51,0,0,0,19.7.83c10.39-3.84,22-12.91,32-24.88s17.11-25.54,19.86-37.4c2.44-10.56,1-20.7-4-28.56ZM117.92,206.87c-2.54-8.23-2.18-15.49,1.09-21.56,3.4-6.35,9.89-11.18,18.25-13.61,10.56-3.06,24.68-3.32,38.73-.72s26.24,7.7,33.64,14a17.59,17.59,0,0,1,6.16,12.21,17,17,0,0,1-4.19,12.52c-12.35,14-25.85,10.92-28.43,10.15l-.44-.11c-7.69-1.51-13.67-.33-17.77,3.5a16.17,16.17,0,0,0-4.75,9.26,28.73,28.73,0,0,0-3.73-.25,29.37,29.37,0,0,0-23.37,11.6Zm38.56,76.37A21.56,21.56,0,1,1,178,261.68,21.58,21.58,0,0,1,156.48,283.24Zm90.34,6.65c-2.48,10.71-9.13,23.17-18.25,34.16s-19.52,19.16-28.65,22.54a17.56,17.56,0,0,1-13.66-.58,16.94,16.94,0,0,1-8.89-9.76c-6.24-17.64,3.07-27.9,5-29.78a4.49,4.49,0,0,0,.31-.33c5.07-6,7-11.77,5.62-17.22-1-4-3.69-7.47-7.89-10.21a29.28,29.28,0,0,0,3.37-27.89l41.78,5c8.42,1.79,14.58,5.64,18.29,11.46,3.88,6.07,4.94,14.08,3,22.57Z" transform="translate(-11.16 -10.19)"/>
    <path d="M71.65,294.41A3.91,3.91,0,0,0,68,292a3.82,3.82,0,0,0-1.45.28,3.9,3.9,0,0,0-2.15,2.09,4,4,0,0,0,0,3A3.91,3.91,0,0,0,68,299.79a4,4,0,0,0,1.45-.28A3.93,3.93,0,0,0,71.65,294.41Z" transform="translate(-11.16 -10.19)"/>
  </g>
  <g id="text">
    <text id="motor_info" transform="translate(0.41 31.64)" font-size="36" font-family="Biryani-SemiBold, Biryani" font-weight="600">Motor 1</text>
    <text id="speed" transform="translate(0.69 78.14) rotate(-1.25)" font-size="36" font-family="Biryani-SemiBold, Biryani" font-weight="600">Speed 150</text>
    <text id="direction" transform="translate(0.41 124.65)" font-size="36" font-family="Biryani-SemiBold, Biryani" font-weight="600">Direction: Forward</text>
  </g>
</svg>
