<svg xmlns="http://www.w3.org/2000/svg" width="397" height="365.32" viewBox="0 0 397 365.32">
  <title>soil-sensor</title>
  <g id="sensor">
    <rect x="301.5" y="89.82" width="95" height="190" fill="#ffd6a4" stroke="#000" stroke-miterlimit="10"/>
    <path d="M400.14,121.77c16-87.35-214.61,14.26-212.64,71.73" transform="translate(-63 -16.68)" fill="none" stroke="#0071bc" stroke-miterlimit="10" stroke-width="3"/>
    <path d="M420,122C447.66.71,160.5,135.5,160.5,195.5" transform="translate(-63 -16.68)" fill="none" stroke="#0071bc" stroke-miterlimit="10" stroke-width="3"/>
    <g>
      <polygon points="124.5 313.25 124.5 205.82 99.5 205.82 99.5 313.23 93.28 328.82 88.5 313.25 88.5 205.82 76.5 205.82 76.5 176.82 150.5 176.82 150.5 205.82 135.5 205.82 135.5 313.23 129.28 328.82 124.5 313.25" fill="#f15a24"/>
      <path d="M213,194v28H198V329.81L192.34,344,188,329.85V222H162V329.81L156.34,344,152,329.85V222H140V194h73m1-1H139v30h12V330l5.22,17L163,330V223h24V330l5.22,17L199,330V223h15V193Z" transform="translate(-63 -16.68)"/>
    </g>
    <rect x="321.5" y="104.82" width="49" height="24" fill="#1f911f" stroke="#000" stroke-miterlimit="10"/>
    <g id="wires">
      <path id="DO" d="M334,280.32h7a0,0,0,0,1,0,0v26a3,3,0,0,1-3,3h-1a3,3,0,0,1-3-3v-26A0,0,0,0,1,334,280.32Z" fill="#97aa9c"/>
      <path id="GND" d="M357,280.32h7a0,0,0,0,1,0,0v26a3,3,0,0,1-3,3h-1a3,3,0,0,1-3-3v-26A0,0,0,0,1,357,280.32Z" fill="#97aa9c"/>
      <path id="POWER" d="M378,280.32h7a0,0,0,0,1,0,0v26a3,3,0,0,1-3,3h-1a3,3,0,0,1-3-3v-26A0,0,0,0,1,378,280.32Z" fill="#97aa9c"/>
      <path id="PIN" d="M310,280.32h7a0,0,0,0,1,0,0v26a3,3,0,0,1-3,3h-1a3,3,0,0,1-3-3v-26A0,0,0,0,1,310,280.32Z" fill="#97aa9c"/>
      <text transform="translate(341.32 276.92) rotate(-90)" font-size="12" font-family="Biryani-SemiBold, Biryani" font-weight="600">DO (Digital Pin)</text>
      <text transform="translate(364.32 276.92) rotate(-90)" font-size="12" font-family="Biryani-SemiBold, Biryani" font-weight="600">GND</text>
      <text transform="translate(386.32 276.92) rotate(-90)" font-size="12" font-family="Biryani-SemiBold, Biryani" font-weight="600">VCC</text>
      <text id="PIN_TEXT" transform="translate(317.32 276.92) rotate(-90)" font-size="12" font-family="Biryani-SemiBold, Biryani" font-weight="600">A0 (Analog Pin)</text>
    </g>
  </g>
  <g id="sensor_text">
    <text id="READING_VALUE" transform="translate(42.43 26.37)" font-size="30" font-family="Biryani-SemiBold, Biryani" font-weight="600">Humidity Level: 80</text>
  </g>
  <g id="plant">
    <rect x="33.5" y="158.82" width="17" height="75" fill="#70522b" stroke="#000" stroke-miterlimit="10"/>
    <path d="M226.5,241.5H63.5v27h17v98a15,15,0,0,0,15,15h95a15,15,0,0,0,15-15v-98h21Z" transform="translate(-63 -16.68)" fill="#70522b" stroke="#000" stroke-miterlimit="10"/>
    <ellipse cx="43" cy="158.32" rx="29.5" ry="22.5" fill="#2b6d3c" stroke="#000" stroke-miterlimit="10"/>
  </g>
</svg>
