<?xml version="1.0" encoding="UTF-8" standalone="no"?>
<svg
   width="85"
   height="81"
   version="1.2"
   viewBox="-10 -5 69.209221 65.952314"
   id="svg10"
   sodipodi:docname="led.svg"
   inkscape:version="1.3.2 (091e20e, 2023-11-25)"
   xmlns:inkscape="http://www.inkscape.org/namespaces/inkscape"
   xmlns:sodipodi="http://sodipodi.sourceforge.net/DTD/sodipodi-0.dtd"
   xmlns="http://www.w3.org/2000/svg"
   xmlns:svg="http://www.w3.org/2000/svg">
  <defs
     id="defs10" />
  <sodipodi:namedview
     id="namedview10"
     pagecolor="#ffffff"
     bordercolor="#000000"
     borderopacity="0.25"
     inkscape:showpageshadow="2"
     inkscape:pageopacity="0.0"
     inkscape:pagecheckerboard="0"
     inkscape:deskcolor="#d1d1d1"
     inkscape:zoom="11.313708"
     inkscape:cx="30.05204"
     inkscape:cy="30.228816"
     inkscape:window-width="1728"
     inkscape:window-height="973"
     inkscape:window-x="0"
     inkscape:window-y="38"
     inkscape:window-maximized="0"
     inkscape:current-layer="svg10" />
  <filter
     id="light1"
     x="-1.2"
     y="-1.2"
     height="3.4"
     width="3.4">
    <feGaussianBlur
       stdDeviation="2"
       id="feGaussianBlur1" />
  </filter>
  <filter
     id="light2"
     x="-0.48"
     y="-0.48"
     height="1.96"
     width="1.96">
    <feGaussianBlur
       stdDeviation="4"
       id="feGaussianBlur2" />
  </filter>
  <rect
     x="18.817341"
     y="37.501934"
     width="2.1514001"
     height="9.8273001"
     fill="#8c8c8c"
     id="rect2"
     inkscape:label="PIN_GROUND_START"
     style="display:inline" />
  <path
     d="m 29.286945,47.388933 c 0,-1.1736 -0.86844,-2.5132 -1.8916,-3.4024 -0.41616,-0.3672 -1.1995,-1.0015 -1.1995,-1.4249 v -5.4706 h -2.161399 v 5.7802 c 0,1.0584 0.947519,1.8785 1.946199,2.7482 0.44424,0.37584 1.3486,1.2496 1.3486,1.7694"
     fill="#8c8c8c"
     id="path2"
     inkscape:label="POWER_START" />
  <path
     d="m 30.482945,30.120933 v -5.912599 c 0,-3.9132 -3.168,-7.0884 -7.085499,-7.0884 -3.912501,0 -7.087701,3.1694 -7.087701,7.0884 v 13.648999 c 1.4738,1.651 4.0968,2.7526 7.087701,2.7526 4.619499,0 8.368599,-2.6179 8.368599,-5.8594 v -1.5235 c -7.4e-4,-1.1426 -0.47444,-2.2039 -1.283,-3.1061 z"
     opacity="0.3"
     id="path3" />
  <path
     d="m 30.482945,30.120933 v -5.912599 c 0,-3.9132 -3.168,-7.0884 -7.085499,-7.0884 -3.912501,0 -7.087701,3.1694 -7.087701,7.0884 v 13.648999 c 1.4738,1.651 4.0968,2.7526 7.087701,2.7526 4.619499,0 8.368599,-2.6179 8.368599,-5.8594 v -1.5235 c -7.4e-4,-1.1426 -0.47444,-2.2039 -1.283,-3.1061 z"
     fill="#e6e6e6"
     opacity="0.5"
     id="path4" />
  <path
     d="m 30.482945,30.120933 v 3.1054 c 0,2.7389 -3.1658,4.9651 -7.085499,4.9651 -3.912501,2e-5 -7.087701,-2.219 -7.087701,-4.9651 v 4.6296 c 1.4738,1.6517 4.0968,2.7526 7.087701,2.7526 4.619499,0 8.368599,-2.6179 8.368599,-5.8586 l -4e-5,-1.5235 c -7e-4,-1.1419 -0.4744,-2.2032 -1.283,-3.1054 z"
     fill="#d1d1d1"
     opacity="0.9"
     id="path5" />
  <g
     id="g7"
     transform="translate(16.309945,17.119934)">
    <path
       d="m 14.173,13.001 v 3.1054 c 0,2.7389 -3.1658,4.9651 -7.0855,4.9651 -3.9125,2e-5 -7.0877,-2.219 -7.0877,-4.9651 v 4.6296 c 1.4738,1.6517 4.0968,2.7526 7.0877,2.7526 4.6195,0 8.3686,-2.6179 8.3686,-5.8586 l -4e-5,-1.5235 c -7e-4,-1.1419 -0.4744,-2.2032 -1.283,-3.1054 z"
       opacity="0.7"
       id="path6" />
    <path
       d="m 14.173,13.001 v 3.1054 c 0,2.7389 -3.1658,4.9651 -7.0855,4.9651 -3.9125,2e-5 -7.0877,-2.219 -7.0877,-4.9651 v 3.1054 c 1.4738,1.6502 4.0968,2.7526 7.0877,2.7526 4.6195,0 8.3686,-2.6179 8.3686,-5.8586 -7.4e-4,-1.1412 -0.47444,-2.2025 -1.283,-3.1047 z"
       opacity="0.25"
       id="path7" />
    <ellipse
       cx="7.0876999"
       cy="16.106001"
       rx="7.0869999"
       ry="4.9608002"
       opacity="0.25"
       id="ellipse7" />
  </g>
  <polygon
     points="3.1961,13.095 6.0156,13.095 10.012,8.8049 3.407,8.8049 2.2032,9.648 2.2032,16.107 3.1961,16.107 "
     fill="#666666"
     id="polygon7"
     transform="translate(16.309945,17.119934)" />
  <polygon
     points="11.06,13.095 11.06,16.107 11.974,16.107 11.974,8.5241 10.778,8.5241 11.215,9.0338 7.4117,13.095 "
     fill="#666666"
     id="polygon8"
     transform="translate(16.309945,17.119934)" />
  <path
     d="m 30.482945,30.120933 v -5.912599 c 0,-3.9132 -3.168,-7.0884 -7.085499,-7.0884 -3.912501,0 -7.087701,3.1694 -7.087701,7.0884 v 13.648999 c 1.4738,1.651 4.0968,2.7526 7.087701,2.7526 4.619499,0 8.368599,-2.6179 8.368599,-5.8594 v -1.5235 c -7.4e-4,-1.1426 -0.47444,-2.2039 -1.283,-3.1061 z"
     opacity="0.65"
     id="MAIN_COLOR" />
  <g
     fill="#ffffff"
     id="g10"
     transform="translate(16.309945,17.119934)">
    <path
       d="M 10.388,3.7541 11.8244,3.4805 C 10.98272,2.3487 9.7422,1.5228 8.2827,1.242 l 0.25416,1.0807 c 0.76388,0.27072 1.4068,0.78048 1.8511,1.4314 z"
       opacity="0.5"
       id="path8" />
    <path
       d="m 0.76824,19.926 v 1.5199 c 0.64872,0.5292 1.4335,0.97632 2.3076,1.3169 v -1.525 C 2.19744,20.90156 1.41914,20.45586 0.76824,19.926 Z"
       opacity="0.5"
       id="path9" />
    <path
       d="m 11.073,20.21 c -0.2556,0.1224 -0.52992,0.22968 -0.80568,0.32976 -0.05832,0.01944 -0.11736,0.04032 -0.17784,0.05832 -0.56376,0.17928 -1.1614,0.31896 -1.795,0.39456 -0.07488,0.0094 -0.1512,0.01872 -0.22464,0.01944 -0.3204,0.03024 -0.64368,0.05832 -0.97056,0.05832 -0.14832,0 -0.30744,-0.01512 -0.4716,-0.02376 C 5.42748,20.98976 4.29708,20.732 3.33008,20.3072 l -2e-5,-8.3895 V 7.0923 c 0,-1.471 0.84816,-2.7295 2.0736,-3.3494 L 5.38134,3.68962 4.13354,2.17762 c -1.6697,1.003 -2.79,2.8224 -2.79,4.9118 v 11.905 C 1.29386,18.94474 1.03538,18.68554 0.8633,18.4645 l -0.30744,0.6876 c 1.4011,1.4818 3.8088,2.4617 6.5426,2.4617 1.6798,0 3.2371,-0.37368 4.5115,-1.0022 l -0.52704,-0.40896 -0.01006,0.0072 z"
       opacity="0.5"
       id="path10" />
  </g>
  <g
     class="light"
     id="LIGHT_ON"
     transform="translate(15.761014,18.999579)">
    <circle
       cx="8"
       cy="10"
       id="SECOND_COLOR"
       filter="url(#light2)"
       r="10" />
    <circle
       cx="8"
       cy="10"
       fill="#ffffff"
       filter="url(#light1)"
       id="ellipse10"
       r="2" />
    <circle
       cx="8"
       cy="10"
       fill="#ffffff"
       id="LIGHT_EFFECT"
       filter="url(#light1)"
       r="3" />
    <!-- REPLACE WITH OPACITY-->
  </g>
  <rect
     style="fill:#8c8c8c;fill-opacity:1;stroke-width:1.44593"
     width="2.1430244"
     height="13.00324"
     x="18.821529"
     y="46.281898"
     id="PIN_GND"
     inkscape:transform-center-x="-0.076536571"
     inkscape:transform-center-y="1.7731689"
     inkscape:label="PIN_GND" />
  <rect
     style="fill:#8c8c8c;fill-opacity:1;stroke-width:1.33288"
     width="1.9459223"
     height="12.168531"
     x="27.350163"
     y="47.157948"
     id="POWER"
     inkscape:transform-center-x="-0.069497458"
     inkscape:transform-center-y="1.6593465"
     inkscape:label="POWER" />
  <text
     xml:space="preserve"
     style="font-size:13.8418px;display:inline;fill:#000000;stroke-width:0.814225"
     x="24.449833"
     y="14.215484"
     id="text1"
     inkscape:label="LED_TEXT"><tspan
       sodipodi:role="line"
       id="LED_TEXT"
       style="font-style:normal;font-variant:normal;font-weight:normal;font-stretch:normal;font-size:13.8418px;font-family:Biryani;-inkscape-font-specification:Biryani;text-align:center;text-anchor:middle;stroke-width:0.814225"
       x="24.449833"
       y="14.215484">off</tspan></text>
  <text
     xml:space="preserve"
     style="font-size:17.3702px;text-align:center;direction:rtl;text-anchor:middle;fill:#000000;stroke-width:0.814226"
     x="41.745064"
     y="58.25996"
     id="PIN_NUMBER"
     inkscape:label="PIN_NUMBER"><tspan
       sodipodi:role="line"
       id="tspan2"
       style="font-size:17.3702px;stroke-width:0.814226"
       x="41.745064"
       y="58.25996">A6</tspan></text>
  <text
     xml:space="preserve"
     style="font-size:17.3702px;text-align:center;direction:rtl;text-anchor:middle;fill:#000000;stroke-width:0.814226"
     x="13.605537"
     y="53.294163"
     id="text2"><tspan
       id="tspan1"
       style="font-size:17.3702px;stroke-width:0.814226"
       x="13.605537"
       y="53.294163"
       sodipodi:role="line">-</tspan></text>
</svg>
