<?xml version="1.0" encoding="UTF-8"?>
<svg xmlns="http://www.w3.org/2000/svg" width="426.96" height="286.25" viewBox="0 0 426.96 286.25">
  <g id="LEDS">
    <g id="LED_1">
      <g id="BASE">
        <rect x="11.67" y="178.53" width="33.69" height="9.97" fill="#f2d4b7"/>
        <rect x="11.67" y="178.53" width="33.69" height="9.97" fill="none" stroke="#010101" stroke-miterlimit="10"/>
      </g>
      <g id="LED-1">
        <ellipse cx="28.66" cy="178.46" rx="6.24" ry="5.88" fill="#010101"/>
        <ellipse cx="28.66" cy="178.46" rx="6.24" ry="5.88" fill="none" stroke="#010101" stroke-miterlimit="10"/>
      </g>
      <text id="LED_NUMBER_TEXT" transform="translate(24.88 199.96) scale(1.06 1)" fill="#010101" font-family="Biryani-SemiBold, Biryani" font-size="13.46"><tspan x="0" y="0">1</tspan></text>
    </g>
    <g id="LED_2">
      <g id="BASE-2" data-name="BASE">
        <rect x="45.35" y="178.53" width="33.69" height="9.97" fill="#f2d4b7"/>
        <rect x="45.35" y="178.53" width="33.69" height="9.97" fill="none" stroke="#010101" stroke-miterlimit="10"/>
      </g>
      <g id="LED-2" data-name="LED">
        <ellipse cx="62.35" cy="178.46" rx="6.24" ry="5.88" fill="#010101"/>
        <ellipse cx="62.35" cy="178.46" rx="6.24" ry="5.88" fill="none" stroke="#010101" stroke-miterlimit="10"/>
      </g>
      <text id="LED_NUMBER_TEXT-2" data-name="LED_NUMBER_TEXT" transform="translate(58.57 199.96) scale(1.06 1)" fill="#010101" font-family="Biryani-SemiBold, Biryani" font-size="13.46"><tspan x="0" y="0">2</tspan></text>
    </g>
    <g id="LED_3">
      <g id="BASE-3" data-name="BASE">
        <rect x="79.04" y="178.53" width="33.69" height="9.97" fill="#f2d4b7"/>
        <rect x="79.04" y="178.53" width="33.69" height="9.97" fill="none" stroke="#010101" stroke-miterlimit="10"/>
      </g>
      <g id="LED-3" data-name="LED">
        <ellipse cx="96.03" cy="178.46" rx="6.24" ry="5.88" fill="#010101"/>
        <ellipse cx="96.03" cy="178.46" rx="6.24" ry="5.88" fill="none" stroke="#010101" stroke-miterlimit="10"/>
      </g>
      <text id="LED_NUMBER_TEXT-3" data-name="LED_NUMBER_TEXT" transform="translate(92.25 199.96) scale(1.06 1)" fill="#010101" font-family="Biryani-SemiBold, Biryani" font-size="13.46"><tspan x="0" y="0">3</tspan></text>
    </g>
    <g id="LED_4">
      <g id="BASE-4" data-name="BASE">
        <rect x="112.72" y="178.53" width="33.69" height="9.97" fill="#f2d4b7"/>
        <rect x="112.72" y="178.53" width="33.69" height="9.97" fill="none" stroke="#010101" stroke-miterlimit="10"/>
      </g>
      <g id="LED-4" data-name="LED">
        <ellipse cx="129.72" cy="178.46" rx="6.24" ry="5.88" fill="#010101"/>
        <ellipse cx="129.72" cy="178.46" rx="6.24" ry="5.88" fill="none" stroke="#010101" stroke-miterlimit="10"/>
      </g>
      <text id="LED_NUMBER_TEXT-4" data-name="LED_NUMBER_TEXT" transform="translate(125.94 199.96) scale(1.06 1)" fill="#010101" font-family="Biryani-SemiBold, Biryani" font-size="13.46"><tspan x="0" y="0">4</tspan></text>
    </g>
    <g id="LED_5">
      <g id="BASE-5" data-name="BASE">
        <rect x="146.41" y="178.53" width="33.69" height="9.97" fill="#f2d4b7"/>
        <rect x="146.41" y="178.53" width="33.69" height="9.97" fill="none" stroke="#010101" stroke-miterlimit="10"/>
      </g>
      <g id="LED-5" data-name="LED">
        <ellipse cx="163.41" cy="178.46" rx="6.24" ry="5.88" fill="#010101"/>
        <ellipse cx="163.41" cy="178.46" rx="6.24" ry="5.88" fill="none" stroke="#010101" stroke-miterlimit="10"/>
      </g>
      <text id="LED_NUMBER_TEXT-5" data-name="LED_NUMBER_TEXT" transform="translate(159.62 199.96) scale(1.06 1)" fill="#010101" font-family="Biryani-SemiBold, Biryani" font-size="13.46"><tspan x="0" y="0">5</tspan></text>
    </g>
    <g id="LED_6">
      <g id="BASE-6" data-name="BASE">
        <rect x="180.1" y="178.53" width="33.69" height="9.97" fill="#f2d4b7"/>
        <rect x="180.1" y="178.53" width="33.69" height="9.97" fill="none" stroke="#010101" stroke-miterlimit="10"/>
      </g>
      <g id="LED-6" data-name="LED">
        <ellipse cx="197.09" cy="178.46" rx="6.24" ry="5.88" fill="#010101"/>
        <ellipse cx="197.09" cy="178.46" rx="6.24" ry="5.88" fill="none" stroke="#010101" stroke-miterlimit="10"/>
      </g>
      <text id="LED_NUMBER_TEXT-6" data-name="LED_NUMBER_TEXT" transform="translate(193.31 199.96) scale(1.06 1)" fill="#010101" font-family="Biryani-SemiBold, Biryani" font-size="13.46"><tspan x="0" y="0">6</tspan></text>
    </g>
    <g id="LED_7">
      <g id="BASE-7" data-name="BASE">
        <rect x="213.78" y="178.53" width="33.69" height="9.97" fill="#f2d4b7"/>
        <rect x="213.78" y="178.53" width="33.69" height="9.97" fill="none" stroke="#010101" stroke-miterlimit="10"/>
      </g>
      <g id="LED-7" data-name="LED">
        <ellipse cx="230.78" cy="178.46" rx="6.24" ry="5.88" fill="#010101"/>
        <ellipse cx="230.78" cy="178.46" rx="6.24" ry="5.88" fill="none" stroke="#010101" stroke-miterlimit="10"/>
      </g>
      <text id="LED_NUMBER_TEXT-7" data-name="LED_NUMBER_TEXT" transform="translate(227 199.96) scale(1.06 1)" fill="#010101" font-family="Biryani-SemiBold, Biryani" font-size="13.46"><tspan x="0" y="0">7</tspan></text>
    </g>
    <g id="LED_8">
      <g id="BASE-8" data-name="BASE">
        <rect x="247.47" y="178.53" width="33.69" height="9.97" fill="#f2d4b7"/>
        <rect x="247.47" y="178.53" width="33.69" height="9.97" fill="none" stroke="#010101" stroke-miterlimit="10"/>
      </g>
      <g id="LED-8" data-name="LED">
        <ellipse cx="264.46" cy="178.46" rx="6.24" ry="5.88" fill="#010101"/>
        <ellipse cx="264.46" cy="178.46" rx="6.24" ry="5.88" fill="none" stroke="#010101" stroke-miterlimit="10"/>
      </g>
      <text id="LED_NUMBER_TEXT-8" data-name="LED_NUMBER_TEXT" transform="translate(260.68 199.96) scale(1.06 1)" fill="#010101" font-family="Biryani-SemiBold, Biryani" font-size="13.46"><tspan x="0" y="0">8</tspan></text>
    </g>
    <g id="LED_9">
      <g id="BASE-9" data-name="BASE">
        <rect x="281.15" y="178.53" width="33.69" height="9.97" fill="#f2d4b7"/>
        <rect x="281.15" y="178.53" width="33.69" height="9.97" fill="none" stroke="#010101" stroke-miterlimit="10"/>
      </g>
      <g id="LED-9" data-name="LED">
        <ellipse cx="298.15" cy="178.46" rx="6.24" ry="5.88" fill="#010101"/>
        <ellipse cx="298.15" cy="178.46" rx="6.24" ry="5.88" fill="none" stroke="#010101" stroke-miterlimit="10"/>
      </g>
      <text id="LED_NUMBER_TEXT-9" data-name="LED_NUMBER_TEXT" transform="translate(294.37 199.96) scale(1.06 1)" fill="#010101" font-family="Biryani-SemiBold, Biryani" font-size="13.46"><tspan x="0" y="0">9</tspan></text>
    </g>
    <g id="LED_10">
      <g id="BASE-10" data-name="BASE">
        <rect x="314.84" y="178.53" width="33.69" height="9.97" fill="#f2d4b7"/>
        <rect x="314.84" y="178.53" width="33.69" height="9.97" fill="none" stroke="#010101" stroke-miterlimit="10"/>
      </g>
      <g id="LED-10" data-name="LED">
        <ellipse cx="331.83" cy="178.46" rx="6.24" ry="5.88" fill="#010101"/>
        <ellipse cx="331.83" cy="178.46" rx="6.24" ry="5.88" fill="none" stroke="#010101" stroke-miterlimit="10"/>
      </g>
      <text id="LED_NUMBER_TEXT-10" data-name="LED_NUMBER_TEXT" transform="translate(323.46 199.96) scale(1.06 1)" fill="#010101" font-family="Biryani-SemiBold, Biryani" font-size="13.46"><tspan x="0" y="0">10</tspan></text>
    </g>
    <g id="LED_11">
      <g id="BASE-11" data-name="BASE">
        <rect x="348.53" y="178.53" width="33.69" height="9.97" fill="#f2d4b7"/>
        <rect x="348.53" y="178.53" width="33.69" height="9.97" fill="none" stroke="#010101" stroke-miterlimit="10"/>
      </g>
      <g id="LED-11" data-name="LED">
        <ellipse cx="365.52" cy="178.46" rx="6.24" ry="5.88" fill="#010101"/>
        <ellipse cx="365.52" cy="178.46" rx="6.24" ry="5.88" fill="none" stroke="#010101" stroke-miterlimit="10"/>
      </g>
      <text id="LED_NUMBER_TEXT-11" data-name="LED_NUMBER_TEXT" transform="translate(357.15 199.96) scale(1.06 1)" fill="#010101" font-family="Biryani-SemiBold, Biryani" font-size="13.46"><tspan x="0" y="0">11</tspan></text>
    </g>
    <g id="LED_12">
      <g id="BASE-12" data-name="BASE">
        <rect x="382.21" y="178.53" width="33.69" height="9.97" fill="#f2d4b7"/>
        <rect x="382.21" y="178.53" width="33.69" height="9.97" fill="none" stroke="#010101" stroke-miterlimit="10"/>
      </g>
      <g id="LED-12" data-name="LED">
        <ellipse cx="399.21" cy="178.46" rx="6.24" ry="5.88" fill="#010101"/>
        <ellipse cx="399.21" cy="178.46" rx="6.24" ry="5.88" fill="none" stroke="#010101" stroke-miterlimit="10"/>
      </g>
      <text id="LED_NUMBER_TEXT-12" data-name="LED_NUMBER_TEXT" transform="translate(390.83 199.96) scale(1.06 1)" fill="#010101" font-family="Biryani-SemiBold, Biryani" font-size="13.46"><tspan x="0" y="0">12</tspan></text>
    </g>
    <g id="LED_13">
      <g id="BASE-13" data-name="BASE">
        <rect x="382.21" y="134.63" width="33.69" height="9.97" fill="#f2d4b7"/>
        <rect x="382.21" y="134.63" width="33.69" height="9.97" fill="none" stroke="#010101" stroke-miterlimit="10"/>
      </g>
      <g id="LED-13" data-name="LED">
        <ellipse cx="399.21" cy="134.56" rx="6.24" ry="5.88" fill="#010101"/>
        <ellipse cx="399.21" cy="134.56" rx="6.24" ry="5.88" fill="none" stroke="#010101" stroke-miterlimit="10"/>
      </g>
      <text id="LED_NUMBER_TEXT-13" data-name="LED_NUMBER_TEXT" transform="translate(392.13 156.28) scale(1.06 1)" fill="#010101" font-family="Biryani-SemiBold, Biryani" font-size="13.46"><tspan x="0" y="0">13</tspan></text>
    </g>
    <g id="LED_14">
      <g id="BASE-14" data-name="BASE">
        <rect x="348.53" y="134.63" width="33.69" height="9.97" fill="#f2d4b7"/>
        <rect x="348.53" y="134.63" width="33.69" height="9.97" fill="none" stroke="#010101" stroke-miterlimit="10"/>
      </g>
      <g id="LED-14" data-name="LED">
        <ellipse cx="365.52" cy="134.56" rx="6.24" ry="5.88" fill="#010101"/>
        <ellipse cx="365.52" cy="134.56" rx="6.24" ry="5.88" fill="none" stroke="#010101" stroke-miterlimit="10"/>
      </g>
      <text id="LED_NUMBER_TEXT-14" data-name="LED_NUMBER_TEXT" transform="translate(358.44 156.06) scale(1.06 1)" fill="#010101" font-family="Biryani-SemiBold, Biryani" font-size="13.46"><tspan x="0" y="0">14</tspan></text>
    </g>
    <g id="LED_15">
      <g id="BASE-15" data-name="BASE">
        <rect x="314.84" y="134.63" width="33.69" height="9.97" fill="#f2d4b7"/>
        <rect x="314.84" y="134.63" width="33.69" height="9.97" fill="none" stroke="#010101" stroke-miterlimit="10"/>
      </g>
      <g id="LED-15" data-name="LED">
        <ellipse cx="331.83" cy="134.56" rx="6.24" ry="5.88" fill="#010101"/>
        <ellipse cx="331.83" cy="134.56" rx="6.24" ry="5.88" fill="none" stroke="#010101" stroke-miterlimit="10"/>
      </g>
      <text id="LED_NUMBER_TEXT-15" data-name="LED_NUMBER_TEXT" transform="translate(324.76 156.06) scale(1.06 1)" fill="#010101" font-family="Biryani-SemiBold, Biryani" font-size="13.46"><tspan x="0" y="0">15</tspan></text>
    </g>
    <g id="LED_16">
      <g id="BASE-16" data-name="BASE">
        <rect x="281.15" y="134.63" width="33.69" height="9.97" fill="#f2d4b7"/>
        <rect x="281.15" y="134.63" width="33.69" height="9.97" fill="none" stroke="#010101" stroke-miterlimit="10"/>
      </g>
      <g id="LED-16" data-name="LED">
        <ellipse cx="298.15" cy="134.56" rx="6.24" ry="5.88" fill="#010101"/>
        <ellipse cx="298.15" cy="134.56" rx="6.24" ry="5.88" fill="none" stroke="#010101" stroke-miterlimit="10"/>
      </g>
      <text id="LED_NUMBER_TEXT-16" data-name="LED_NUMBER_TEXT" transform="translate(289.82 156.06) scale(1.06 1)" fill="#010101" font-family="Biryani-SemiBold, Biryani" font-size="13.46"><tspan x="0" y="0">16</tspan></text>
    </g>
    <g id="LED_17">
      <g id="BASE-17" data-name="BASE">
        <rect x="247.47" y="134.63" width="33.69" height="9.97" fill="#f2d4b7"/>
        <rect x="247.47" y="134.63" width="33.69" height="9.97" fill="none" stroke="#010101" stroke-miterlimit="10"/>
      </g>
      <g id="LED-17" data-name="LED">
        <ellipse cx="264.46" cy="134.56" rx="6.24" ry="5.88" fill="#010101"/>
        <ellipse cx="264.46" cy="134.56" rx="6.24" ry="5.88" fill="none" stroke="#010101" stroke-miterlimit="10"/>
      </g>
      <text id="LED_NUMBER_TEXT-17" data-name="LED_NUMBER_TEXT" transform="translate(255.79 156.06) scale(1.06 1)" fill="#010101" font-family="Biryani-SemiBold, Biryani" font-size="13.46"><tspan x="0" y="0">17</tspan></text>
    </g>
    <g id="LED_18">
      <g id="BASE-18" data-name="BASE">
        <rect x="213.78" y="134.63" width="33.69" height="9.97" fill="#f2d4b7"/>
        <rect x="213.78" y="134.63" width="33.69" height="9.97" fill="none" stroke="#010101" stroke-miterlimit="10"/>
      </g>
      <g id="LED-18" data-name="LED">
        <ellipse cx="230.78" cy="134.56" rx="6.24" ry="5.88" fill="#010101"/>
        <ellipse cx="230.78" cy="134.56" rx="6.24" ry="5.88" fill="none" stroke="#010101" stroke-miterlimit="10"/>
      </g>
      <text id="LED_NUMBER_TEXT-18" data-name="LED_NUMBER_TEXT" transform="translate(222.78 156.06) scale(1.06 1)" fill="#010101" font-family="Biryani-SemiBold, Biryani" font-size="13.46"><tspan x="0" y="0">18</tspan></text>
    </g>
    <g id="LED_19">
      <g id="BASE-19" data-name="BASE">
        <rect x="180.1" y="134.63" width="33.69" height="9.97" fill="#f2d4b7"/>
        <rect x="180.1" y="134.63" width="33.69" height="9.97" fill="none" stroke="#010101" stroke-miterlimit="10"/>
      </g>
      <g id="LED-19" data-name="LED">
        <ellipse cx="197.09" cy="134.56" rx="6.24" ry="5.88" fill="#010101"/>
        <ellipse cx="197.09" cy="134.56" rx="6.24" ry="5.88" fill="none" stroke="#010101" stroke-miterlimit="10"/>
      </g>
      <text id="LED_NUMBER_TEXT-19" data-name="LED_NUMBER_TEXT" transform="translate(188.42 156.06) scale(1.06 1)" fill="#010101" font-family="Biryani-SemiBold, Biryani" font-size="13.46"><tspan x="0" y="0">19</tspan></text>
    </g>
    <g id="LED_20">
      <g id="BASE-20" data-name="BASE">
        <rect x="146.41" y="134.63" width="33.69" height="9.97" fill="#f2d4b7"/>
        <rect x="146.41" y="134.63" width="33.69" height="9.97" fill="none" stroke="#010101" stroke-miterlimit="10"/>
      </g>
      <g id="LED-20" data-name="LED">
        <ellipse cx="163.41" cy="134.56" rx="6.24" ry="5.88" fill="#010101"/>
        <ellipse cx="163.41" cy="134.56" rx="6.24" ry="5.88" fill="none" stroke="#010101" stroke-miterlimit="10"/>
      </g>
      <text id="LED_NUMBER_TEXT-20" data-name="LED_NUMBER_TEXT" transform="translate(155.41 156.28) scale(1.06 1)" fill="#010101" font-family="Biryani-SemiBold, Biryani" font-size="13.46"><tspan x="0" y="0">20</tspan></text>
    </g>
    <g id="LED_21">
      <g id="BASE-21" data-name="BASE">
        <rect x="112.72" y="134.63" width="33.69" height="9.97" fill="#f2d4b7"/>
        <rect x="112.72" y="134.63" width="33.69" height="9.97" fill="none" stroke="#010101" stroke-miterlimit="10"/>
      </g>
      <g id="LED-21" data-name="LED">
        <ellipse cx="129.72" cy="134.56" rx="6.24" ry="5.88" fill="#010101"/>
        <ellipse cx="129.72" cy="134.56" rx="6.24" ry="5.88" fill="none" stroke="#010101" stroke-miterlimit="10"/>
      </g>
      <text id="LED_NUMBER_TEXT-21" data-name="LED_NUMBER_TEXT" transform="translate(123.48 156.06) scale(1.06 1)" fill="#010101" font-family="Biryani-SemiBold, Biryani" font-size="13.46"><tspan x="0" y="0">21</tspan></text>
    </g>
    <g id="LED_22">
      <g id="BASE-22" data-name="BASE">
        <rect x="79.04" y="134.63" width="33.69" height="9.97" fill="#f2d4b7"/>
        <rect x="79.04" y="134.63" width="33.69" height="9.97" fill="none" stroke="#010101" stroke-miterlimit="10"/>
      </g>
      <g id="LED-22" data-name="LED">
        <ellipse cx="96.03" cy="134.56" rx="6.24" ry="5.88" fill="#010101"/>
        <ellipse cx="96.03" cy="134.56" rx="6.24" ry="5.88" fill="none" stroke="#010101" stroke-miterlimit="10"/>
      </g>
      <text id="LED_NUMBER_TEXT-22" data-name="LED_NUMBER_TEXT" transform="translate(88.21 156.06) scale(1.06 1)" fill="#010101" font-family="Biryani-SemiBold, Biryani" font-size="13.46"><tspan x="0" y="0">22</tspan></text>
    </g>
    <g id="LED_23">
      <g id="BASE-23" data-name="BASE">
        <rect x="45.35" y="134.63" width="33.69" height="9.97" fill="#f2d4b7"/>
        <rect x="45.35" y="134.63" width="33.69" height="9.97" fill="none" stroke="#010101" stroke-miterlimit="10"/>
      </g>
      <g id="LED-23" data-name="LED">
        <ellipse cx="62.35" cy="134.56" rx="6.24" ry="5.88" fill="#010101"/>
        <ellipse cx="62.35" cy="134.56" rx="6.24" ry="5.88" fill="none" stroke="#010101" stroke-miterlimit="10"/>
      </g>
      <text id="LED_NUMBER_TEXT-23" data-name="LED_NUMBER_TEXT" transform="translate(54.42 156.28) scale(1.06 1)" fill="#010101" font-family="Biryani-SemiBold, Biryani" font-size="13.46"><tspan x="0" y="0">23</tspan></text>
    </g>
    <g id="LED_24">
      <g id="BASE-24" data-name="BASE">
        <rect x="11.67" y="134.63" width="33.69" height="9.97" fill="#f2d4b7"/>
        <rect x="11.67" y="134.63" width="33.69" height="9.97" fill="none" stroke="#010101" stroke-miterlimit="10"/>
      </g>
      <g id="LED-24" data-name="LED">
        <ellipse cx="28.66" cy="134.56" rx="6.24" ry="5.88" fill="#010101"/>
        <ellipse cx="28.66" cy="134.56" rx="6.24" ry="5.88" fill="none" stroke="#010101" stroke-miterlimit="10"/>
      </g>
      <text id="LED_NUMBER_TEXT-24" data-name="LED_NUMBER_TEXT" transform="translate(21.25 156.06) scale(1.06 1)" fill="#010101" font-family="Biryani-SemiBold, Biryani" font-size="13.46"><tspan x="0" y="0">24</tspan></text>
    </g>
    <g id="LED_25">
      <g id="BASE-25" data-name="BASE">
        <rect x="11.67" y="91.91" width="33.69" height="9.97" fill="#f2d4b7"/>
        <rect x="11.67" y="91.91" width="33.69" height="9.97" fill="none" stroke="#010101" stroke-miterlimit="10"/>
      </g>
      <g id="LED-25" data-name="LED">
        <ellipse cx="28.66" cy="91.83" rx="6.24" ry="5.88" fill="#010101"/>
        <ellipse cx="28.66" cy="91.83" rx="6.24" ry="5.88" fill="none" stroke="#010101" stroke-miterlimit="10"/>
      </g>
      <text id="LED_NUMBER_TEXT-25" data-name="LED_NUMBER_TEXT" transform="translate(21.25 113.33) scale(1.06 1)" fill="#010101" font-family="Biryani-SemiBold, Biryani" font-size="13.46"><tspan x="0" y="0">25</tspan></text>
    </g>
    <g id="LED_26">
      <g id="BASE-26" data-name="BASE">
        <rect x="45.35" y="91.91" width="33.69" height="9.97" fill="#f2d4b7"/>
        <rect x="45.35" y="91.91" width="33.69" height="9.97" fill="none" stroke="#010101" stroke-miterlimit="10"/>
      </g>
      <g id="LED-26" data-name="LED">
        <ellipse cx="62.35" cy="91.83" rx="6.24" ry="5.88" fill="#010101"/>
        <ellipse cx="62.35" cy="91.83" rx="6.24" ry="5.88" fill="none" stroke="#010101" stroke-miterlimit="10"/>
      </g>
      <text id="LED_NUMBER_TEXT-26" data-name="LED_NUMBER_TEXT" transform="translate(54.42 113.56) scale(1.06 1)" fill="#010101" font-family="Biryani-SemiBold, Biryani" font-size="13.46"><tspan x="0" y="0">26</tspan></text>
    </g>
    <g id="LED_27">
      <g id="BASE-27" data-name="BASE">
        <rect x="79.04" y="91.91" width="33.69" height="9.97" fill="#f2d4b7"/>
        <rect x="79.04" y="91.91" width="33.69" height="9.97" fill="none" stroke="#010101" stroke-miterlimit="10"/>
      </g>
      <g id="LED-27" data-name="LED">
        <ellipse cx="96.03" cy="91.83" rx="6.24" ry="5.88" fill="#010101"/>
        <ellipse cx="96.03" cy="91.83" rx="6.24" ry="5.88" fill="none" stroke="#010101" stroke-miterlimit="10"/>
      </g>
      <text id="LED_NUMBER_TEXT-27" data-name="LED_NUMBER_TEXT" transform="translate(88.21 113.33) scale(1.06 1)" fill="#010101" font-family="Biryani-SemiBold, Biryani" font-size="13.46"><tspan x="0" y="0">27</tspan></text>
    </g>
    <g id="LED_28">
      <g id="BASE-28" data-name="BASE">
        <rect x="112.72" y="91.91" width="33.69" height="9.97" fill="#f2d4b7"/>
        <rect x="112.72" y="91.91" width="33.69" height="9.97" fill="none" stroke="#010101" stroke-miterlimit="10"/>
      </g>
      <g id="LED-28" data-name="LED">
        <ellipse cx="129.72" cy="91.83" rx="6.24" ry="5.88" fill="#010101"/>
        <ellipse cx="129.72" cy="91.83" rx="6.24" ry="5.88" fill="none" stroke="#010101" stroke-miterlimit="10"/>
      </g>
      <text id="LED_NUMBER_TEXT-28" data-name="LED_NUMBER_TEXT" transform="translate(123.48 113.33) scale(1.06 1)" fill="#010101" font-family="Biryani-SemiBold, Biryani" font-size="13.46"><tspan x="0" y="0">28</tspan></text>
    </g>
    <g id="LED_29">
      <g id="BASE-29" data-name="BASE">
        <rect x="146.41" y="91.91" width="33.69" height="9.97" fill="#f2d4b7"/>
        <rect x="146.41" y="91.91" width="33.69" height="9.97" fill="none" stroke="#010101" stroke-miterlimit="10"/>
      </g>
      <g id="LED-29" data-name="LED">
        <ellipse cx="163.41" cy="91.83" rx="6.24" ry="5.88" fill="#010101"/>
        <ellipse cx="163.41" cy="91.83" rx="6.24" ry="5.88" fill="none" stroke="#010101" stroke-miterlimit="10"/>
      </g>
      <text id="LED_NUMBER_TEXT-29" data-name="LED_NUMBER_TEXT" transform="translate(155.41 113.56) scale(1.06 1)" fill="#010101" font-family="Biryani-SemiBold, Biryani" font-size="13.46"><tspan x="0" y="0">29</tspan></text>
    </g>
    <g id="LED_30">
      <g id="BASE-30" data-name="BASE">
        <rect x="180.1" y="91.91" width="33.69" height="9.97" fill="#f2d4b7"/>
        <rect x="180.1" y="91.91" width="33.69" height="9.97" fill="none" stroke="#010101" stroke-miterlimit="10"/>
      </g>
      <g id="LED-30" data-name="LED">
        <ellipse cx="197.09" cy="91.83" rx="6.24" ry="5.88" fill="#010101"/>
        <ellipse cx="197.09" cy="91.83" rx="6.24" ry="5.88" fill="none" stroke="#010101" stroke-miterlimit="10"/>
      </g>
      <text id="LED_NUMBER_TEXT-30" data-name="LED_NUMBER_TEXT" transform="translate(188.42 113.33) scale(1.06 1)" fill="#010101" font-family="Biryani-SemiBold, Biryani" font-size="13.46"><tspan x="0" y="0">30</tspan></text>
    </g>
    <g id="LED_31">
      <g id="BASE-31" data-name="BASE">
        <rect x="213.78" y="91.91" width="33.69" height="9.97" fill="#f2d4b7"/>
        <rect x="213.78" y="91.91" width="33.69" height="9.97" fill="none" stroke="#010101" stroke-miterlimit="10"/>
      </g>
      <g id="LED-31" data-name="LED">
        <ellipse cx="230.78" cy="91.83" rx="6.24" ry="5.88" fill="#010101"/>
        <ellipse cx="230.78" cy="91.83" rx="6.24" ry="5.88" fill="none" stroke="#010101" stroke-miterlimit="10"/>
      </g>
      <text id="LED_NUMBER_TEXT-31" data-name="LED_NUMBER_TEXT" transform="translate(222.78 113.33) scale(1.06 1)" fill="#010101" font-family="Biryani-SemiBold, Biryani" font-size="13.46"><tspan x="0" y="0">31</tspan></text>
    </g>
    <g id="LED_32">
      <g id="BASE-32" data-name="BASE">
        <rect x="247.47" y="91.91" width="33.69" height="9.97" fill="#f2d4b7"/>
        <rect x="247.47" y="91.91" width="33.69" height="9.97" fill="none" stroke="#010101" stroke-miterlimit="10"/>
      </g>
      <g id="LED-32" data-name="LED">
        <ellipse cx="264.46" cy="91.83" rx="6.24" ry="5.88" fill="#010101"/>
        <ellipse cx="264.46" cy="91.83" rx="6.24" ry="5.88" fill="none" stroke="#010101" stroke-miterlimit="10"/>
      </g>
      <text id="LED_NUMBER_TEXT-32" data-name="LED_NUMBER_TEXT" transform="translate(255.79 113.33) scale(1.06 1)" fill="#010101" font-family="Biryani-SemiBold, Biryani" font-size="13.46"><tspan x="0" y="0">32</tspan></text>
    </g>
    <g id="LED_33">
      <g id="BASE-33" data-name="BASE">
        <rect x="281.15" y="91.91" width="33.69" height="9.97" fill="#f2d4b7"/>
        <rect x="281.15" y="91.91" width="33.69" height="9.97" fill="none" stroke="#010101" stroke-miterlimit="10"/>
      </g>
      <g id="LED-33" data-name="LED">
        <ellipse cx="298.15" cy="91.83" rx="6.24" ry="5.88" fill="#010101"/>
        <ellipse cx="298.15" cy="91.83" rx="6.24" ry="5.88" fill="none" stroke="#010101" stroke-miterlimit="10"/>
      </g>
      <text id="LED_NUMBER_TEXT-33" data-name="LED_NUMBER_TEXT" transform="translate(289.82 113.33) scale(1.06 1)" fill="#010101" font-family="Biryani-SemiBold, Biryani" font-size="13.46"><tspan x="0" y="0">33</tspan></text>
    </g>
    <g id="LED_34">
      <g id="BASE-34" data-name="BASE">
        <rect x="314.84" y="91.91" width="33.69" height="9.97" fill="#f2d4b7"/>
        <rect x="314.84" y="91.91" width="33.69" height="9.97" fill="none" stroke="#010101" stroke-miterlimit="10"/>
      </g>
      <g id="LED-34" data-name="LED">
        <ellipse cx="331.83" cy="91.83" rx="6.24" ry="5.88" fill="#010101"/>
        <ellipse cx="331.83" cy="91.83" rx="6.24" ry="5.88" fill="none" stroke="#010101" stroke-miterlimit="10"/>
      </g>
      <text id="LED_NUMBER_TEXT-34" data-name="LED_NUMBER_TEXT" transform="translate(324.76 113.33) scale(1.06 1)" fill="#010101" font-family="Biryani-SemiBold, Biryani" font-size="13.46"><tspan x="0" y="0">34</tspan></text>
    </g>
    <g id="LED_35">
      <g id="BASE-35" data-name="BASE">
        <rect x="348.53" y="91.91" width="33.69" height="9.97" fill="#f2d4b7"/>
        <rect x="348.53" y="91.91" width="33.69" height="9.97" fill="none" stroke="#010101" stroke-miterlimit="10"/>
      </g>
      <g id="LED-35" data-name="LED">
        <ellipse cx="365.52" cy="91.83" rx="6.24" ry="5.88" fill="#010101"/>
        <ellipse cx="365.52" cy="91.83" rx="6.24" ry="5.88" fill="none" stroke="#010101" stroke-miterlimit="10"/>
      </g>
      <text id="LED_NUMBER_TEXT-35" data-name="LED_NUMBER_TEXT" transform="translate(358.44 113.33) scale(1.06 1)" fill="#010101" font-family="Biryani-SemiBold, Biryani" font-size="13.46"><tspan x="0" y="0">35</tspan></text>
    </g>
    <g id="LED_36">
      <g id="BASE-36" data-name="BASE">
        <rect x="382.21" y="91.91" width="33.69" height="9.97" fill="#f2d4b7"/>
        <rect x="382.21" y="91.91" width="33.69" height="9.97" fill="none" stroke="#010101" stroke-miterlimit="10"/>
      </g>
      <g id="LED-36" data-name="LED">
        <ellipse cx="399.21" cy="91.83" rx="6.24" ry="5.88" fill="#010101"/>
        <ellipse cx="399.21" cy="91.83" rx="6.24" ry="5.88" fill="none" stroke="#010101" stroke-miterlimit="10"/>
      </g>
      <text id="LED_NUMBER_TEXT-36" data-name="LED_NUMBER_TEXT" transform="translate(392.13 113.56) scale(1.06 1)" fill="#010101" font-family="Biryani-SemiBold, Biryani" font-size="13.46"><tspan x="0" y="0">36</tspan></text>
    </g>
    <g id="LED_37">
      <g id="BASE-37" data-name="BASE">
        <rect x="382.21" y="49.18" width="33.69" height="9.97" fill="#f2d4b7"/>
        <rect x="382.21" y="49.18" width="33.69" height="9.97" fill="none" stroke="#010101" stroke-miterlimit="10"/>
      </g>
      <g id="LED-37" data-name="LED">
        <ellipse cx="399.21" cy="49.1" rx="6.24" ry="5.88" fill="#010101"/>
        <ellipse cx="399.21" cy="49.1" rx="6.24" ry="5.88" fill="none" stroke="#010101" stroke-miterlimit="10"/>
      </g>
      <text id="LED_NUMBER_TEXT-37" data-name="LED_NUMBER_TEXT" transform="translate(392.13 70.83) scale(1.06 1)" fill="#010101" font-family="Biryani-SemiBold, Biryani" font-size="13.46"><tspan x="0" y="0">37</tspan></text>
    </g>
    <g id="LED_38">
      <g id="BASE-38" data-name="BASE">
        <rect x="348.53" y="49.18" width="33.69" height="9.97" fill="#f2d4b7"/>
        <rect x="348.53" y="49.18" width="33.69" height="9.97" fill="none" stroke="#010101" stroke-miterlimit="10"/>
      </g>
      <g id="LED-38" data-name="LED">
        <ellipse cx="365.52" cy="49.1" rx="6.24" ry="5.88" fill="#010101"/>
        <ellipse cx="365.52" cy="49.1" rx="6.24" ry="5.88" fill="none" stroke="#010101" stroke-miterlimit="10"/>
      </g>
      <text id="LED_NUMBER_TEXT-38" data-name="LED_NUMBER_TEXT" transform="translate(358.44 70.6) scale(1.06 1)" fill="#010101" font-family="Biryani-SemiBold, Biryani" font-size="13.46"><tspan x="0" y="0">38</tspan></text>
    </g>
    <g id="LED_39">
      <g id="BASE-39" data-name="BASE">
        <rect x="314.84" y="49.18" width="33.69" height="9.97" fill="#f2d4b7"/>
        <rect x="314.84" y="49.18" width="33.69" height="9.97" fill="none" stroke="#010101" stroke-miterlimit="10"/>
      </g>
      <g id="LED-39" data-name="LED">
        <ellipse cx="331.83" cy="49.1" rx="6.24" ry="5.88" fill="#010101"/>
        <ellipse cx="331.83" cy="49.1" rx="6.24" ry="5.88" fill="none" stroke="#010101" stroke-miterlimit="10"/>
      </g>
      <text id="LED_NUMBER_TEXT-39" data-name="LED_NUMBER_TEXT" transform="translate(324.76 70.6) scale(1.06 1)" fill="#010101" font-family="Biryani-SemiBold, Biryani" font-size="13.46"><tspan x="0" y="0">39</tspan></text>
    </g>
    <g id="LED_40">
      <g id="BASE-40" data-name="BASE">
        <rect x="281.15" y="49.18" width="33.69" height="9.97" fill="#f2d4b7"/>
        <rect x="281.15" y="49.18" width="33.69" height="9.97" fill="none" stroke="#010101" stroke-miterlimit="10"/>
      </g>
      <g id="LED-40" data-name="LED">
        <ellipse cx="298.15" cy="49.1" rx="6.24" ry="5.88" fill="#010101"/>
        <ellipse cx="298.15" cy="49.1" rx="6.24" ry="5.88" fill="none" stroke="#010101" stroke-miterlimit="10"/>
      </g>
      <text id="LED_NUMBER_TEXT-40" data-name="LED_NUMBER_TEXT" transform="translate(289.82 70.6) scale(1.06 1)" fill="#010101" font-family="Biryani-SemiBold, Biryani" font-size="13.46"><tspan x="0" y="0">40</tspan></text>
    </g>
    <g id="LED_41">
      <g id="BASE-41" data-name="BASE">
        <rect x="247.47" y="49.18" width="33.69" height="9.97" fill="#f2d4b7"/>
        <rect x="247.47" y="49.18" width="33.69" height="9.97" fill="none" stroke="#010101" stroke-miterlimit="10"/>
      </g>
      <g id="LED-41" data-name="LED">
        <ellipse cx="264.46" cy="49.1" rx="6.24" ry="5.88" fill="#010101"/>
        <ellipse cx="264.46" cy="49.1" rx="6.24" ry="5.88" fill="none" stroke="#010101" stroke-miterlimit="10"/>
      </g>
      <text id="LED_NUMBER_TEXT-41" data-name="LED_NUMBER_TEXT" transform="translate(255.79 70.6) scale(1.06 1)" fill="#010101" font-family="Biryani-SemiBold, Biryani" font-size="13.46"><tspan x="0" y="0">41</tspan></text>
    </g>
    <g id="LED_42">
      <g id="BASE-42" data-name="BASE">
        <rect x="213.78" y="49.18" width="33.69" height="9.97" fill="#f2d4b7"/>
        <rect x="213.78" y="49.18" width="33.69" height="9.97" fill="none" stroke="#010101" stroke-miterlimit="10"/>
      </g>
      <g id="LED-42" data-name="LED">
        <ellipse cx="230.78" cy="49.1" rx="6.24" ry="5.88" fill="#010101"/>
        <ellipse cx="230.78" cy="49.1" rx="6.24" ry="5.88" fill="none" stroke="#010101" stroke-miterlimit="10"/>
      </g>
      <text id="LED_NUMBER_TEXT-42" data-name="LED_NUMBER_TEXT" transform="translate(222.78 70.6) scale(1.06 1)" fill="#010101" font-family="Biryani-SemiBold, Biryani" font-size="13.46"><tspan x="0" y="0">42</tspan></text>
    </g>
    <g id="LED_43">
      <g id="BASE-43" data-name="BASE">
        <rect x="180.1" y="49.18" width="33.69" height="9.97" fill="#f2d4b7"/>
        <rect x="180.1" y="49.18" width="33.69" height="9.97" fill="none" stroke="#010101" stroke-miterlimit="10"/>
      </g>
      <g id="LED-43" data-name="LED">
        <ellipse cx="197.09" cy="49.1" rx="6.24" ry="5.88" fill="#010101"/>
        <ellipse cx="197.09" cy="49.1" rx="6.24" ry="5.88" fill="none" stroke="#010101" stroke-miterlimit="10"/>
      </g>
      <text id="LED_NUMBER_TEXT-43" data-name="LED_NUMBER_TEXT" transform="translate(188.42 70.6) scale(1.06 1)" fill="#010101" font-family="Biryani-SemiBold, Biryani" font-size="13.46"><tspan x="0" y="0">43</tspan></text>
    </g>
    <g id="LED_44">
      <g id="BASE-44" data-name="BASE">
        <rect x="146.41" y="49.18" width="33.69" height="9.97" fill="#f2d4b7"/>
        <rect x="146.41" y="49.18" width="33.69" height="9.97" fill="none" stroke="#010101" stroke-miterlimit="10"/>
      </g>
      <g id="LED-44" data-name="LED">
        <ellipse cx="163.41" cy="49.1" rx="6.24" ry="5.88" fill="#010101"/>
        <ellipse cx="163.41" cy="49.1" rx="6.24" ry="5.88" fill="none" stroke="#010101" stroke-miterlimit="10"/>
      </g>
      <text id="LED_NUMBER_TEXT-44" data-name="LED_NUMBER_TEXT" transform="translate(155.41 70.83) scale(1.06 1)" fill="#010101" font-family="Biryani-SemiBold, Biryani" font-size="13.46"><tspan x="0" y="0">44</tspan></text>
    </g>
    <g id="LED_45">
      <g id="BASE-45" data-name="BASE">
        <rect x="112.72" y="49.18" width="33.69" height="9.97" fill="#f2d4b7"/>
        <rect x="112.72" y="49.18" width="33.69" height="9.97" fill="none" stroke="#010101" stroke-miterlimit="10"/>
      </g>
      <g id="LED-45" data-name="LED">
        <ellipse cx="129.72" cy="49.1" rx="6.24" ry="5.88" fill="#010101"/>
        <ellipse cx="129.72" cy="49.1" rx="6.24" ry="5.88" fill="none" stroke="#010101" stroke-miterlimit="10"/>
      </g>
      <text id="LED_NUMBER_TEXT-45" data-name="LED_NUMBER_TEXT" transform="translate(123.48 70.6) scale(1.06 1)" fill="#010101" font-family="Biryani-SemiBold, Biryani" font-size="13.46"><tspan x="0" y="0">45</tspan></text>
    </g>
    <g id="LED_46">
      <g id="BASE-46" data-name="BASE">
        <rect x="79.04" y="49.18" width="33.69" height="9.97" fill="#f2d4b7"/>
        <rect x="79.04" y="49.18" width="33.69" height="9.97" fill="none" stroke="#010101" stroke-miterlimit="10"/>
      </g>
      <g id="LED-46" data-name="LED">
        <ellipse cx="96.03" cy="49.1" rx="6.24" ry="5.88" fill="#010101"/>
        <ellipse cx="96.03" cy="49.1" rx="6.24" ry="5.88" fill="none" stroke="#010101" stroke-miterlimit="10"/>
      </g>
      <text id="LED_NUMBER_TEXT-46" data-name="LED_NUMBER_TEXT" transform="translate(88.21 70.6) scale(1.06 1)" fill="#010101" font-family="Biryani-SemiBold, Biryani" font-size="13.46"><tspan x="0" y="0">46</tspan></text>
    </g>
    <g id="LED_47">
      <g id="BASE-47" data-name="BASE">
        <rect x="45.35" y="49.18" width="33.69" height="9.97" fill="#f2d4b7"/>
        <rect x="45.35" y="49.18" width="33.69" height="9.97" fill="none" stroke="#010101" stroke-miterlimit="10"/>
      </g>
      <g id="LED-47" data-name="LED">
        <ellipse cx="62.35" cy="49.1" rx="6.24" ry="5.88" fill="#010101"/>
        <ellipse cx="62.35" cy="49.1" rx="6.24" ry="5.88" fill="none" stroke="#010101" stroke-miterlimit="10"/>
      </g>
      <text id="LED_NUMBER_TEXT-47" data-name="LED_NUMBER_TEXT" transform="translate(54.42 70.83) scale(1.06 1)" fill="#010101" font-family="Biryani-SemiBold, Biryani" font-size="13.46"><tspan x="0" y="0">47</tspan></text>
    </g>
    <g id="LED_48">
      <g id="BASE-48" data-name="BASE">
        <rect x="11.67" y="49.18" width="33.69" height="9.97" fill="#f2d4b7"/>
        <rect x="11.67" y="49.18" width="33.69" height="9.97" fill="none" stroke="#010101" stroke-miterlimit="10"/>
      </g>
      <g id="LED-48" data-name="LED">
        <ellipse cx="28.66" cy="49.1" rx="6.24" ry="5.88" fill="#010101"/>
        <ellipse cx="28.66" cy="49.1" rx="6.24" ry="5.88" fill="none" stroke="#010101" stroke-miterlimit="10"/>
      </g>
      <text id="LED_NUMBER_TEXT-48" data-name="LED_NUMBER_TEXT" transform="translate(21.25 70.6) scale(1.06 1)" fill="#010101" font-family="Biryani-SemiBold, Biryani" font-size="13.46"><tspan x="0" y="0">48</tspan></text>
    </g>
    <g id="LED_49">
      <g id="BASE-49" data-name="BASE">
        <rect x="11.67" y="6.45" width="33.69" height="9.97" fill="#f2d4b7"/>
        <rect x="11.67" y="6.45" width="33.69" height="9.97" fill="none" stroke="#010101" stroke-miterlimit="10"/>
      </g>
      <g id="LED-49" data-name="LED">
        <ellipse cx="28.66" cy="6.38" rx="6.24" ry="5.88" fill="#010101"/>
        <ellipse cx="28.66" cy="6.38" rx="6.24" ry="5.88" fill="none" stroke="#010101" stroke-miterlimit="10"/>
      </g>
      <text id="LED_NUMBER_TEXT-49" data-name="LED_NUMBER_TEXT" transform="translate(21.25 27.88) scale(1.06 1)" fill="#010101" font-family="Biryani-SemiBold, Biryani" font-size="13.46"><tspan x="0" y="0">49</tspan></text>
    </g>
    <g id="LED_50">
      <g id="BASE-50" data-name="BASE">
        <rect x="45.35" y="6.45" width="33.69" height="9.97" fill="#f2d4b7"/>
        <rect x="45.35" y="6.45" width="33.69" height="9.97" fill="none" stroke="#010101" stroke-miterlimit="10"/>
      </g>
      <g id="LED-50" data-name="LED">
        <ellipse cx="62.35" cy="6.38" rx="6.24" ry="5.88" fill="#010101"/>
        <ellipse cx="62.35" cy="6.38" rx="6.24" ry="5.88" fill="none" stroke="#010101" stroke-miterlimit="10"/>
      </g>
      <text id="LED_NUMBER_TEXT-50" data-name="LED_NUMBER_TEXT" transform="translate(54.42 28.1) scale(1.06 1)" fill="#010101" font-family="Biryani-SemiBold, Biryani" font-size="13.46"><tspan x="0" y="0">50</tspan></text>
    </g>
    <g id="LED_51">
      <g id="BASE-51" data-name="BASE">
        <rect x="79.04" y="6.45" width="33.69" height="9.97" fill="#f2d4b7"/>
        <rect x="79.04" y="6.45" width="33.69" height="9.97" fill="none" stroke="#010101" stroke-miterlimit="10"/>
      </g>
      <g id="LED-51" data-name="LED">
        <ellipse cx="96.03" cy="6.38" rx="6.24" ry="5.88" fill="#010101"/>
        <ellipse cx="96.03" cy="6.38" rx="6.24" ry="5.88" fill="none" stroke="#010101" stroke-miterlimit="10"/>
      </g>
      <text id="LED_NUMBER_TEXT-51" data-name="LED_NUMBER_TEXT" transform="translate(88.21 27.88) scale(1.06 1)" fill="#010101" font-family="Biryani-SemiBold, Biryani" font-size="13.46"><tspan x="0" y="0">51</tspan></text>
    </g>
    <g id="LED_52">
      <g id="BASE-52" data-name="BASE">
        <rect x="112.72" y="6.45" width="33.69" height="9.97" fill="#f2d4b7"/>
        <rect x="112.72" y="6.45" width="33.69" height="9.97" fill="none" stroke="#010101" stroke-miterlimit="10"/>
      </g>
      <g id="LED-52" data-name="LED">
        <ellipse cx="129.72" cy="6.38" rx="6.24" ry="5.88" fill="#010101"/>
        <ellipse cx="129.72" cy="6.38" rx="6.24" ry="5.88" fill="none" stroke="#010101" stroke-miterlimit="10"/>
      </g>
      <text id="LED_NUMBER_TEXT-52" data-name="LED_NUMBER_TEXT" transform="translate(123.48 27.88) scale(1.06 1)" fill="#010101" font-family="Biryani-SemiBold, Biryani" font-size="13.46"><tspan x="0" y="0">52</tspan></text>
    </g>
    <g id="LED_53">
      <g id="BASE-53" data-name="BASE">
        <rect x="146.41" y="6.45" width="33.69" height="9.97" fill="#f2d4b7"/>
        <rect x="146.41" y="6.45" width="33.69" height="9.97" fill="none" stroke="#010101" stroke-miterlimit="10"/>
      </g>
      <g id="LED-53" data-name="LED">
        <ellipse cx="163.41" cy="6.38" rx="6.24" ry="5.88" fill="#010101"/>
        <ellipse cx="163.41" cy="6.38" rx="6.24" ry="5.88" fill="none" stroke="#010101" stroke-miterlimit="10"/>
      </g>
      <text id="LED_NUMBER_TEXT-53" data-name="LED_NUMBER_TEXT" transform="translate(155.41 28.1) scale(1.06 1)" fill="#010101" font-family="Biryani-SemiBold, Biryani" font-size="13.46"><tspan x="0" y="0">53</tspan></text>
    </g>
    <g id="LED_54">
      <g id="BASE-54" data-name="BASE">
        <rect x="180.1" y="6.45" width="33.69" height="9.97" fill="#f2d4b7"/>
        <rect x="180.1" y="6.45" width="33.69" height="9.97" fill="none" stroke="#010101" stroke-miterlimit="10"/>
      </g>
      <g id="LED-54" data-name="LED">
        <ellipse cx="197.09" cy="6.38" rx="6.24" ry="5.88" fill="#010101"/>
        <ellipse cx="197.09" cy="6.38" rx="6.24" ry="5.88" fill="none" stroke="#010101" stroke-miterlimit="10"/>
      </g>
      <text id="LED_NUMBER_TEXT-54" data-name="LED_NUMBER_TEXT" transform="translate(188.42 27.88) scale(1.06 1)" fill="#010101" font-family="Biryani-SemiBold, Biryani" font-size="13.46"><tspan x="0" y="0">54</tspan></text>
    </g>
    <g id="LED_55">
      <g id="BASE-55" data-name="BASE">
        <rect x="213.78" y="6.45" width="33.69" height="9.97" fill="#f2d4b7"/>
        <rect x="213.78" y="6.45" width="33.69" height="9.97" fill="none" stroke="#010101" stroke-miterlimit="10"/>
      </g>
      <g id="LED-55" data-name="LED">
        <ellipse cx="230.78" cy="6.38" rx="6.24" ry="5.88" fill="#010101"/>
        <ellipse cx="230.78" cy="6.38" rx="6.24" ry="5.88" fill="none" stroke="#010101" stroke-miterlimit="10"/>
      </g>
      <text id="LED_NUMBER_TEXT-55" data-name="LED_NUMBER_TEXT" transform="translate(222.78 27.88) scale(1.06 1)" fill="#010101" font-family="Biryani-SemiBold, Biryani" font-size="13.46"><tspan x="0" y="0">55</tspan></text>
    </g>
    <g id="LED_56">
      <g id="BASE-56" data-name="BASE">
        <rect x="247.47" y="6.45" width="33.69" height="9.97" fill="#f2d4b7"/>
        <rect x="247.47" y="6.45" width="33.69" height="9.97" fill="none" stroke="#010101" stroke-miterlimit="10"/>
      </g>
      <g id="LED-56" data-name="LED">
        <ellipse cx="264.46" cy="6.38" rx="6.24" ry="5.88" fill="#010101"/>
        <ellipse cx="264.46" cy="6.38" rx="6.24" ry="5.88" fill="none" stroke="#010101" stroke-miterlimit="10"/>
      </g>
      <text id="LED_NUMBER_TEXT-56" data-name="LED_NUMBER_TEXT" transform="translate(255.79 27.88) scale(1.06 1)" fill="#010101" font-family="Biryani-SemiBold, Biryani" font-size="13.46"><tspan x="0" y="0">56</tspan></text>
    </g>
    <g id="LED_57">
      <g id="BASE-57" data-name="BASE">
        <rect x="281.15" y="6.45" width="33.69" height="9.97" fill="#f2d4b7"/>
        <rect x="281.15" y="6.45" width="33.69" height="9.97" fill="none" stroke="#010101" stroke-miterlimit="10"/>
      </g>
      <g id="LED-57" data-name="LED">
        <ellipse cx="298.15" cy="6.38" rx="6.24" ry="5.88" fill="#010101"/>
        <ellipse cx="298.15" cy="6.38" rx="6.24" ry="5.88" fill="none" stroke="#010101" stroke-miterlimit="10"/>
      </g>
      <text id="LED_NUMBER_TEXT-57" data-name="LED_NUMBER_TEXT" transform="translate(289.82 27.88) scale(1.06 1)" fill="#010101" font-family="Biryani-SemiBold, Biryani" font-size="13.46"><tspan x="0" y="0">57</tspan></text>
    </g>
    <g id="LED_58">
      <g id="BASE-58" data-name="BASE">
        <rect x="314.84" y="6.45" width="33.69" height="9.97" fill="#f2d4b7"/>
        <rect x="314.84" y="6.45" width="33.69" height="9.97" fill="none" stroke="#010101" stroke-miterlimit="10"/>
      </g>
      <g id="LED-58" data-name="LED">
        <ellipse cx="331.83" cy="6.38" rx="6.24" ry="5.88" fill="#010101"/>
        <ellipse cx="331.83" cy="6.38" rx="6.24" ry="5.88" fill="none" stroke="#010101" stroke-miterlimit="10"/>
      </g>
      <text id="LED_NUMBER_TEXT-58" data-name="LED_NUMBER_TEXT" transform="translate(324.76 27.88) scale(1.06 1)" fill="#010101" font-family="Biryani-SemiBold, Biryani" font-size="13.46"><tspan x="0" y="0">58</tspan></text>
    </g>
    <g id="LED_59">
      <g id="BASE-59" data-name="BASE">
        <rect x="348.53" y="6.45" width="33.69" height="9.97" fill="#f2d4b7"/>
        <rect x="348.53" y="6.45" width="33.69" height="9.97" fill="none" stroke="#010101" stroke-miterlimit="10"/>
      </g>
      <g id="LED-59" data-name="LED">
        <ellipse cx="365.52" cy="6.38" rx="6.24" ry="5.88" fill="#010101"/>
        <ellipse cx="365.52" cy="6.38" rx="6.24" ry="5.88" fill="none" stroke="#010101" stroke-miterlimit="10"/>
      </g>
      <text id="LED_NUMBER_TEXT-59" data-name="LED_NUMBER_TEXT" transform="translate(358.44 27.88) scale(1.06 1)" fill="#010101" font-family="Biryani-SemiBold, Biryani" font-size="13.46"><tspan x="0" y="0">59</tspan></text>
    </g>
    <g id="LED_60">
      <g id="BASE-60" data-name="BASE">
        <rect x="382.21" y="6.45" width="33.69" height="9.97" fill="#f2d4b7"/>
        <rect x="382.21" y="6.45" width="33.69" height="9.97" fill="none" stroke="#010101" stroke-miterlimit="10"/>
      </g>
      <g id="LED-60" data-name="LED">
        <ellipse cx="399.21" cy="6.38" rx="6.24" ry="5.88" fill="#010101"/>
        <ellipse cx="399.21" cy="6.38" rx="6.24" ry="5.88" fill="none" stroke="#010101" stroke-miterlimit="10"/>
      </g>
      <text id="LED_NUMBER_TEXT-60" data-name="LED_NUMBER_TEXT" transform="translate(392.13 28.1) scale(1.06 1)" fill="#010101" font-family="Biryani-SemiBold, Biryani" font-size="13.46"><tspan x="0" y="0">60</tspan></text>
    </g>
    <g id="LED_61"/>
    <g id="LED_62"/>
    <g id="LED_63"/>
    <g id="LED_64"/>
    <g id="LED_65"/>
    <g id="LED_66"/>
    <g id="LED_67"/>
    <g id="LED_68"/>
    <g id="LED_69"/>
    <g id="LED_70"/>
    <g id="LED_71"/>
    <g id="LED_72"/>
    <g id="LED_73"/>
    <g id="LED_74"/>
    <g id="LED_75"/>
    <g id="LED_76"/>
    <g id="LED_77"/>
    <g id="LED_78"/>
    <g id="LED_79"/>
    <g id="LED_80"/>
    <g id="LED_81"/>
    <g id="LED_82"/>
    <g id="LED_83"/>
    <g id="LED_84"/>
    <g id="LED_85"/>
    <g id="LED_86"/>
    <g id="LED_87"/>
    <g id="LED_88"/>
    <g id="LED_89"/>
    <g id="LED_90"/>
    <g id="LED_91"/>
    <g id="LED_92"/>
    <g id="LED_93"/>
    <g id="LED_94"/>
    <g id="LED_95"/>
    <g id="LED_96"/>
    <g id="LED_97"/>
    <g id="LED_98"/>
    <g id="LED_99"/>
    <g id="LED_100"/>
    <g id="LED_101"/>
    <g id="LED_102"/>
    <g id="LED_103"/>
    <g id="LED_104"/>
    <g id="LED_105"/>
    <g id="LED_106"/>
    <g id="LED_107"/>
    <g id="LED_108"/>
    <g id="LED_109"/>
    <g id="LED_110"/>
    <g id="LED_111"/>
    <g id="LED_112"/>
    <g id="LED_113"/>
    <g id="LED_114"/>
    <g id="LED_115"/>
    <g id="LED_116"/>
    <g id="LED_117"/>
    <g id="LED_118"/>
    <g id="LED_119"/>
    <g id="LED_120"/>
    <g id="LED_121"/>
    <g id="LED_122"/>
    <g id="LED_123"/>
    <g id="LED_124"/>
    <g id="LED_125"/>
    <g id="LED_126"/>
    <g id="LED_127"/>
    <g id="LED_128"/>
    <g id="LED_129"/>
    <g id="LED_130"/>
    <g id="LED_131"/>
    <g id="LED_132"/>
    <g id="LED_133"/>
    <g id="LED_134"/>
    <g id="LED_135"/>
    <g id="LED_136"/>
    <g id="LED_137"/>
    <g id="LED_138"/>
    <g id="LED_139"/>
    <g id="LED_140"/>
    <g id="LED_141"/>
    <g id="LED_142"/>
    <g id="LED_143"/>
    <g id="LED_144"/>
  </g>
  <g id="BASE-61" data-name="BASE">
    <line id="PIN_GND" x1="205.27" y1="273.24" x2="205.27" y2="248.24" fill="none" stroke="#010101" stroke-linecap="round" stroke-miterlimit="10" stroke-width="2"/>
    <line id="PIN_POWER" x1="222.27" y1="248.24" x2="222.27" y2="273.24" fill="none" stroke="#ed2224" stroke-linecap="round" stroke-miterlimit="10" stroke-width="2"/>
    <line id="PIN_DATA" x1="213.77" y1="273.24" x2="213.77" y2="248.24" fill="none" stroke="#046937" stroke-linecap="round" stroke-miterlimit="10" stroke-width="2"/>
    <rect x="202.27" y="240.24" width="23" height="13" fill="#f2d4b7"/>
    <text id="GND_TEXT" transform="translate(190.83 273.49) scale(1.14 1)" fill="#010101" font-family="Biryani-SemiBold, Biryani" font-size="21"><tspan x="0" y="0">-</tspan></text>
    <text id="DATA_TEXT" transform="translate(113.31 231.82) scale(1.21 1)" fill="#010101" font-family="Biryani-SemiBold, Biryani" font-size="21"><tspan x="0" y="0">data pin = A15</tspan></text>
    <text id="POWER_TEXT" transform="translate(224.88 273.49)" fill="#010101" font-family="Biryani-SemiBold, Biryani" font-size="21"><tspan x="0" y="0">+</tspan></text>
    <text transform="translate(56.17 267.99)" fill="#010101" font-family="Biryani-Bold, Biryani" font-size="24"><tspan x="0" y="0">Neo Pixels</tspan></text>
  </g>
  <g id="SIDES">
    <path id="LEVEL_1" d="M415.9,134.63h7.56c1.66,0,3,1.34,3,3v47.87c0,1.66-1.34,3-3,3h-7.56v-53.87h0Z" fill="#f2d4b7" stroke="#010101" stroke-miterlimit="10"/>
    <path id="LEVEL_2" d="M.5,91.91h7.56c1.66,0,3,1.34,3,3v46.7c0,1.66-1.34,3-3,3H.5v-52.7H.5Z" transform="translate(11.56 236.51) rotate(-180)" fill="#f2d4b7" stroke="#010101" stroke-miterlimit="10"/>
    <path id="LEVEL_3" d="M415.9,49.18h7.56c1.66,0,3,1.34,3,3v46.7c0,1.66-1.34,3-3,3h-7.56V49.18h0Z" fill="#f2d4b7" stroke="#010101" stroke-miterlimit="10"/>
    <path id="LEVEL_4" d="M1.95,6.45h7.56c1.66,0,3,1.34,3,3V56.15c0,1.66-1.34,3-3,3H1.95V6.45h0Z" transform="translate(14.46 65.6) rotate(-180)" fill="#f2d4b7" stroke="#010101" stroke-miterlimit="10"/>
  </g>
</svg>