<svg xmlns="http://www.w3.org/2000/svg" width="220" height="176.73" viewBox="0 0 220 176.73">
<style>
  #motor{
    transform-origin: 74.06px 126.32px; /* Adjust the center point as needed */
    animation: rotate 5s linear infinite; /* Adjust duration and timing function as needed */
    
  }

  @keyframes rotate {
    from {
      transform: rotate(0deg);
    }
    to {
      transform: rotate(360deg);
    }
  }
  @keyframes rotateAntiClockwise {
      from {
        transform: rotate(360deg);
      }
      to {
        transform: rotate(0deg);
      }
    }
  
</style>
  <g id="motor">
    <g>
      <path d="M77.57,146.29c-3.74-.68-4.64-2.88-5.94-6.73L59,108.71c-3.49-11.16,3.19-18,11-20.23,11.72-3.4,29.85,0,38.19,7.08a10.73,10.73,0,0,1,1.19,15.22c-7.6,8.65-16.25,5.7-16.37,5.68-7.26-1.42-9.76,2.77-9,8.57l1,6.31c1.91,5.65,3.61,12.64-2,14.55a10.72,10.72,0,0,1-5.39.4Z" transform="translate(-6.15 -9.27)" style="fill: #8aa8bd"/>
      <path d="M73.36,128.62c2.42-2.93,4.78-2.64,8.77-1.9l33.11,4c11.44,2.39,14.12,11.55,12.28,19.5C124.77,162.1,113,176.3,102.71,180.1a10.74,10.74,0,0,1-13.87-6.38c-3.84-10.86,3-17,3-17.07,4.78-5.64,2.34-9.87-3.07-12.07l-6-2.18c-5.87-1.08-12.8-3-11.71-8.88a10.67,10.67,0,0,1,2.28-4.9Z" transform="translate(-6.15 -9.27)" style="fill: #8aa8bd"/>
      <path d="M90.78,132.67c1.29,3.57-.15,5.46-2.82,8.52L67.68,167.67c-7.87,8.63-17.12,6.28-23,.66-8.84-8.42-15.08-25.77-13.12-36.57a10.75,10.75,0,0,1,12.55-8.7c11.3,2.22,13.11,11.17,13.15,11.29,2.43,7,7.31,7,12,3.5l4.93-4.08c3.92-4.49,9.11-9.48,13.6-5.56a10.65,10.65,0,0,1,3.06,4.46Z" transform="translate(-6.15 -9.27)" style="fill: #8aa8bd"/>
    </g>
    <circle id="inner-circle" cx="74.06" cy="126.32" r="12.8" style="fill: #c5d3de"/>
    <path d="M126.12,126.13a2,2,0,0,0,1.93,1.57,1.81,1.81,0,0,0,.4,0,2,2,0,0,0,1.53-2.33,50.43,50.43,0,0,0-6-15.54,2,2,0,0,0-3.39,2,46.59,46.59,0,0,1,5.52,14.34Z" transform="translate(-6.15 -9.27)"/>
    <path d="M117,122.66a2,2,0,0,0,1.86,1.32,1.91,1.91,0,0,0,.65-.12,2,2,0,0,0,1.2-2.51,43.25,43.25,0,0,0-2.76-6.23A2,2,0,0,0,114.5,117a38.67,38.67,0,0,1,2.51,5.66Z" transform="translate(-6.15 -9.27)"/>
    <path d="M36.68,114.16a2,2,0,0,0,.91.22,2,2,0,0,0,1.75-1.06,46.72,46.72,0,0,1,9.26-12.25,2,2,0,0,0-2.7-2.86,50.32,50.32,0,0,0-10,13.29A2,2,0,0,0,36.68,114.16Z" transform="translate(-6.15 -9.27)"/>
    <path d="M47.4,108.17a42.15,42.15,0,0,0-3.84,5.64,2,2,0,0,0,.74,2.69,2,2,0,0,0,1,.25,1.94,1.94,0,0,0,1.71-1,39.43,39.43,0,0,1,3.48-5.12,2,2,0,0,0-3.06-2.47Z" transform="translate(-6.15 -9.27)"/>
    <path d="M83.23,182a47,47,0,0,1-19.32-3,2,2,0,0,0-1.4,3.69A51,51,0,0,0,80.6,186c1,0,1.91,0,2.85-.08a2,2,0,0,0,1.86-2.08A2,2,0,0,0,83.23,182Z" transform="translate(-6.15 -9.27)"/>
    <path d="M80.54,178.12h.94a2,2,0,0,0-.09-3.94,38.13,38.13,0,0,1-9.63-1,2,2,0,0,0-.89,3.84A42.57,42.57,0,0,0,80.54,178.12Z" transform="translate(-6.15 -9.27)"/>
    <path d="M126.43,136.29c-2.44-3.81-6.52-6.41-11.79-7.51l-.17,0-24.19-2.91A14.77,14.77,0,0,0,84.9,122a4.57,4.57,0,0,1,1.24-2.8c1.33-1.24,3.66-1.12,5.4-.79,1.85.54,10.61,2.47,18.32-6.29a12.47,12.47,0,0,0,3.07-9.18,12.76,12.76,0,0,0-4.46-8.85c-4.23-3.61-11.07-6.5-18.75-7.92s-15.4-1.25-21.28.45a18.6,18.6,0,0,0-11.55,8.76c-2.14,4-2.42,8.81-.81,14l.06.16,8.94,21.79a14.8,14.8,0,0,0-.65,4.34,15,15,0,0,0,.15,2.13,4.14,4.14,0,0,1-4.35-.4,8.12,8.12,0,0,1-2.11-3.53c-2.53-7.17-9.22-12.89-17.07-12.89a13,13,0,0,0-12.46,10.52,26.22,26.22,0,0,0-.4,4.67,40.72,40.72,0,0,0,1,8.64,2,2,0,0,0,.69,1.12,2,2,0,0,0,1.23.43,1.51,1.51,0,0,0,.42-.05,2,2,0,0,0,1.51-2.34,36.75,36.75,0,0,1-.92-7.8,22.29,22.29,0,0,1,.33-4A8.87,8.87,0,0,1,41,124.83h0a9.22,9.22,0,0,1,1.65.16,15,15,0,0,1,9.59,5.67c2.23,3,2.42,7,5.34,9.61a7.17,7.17,0,0,0,4.86,1.86,9.43,9.43,0,0,0,3.19-.61,14.8,14.8,0,0,0,11.85,8.74L65.17,166.4c-3.1,3.34-6.38,5-10,5h0c-7.05,0-12.39-6.19-15.75-11.72a2,2,0,0,0-1.69-.94,2,2,0,0,0-1,.28,2,2,0,0,0-.66,2.71c4.11,6.77,10.64,13.6,19.15,13.61h0c5.06,0,9.63-2.67,12.95-6.34l.11-.13,14.51-18.94a14.7,14.7,0,0,0,5.71-2.85,5.43,5.43,0,0,1,2.9,3.14c.44,1.77-.8,3.74-1.94,5.1-1.37,1.35-7.33,8.06-3.44,19.06a12.4,12.4,0,0,0,6.51,7.16,13.29,13.29,0,0,0,9.9.42c5.22-1.93,11.07-6.49,16.07-12.51s8.6-12.83,10-18.79c1.22-5.31.51-10.41-2-14.36ZM59.82,108c-1.28-4.13-1.1-7.78.54-10.83a14.78,14.78,0,0,1,9.18-6.84C74.85,88.82,81.94,88.69,89,90s13.19,3.87,16.91,7a8.85,8.85,0,0,1,3.09,6.13,8.53,8.53,0,0,1-2.1,6.3c-6.21,7.06-13,5.49-14.29,5.1l-.22-.06c-3.87-.75-6.87-.16-8.93,1.76a8.11,8.11,0,0,0-2.39,4.66,14.44,14.44,0,0,0-1.87-.13,14.75,14.75,0,0,0-11.75,5.83ZM79.2,146.41A10.83,10.83,0,1,1,90,135.58,10.83,10.83,0,0,1,79.2,146.41Zm45.4,3.35c-1.25,5.38-4.59,11.64-9.18,17.17s-9.81,9.63-14.39,11.32a8.81,8.81,0,0,1-6.87-.28,8.57,8.57,0,0,1-4.47-4.91c-3.13-8.87,1.55-14,2.52-15l.15-.16c2.55-3,3.5-5.92,2.83-8.66a8.7,8.7,0,0,0-4-5.13,14.66,14.66,0,0,0,1.69-14l21,2.53c4.24.91,7.33,2.84,9.2,5.77a14.73,14.73,0,0,1,1.49,11.34Z" transform="translate(-6.15 -9.27)"/>
    <path d="M36.56,152a2,2,0,0,0-1.83-1.24,2.06,2.06,0,0,0-.73.14A2,2,0,0,0,32.93,152a1.91,1.91,0,0,0,0,1.5,1.94,1.94,0,0,0,1.83,1.24,1.78,1.78,0,0,0,.72-.14A2,2,0,0,0,36.56,152Z" transform="translate(-6.15 -9.27)"/>
  </g>
  <g id="text">
    <text id="motor_info" transform="translate(0.22 15.82)" style="font-size: 18px;font-family: Biryani-SemiBold, Biryani;font-weight: 600">Motor: 1</text>
    <text id="speed" transform="translate(0.34 39.17) rotate(-1.25)" style="font-size: 18px;font-family: Biryani-SemiBold, Biryani;font-weight: 600">Speed: 150</text>
    <text id="direction" transform="translate(0.22 62.57)" style="font-size: 18px;font-family: Biryani-SemiBold, Biryani;font-weight: 600">Direction: </text>
  </g>
</svg>



