<svg id="svg2985" xmlns="http://www.w3.org/2000/svg" width="343.97" height="241.03" viewBox="0 0 343.97 241.03">
  <rect id="rect3336" x="242.86" y="84.27" width="56.7" height="128" fill="#0a73b1"/>
  <rect id="rect3450" x="262.06" y="127.17" width="27.9" height="28.8" fill="#28220b" fill-opacity="0"/>
  <path id="path3452" d="M277.58,132.07h13.3v27.8h-26.7v-27.8Zm-4,3.1a1.07,1.07,0,0,0,1.1.1c.2-.1.2-.1.3,0a1.23,1.23,0,0,0,1-.1c.3-.2.3-.3.3-1v-.8h-2.8v.8C273.18,134.77,273.28,135,273.58,135.17Zm-.1,2.7c.1,0,.2-.1.2-.3s.1-.3,1.2-.3h1.2v-.5c0-.4,0-.5-.2-.5s-.2.1-.3.3-.2.3-1,.3-.9,0-.9-.3c0-.1-.1-.3-.2-.3s-.2.2-.2.8S273.28,137.87,273.48,137.87Zm.8,3c.9,0,1,0,1-.3s-.1-.3-.7-.3-.7,0-.8-.4-.2-.5.4-.5,1.1-.1,1.1-.3-.1-.2-.7-.2c-1.2,0-1.2,0-1.2,1v.9C273.28,140.87,274.28,140.87,274.28,140.87Zm-.8,2.7c.1,0,.2-.1.2-.5q0-.9.3-.9c.1,0,.1.3.1.7v.7h.4a.78.78,0,0,0,.9-.7v-.2c0-.7-.3-1-1.1-1a1.08,1.08,0,0,0-.8.2,2.77,2.77,0,0,0-.1.9C273.18,143.37,273.28,143.57,273.48,143.57Zm.2,2.7c.4,0,.5-.2.2-.5s-.1-.5.5-.5.5,0,.6.4.1.4.2.4.2-.1.2-.4.1-.4.3-.4a.3.3,0,1,0,0-.6h0a.52.52,0,0,1-.4-.2c-.2-.2-.2-.2-.3,0s-.3.2-.8.2c-.7,0-.9.2-.9.9S273.28,146.27,273.68,146.27Zm0,2.8a1.54,1.54,0,0,0,1.6-.1,1.39,1.39,0,0,0-.1-1.4,1.6,1.6,0,0,0-1.5-.1,1.14,1.14,0,0,0-.3.8C273.18,148.77,273.28,148.87,273.68,149.07Zm-.2,2.7c.1.2.4.2.8.2.7,0,1-.3,1-1s-.5-1-1.2-.9a1.85,1.85,0,0,0-.7.2A2,2,0,0,0,273.48,151.77Zm0,2.8c.2.2.6.2.6,0s-.1-.2-.2-.4c-.3-.3-.1-.5.5-.5s.5,0,.5.4c0,.2.1.4.2.4s.3,0,.3-.4.1-.4.3-.4c.4-.1.4-.5,0-.5-.2,0-.3-.1-.3-.2a.2.2,0,1,0-.4,0h0c0,.1-.2.2-.6.2-.7,0-.9.1-.9.8A.38.38,0,0,0,273.48,154.57Zm.5,1.5c.6,0,.9.2.9.7,0,.2-.1.2-.6.2-.7,0-1,.1-1,.3s.2.2.9.2c1.1,0,1.2-.1,1.1-.9-.1-.5-.1-.5.3-.5s.4,0,.4-.3-.1-.3-1.4-.3-1.4,0-1.4.3S273.28,156.07,274,156.07Zm5.1-21.8a3.4,3.4,0,0,0,1,.1h1v1.8h-.9c-1,0-1.3.1-1.1.5.1.2.4.2,2.5.2h2.3v-.3c0-.4-.2-.5-1.2-.5h-.8v-1.8h1c1,0,1,0,1-.3v-.3h-2.3c-2.4,0-2.6,0-2.5.6Zm0,7c0,.1.2.2.4.2s.3,0,.3-.7c0-.9.1-.9,1.1-1.4l.7-.4.8.4.8.4.1.8c.1.8.1.8.4.9h.3v-1c0-.9,0-1-.3-1.2a5.54,5.54,0,0,0-2.2-1,5.64,5.64,0,0,0-2.4,1.3A2.48,2.48,0,0,0,279.08,141.27Zm0,9c.1.4.6.5,2.4.5,2.4,0,2.4,0,2.4-1.6,0-1.8.1-1.7-2.4-1.7s-2.4,0-2.4,1.5A1.48,1.48,0,0,0,279.08,150.27Zm.1,4.9c.1.2.3.2,1.3.2,1.3,0,1.4-.1,1.4-1.2v-.7h1.4v.9c0,.9.2,1.2.5,1.1.1-.2.1-.4.1-1.5v-1.3h-2.8v1.9h-1.4V154c0-.3.1-.8.1-1.1.1-.5.1-.6,0-.7-.3-.2-.4-.1-.6.4A3,3,0,0,0,279.18,155.17Zm2.3-9.5h.4v-2.4h-.3c-.2,0-.4,0-.4.1a4.87,4.87,0,0,0-.1,1.2v1.1Z" transform="translate(-1.72 -4.3)" fill="#28220b" fill-opacity="0"/>
  <rect id="rect3454" x="262.06" y="162.17" width="27.9" height="21.6" fill="#222b00" fill-opacity="0"/>
  <path id="path3456" d="M277.48,166.47h13.4v21.1h-26.8v-21.1Z" transform="translate(-1.72 -4.3)" fill="#222b00" fill-opacity="0"/>
  <rect id="rect3494" x="261.96" y="127.17" width="28.2" height="28.6" fill-opacity="0"/>
  <path id="path4264" d="M277.58,132.07h13.3v27.8h-26.7v-27.8Zm-4.1,2.9c.2.2.3.3,1.3.3,1.4,0,1.5-.1,1.5-1.2v-.8h-3v.7A1.23,1.23,0,0,0,273.48,135Zm0,2.9c.1,0,.2-.1.2-.3s.1-.3,1.2-.3h1.2v-.4c0-.5-.3-.6-.4-.2s-.1.3-1,.3-1,0-1-.2-.1-.2-.1-.3c-.3-.2-.4.1-.3.8C273.18,137.67,273.28,137.87,273.48,137.87Zm-.2,2.3c.1.2.1.2,0,.2s-.1.1-.1.2.2.2,1,.2a4.1,4.1,0,0,0,1.1-.1c.1-.2-.3-.4-.8-.4a.76.76,0,0,1-.8-.6v-.1c0-.2.1-.2.8-.2.5,0,.8-.1.8-.2.1-.3,0-.3-.9-.3a1.8,1.8,0,0,0-1,.2A1.38,1.38,0,0,0,273.28,140.17Zm.2,3.4c.1,0,.2-.2.2-.6.1-.9.3-1,.3-.2s0,.7.3.8a.92.92,0,0,0,1.1-.7.75.75,0,0,0-.1-.8c-.2-.3-.4-.3-.9-.4-.9-.1-1.1.2-1.1,1.2C273.18,143.37,273.28,143.57,273.48,143.57Zm0,2.6c.3.3.5.2.5-.1,0-.1-.1-.2-.1-.3s-.1-.1-.1-.3.1-.3.6-.3h.6v.5c0,.4,0,.4.2.4s.2-.2.2-.4.1-.4.3-.4.3-.2,0-.4c-.1-.1-.3-.2-.4-.3a.19.19,0,0,0-.3,0c-.1.1-.2.2-.6.2-.7,0-1.1.3-1.1.8A.73.73,0,0,0,273.48,146.17Zm0,2.7a1.14,1.14,0,0,0,.8.3,2.2,2.2,0,0,0,.8-.1,1.36,1.36,0,0,0,.2-1.6,2.48,2.48,0,0,0-1.7,0A1,1,0,0,0,273.48,148.87Zm0,2.8c.2.3,1.5.3,1.7.1a1.23,1.23,0,0,0-.2-1.6c-.1-.1-.4-.1-.8-.1s-.7,0-.8.3A1.06,1.06,0,0,0,273.48,151.67Zm.1,2.9c.3.3.6.1.4-.3s-.2-.6.5-.6h.6v.4c0,.3.1.4.2.4s.3-.3.3-.6q0-.15.3-.3c.3,0,.4-.4,0-.5-.2,0-.3-.1-.4-.3s-.2-.2-.3,0-.3.2-.8.2c-.7,0-1,.2-1,.8S273.38,154.47,273.58,154.57Zm.2,1.5c.6,0,.7,0,.8.4s.1.6-.8.7c-.5,0-.7.1-.7.2s.2.2.9.2c1.2,0,1.4-.3,1-1.2-.1-.2,0-.2.3-.2.5,0,.6-.1.4-.3.1-.3-.2-.3-1.1-.3-1.2,0-1.4,0-1.4.3C273.18,156,273.48,156.07,273.78,156.07Zm5.4-21.8c.1,0,.6.1,1,.1h.8v1.8h-2v.6h2.3c2.4,0,2.7,0,2.5-.5-.1-.2-.3-.2-1.1-.2h-1v-1.8h.8c.9,0,1.3-.1,1.3-.4,0-.1-.1-.2-.2-.3a33.81,33.81,0,0,0-4.5-.1c-.1,0-.2.2-.2.4S279,134.17,279.18,134.27Zm0,7.2c.3.1.4-.2.4-1v-.7l.7-.4a3,3,0,0,1,1-.4,5.56,5.56,0,0,1,1.7.9c0,.1.1.5.1.8,0,.7.2.9.5.6a3.08,3.08,0,0,0,0-1.9,3.47,3.47,0,0,0-2.3-1.2,3.84,3.84,0,0,0-2.3,1.1,4.87,4.87,0,0,0-.1,1.2C279.08,141.37,279.08,141.47,279.18,141.47Zm0,9.1c.2.2.5.2,2.3.2,2.5,0,2.5,0,2.5-1.6s.1-1.6-2.5-1.6c-1.5,0-2.2,0-2.3.2A4.47,4.47,0,0,0,279.18,150.57Zm0,4.6c.1.1.4.2,1.2.2,1.3,0,1.4-.1,1.4-1.1v-.7h1.4v.9c0,.8.1.9.3.9.4.1.4-.2.4-1.4v-1.2H281v1.8h-1.4l.1-.8c0-.5.1-1,.1-1.2s0-.4-.2-.4c-.4-.1-.6.5-.6,1.7C279,154.77,279,155.07,279.18,155.17Zm2.2-9.5h.4v-1c0-1.1-.1-1.4-.6-1.2-.2.1-.2.3-.2,1.2v1.1Z" transform="translate(-1.72 -4.3)" fill-opacity="0"/>
  <rect id="rect4270" x="246.66" y="88.47" width="52" height="25.6" fill-opacity="0"/>
  <path id="path4272" d="M273.48,93.77h22.1v24.8H294v1.6c0,1.8,0,1.9,1,1.9h.6v1.8H294v1.7c0,1.9,0,2,1,2h.6v.6c0,.5,0,.6-.2.6a.22.22,0,0,0-.2.2c0,.1-.1.2-.3.2a.37.37,0,0,0-.3.1.37.37,0,0,1-.3.1H294V131c0,1.9.1,2.1,1,2.1h.6v.6c0,.5,0,.6-.2.6a.22.22,0,0,0-.2.2c0,.1-.1.2-.4.2-.7,0-.8.2-.8,1.9s.1,2,1,2h.6v.6c0,.5,0,.6-.2.6s-.1,0-.2.1a.9.9,0,0,1-.5.1c-.3,0-.5.1-.5.2s0,.1-.1.2-.1.6-.1,1.6c0,1.8,0,1.9,1,1.9h.6v1.3l-.5.1c-.3,0-.5.1-.5.2s0,.1-.1.1c-.4,0-.5.4-.5,1.9,0,1,0,1.6.1,1.6s.1.1.1.2.2.2.7.2h.7v1.2H295c-.5,0-.6,0-.7.3s-.1.3-.2.3-.1.6-.1,1.6c0,1.9.1,2.1,1,2.1h.6v.5c0,.6-.1.7-.9.7-.2,0-.3.1-.4.3s-.1.3-.2.3-.1.6-.1,1.4,0,1.4.1,1.4.1.1.1.3,0,.3.7.3h.7v.6c0,.7-.1.8-.9.8-.2,0-.3.1-.4.3s-.1.3-.2.3a11.3,11.3,0,0,0,0,3c.1,0,.1.1.2.3s.1.3.7.3h.6V167H295c-.5,0-.6,0-.7.3s-.1.3-.2.3a11.3,11.3,0,0,0,0,3c.1,0,.1.1.2.3s.2.3.4.3c.7,0,.9.1.9.6s-.2.6-.9.6c-.2,0-.3.1-.4.3s-.1.3-.2.3a11.3,11.3,0,0,0,0,3c.1,0,.1.1.2.3s.2.3.4.3c.7,0,.9.1.9.8v.6H295c-.5,0-.6,0-.7.3s-.1.3-.2.3a11.3,11.3,0,0,0,0,3c.1,0,.1.1.2.3s.2.3.4.3c.7,0,.9.1.9.7s-.1.7-.9.7c-.2,0-.3.1-.4.3s-.1.3-.2.3-.1.6-.1,1.4,0,1.4.1,1.4.1.1.1.2.1.2.5.2a.9.9,0,0,1,.5.1c0,.1.1.1.2.1s.2.3.2,1.6,0,1.6-.2,1.6-.1,0-.2.1-.4.1-.9.1h-.9v-.6c0-.5,0-.6-.2-.6a.22.22,0,0,1-.2-.2.22.22,0,0,0-.2-.2c-.1,0-.1,0-.2-.1s-.5-.1-1.3-.1c-1.6,0-1.7.1-1.7,1.2v.7h-1.5v-.6a1.27,1.27,0,0,0-.1-.6c-.1,0-.1-.1-.1-.2a.22.22,0,0,0-.2-.2c-.1,0-.1,0-.2-.1s-.5-.1-1.4-.1h-1.4v1.8h-.9c-1.1,0-1.3-.1-1.3-1,0-.5,0-.6-.2-.6s-.1,0-.2-.1-.5-.1-1.4-.1h-1.4v.8c0,.6,0,.8-.2.8s-.1,0-.2.1-.4.1-.9.1h-.9v-.8c0-.6,0-.8-.2-.8s-.1,0-.2-.1-.5-.1-1.3-.1c-1.6,0-1.7.1-1.7,1.2v.7h-1.8v-.8c0-.6,0-.8-.2-.8s-.1,0-.2-.1-.5-.1-1.3-.1c-1.6,0-1.8.1-1.8,1.2v.7h-1.5v-.8c0-.6,0-.8-.2-.8s-.1,0-.2-.1-.5-.1-1.4-.1-1.4,0-1.4.1-.1.2-.2.3a1.08,1.08,0,0,0-.2.8v.6h-.6a1.27,1.27,0,0,1-.6-.1c0-.1-.1-.1-.2-.1s-.2-.1-.2-.5a.9.9,0,0,0-.1-.5c-.1,0-.1,0-.1-.1,0-.4-.4-.5-1.7-.5-1.7,0-1.8.1-1.8,1.2v.7h-.5c-.7,0-.9-.2-.9-.8,0-.3-.1-.4-.2-.4s-.1,0-.2-.1c0-.4-.4-.5-1.7-.5-.8,0-1.3,0-1.3.1s-.1.1-.2.1-.2.2-.2.8v.8h-1.6v-3.8h.8a3.55,3.55,0,0,0,1-.2c.2-.2.4-.2.4-.1s.1.2.3.2.3.1.3.2a42.1,42.1,0,0,0,5.8,0c0-.1.1-.1.2-.1s.2-.2.2-1.1a5.7,5.7,0,0,0-.1-1.3c-.1-.2-.5-.2-3.3-.2s-3.2,0-3.2.2,0,.1-.1.2-.1-.2-.1-.4a.91.91,0,0,0-.4-.8c-.3-.3-.4-.4-1.1-.4h-.7v-1.4h.8a2.2,2.2,0,0,0,.8-.1c.1-.7.2-.7.3-.7s.1,0,.2-.1,0-.1.1-.1.1.3.1.8a2.2,2.2,0,0,0,.1.8c.1,0,.1.1.1.2a.52.52,0,0,0,.2.4c.2.2.6.2,3.1.2,2.9,0,2.9,0,2.9-.3,0-.1.1-.3.2-.3s.2-.2.2-1.3,0-1.3-.2-1.3-.1,0-.2-.1-.5-.1-1.1-.2h-.1c.5,0,1-.1,1-.2a39.25,39.25,0,0,0-5.6,0c0,.1.4.1.9.2h0c-.5,0-.9.1-.9.2s-.1.1-.2.1a.22.22,0,0,0-.2.2c0,.1,0,.1-.1.2s-.1-.4-.1-1c0-1,0-1,.3-.9.1,0,.3.1.3.2a29.08,29.08,0,0,0,5.9,0c0-.1.1-.1.2-.1.3,0,.3-2.3,0-2.6s-.6-.2-3.3-.2c-3,0-3.1,0-3.1.3,0,.1-.1.3-.2.3s-.1.3-.1.8a2.2,2.2,0,0,1-.1.8c-.1,0-.1,0-.1-.1s-.1-.1-.2-.1-.2-.4-.2-.5-.2-.2-.8-.2h-.8v-1.4h.8a2.2,2.2,0,0,0,.8-.1c0-.1,0-.1.1-.1.3,0,.5-.4.5-.8s.2-.6.3-.1l.1.3H257c2.6,0,3.1,0,3.1-.2a.22.22,0,0,1,.2-.2c.1,0,.2-.2.2-1.3s0-1.3-.2-1.3-.1,0-.2-.1-.5-.1-1.1-.2h-.1c.5,0,1-.1,1-.2a39.25,39.25,0,0,0-5.6,0c0,.1.4.1,1,.2h0c-.5,0-1,.1-1,.2s-.1.1-.2.1a.22.22,0,0,0-.2.2c0,.2-.2.2-.4,0a.6.6,0,0,0-.4-.1c-.1,0-.1,0-.1-.1s-.3-.1-.8-.1h-.8v-1.2h.8a2.2,2.2,0,0,0,.8-.1c0-.1,0-.1.1-.1.4,0,.5-.4.5-1.8s-.1-1.8-.5-1.8c-.1,0-.1-.1-.1-.2s-.2-.2-.8-.2h-.8v-1.2h.7c.6,0,.8,0,1.1-.4s.4-.4.4-1.8-.1-1.8-.5-1.8c-.1,0-.1,0-.1-.1s-.3-.1-.8-.1h-.8v-1.4h.7c.6,0,.8,0,1.1-.4s.4-.4.4-1.8c0-.9,0-1.4-.1-1.4a.64.64,0,0,1-.5-.5c0-.1-.3-.1-.8-.1h-.8v-1h.8c.6,0,.8-.1.9-.2s.2-.3.3-.4a8.08,8.08,0,0,0,0-3.1.64.64,0,0,1-.5-.5c0-.1-.3-.1-.8-.1h-.8v-1.2h.9c.7,0,.9,0,.9-.2a.22.22,0,0,1,.2-.2c.2,0,.2-.3.2-1.5s0-1.5-.2-1.8a.76.76,0,0,0-.5-.2c-.1,0-.1,0-.2-.1a1.27,1.27,0,0,0-.6-.1h-.6v-1.5h.8c.7,0,.9,0,1.1-.3s.2-.4.2-1.1c0-.9.1-1,.4-.7s.8.2,4,.2a26.73,26.73,0,0,0,4-.1c.2-.1.2-.7.2-6V130h-4c-3.4,0-4,0-4.2.2s-.4.2-.4-.2-.2-.6-.4-.6h-.2c-.1,0-.1,0-.2-.1a1.7,1.7,0,0,0-.7-.1h-.7v-1.6h.8a2.2,2.2,0,0,0,.8-.1c0-.1.1-.1.3-.2s.3-.1.3-1.6c0-1.8.1-1.7-1.3-1.7h-.9v-1.8h.8a2.2,2.2,0,0,0,.8-.1c0-.1.1-.1.3-.2s.3-.1.3-1.6v-1.6h-2.2v-21h1.6v4.6c0,5,0,5,.6,5,.1,0,.1,0,.2.1a36.5,36.5,0,0,0,5.4,0c0-.1.3-.1.7-.1h.7v-.5c0-.4.1-.5.2-.5s.2-.5.2-4a26.73,26.73,0,0,1,.1-4c.1,0,.1-.1.1-.2a.22.22,0,0,1,.2-.2c.1,0,.1,0,.2-.1s.1-.1.3-.1.3.1.3.2,0,.1-.1.2a24.13,24.13,0,0,0-.1,3.8,24.13,24.13,0,0,0,.1,3.8c.1,0,.1.4.1.8,0,.6,0,.8.2.8s.1,0,.2.1.2.1.5.1.5.1.5.2.4.2,2.6.2,2.6,0,2.6-.2.1-.2.3-.2a.37.37,0,0,0,.3-.1c0-.1.2-.1.4-.1h.4v-.8a2.2,2.2,0,0,1,.1-.8,26.73,26.73,0,0,0,.1-4,26.73,26.73,0,0,1,.1-4c.1,0,.1,1.9.2,4.6,0,3.5.1,4.6.2,4.6a.22.22,0,0,1,.2.2c0,.1.1.2.3.2a.37.37,0,0,1,.3.1c0,.1.1.1.2.1a.22.22,0,0,1,.2.2c0,.2.4.2,2.8.2s2.8,0,2.8-.2.1-.2.5-.2a.9.9,0,0,0,.5-.1c0-.1.1-.1.3-.1s.3-.1.3-.2V107a.37.37,0,0,1,.1-.3,29.46,29.46,0,0,0,.1-4.2,33.81,33.81,0,0,1,.1-4.5.27.27,0,0,1,.3-.3c.3,0,.4.5.4,5.1a29.46,29.46,0,0,0,.1,4.2c.1,0,.1.1.1.2a.22.22,0,0,0,.2.2c.1,0,.1,0,.2.1s.1.1.2.1a.22.22,0,0,1,.2.2c0,.2.4.2,3,.2h3v-.4l.4-.4v-4.6c0-5.1,0-4.9.8-4.9h.4v6.4c0,5.6,0,6.4.2,6.4s.1,0,.2.1.5.1,1.3.1c1.1,0,1.4,0,1.5-.2s.2-.9.2-7.8c0-6,0-7.6-.2-7.7a.22.22,0,0,1-.2-.2c0-.1-.6-.2-3.5-.2h-3.5V104h-1.2v-8.8l-.4-.3c-.3-.3-.4-.3-3.9-.3-3,0-3.6,0-3.6.2a.22.22,0,0,1-.2.2c-.1,0-.2,1.1-.2,4.5V104h-1.2v-4.4c0-4,0-4.5-.2-4.7s-.6-.2-3.5-.2h-3.3v2.1a7.41,7.41,0,0,1-.1,2.1c-.2,0-.2.1-.2.2s0,.1.1.2a9.66,9.66,0,0,1,.1,2.4v2.4h-1.8v-4.6c0-3.9,0-4.5-.2-4.5a.22.22,0,0,1-.2-.2c0-.2-.5-.2-3.5-.2s-3.5,0-3.5.2-.1.2-.3.2h-.3v9h-1.4v-4.4c0-4.4,0-4.5-.3-4.7s-.5-.2-2.3-.2h-2v-.9Zm-19.2,62.6c.1,0,.1,0,.2.1s.1.2.2.3.2.5.2,1.5,0,1.3-.2,1.5-.2.2-.2.3-.1.1-.2.1-.2.3-.2,2.4,0,2.4.2,2.4a.22.22,0,0,1,.2.2c0,.1,0,.1.1.2s.1.1.1.2.4.2,2.4.2,2.5,0,2.5-.2.1-1.4.1-2.9c0-2.3,0-2.8-.2-2.9s-.2-.5-.2-1.4,0-1.2.2-1.3.3-5.7,0-6-4.9-.3-4.9,0c0,.1,0,.1-.1.2s-.1.1-.1.2a.22.22,0,0,1-.2.2c-.2,0-.2.3-.2,2.4s.1,2.3.3,2.3Zm.5-8.8c0,.1.2.2.4.2a.37.37,0,0,1,.3.1c0,.1.4.1,1,.1a3.4,3.4,0,0,0,1-.1c0-.1.4-.1.8-.1a2.2,2.2,0,0,1,.8.1c0,.1.4.1.9.1a2.77,2.77,0,0,0,.9-.1c0-.1.1-.1.3-.1s.3-.1.3-.2,0-.1.1-.2.1-.4.1-1.1c0-.9,0-1.1-.2-1.1a.22.22,0,0,1-.2-.2,45.05,45.05,0,0,0-6,0c0,.1-.1.1-.2.1s-.3,0-.3.1A4.88,4.88,0,0,0,254.78,147.57Zm.6-20.4c.2,0,.3.1.3.2a14.08,14.08,0,0,0,2.9.1h2.9v-.3a.37.37,0,0,1,.1-.3c.1,0,.1-.5.1-1.1s0-1.1-.1-1.1-.1-.1-.1-.3a.52.52,0,0,0-.2-.4c-.1,0-1.4-.1-2.9-.1-2.3,0-2.7,0-2.7.2a.22.22,0,0,1-.2.2.22.22,0,0,0-.2.2c0,.1,0,.1-.1.2s-.2.5-.2,1.2C255.08,127.07,255.08,127.17,255.38,127.17Zm2.2-4.8c.1,0,.3.1.3.2v.4h3.8v-.3c0-.2.1-.3.1-.4a66.08,66.08,0,0,0,0-8.9c-.1,0-.1-.1-.1-.2s-.4-.2-2-.2-2,0-2,.2a.22.22,0,0,1-.2.2c-.2,0-.2.6-.2,4.5v4.5Zm4.2,42.2c.1.2.4.2,3.1.2,3.7,0,3.5.1,3.5-1.7,0-1.2,0-1.2-.3-1.2a.37.37,0,0,1-.3-.1c0-.1-.4-.1-.8-.1h0c.4,0,.8-.1.8-.2a39.25,39.25,0,0,0-5.6,0c0,.1.4.1.8.2h0a2.2,2.2,0,0,0-.8.1c-.1.1-.1.1-.2.1s-.2.2-.2,1.2Zm1.5,23.5c.2.2.4.3,14,.3,8.9,0,13.8,0,13.8-.1s.1-.2.3-.2l.3-.1v-10.8c0-7.6,0-10.7-.1-10.7s-.2-.1-.3-.2-1.9-.2-13.9-.2-13.8,0-13.9.2-.2.2-.3.2-.1,3.2-.1,10.7C263.08,187.57,263.08,187.77,263.28,188.07Zm.1-28c0,.1.2.2.4.2a.37.37,0,0,1,.3.1c0,.1,4.5.1,13.4.1s13.4,0,13.4-.1.2-.1.5-.1h.5v-14.2c0-12.9,0-14.2-.2-14.3s-28.1-.1-28.2,0S263.28,159.77,263.38,160.07Zm1-34.6c.1,0,.1.4.1.9a2.77,2.77,0,0,1-.1.9c-.1,0-.1.4-.1.9,0,.8,0,.9.4,1.3s.4.4,1.4.4a3.4,3.4,0,0,0,1-.1c0-.1.1-.1.2-.1a.22.22,0,0,0,.2-.2c0-.1,0-.1.1-.2a14.08,14.08,0,0,0,.1-2.9,14.08,14.08,0,0,0-.1-2.9c-.1,0-.1-.1-.1-.3s-.1-.3-.4-.4a2.44,2.44,0,0,0-1.2,0,1.19,1.19,0,0,0-1.1.4c-.4.4-.4.4-.4,1.4A1.17,1.17,0,0,0,264.38,125.47Zm3.5-8.6a16.08,16.08,0,0,0,3.1-.1c0-.1.1-.1.2-.1s.2-.2.2-1.3v-1.3h-1.2c-.8,0-1.2,0-1.2-.2s-.4-.2-1-.2c-.8,0-.9,0-.9.2s-.2.2-1.1.2h-1.2v2.8Zm-2.7,4.2a4.1,4.1,0,0,0,1.1.1c.6,0,.8,0,.8-.2a.22.22,0,0,1,.2-.2c.1,0,.2,0,.2.1a3.21,3.21,0,0,0,1.7.2c1.4.1,1.7.1,1.8-.1s.2-.1.3-.2.1-.4.1-1.3c0-1.2-.1-1.6-.5-1.6-.1,0-.1-.1-.1-.2s-.4-.2-2.8-.2-2.8,0-2.8.2a.22.22,0,0,1-.2.2c-.2,0-.2.3-.2,1.5C264.78,121,265,121,265.18,121.07Zm10.8,43.7c3.7,0,3.5.1,3.5-1.7,0-1.2,0-1.2-.3-1.2a.37.37,0,0,1-.3-.1c0-.1-.4-.1-.9-.2h0c.5,0,.9-.1.9-.2a39.25,39.25,0,0,0-5.6,0c0,.1.4.1.8.2h0a3.55,3.55,0,0,0-1,.2c-.1.1-.2.5-.2,1.6v1.4Zm-1-36c.1,0,.1.1.1.2s.5.2,3.4.2h3.4V128h1c.7,0,.9,0,.9-.2a.22.22,0,0,1,.2-.2c.1,0,.2-.2.2-.8s0-.8-.2-.8a.22.22,0,0,1-.2-.2c0-.1-.3-.1-.7-.1-1,0-1.1,0-1.1-.7a1.27,1.27,0,0,1,.1-.6c.1,0,.1-.3.1-.6a1.09,1.09,0,0,0-.4-.9c-.3-.3-.4-.4-1.1-.4H280v.6a1.27,1.27,0,0,1-.1.6c-.1,0-.1-.3-.1-.6v-.6H279c-.6,0-.8,0-.8.2a.2.2,0,0,1-.4,0c0-.1-.2-.2-.8-.2a2.2,2.2,0,0,0-.8.1c0,.1-.1.2-.2.3s-.2.2-.3.2-.1.2-.1.4-.1.4-.3.4a.52.52,0,0,0-.4.2c-.1.3-.1.3-.1,2.5A16.35,16.35,0,0,0,275,128.77Zm10.8,36c3.8,0,3.5.1,3.5-1.7v-1.2H289a.6.6,0,0,1-.4-.1,1.85,1.85,0,0,0-.7-.2h0a2.2,2.2,0,0,0,.8-.1,39.25,39.25,0,0,0-5.6,0c0,.1.4.1.8.2h0a2.2,2.2,0,0,0-.8.1c-.1.1-.1.1-.2.1s-.2.2-.2,1.4v1.4Zm-.1-47.9c.2,0,.3.1.3.2s.4.2,2.9.2h2.9V117a.37.37,0,0,1,.1-.3c.1,0,.1-.1.1-.2a.22.22,0,0,1,.2-.2c.1,0,.2-.2.2-.8s0-.8-.3-1.1a.55.55,0,0,1-.3-.5c0-.3-.1-.3-2.9-.3-2.5,0-2.9,0-2.9.2s0,.1-.1.2c-.4,0-.5.3-.5,1.6v1.3Zm0,3.9c.2,0,.3.1.3.2s.4.2,2.8.2c2.6,0,2.8,0,3.1-.2.1-.1.3-.3.3-.4s.1-.1.2-.1.2-.2.2-.9,0-.9-.2-.9-.1,0-.2-.1-.1-.2-.2-.3-.7-.2-3.1-.2a14.08,14.08,0,0,0-2.9.1c0,.1-.1.1-.3.1h-.3v2.6C285.28,120.77,285.68,120.77,285.68,120.77Zm-.3,7.2c.1.1.2.2.3.2s.1.1.1.2.4.2,2.8.2a14.08,14.08,0,0,0,2.9-.1c.1,0,.2-.2.2-.3s0-.1.1-.2.1-.1.1-.2a.22.22,0,0,1,.2-.2c.1,0,.2-.2.2-.9s0-.9-.2-.9a.22.22,0,0,1-.2-.2c0-.1,0-.1-.1-.2s-.1-.1-.1-.2-.4-.2-2.9-.2-3,0-3.1.2-.2.2-.3.2A5.71,5.71,0,0,0,285.38,128Z" transform="translate(-1.72 -4.3)" fill-opacity="0"/>
  <path id="path4274" d="M295.68,93.77c.1,0,.1,4.2.1,12.4s0,12.4-.1,12.4-.1-4.2-.1-12.4S295.58,93.77,295.68,93.77Z" transform="translate(-1.72 -4.3)" fill-opacity="0"/>
  <path id="path4276" d="M295.68,93.77c.1,0,.1,4.2.1,12.4s0,12.4-.1,12.4-.1-4.2-.1-12.4S295.58,93.77,295.68,93.77Z" transform="translate(-1.72 -4.3)" fill-opacity="0"/>
  <path id="path4278" d="M295.68,93.77c.1,0,.1,4.2.1,12.4s0,12.4-.1,12.4-.1-4.2-.1-12.4S295.58,93.77,295.68,93.77Z" transform="translate(-1.72 -4.3)" fill-opacity="0"/>
  <path id="path4282" d="M271.28,97.67c11.9,0,18.3,2.2,18.3,6.3s-6.3,6.3-18.3,6.3S253,108.07,253,104,259.38,97.67,271.28,97.67Z" transform="translate(-1.72 -4.3)" fill-opacity="0"/>
  <rect id="rect5807" x="248.96" y="89.57" width="45.2" height="97.8" fill="#0d9557"/>
  <rect id="rect4318" x="262.06" y="127.67" width="27.4" height="28.4" fill="none"/>
  <rect id="rect3085" x="262.66" y="128.37" width="26.1" height="26.8" fill="#333"/>
  <g id="text3014">
    <text id="tspan3016" x="-1.72" y="-4.3" style="isolation: isolate"/>  </g>
  <path id="path4280" d="M279.18,139.57c.1-.4,1.7-1.2,2.2-1.2a5.7,5.7,0,0,1,2.2,1.1c.2.4.1,1.8-.1,1.8s-.2-.2-.2-.8v-.8l-.8-.4c-1-.5-1.2-.5-2.1,0s-.8.6-.9,1.5c0,.5-.2.8-.4.5A4.88,4.88,0,0,1,279.18,139.57Z" transform="translate(-1.72 -4.3)" fill-opacity="0"/>
  <rect id="rect4318-6" x="262.06" y="162.27" width="27.4" height="21.5" fill="none"/>
  <rect id="Antenna" x="253.26" y="92.37" width="37.9" height="19.3" fill="#d4aa00"/>
  <rect id="rect5811" x="249.66" y="108.27" width="37.5" height="3.9" fill="#0d9557"/>
  <rect id="rect5813" x="286.86" y="94.77" width="2.4" height="13.6" fill="#0d9557"/>
  <rect id="rect5813-0" x="282.36" y="92.07" width="2.4" height="13.6" fill="#0d9557"/>
  <rect id="rect5813-0-3" x="278.06" y="94.67" width="2.4" height="13.6" fill="#0d9557"/>
  <rect id="rect5813-0-6" x="272.76" y="92.27" width="2.4" height="13.6" fill="#0d9557"/>
  <rect id="rect5813-0-3-2" x="269.36" y="94.87" width="2.4" height="13.6" fill="#0d9557"/>
  <rect id="rect5813-0-4" x="264.66" y="92.07" width="2.4" height="13.6" fill="#0d9557"/>
  <rect id="rect5813-0-3-5" x="260.06" y="94.77" width="2.4" height="13.6" fill="#0d9557"/>
  <rect id="rect5898" x="292.46" y="114.37" width="5.6" height="3.5" fill="#9393ac"/>
  <rect id="rect5898-8" x="292.46" y="119.77" width="5.6" height="3.5" fill="#9393ac"/>
  <rect id="rect5898-1" x="292.56" y="125.47" width="5.6" height="3.5" fill="#9393ac"/>
  <rect id="rect5898-8-2" x="292.66" y="130.77" width="5.6" height="3.5" fill="#9393ac"/>
  <rect id="rect5898-14" x="292.56" y="136.27" width="5.6" height="3.5" fill="#9393ac"/>
  <rect id="rect5898-8-9" x="292.66" y="141.67" width="5.6" height="3.5" fill="#9393ac"/>
  <rect id="rect5898-1-8" x="292.86" y="147.37" width="5.6" height="3.5" fill="#9393ac"/>
  <rect id="rect5898-8-2-2" x="292.86" y="152.77" width="5.6" height="3.5" fill="#9393ac"/>
  <rect id="rect5898-14-4" x="292.56" y="157.77" width="5.6" height="3.5" fill="#9393ac"/>
  <rect id="rect5898-8-9-5" x="292.66" y="163.17" width="5.6" height="3.5" fill="#9393ac"/>
  <rect id="rect5898-1-8-2" x="292.86" y="168.87" width="5.6" height="3.5" fill="#9393ac"/>
  <rect id="rect5898-8-2-2-9" x="292.86" y="174.27" width="5.6" height="3.5" fill="#9393ac"/>
  <rect id="rect5898-8-2-2-9-9" x="292.66" y="179.67" width="5.6" height="3.5" fill="#9393ac"/>
  <rect id="rect5898-83" x="244.76" y="114.37" width="5.6" height="3.5" fill="#9393ac"/>
  <rect id="rect5898-8-8" x="244.86" y="119.77" width="5.6" height="3.5" fill="#9393ac"/>
  <rect id="rect5898-1-6" x="244.96" y="125.47" width="5.6" height="3.5" fill="#9393ac"/>
  <rect id="rect5898-8-2-9" x="245.06" y="130.77" width="5.6" height="3.5" fill="#9393ac"/>
  <rect id="rect5898-14-8" x="244.96" y="136.27" width="5.6" height="3.5" fill="#9393ac"/>
  <rect id="rect5898-8-9-6" x="245.06" y="141.67" width="5.6" height="3.5" fill="#9393ac"/>
  <rect id="rect5898-1-8-6" x="245.16" y="147.37" width="5.6" height="3.5" fill="#9393ac"/>
  <rect id="rect5898-8-2-2-2" x="245.26" y="152.77" width="5.6" height="3.5" fill="#9393ac"/>
  <rect id="rect5898-14-4-3" x="244.96" y="157.77" width="5.6" height="3.5" fill="#9393ac"/>
  <rect id="rect5898-8-9-5-8" x="245.06" y="163.17" width="5.6" height="3.5" fill="#9393ac"/>
  <rect id="rect5898-1-8-2-2" x="245.16" y="168.87" width="5.6" height="3.5" fill="#9393ac"/>
  <rect id="rect5898-8-2-2-9-6" x="245.26" y="174.27" width="5.6" height="3.5" fill="#9393ac"/>
  <rect id="rect5898-8-2-2-9-9-2" x="245.06" y="179.67" width="5.6" height="3.5" fill="#9393ac"/>
  <rect id="rect5898-8-9-6-7" x="253.38" y="190.17" width="3.4" height="5.9" transform="translate(-2.19 -3.67) rotate(-0.14)" fill="#9393ac"/>
  <rect id="rect5898-1-8-6-5" x="258.88" y="190.07" width="3.4" height="5.9" transform="translate(-2.19 -3.66) rotate(-0.14)" fill="#9393ac"/>
  <rect id="rect5898-8-2-2-2-7" x="263.98" y="189.97" width="3.4" height="5.9" transform="translate(-2.19 -3.65) rotate(-0.14)" fill="#9393ac"/>
  <rect id="rect5898-14-4-3-8" x="268.78" y="190.17" width="3.4" height="5.9" transform="translate(-2.19 -3.64) rotate(-0.14)" fill="#9393ac"/>
  <rect id="rect5898-8-9-5-8-2" x="274.08" y="190.07" width="3.4" height="5.9" transform="translate(-2.19 -3.62) rotate(-0.14)" fill="#9393ac"/>
  <rect id="rect5898-1-8-2-2-7" x="279.48" y="190.07" width="3.4" height="5.9" transform="translate(-2.19 -3.61) rotate(-0.14)" fill="#9393ac"/>
  <rect id="rect5898-8-2-2-9-6-8" x="284.58" y="190.07" width="3.4" height="5.9" transform="translate(-2.19 -3.6) rotate(-0.14)" fill="#9393ac"/>
  <rect id="rect5898-8-2-2-9-9-2-0" x="289.78" y="190.07" width="3.4" height="5.9" transform="translate(-2.19 -3.58) rotate(-0.14)" fill="#9393ac"/>
  <rect id="rect3085-1" x="262.96" y="163.17" width="25.9" height="20" fill="#333"/>
  <rect id="rect5813-0-6-8" x="255.36" y="92.27" width="2.4" height="13.6" fill="#0d9557"/>
  <g id="PIN">
    <path id="PIN_RX" d="M224.17,208.54h2a0,0,0,0,1,0,0v30.32a1,1,0,0,1-1,1h0a1,1,0,0,1-1-1V208.54A0,0,0,0,1,224.17,208.54Z" fill="#c9bfb5"/>
    <path id="PIN_TX" d="M261.36,208.54h2a0,0,0,0,1,0,0v30.32a1,1,0,0,1-1,1h0a1,1,0,0,1-1-1V208.54a0,0,0,0,1,0,0Z" fill="#c9bfb5"/>
    <path id="PIN_GND" d="M293.37,208.54h2a0,0,0,0,1,0,0v30.32a1,1,0,0,1-1,1h0a1,1,0,0,1-1-1V208.54A0,0,0,0,1,293.37,208.54Z" fill="#c9bfb5"/>
    <path id="PIN_POWER" d="M320.37,208.54h2a0,0,0,0,1,0,0v30.32a1,1,0,0,1-1,1h0a1,1,0,0,1-1-1V208.54A0,0,0,0,1,320.37,208.54Z" fill="#c9bfb5"/>
    <rect id="HELPER_BASE" x="210.15" y="196.95" width="121.82" height="20.6" fill="#0a73b1"/>
    <text id="GND_PIN_TEXT" transform="translate(313.92 215.86) scale(1.11 1)" font-size="24" fill="#fff" font-family="Biryani-SemiBold, Biryani" font-weight="600">+</text>
    <text id="TXD_PIN_TEXT" transform="translate(249.86 213.98) scale(1.11 1)" font-size="16" fill="#fff" font-family="Biryani-SemiBold, Biryani" font-weight="600">TX</text>
    <text id="RXD_PIN_TEXT" transform="translate(212.04 213.98) scale(1.11 1)" font-size="16" fill="#fdfeff" font-family="Biryani-SemiBold, Biryani" font-weight="600">RX</text>
    <text id="VCC_PIN_TEXT" transform="translate(288.92 215.86)" font-size="24" fill="#fff" font-family="Biryani-SemiBold, Biryani" font-weight="600">-</text>
    <text id="RX_PIN_TEXT" transform="translate(228.17 232.52)" font-size="14" font-family="Biryani-SemiBold, Biryani" font-weight="600">A5</text>
    <text id="TX_PIN_TEXT" transform="translate(265.67 232.52)" font-size="14" font-family="Biryani-SemiBold, Biryani" font-weight="600">A5</text>
  </g>
  <g id="MESSAGE_LAYER">
    <path id="MESSAGE_BUBBLE" d="M15.7,5.8h211c6.82,0,12.49,3.26,12.49,18.82-1.39,17.53-1.9,60.36-3.07,68-1.91,12.39,4.3,41.08,3.07,40.84s-40.25-26.23-47.87-28.27H15.7c-6.82,0-12.48-3.26-12.48-7.3V13C3.22,9.06,8.88,5.8,15.7,5.8Z" transform="translate(-1.72 -4.3)" fill="#fff" stroke="#000" stroke-miterlimit="10" stroke-width="3"/>
    <text id="MESSAGE_LINE_1" transform="translate(7.49 26.26)" font-size="21" font-family="Biryani-SemiBold, Biryani" font-weight="600" style="isolation: isolate">Incoming Message:</text>
    <text id="MESSAGE_LINE_2" transform="translate(9.49 54.94)" font-size="18" fill="#605bba" font-family="Biryani-Regular, Biryani">THIS IS A TEST MESSAG</text>
    <text id="MESSAGE_LINE_3" transform="translate(9.49 82.62)" font-size="18" fill="#605bba" font-family="Biryani-Regular, Biryani">THIS IS A TEST MESSAG</text>
  </g>
  <text transform="translate(247.36 54.94)" font-size="18" font-family="Biryani-Bold, Biryani" font-weight="700">Bluetooth </text>
</svg>
