<svg id="Layer_1" data-name="Layer 1" xmlns="http://www.w3.org/2000/svg" width="192.68" height="218.32" viewBox="0 0 192.68 218.32">
  <g id="CONNECTING_CHIP_WIRE">
    <line x1="47" y1="135.32" x2="54" y2="98.32" fill="none" stroke="#e5bd13" stroke-miterlimit="10" stroke-width="6"/>
  </g>
  <g id="BASE_MOTOR">
    <rect x="19.5" y="45.82" width="72" height="56" rx="25.5" fill="#6d6d6d"/>
    <path d="M70,60A25,25,0,0,1,95,85v5a25,25,0,0,1-25,25H49A25,25,0,0,1,24,90V85A25,25,0,0,1,49,60H70m0-1H49A26,26,0,0,0,23,85v5a26,26,0,0,0,26,26H70A26,26,0,0,0,96,90V85A26,26,0,0,0,70,59Z" transform="translate(-4 -13.68)"/>
  </g>
  <g id="ROTATING_PIECE">
    <path d="M60.75,76.5a6.51,6.51,0,0,1-6.5-6.5V54a6.5,6.5,0,0,1,13,0V70A6.51,6.51,0,0,1,60.75,76.5Z" transform="translate(-4 -13.68)" fill="#f15a24"/>
    <path d="M60.75,48a6,6,0,0,1,6,6V70a6,6,0,0,1-12,0V54a6,6,0,0,1,6-6m0-1h0a7,7,0,0,0-7,7V70a7,7,0,0,0,7,7h0a7,7,0,0,0,7-7V54a7,7,0,0,0-7-7Z" transform="translate(-4 -13.68)"/>
  </g>
  <g id="CONNECTOR">
    <rect x="9.5" y="132.82" width="75" height="7" fill="#ecfce6"/>
    <path d="M88,147v6H14v-6H88m1-1H13v8H89v-8Z" transform="translate(-4 -13.68)"/>
  </g>
  <line id="PIN_1" x1="17" y1="198.32" x2="17" y2="217.32" fill="none" stroke="#727271" stroke-linecap="round" stroke-miterlimit="10" stroke-width="2"/>
  <line id="PIN_2" x1="36" y1="198.32" x2="36" y2="217.32" fill="none" stroke="#727271" stroke-linecap="round" stroke-miterlimit="10" stroke-width="2"/>
  <line id="PIN_3" x1="55" y1="198.32" x2="55" y2="217.32" fill="none" stroke="#727271" stroke-linecap="round" stroke-miterlimit="10" stroke-width="2"/>
  <line id="PIN_4" x1="74" y1="198.32" x2="74" y2="217.32" fill="none" stroke="#727271" stroke-linecap="round" stroke-miterlimit="10" stroke-width="2"/>
  <line id="PIN_GND_PART" x1="123.5" y1="169.57" x2="151" y2="169.57" fill="none" stroke="#727271" stroke-linecap="round" stroke-miterlimit="10" stroke-width="2"/>
  <line id="PIN_POWER_PART" x1="123.5" y1="188.82" x2="140" y2="188.82" fill="none" stroke="#727271" stroke-linecap="round" stroke-miterlimit="10" stroke-width="2"/>
  <text id="ROTATE_TEXT" transform="translate(17.04 18.46)" font-size="21" font-family="Biryani-SemiBold, Biryani" font-weight="600">Moved 0 Step</text>
  <g id="ROTATE">
    <circle cx="56.75" cy="55.82" r="5" fill="#f15a24"/>
    <path d="M60.75,65a4.5,4.5,0,1,1-4.5,4.5,4.51,4.51,0,0,1,4.5-4.5m0-1a5.5,5.5,0,1,0,5.5,5.5,5.5,5.5,0,0,0-5.5-5.5Z" transform="translate(-4 -13.68)"/>
  </g>
  <line id="PIN_POWER" x1="140" y1="197.32" x2="140" y2="189.32" fill="none" stroke="#727271" stroke-linecap="round" stroke-miterlimit="10" stroke-width="2"/>
  <line id="PIN_GND" x1="151" y1="179.32" x2="151" y2="170.32" fill="none" stroke="#727271" stroke-linecap="round" stroke-miterlimit="10" stroke-width="2"/>
  <g id="BASE">
    <rect x="0.5" y="125.82" width="126" height="76" fill="#2f9908"/>
    <path d="M130,140v75H5V140H130m1-1H4v77H131V139Z" transform="translate(-4 -13.68)"/>
  </g>
  <line x1="113" y1="169.57" x2="119" y2="169.57" fill="none" stroke="#000" stroke-linecap="round" stroke-miterlimit="10" stroke-width="2"/>
  <g id="CHIP">
    <rect x="11.5" y="148.82" width="78" height="24" fill="#2b2b2b"/>
    <path d="M93,163v23H16V163H93m1-1H15v25H94V162Z" transform="translate(-4 -13.68)"/>
  </g>
  <text id="POWER_TEST" transform="translate(109.36 196.39)" font-size="21" font-family="Biryani-SemiBold, Biryani" font-weight="600">+</text>
  <text id="PIN_1_TEXT" transform="translate(11.27 198.49)" font-size="21" font-family="Biryani-SemiBold, Biryani" font-weight="600">1</text>
  <text id="PIN_2_TEXT" transform="translate(30.29 198.42)" font-size="21" font-family="Biryani-SemiBold, Biryani" font-weight="600">2</text>
  <text id="PIN_3_TEXT" transform="translate(49.32 198.42)" font-size="21" font-family="Biryani-SemiBold, Biryani" font-weight="600">3</text>
  <text id="PIN_4_TEXT" transform="translate(68.34 198.42)" font-size="21" font-family="Biryani-SemiBold, Biryani" font-weight="600">4</text>
  <text transform="translate(62.54 119.75)" font-size="18" font-family="Biryani-SemiBold, Biryani" font-weight="600">Stepper Motor</text>
  <path d="M8,27" transform="translate(-4 -13.68)"/>
</svg>
