<svg xmlns="http://www.w3.org/2000/svg" width="144.01" height="377.83" viewBox="0 0 144.01 377.83">
  <title>ir_remote</title>
  <g id="sensor_text">
    <text transform="translate(8.22 21.1)" font-size="24" font-family="Biryani-SemiBold, Biryani" font-weight="600">IR Remote</text>
    <text id="code" transform="translate(33.29 209.1)" font-size="24" font-family="Biryani-SemiBold, Biryani" font-weight="600">E932B</text>
    <text id="recieving_code_text" transform="translate(4.89 172.1)" font-size="18" font-family="Biryani-SemiBold, Biryani" font-weight="600">Receiving Code</text>
  </g>
  <g id="base">
    <g>
      <rect x="0.5" y="220.83" width="143" height="133" fill="#7f9ce5"/>
      <path d="M172,227V359H30V227H172m1-1H29V360H173V226Z" transform="translate(-29 -5.67)"/>
    </g>
    <g>
      <circle cx="71" cy="256.33" r="24.5" fill="#fcd156"/>
      <path d="M100,238a24,24,0,1,1-24,24,24,24,0,0,1,24-24m0-1a25,25,0,1,0,25,25,25,25,0,0,0-25-25Z" transform="translate(-29 -5.67)"/>
    </g>
    <path id="GND_WIRE" d="M20.36,354.31h6a0,0,0,0,1,0,0v21a2,2,0,0,1-2,2h-2a2,2,0,0,1-2-2v-21A0,0,0,0,1,20.36,354.31Z" stroke="#000" stroke-miterlimit="10"/>
    <path id="VCC_WIRE" d="M68.36,353.83h6a0,0,0,0,1,0,0v21a2,2,0,0,1-2,2h-2a2,2,0,0,1-2-2v-21A0,0,0,0,1,68.36,353.83Z" stroke="#000" stroke-miterlimit="10"/>
    <path id="SIG_WIRE" d="M117.36,354.31h6a0,0,0,0,1,0,0v21a2,2,0,0,1-2,2h-2a2,2,0,0,1-2-2v-21A0,0,0,0,1,117.36,354.31Z" stroke="#000" stroke-miterlimit="10"/>
    <text transform="translate(27.28 350.71) rotate(-90)" font-size="12" font-family="Biryani-SemiBold, Biryani" font-weight="600">GND</text>
    <text transform="translate(75.28 350.71) rotate(-90)" font-size="12" font-family="Biryani-SemiBold, Biryani" font-weight="600">VCC</text>
    <text id="SIGNAL_TEXT" transform="translate(124.28 350.71) rotate(-90)" font-size="12" font-family="Biryani-SemiBold, Biryani" font-weight="600">SIG</text>
    <g>
      <rect x="14.5" y="241.33" width="18" height="30" fill="#58f968"/>
      <path d="M61,247.5v29H44v-29H61m1-1H43v31H62v-31Z" transform="translate(-29 -5.67)"/>
    </g>
    <g id="FOUND_SOMETHING">
      <rect x="111.5" y="241.33" width="18" height="30" fill="#dee2de"/>
      <path d="M158,247.5v29H141v-29h17m1-1H140v31h19v-31Z" transform="translate(-29 -5.67)"/>
    </g>
  </g>
  <g id="remote">
    <path d="M82.46,107.79a12.9,12.9,0,0,0,9.48,4.12l18.82-.08a12.86,12.86,0,0,0,12.74-14l-4.07-46.62a7.71,7.71,0,0,0-7.69-7.06l-21.39.1a7.71,7.71,0,0,0-7.63,7.13L79.08,98A12.77,12.77,0,0,0,82.46,107.79Z" transform="translate(-29 -5.67)" fill="#3e5959"/>
    <path d="M111.6,101.54A2.58,2.58,0,1,0,109,99,2.58,2.58,0,0,0,111.6,101.54Z" transform="translate(-29 -5.67)" fill="#ff3939"/>
    <path d="M91,101.63a2.57,2.57,0,1,0-2.58-2.56A2.58,2.58,0,0,0,91,101.63Z" transform="translate(-29 -5.67)" fill="#fdbf00"/>
    <path d="M111.55,91.25A2.57,2.57,0,1,0,109,88.69,2.57,2.57,0,0,0,111.55,91.25Z" transform="translate(-29 -5.67)" fill="#ececf1"/>
    <path d="M98.68,88.74a2.57,2.57,0,1,1,2.58,2.56A2.54,2.54,0,0,1,98.68,88.74Z" transform="translate(-29 -5.67)" fill="#ececf1"/>
    <path d="M91,91.35a2.57,2.57,0,1,0-2.58-2.56A2.58,2.58,0,0,0,91,91.35Z" transform="translate(-29 -5.67)" fill="#e2e2e7"/>
    <path d="M111.5,81a2.57,2.57,0,1,0-2.58-2.56A2.57,2.57,0,0,0,111.5,81Z" transform="translate(-29 -5.67)" fill="#ececf1"/>
    <path d="M98.63,78.46A2.57,2.57,0,1,1,101.21,81,2.55,2.55,0,0,1,98.63,78.46Z" transform="translate(-29 -5.67)" fill="#ececf1"/>
    <path d="M90.93,81.06a2.57,2.57,0,1,0-2.58-2.56A2.56,2.56,0,0,0,90.93,81.06Z" transform="translate(-29 -5.67)" fill="#e2e2e7"/>
    <path d="M93.42,63.05A2.54,2.54,0,0,1,96,60.47h2.57V57.89a2.57,2.57,0,0,1,5.14,0v2.58l2.57,0a2.58,2.58,0,0,1,0,5.15h-2.57v2.57a2.57,2.57,0,1,1-5.14,0V65.6H96A2.54,2.54,0,0,1,93.42,63.05Z" transform="translate(-29 -5.67)" fill="#ececf1"/>
    <g id="Signnal">
      <path d="M81.44,130.88a2.54,2.54,0,0,1,3.65,0,23.09,23.09,0,0,0,32.7-.15,2.54,2.54,0,0,1,3.65,0,2.63,2.63,0,0,1,0,3.65,28.31,28.31,0,0,1-40,.18A2.64,2.64,0,0,1,81.44,130.88Z" transform="translate(-29 -5.67)" fill="#00eed0"/>
      <path d="M88.71,123.6a2.49,2.49,0,0,1,3.6,0,13.17,13.17,0,0,0,18.2-.08,2.54,2.54,0,1,1,3.61,3.58,18.26,18.26,0,0,1-25.4.12A2.48,2.48,0,0,1,88.71,123.6Z" transform="translate(-29 -5.67)" fill="#00eed0"/>
      <path d="M95.92,116.26a2.64,2.64,0,0,1,3.65,0,2.61,2.61,0,0,0,1.81.71,2.52,2.52,0,0,0,1.79-.73,2.64,2.64,0,0,1,3.65,0,2.55,2.55,0,0,1,0,3.66,7.84,7.84,0,0,1-10.9,0A2.56,2.56,0,0,1,95.92,116.26Z" transform="translate(-29 -5.67)" fill="#00eed0"/>
    </g>
  </g>
</svg>
