<svg id="Layer_1" data-name="Layer 1" xmlns="http://www.w3.org/2000/svg" width="140.98" height="146.59" viewBox="0 0 140.98 146.59">
  <line id="PIN_RED" x1="12.74" y1="89.5" x2="12.74" y2="117.55" style="fill: none;stroke: #f41c1c;stroke-linecap: round;stroke-miterlimit: 10;stroke-width: 2px"/>
  <line id="PIN_GREEN" x1="88.76" y1="89.5" x2="88.76" y2="117.55" style="fill: none;stroke: #31bc3f;stroke-linecap: round;stroke-miterlimit: 10;stroke-width: 2px"/>
  <line id="PIN_BLUE" x1="126.77" y1="89.5" x2="126.77" y2="117.55" style="fill: none;stroke: #152e9b;stroke-linecap: round;stroke-miterlimit: 10;stroke-width: 2px"/>
  <line id="PIN_GND" x1="50.21" y1="89.5" x2="50.21" y2="145.59" style="fill: none;stroke: #ccc;stroke-linecap: round;stroke-miterlimit: 10;stroke-width: 2px"/>
  <path id="COLOR_LED" d="M69,1h0a51.47,51.47,0,0,1,51.47,51.47V69.79a12.86,12.86,0,0,1-12.86,12.86H30.39A12.86,12.86,0,0,1,17.53,69.79V52.47A51.47,51.47,0,0,1,69,1Z" style="fill: #1c1caf;stroke: #000;stroke-miterlimit: 10;stroke-width: 2px"/>
  <path d="M154.72,91.44h-135v-23h135Z" transform="translate(-18.22 -1.94)" style="fill: #fff;stroke: #000;stroke-miterlimit: 10;stroke-width: 3px"/>
  <text transform="translate(5.23 86.51)" style="font-size: 21px;font-family: Biryani-SemiBold, Biryani;font-weight: 600">R</text>
  <text id="PIN_RED_TEXT" transform="translate(16.23 108.9)" style="font-size: 21px;font-family: Biryani-SemiBold, Biryani;font-weight: 600">11</text>
  <text id="PIN_GREEN_TEXT" transform="translate(91.86 108.9)" style="font-size: 21px;font-family: Biryani-SemiBold, Biryani;font-weight: 600">12</text>
  <text id="PIN_BLUE_TEXT" transform="translate(129.43 108.9)" style="font-size: 21px;font-family: Biryani-SemiBold, Biryani;font-weight: 600">7</text>
  <text transform="translate(80.69 86.51)" style="font-size: 21px;font-family: Biryani-SemiBold, Biryani;font-weight: 600">G</text>
  <text transform="translate(119.23 86.51)" style="font-size: 21px;font-family: Biryani-SemiBold, Biryani;font-weight: 600">B</text>
  <text transform="translate(42.84 90.8)" style="font-size: 48px;font-family: MyriadPro-Regular, Myriad Pro">-</text>
</svg>
