<svg xmlns="http://www.w3.org/2000/svg" width="169.19" height="245" viewBox="0 0 169.19 245">
  <g id="sensor_text">
    <text id="code" transform="translate(41.98 75.05)" font-size="36" font-family="Biryani-SemiBold, Biryani" font-weight="600">E932B</text>
  </g>
  <g id="base">
    <path id="PIN_GND" d="M40.34,220.12h2a0,0,0,0,1,0,0v15.16a1,1,0,0,1-1,1h0a1,1,0,0,1-1-1V220.12a0,0,0,0,1,0,0Z" fill="#e2cfcf" stroke="#d3c5c5" stroke-miterlimit="10"/>
    <path id="PIN_POWER" d="M89.61,219.78h2a0,0,0,0,1,0,0v15.16a1,1,0,0,1-1,1h0a1,1,0,0,1-1-1V219.78A0,0,0,0,1,89.61,219.78Z" fill="#e2cfcf" stroke="#d3c5c5" stroke-miterlimit="10"/>
    <path id="PIN_DATA" d="M144.05,220.12h2a0,0,0,0,1,0,0v15.16a1,1,0,0,1-1,1h0a1,1,0,0,1-1-1V220.12A0,0,0,0,1,144.05,220.12Z" fill="#e2cfcf" stroke="#d3c5c5" stroke-miterlimit="10"/>
    <g>
      <rect x="25.69" y="86.78" width="143" height="138" fill="#7f9ce5"/>
      <path d="M171.5,98V235H29.5V98h142m1-1H28.5V236h144V97Z" transform="translate(-3.31 -10.72)"/>
    </g>
    <g>
      <circle cx="97.19" cy="122.28" r="24.5" fill="#fcd156"/>
      <path d="M100.5,109a24,24,0,1,1-24,24,24,24,0,0,1,24-24m0-1a25,25,0,1,0,25,25,25,25,0,0,0-25-25Z" transform="translate(-3.31 -10.72)"/>
    </g>
    <text transform="translate(33.17 223.11)" font-size="36" font-family="Biryani-SemiBold, Biryani" font-weight="600">-</text>
    <text transform="translate(80.71 221.21)" font-size="36" font-family="Biryani-SemiBold, Biryani" font-weight="600">+</text>
    <text id="PIN_TEXT" transform="translate(121.93 218.87)" font-size="24" font-family="Biryani-SemiBold, Biryani" font-weight="600">A15</text>
    <g>
      <rect x="40.19" y="107.28" width="18" height="30" fill="#58f968"/>
      <path d="M61,118.5v29H44v-29H61m1-1H43v31H62v-31Z" transform="translate(-3.31 -10.72)"/>
    </g>
    <g id="FOUND_SOMETHING">
      <rect x="137.19" y="107.28" width="18" height="30" fill="#dee2de"/>
      <path d="M158,118.5v29H141v-29h17m1-1H140v31h19v-31Z" transform="translate(-3.31 -10.72)"/>
    </g>
    <text transform="translate(34.63 179.26)" font-size="24" font-family="Biryani-SemiBold, Biryani" font-weight="600">IR Remote</text>
  </g>
  <g id="remote">
    <path d="M30.87,41.67a6.61,6.61,0,0,0,4.18-3.33l4.54-8.61a6.65,6.65,0,0,0-3.3-9.22L14,11a4,4,0,0,0-5.1,1.8L3.76,22.63a4,4,0,0,0,1.41,5.22l20.42,13A6.6,6.6,0,0,0,30.87,41.67Z" transform="translate(-3.31 -10.72)" fill="#3e5959"/>
    <path d="M35.09,26.85a1.33,1.33,0,1,0-1.8.56A1.34,1.34,0,0,0,35.09,26.85Z" transform="translate(-3.31 -10.72)" fill="#ff3939"/>
    <path d="M30.13,36.26a1.31,1.31,0,0,0-.55-1.79,1.33,1.33,0,1,0,.55,1.79Z" transform="translate(-3.31 -10.72)" fill="#fdbf00"/>
    <path d="M30.38,24.37a1.34,1.34,0,0,0-.56-1.8,1.33,1.33,0,1,0,.56,1.8Z" transform="translate(-3.31 -10.72)" fill="#ececf1"/>
    <path d="M26.11,29.64a1.33,1.33,0,1,1,1.23-2.35,1.33,1.33,0,0,1-1.23,2.35Z" transform="translate(-3.31 -10.72)" fill="#ececf1"/>
    <path d="M25.43,33.79a1.33,1.33,0,1,0-1.8.56A1.34,1.34,0,0,0,25.43,33.79Z" transform="translate(-3.31 -10.72)" fill="#e2e2e7"/>
    <path d="M25.67,21.89a1.32,1.32,0,0,0-.55-1.79,1.33,1.33,0,1,0,.55,1.79Z" transform="translate(-3.31 -10.72)" fill="#ececf1"/>
    <path d="M21.4,27.16a1.31,1.31,0,0,1-.56-1.79,1.32,1.32,0,0,1,1.8-.56,1.33,1.33,0,0,1-1.24,2.35Z" transform="translate(-3.31 -10.72)" fill="#ececf1"/>
    <path d="M20.72,31.31a1.33,1.33,0,1,0-1.8.56A1.34,1.34,0,0,0,20.72,31.31Z" transform="translate(-3.31 -10.72)" fill="#e2e2e7"/>
    <path d="M13.1,25.8a1.32,1.32,0,0,1-.56-1.8l.62-1.17L12,22.21a1.33,1.33,0,0,1,1.24-2.36l1.18.62L15,19.3a1.33,1.33,0,0,1,2.35,1.23l-.62,1.18,1.18.62a1.33,1.33,0,0,1-1.24,2.36l-1.18-.62-.62,1.17A1.31,1.31,0,0,1,13.1,25.8Z" transform="translate(-3.31 -10.72)" fill="#ececf1"/>
    <g id="Signnal">
      <path d="M41.16,47.75A1.32,1.32,0,0,1,42,46.08a11.94,11.94,0,0,0,7.88-15,1.32,1.32,0,0,1,.88-1.67,1.36,1.36,0,0,1,1.67.88,14.64,14.64,0,0,1-9.63,18.31A1.37,1.37,0,0,1,41.16,47.75Z" transform="translate(-3.31 -10.72)" fill="#091412"/>
      <path d="M39.6,42.66A1.29,1.29,0,0,1,40.47,41a6.82,6.82,0,0,0,4.39-8.33,1.31,1.31,0,1,1,2.51-.78,9.46,9.46,0,0,1-6.12,11.63A1.29,1.29,0,0,1,39.6,42.66Z" transform="translate(-3.31 -10.72)" fill="#091412"/>
      <path d="M38,37.58a1.36,1.36,0,0,1,.88-1.67,1.34,1.34,0,0,0,.86-1.64,1.38,1.38,0,0,1,.88-1.68,1.32,1.32,0,0,1,1.67.88,3.94,3.94,0,0,1-.3,3,4,4,0,0,1-2.32,2A1.31,1.31,0,0,1,38,37.58Z" transform="translate(-3.31 -10.72)" fill="#091412"/>
    </g>
  </g>
</svg>
