<svg xmlns="http://www.w3.org/2000/svg" width="177" height="269.39" viewBox="0 0 177 269.39">
  <g id="WIRES">
    <line id="PIN_GND" x1="162.56" y1="242.87" x2="162.56" y2="260.06" fill="none" stroke="#000" stroke-linecap="round" stroke-linejoin="round" stroke-width="2"/>
    <line id="PIN_ECHO" x1="114.93" y1="242.87" x2="114.93" y2="260.06" fill="none" stroke="#919080" stroke-linecap="round" stroke-linejoin="round" stroke-width="2"/>
    <line id="PIN_POWER" x1="15.07" y1="242.87" x2="15.07" y2="260.06" fill="none" stroke="#e51313" stroke-linecap="round" stroke-linejoin="round" stroke-width="2"/>
    <line id="PIN_TRIG" x1="58.47" y1="242.87" x2="58.47" y2="260.06" fill="none" stroke="#919080" stroke-linecap="round" stroke-linejoin="round" stroke-width="2"/>
  </g>
  <g id="Sensor">
    <g id="BASE">
      <rect x="2" y="170.72" width="173" height="70.15" fill="#7ac7ed"/>
      <path d="M183,180.67v66.15H14V180.67H183m4-4H10v74.15H187V176.67Z" transform="translate(-10 -7.94)"/>
    </g>
    <g id="RIGHT_EYE">
      <rect x="11.3" y="142.13" width="34.76" height="27.44" fill="#bbc2c4"/>
      <path d="M54.56,151.57V176H22.8V151.57H54.56m3-3H19.8V179H57.56V148.57Z" transform="translate(-10 -7.94)"/>
    </g>
    <g id="LEFT_EYE">
      <rect x="131.57" y="142.13" width="34.76" height="27.44" fill="#bbc2c4"/>
      <path d="M174.83,151.57V176H143.07V151.57h31.76m3-3H140.07V179h37.76V148.57Z" transform="translate(-10 -7.94)"/>
    </g>
  </g>
  <g id="DISTANCE">
    <text id="DISTANCE_TEXT" transform="translate(66.95 18.46) scale(0.81 1)" font-size="21" font-family="Biryani-SemiBold, Biryani" font-weight="600">1 cm </text>
    <g id="OBJECT">
      <rect x="0.5" y="21.34" width="176" height="12.27" fill="#d61632"/>
      <path d="M186,29.79V41.06H11V29.79H186m1-1H10V42.06H187V28.79Z" transform="translate(-10 -7.94)"/>
    </g>
  </g>
  <g id="WIRE_TEXT">
    <text id="VCC_TEXT" transform="translate(6.83 238.67) scale(0.81 1)" font-size="36" font-family="Biryani-SemiBold, Biryani" font-weight="600">+</text>
    <text id="TRIG_TEXT" transform="translate(40.65 234.67) scale(0.81 1)" font-size="18" font-family="Biryani-SemiBold, Biryani" font-weight="600">TRIG</text>
    <text id="ECHO_TEXT" transform="translate(93.22 234.67) scale(0.81 1)" font-size="18" font-family="Biryani-SemiBold, Biryani" font-weight="600">ECHO</text>
    <text id="GND_TEXT" transform="translate(155.62 238.67) scale(0.81 1)" font-size="36" font-family="Biryani-SemiBold, Biryani" font-weight="600">-</text>
    <text id="TRIG_PIN_TEXT" transform="translate(61.53 258.45)" font-size="18" font-family="Biryani-SemiBold, Biryani" font-weight="600">A5</text>
    <text id="ECHO_PIN_TEXT" transform="translate(117.53 258.45)" font-size="18" font-family="Biryani-SemiBold, Biryani" font-weight="600">A5</text>
    <text transform="translate(8.89 197.23)" font-size="18" font-family="Biryani-SemiBold, Biryani" font-weight="600">Ultrasonic Sensor</text>
  </g>
</svg>
