<svg xmlns="http://www.w3.org/2000/svg" width="122.37" height="183.96" viewBox="0 0 122.37 183.96">
  <g id="Layer_3" data-name="Layer 3">
    <line id="PIN_GND" x1="44.74" y1="145.72" x2="44.74" y2="178.71" fill="none" stroke="#a06933" stroke-linecap="round" stroke-miterlimit="10" stroke-width="2"/>
    <line id="PIN_POWER" x1="61.69" y1="145.72" x2="61.69" y2="178.71" fill="none" stroke="#f73b1c" stroke-linecap="round" stroke-miterlimit="10" stroke-width="2"/>
    <line id="PIN_DATA" x1="79.03" y1="145.72" x2="79.03" y2="178.71" fill="none" stroke="#f48f21" stroke-linecap="round" stroke-miterlimit="10" stroke-width="2"/>
  </g>
  <g id="base">
    <g>
      <rect x="35.52" y="42.54" width="52.35" height="103.74" fill="#2a90ff"/>
      <path d="M95,47.06V150.32H43.27V47.06H95m.66-.48h-53V150.8h53Z" transform="translate(-7.41 -4.28)"/>
    </g>
  </g>
  <g id="Angle_Text" data-name="Angle Text">
    <text id="servo_pin" transform="translate(82.54 170.52)" font-size="21" font-family="Biryani-ExtraBold, Biryani" font-weight="800">A15</text>
    <text id="degrees" transform="translate(30.34 30.43)" font-size="34.62" font-family="Biryani-ExtraLight, Biryani" font-weight="200">180°</text>
    <text transform="translate(55.74 147.19)" font-size="21" font-family="Biryani-ExtraBold, Biryani" font-weight="800">+</text>
    <text transform="translate(40.07 146.19)" font-size="21" font-family="Biryani-ExtraBold, Biryani" font-weight="800">-</text>
    <text transform="translate(35.85 125.66)" font-size="18" fill="#fff" font-family="Biryani-Regular, Biryani">Servo</text>
  </g>
  <g id="spinning_part" data-name="spinning part">
    <rect id="black_fill" data-name="black fill" x="56.72" y="85.69" width="14.33" height="17.02" stroke="#000" stroke-miterlimit="10"/>
    <path id="moving_part" data-name="moving part" d="M114,99.14c-.19-4.78-3.43-8.88-7.7-9.36L66.07,83.69c-4.88,1.5-8.46,6.62-8.82,12.55-.37,6.21,2.87,12,7.85,13.86l40.56-.17C110.54,109.56,114.24,104.52,114,99.14Zm-44.15,5.3c-3.45-.18-6.09-3.55-5.89-7.54s3.18-7.06,6.64-6.89,6.09,3.55,5.89,7.53S73.33,104.61,69.87,104.44Z" transform="translate(-7.41 -4.28)" fill="#fbb03b" stroke="#000" stroke-miterlimit="10"/>
    <path id="CenterOfCicle" d="M70.24,96.89" transform="translate(-7.41 -4.28)" fill="#fbb03b" stroke="#000" stroke-miterlimit="10"/>
    <rect y="142.93" width="10.75" height="8.66" fill="none"/>
  </g>
</svg>
