<svg xmlns="http://www.w3.org/2000/svg" width="150" height="222.37" viewBox="0 0 150 222.37">
  <g id="WIRE">
    <g id="PIN_POWER">
      <line x1="9.69" y1="204.87" x2="9.69" y2="221.2" style="fill: none;stroke: #33322f;stroke-linecap: round;stroke-miterlimit: 10;stroke-width: 2px"/>
      <line x1="9.69" y1="204.87" x2="9.69" y2="221.2" style="fill: #2d2d2c"/>
    </g>
    <g id="PIN_DATA">
      <line x1="71.38" y1="205.03" x2="71.38" y2="221.37" style="fill: none;stroke: #33322f;stroke-linecap: round;stroke-miterlimit: 10;stroke-width: 2px"/>
      <line x1="71.38" y1="205.03" x2="71.38" y2="221.37" style="fill: #2d2d2c"/>
    </g>
    <g id="PIN_GND">
      <line x1="137.22" y1="205.03" x2="137.22" y2="221.37" style="fill: none;stroke: #33322f;stroke-linecap: round;stroke-miterlimit: 10;stroke-width: 2px"/>
      <line x1="137.22" y1="205.03" x2="137.22" y2="221.37" style="fill: #2d2d2c"/>
    </g>
  </g>
  <g id="BASE">
    <g>
      <rect x="0.5" y="27.87" width="149" height="177" style="fill: #81a4c1"/>
      <path d="M173.88,40V216h-148V40h148m1-1h-150V217h150V39Z" transform="translate(-24.88 -11.63)"/>
    </g>
    <g>
      <rect x="15.38" y="37.87" width="119" height="113" style="fill: #5da8f4"/>
      <path d="M158.75,50V162h-118V50h118m1-1h-120V163h120V49Z" transform="translate(-24.88 -11.63)"/>
    </g>
    <g>
      <g>
        <g>
          <rect x="108.63" y="128.87" width="16" height="16"/>
          <path d="M149,141v15H134V141h15m1-1H133v17h17V140Z" transform="translate(-24.88 -11.63)"/>
        </g>
        <g>
          <rect x="87.63" y="128.87" width="16" height="16"/>
          <path d="M128,141v15H113V141h15m1-1H112v17h17V140Z" transform="translate(-24.88 -11.63)"/>
        </g>
        <g>
          <rect x="66.63" y="128.87" width="16" height="16"/>
          <path d="M107,141v15H92V141h15m1-1H91v17h17V140Z" transform="translate(-24.88 -11.63)"/>
        </g>
        <g>
          <rect x="45.63" y="128.87" width="16" height="16"/>
          <path d="M86,141v15H71V141H86m1-1H70v17H87V140Z" transform="translate(-24.88 -11.63)"/>
        </g>
        <g>
          <rect x="24.63" y="128.87" width="16" height="16"/>
          <path d="M65,141v15H50V141H65m1-1H49v17H66V140Z" transform="translate(-24.88 -11.63)"/>
        </g>
      </g>
      <g>
        <g>
          <rect x="108.63" y="107.87" width="16" height="16"/>
          <path d="M149,120v15H134V120h15m1-1H133v17h17V119Z" transform="translate(-24.88 -11.63)"/>
        </g>
        <g>
          <rect x="87.63" y="107.87" width="16" height="16"/>
          <path d="M128,120v15H113V120h15m1-1H112v17h17V119Z" transform="translate(-24.88 -11.63)"/>
        </g>
        <g>
          <rect x="66.63" y="107.87" width="16" height="16"/>
          <path d="M107,120v15H92V120h15m1-1H91v17h17V119Z" transform="translate(-24.88 -11.63)"/>
        </g>
        <g>
          <rect x="45.63" y="107.87" width="16" height="16"/>
          <path d="M86,120v15H71V120H86m1-1H70v17H87V119Z" transform="translate(-24.88 -11.63)"/>
        </g>
        <g>
          <rect x="24.63" y="107.87" width="16" height="16"/>
          <path d="M65,120v15H50V120H65m1-1H49v17H66V119Z" transform="translate(-24.88 -11.63)"/>
        </g>
      </g>
      <g>
        <g>
          <rect x="108.63" y="86.87" width="16" height="16"/>
          <path d="M149,99v15H134V99h15m1-1H133v17h17V98Z" transform="translate(-24.88 -11.63)"/>
        </g>
        <g>
          <rect x="87.63" y="86.87" width="16" height="16"/>
          <path d="M128,99v15H113V99h15m1-1H112v17h17V98Z" transform="translate(-24.88 -11.63)"/>
        </g>
        <g>
          <rect x="66.63" y="86.87" width="16" height="16"/>
          <path d="M107,99v15H92V99h15m1-1H91v17h17V98Z" transform="translate(-24.88 -11.63)"/>
        </g>
        <g>
          <rect x="45.63" y="86.87" width="16" height="16"/>
          <path d="M86,99v15H71V99H86m1-1H70v17H87V98Z" transform="translate(-24.88 -11.63)"/>
        </g>
        <g>
          <rect x="24.63" y="86.87" width="16" height="16"/>
          <path d="M65,99v15H50V99H65m1-1H49v17H66V98Z" transform="translate(-24.88 -11.63)"/>
        </g>
      </g>
      <g>
        <g>
          <rect x="108.63" y="65.87" width="16" height="16"/>
          <path d="M149,78V93H134V78h15m1-1H133V94h17V77Z" transform="translate(-24.88 -11.63)"/>
        </g>
        <g>
          <rect x="87.63" y="65.87" width="16" height="16"/>
          <path d="M128,78V93H113V78h15m1-1H112V94h17V77Z" transform="translate(-24.88 -11.63)"/>
        </g>
        <g>
          <rect x="66.63" y="65.87" width="16" height="16"/>
          <path d="M107,78V93H92V78h15m1-1H91V94h17V77Z" transform="translate(-24.88 -11.63)"/>
        </g>
        <g>
          <rect x="45.63" y="65.87" width="16" height="16"/>
          <path d="M86,78V93H71V78H86m1-1H70V94H87V77Z" transform="translate(-24.88 -11.63)"/>
        </g>
        <g>
          <rect x="24.63" y="65.87" width="16" height="16"/>
          <path d="M65,78V93H50V78H65m1-1H49V94H66V77Z" transform="translate(-24.88 -11.63)"/>
        </g>
      </g>
      <g>
        <g>
          <rect x="108.63" y="44.87" width="16" height="16"/>
          <path d="M149,57V72H134V57h15m1-1H133V73h17V56Z" transform="translate(-24.88 -11.63)"/>
        </g>
        <g>
          <rect x="87.63" y="44.87" width="16" height="16"/>
          <path d="M128,57V72H113V57h15m1-1H112V73h17V56Z" transform="translate(-24.88 -11.63)"/>
        </g>
        <g>
          <rect x="66.63" y="44.87" width="16" height="16"/>
          <path d="M107,57V72H92V57h15m1-1H91V73h17V56Z" transform="translate(-24.88 -11.63)"/>
        </g>
        <g>
          <rect x="45.63" y="44.87" width="16" height="16"/>
          <path d="M86,57V72H71V57H86m1-1H70V73H87V56Z" transform="translate(-24.88 -11.63)"/>
        </g>
        <g>
          <rect x="24.63" y="44.87" width="16" height="16"/>
          <path d="M65,57V72H50V57H65m1-1H49V73H66V56Z" transform="translate(-24.88 -11.63)"/>
        </g>
      </g>
    </g>
  </g>
  <g id="TEXT">
    <text id="TEMP_TEXT" transform="translate(14.89 21.1)" style="font-size: 24px;font-family: Biryani-SemiBold, Biryani;font-weight: 600">50% - 90°F</text>
    <text transform="translate(3.09 199.46)" style="font-size: 24px;font-family: Biryani-SemiBold, Biryani;font-weight: 600">+</text>
    <text transform="translate(131.77 198.46)" style="font-size: 24px;font-family: Biryani-SemiBold, Biryani;font-weight: 600">-</text>
    <text id="PIN_TEXT" transform="translate(58.18 200.28)" style="font-size: 24px;fill: #2d2d2c;font-family: Biryani-SemiBold, Biryani;font-weight: 600">A5</text>
  </g>
</svg>
