<svg xmlns="http://www.w3.org/2000/svg" width="633.55" height="301.43" viewBox="0 0 633.55 301.43">
  <title>neopixel</title>
  <g id="simple_wires">
    <g id="GND">
      <line id="PIN_GND" x1="1" y1="293.41" x2="1" y2="236.41" fill="none" stroke="#000" stroke-linecap="round" stroke-miterlimit="10" stroke-width="2"/>
      <line x1="1" y1="236.41" x2="126" y2="236.41" fill="none" stroke="#000" stroke-miterlimit="10" stroke-width="2"/>
    </g>
    <g id="POWER">
      <line x1="65" y1="255.41" x2="98" y2="255.41" fill="none" stroke="red" stroke-linecap="round" stroke-miterlimit="10" stroke-width="2"/>
      <line id="PIN_POWER" x1="65" y1="255.41" x2="65" y2="293.41" fill="none" stroke="red" stroke-linecap="round" stroke-miterlimit="10" stroke-width="2"/>
    </g>
    <g id="DATA">
      <line x1="20" y1="245.41" x2="114" y2="245.41" fill="none" stroke="#006837" stroke-miterlimit="10" stroke-width="2"/>
      <line id="PIN_DATA" x1="20" y1="293.41" x2="20" y2="245.41" fill="none" stroke="#006837" stroke-linecap="round" stroke-miterlimit="10" stroke-width="2"/>
    </g>
    <text id="GND_TEXT" transform="translate(3.56 286.66) scale(1.14 1)" font-size="21" font-family="Biryani-SemiBold, Biryani" font-weight="600">-</text>
    <text id="DATA_TEXT" transform="translate(21.8 288.66) scale(1.21 1)" font-size="21" font-family="Biryani-SemiBold, Biryani" font-weight="600">A5</text>
    <text id="POWER_TEXT" transform="translate(69.61 286.66)" font-size="21" font-family="Biryani-SemiBold, Biryani" font-weight="600">+</text>
  </g>
  <g id="LED_1">
    <g id="BASE">
      <rect x="98.73" y="234.91" width="44" height="23" fill="#f2d4b6"/>
      <rect x="98.73" y="234.91" width="44" height="23" fill="none" stroke="#000" stroke-miterlimit="10"/>
    </g>
    <g id="LED-1">
      <circle cx="120.73" cy="246.41" r="8.5"/>
      <circle cx="120.73" cy="246.41" r="8.5" fill="none" stroke="#000" stroke-miterlimit="10"/>
    </g>
    <text transform="translate(115.78 273.65)" font-size="18" font-family="Biryani-SemiBold, Biryani" font-weight="600">1</text>
  </g>
  <g id="LED_2">
    <g id="BASE-2" data-name="BASE">
      <rect x="142.73" y="234.91" width="44" height="23" fill="#f2d4b6"/>
      <rect x="142.73" y="234.91" width="44" height="23" fill="none" stroke="#000" stroke-miterlimit="10"/>
    </g>
    <g id="LED-2" data-name="LED">
      <circle cx="164.73" cy="246.41" r="8.5"/>
      <circle cx="164.73" cy="246.41" r="8.5" fill="none" stroke="#000" stroke-miterlimit="10"/>
    </g>
    <text transform="translate(159.78 273.65)" font-size="18" font-family="Biryani-SemiBold, Biryani" font-weight="600">2</text>
  </g>
  <g id="LED_3">
    <g id="BASE-3" data-name="BASE">
      <rect x="186.73" y="234.91" width="44" height="23" fill="#f2d4b6"/>
      <rect x="186.73" y="234.91" width="44" height="23" fill="none" stroke="#000" stroke-miterlimit="10"/>
    </g>
    <g id="LED-3" data-name="LED">
      <circle cx="208.73" cy="246.41" r="8.5"/>
      <circle cx="208.73" cy="246.41" r="8.5" fill="none" stroke="#000" stroke-miterlimit="10"/>
    </g>
    <text transform="translate(203.78 273.65)" font-size="18" font-family="Biryani-SemiBold, Biryani" font-weight="600">3</text>
  </g>
  <g id="LED_4">
    <g id="BASE-4" data-name="BASE">
      <rect x="230.53" y="234.91" width="44" height="23" fill="#f2d4b6"/>
      <rect x="230.53" y="234.91" width="44" height="23" fill="none" stroke="#000" stroke-miterlimit="10"/>
    </g>
    <g id="LED-4" data-name="LED">
      <circle cx="252.53" cy="246.41" r="8.5"/>
      <circle cx="252.53" cy="246.41" r="8.5" fill="none" stroke="#000" stroke-miterlimit="10"/>
    </g>
    <text transform="translate(247.58 273.65)" font-size="18" font-family="Biryani-SemiBold, Biryani" font-weight="600">4</text>
  </g>
  <g id="LED_5">
    <g id="BASE-5" data-name="BASE">
      <rect x="274.6" y="234.91" width="44" height="23" fill="#f2d4b6"/>
      <rect x="274.6" y="234.91" width="44" height="23" fill="none" stroke="#000" stroke-miterlimit="10"/>
    </g>
    <g id="LED-5" data-name="LED">
      <circle cx="296.6" cy="246.41" r="8.5"/>
      <circle cx="296.6" cy="246.41" r="8.5" fill="none" stroke="#000" stroke-miterlimit="10"/>
    </g>
    <text transform="translate(291.65 273.65)" font-size="18" font-family="Biryani-SemiBold, Biryani" font-weight="600">5</text>
  </g>
  <g id="LED_6">
    <g id="BASE-6" data-name="BASE">
      <rect x="318.36" y="234.91" width="44" height="23" fill="#f2d4b6"/>
      <rect x="318.36" y="234.91" width="44" height="23" fill="none" stroke="#000" stroke-miterlimit="10"/>
    </g>
    <g id="LED-6" data-name="LED">
      <circle cx="340.36" cy="246.41" r="8.5"/>
      <circle cx="340.36" cy="246.41" r="8.5" fill="none" stroke="#000" stroke-miterlimit="10"/>
    </g>
    <text transform="translate(335.41 273.65)" font-size="18" font-family="Biryani-SemiBold, Biryani" font-weight="600">6</text>
  </g>
  <g id="LED_7">
    <g id="BASE-7" data-name="BASE">
      <rect x="362.13" y="234.91" width="44" height="23" fill="#f2d4b6"/>
      <rect x="362.13" y="234.91" width="44" height="23" fill="none" stroke="#000" stroke-miterlimit="10"/>
    </g>
    <g id="LED-7" data-name="LED">
      <circle cx="384.13" cy="246.41" r="8.5"/>
      <circle cx="384.13" cy="246.41" r="8.5" fill="none" stroke="#000" stroke-miterlimit="10"/>
    </g>
    <text transform="translate(379.18 273.65)" font-size="18" font-family="Biryani-SemiBold, Biryani" font-weight="600">7</text>
  </g>
  <g id="LED_8">
    <g id="BASE-8" data-name="BASE">
      <rect x="405.53" y="234.91" width="44" height="23" fill="#f2d4b6"/>
      <rect x="405.53" y="234.91" width="44" height="23" fill="none" stroke="#000" stroke-miterlimit="10"/>
    </g>
    <g id="LED-8" data-name="LED">
      <circle cx="427.53" cy="246.41" r="8.5"/>
      <circle cx="427.53" cy="246.41" r="8.5" fill="none" stroke="#000" stroke-miterlimit="10"/>
    </g>
    <text transform="translate(422.58 273.65)" font-size="18" font-family="Biryani-SemiBold, Biryani" font-weight="600">8</text>
  </g>
  <g id="LED_9">
    <g id="BASE-9" data-name="BASE">
      <rect x="449.53" y="234.91" width="44" height="23" fill="#f2d4b6"/>
      <rect x="449.53" y="234.91" width="44" height="23" fill="none" stroke="#000" stroke-miterlimit="10"/>
    </g>
    <g id="LED-9" data-name="LED">
      <circle cx="471.53" cy="246.41" r="8.5"/>
      <circle cx="471.53" cy="246.41" r="8.5" fill="none" stroke="#000" stroke-miterlimit="10"/>
    </g>
    <text transform="translate(466.58 273.65)" font-size="18" font-family="Biryani-SemiBold, Biryani" font-weight="600">9</text>
  </g>
  <g id="LED_10">
    <g id="BASE-10" data-name="BASE">
      <rect x="493.73" y="234.91" width="44" height="23" fill="#f2d4b6"/>
      <rect x="493.73" y="234.91" width="44" height="23" fill="none" stroke="#000" stroke-miterlimit="10"/>
    </g>
    <g id="LED-10" data-name="LED">
      <circle cx="515.73" cy="246.41" r="8.5"/>
      <circle cx="515.73" cy="246.41" r="8.5" fill="none" stroke="#000" stroke-miterlimit="10"/>
    </g>
    <text transform="translate(505.83 273.65)" font-size="18" font-family="Biryani-SemiBold, Biryani" font-weight="600">10</text>
  </g>
  <g id="LED_11">
    <g id="BASE-11" data-name="BASE">
      <rect x="537.64" y="234.91" width="44" height="23" fill="#f2d4b6"/>
      <rect x="537.64" y="234.91" width="44" height="23" fill="none" stroke="#000" stroke-miterlimit="10"/>
    </g>
    <g id="LED-11" data-name="LED">
      <circle cx="559.64" cy="246.41" r="8.5"/>
      <circle cx="559.64" cy="246.41" r="8.5" fill="none" stroke="#000" stroke-miterlimit="10"/>
    </g>
    <text transform="translate(549.74 273.65)" font-size="18" font-family="Biryani-SemiBold, Biryani" font-weight="600">11</text>
  </g>
  <g id="LED_12">
    <g id="BASE-12" data-name="BASE">
      <rect x="581.46" y="234.91" width="44" height="23" fill="#f2d4b6"/>
      <rect x="581.46" y="234.91" width="44" height="23" fill="none" stroke="#000" stroke-miterlimit="10"/>
    </g>
    <g id="LED-12" data-name="LED">
      <circle cx="603.46" cy="246.41" r="8.5"/>
      <circle cx="603.46" cy="246.41" r="8.5" fill="none" stroke="#000" stroke-miterlimit="10"/>
    </g>
    <text transform="translate(593.56 273.65)" font-size="18" font-family="Biryani-SemiBold, Biryani" font-weight="600">12</text>
  </g>
  <g id="LED_13">
    <g id="BASE-13" data-name="BASE">
      <rect x="581.46" y="175.91" width="44" height="23" fill="#f2d4b6"/>
      <rect x="581.46" y="175.91" width="44" height="23" fill="none" stroke="#000" stroke-miterlimit="10"/>
    </g>
    <g id="LED-13" data-name="LED">
      <circle cx="603.46" cy="187.41" r="8.5"/>
      <circle cx="603.46" cy="187.41" r="8.5" fill="none" stroke="#000" stroke-miterlimit="10"/>
    </g>
    <text transform="translate(593.56 214.65)" font-size="18" font-family="Biryani-SemiBold, Biryani" font-weight="600">13</text>
  </g>
  <g id="ENDS">
    <path id="LEVEL1" d="M625,175.91h1.5a6,6,0,0,1,6,6v70a6,6,0,0,1-6,6H625a0,0,0,0,1,0,0v-82A0,0,0,0,1,625,175.91Z" fill="#f2d4b6" stroke="#000" stroke-miterlimit="10"/>
    <path id="LEVEL2" d="M96,125.1H97.5a6,6,0,0,1,6,6v69.4a6,6,0,0,1-6,6H96a0,0,0,0,1,0,0V125.1A0,0,0,0,1,96,125.1Z" transform="translate(194.5 324.01) rotate(180)" fill="#f2d4b6" stroke="#000" stroke-miterlimit="10"/>
    <path id="LEVEL4" d="M96.5,8.1h1a6,6,0,0,1,6,6v69a6,6,0,0,1-6,6h-1a0,0,0,0,1,0,0V8.1A0,0,0,0,1,96.5,8.1Z" transform="translate(195 89.61) rotate(180)" fill="#f2d4b6" stroke="#000" stroke-miterlimit="10"/>
    <path id="LEVEL3" d="M625.55,58.51H627a6,6,0,0,1,6,6v70a6,6,0,0,1-6,6h-1.5a0,0,0,0,1,0,0v-82A0,0,0,0,1,625.55,58.51Z" fill="#f2d4b6" stroke="#000" stroke-miterlimit="10"/>
  </g>
  <g id="LED_14">
    <text transform="translate(549.74 214.65)" font-size="18" font-family="Biryani-SemiBold, Biryani" font-weight="600">14</text>
    <g id="BASE-14" data-name="BASE">
      <rect x="537.64" y="175.91" width="44" height="23" fill="#f2d4b6"/>
      <rect x="537.64" y="175.91" width="44" height="23" fill="none" stroke="#000" stroke-miterlimit="10"/>
    </g>
    <g id="LED-14" data-name="LED">
      <circle cx="559.64" cy="187.41" r="8.5"/>
      <circle cx="559.64" cy="187.41" r="8.5" fill="none" stroke="#000" stroke-miterlimit="10"/>
    </g>
  </g>
  <g id="LED_15">
    <text transform="translate(505.83 214.65)" font-size="18" font-family="Biryani-SemiBold, Biryani" font-weight="600">15</text>
    <g id="BASE-15" data-name="BASE">
      <rect x="493.73" y="175.91" width="44" height="23" fill="#f2d4b6"/>
      <rect x="493.73" y="175.91" width="44" height="23" fill="none" stroke="#000" stroke-miterlimit="10"/>
    </g>
    <g id="LED-15" data-name="LED">
      <circle cx="515.73" cy="187.41" r="8.5"/>
      <circle cx="515.73" cy="187.41" r="8.5" fill="none" stroke="#000" stroke-miterlimit="10"/>
    </g>
  </g>
  <g id="LED_16">
    <text transform="translate(461.63 214.65)" font-size="18" font-family="Biryani-SemiBold, Biryani" font-weight="600">16</text>
    <g id="BASE-16" data-name="BASE">
      <rect x="449.53" y="175.91" width="44" height="23" fill="#f2d4b6"/>
      <rect x="449.53" y="175.91" width="44" height="23" fill="none" stroke="#000" stroke-miterlimit="10"/>
    </g>
    <g id="LED-16" data-name="LED">
      <circle cx="471.53" cy="187.41" r="8.5"/>
      <circle cx="471.53" cy="187.41" r="8.5" fill="none" stroke="#000" stroke-miterlimit="10"/>
    </g>
  </g>
  <g id="LED_17">
    <text transform="translate(417.63 214.65)" font-size="18" font-family="Biryani-SemiBold, Biryani" font-weight="600">17</text>
    <g id="BASE-17" data-name="BASE">
      <rect x="405.53" y="175.91" width="44" height="23" fill="#f2d4b6"/>
      <rect x="405.53" y="175.91" width="44" height="23" fill="none" stroke="#000" stroke-miterlimit="10"/>
    </g>
    <g id="LED-17" data-name="LED">
      <circle cx="427.53" cy="187.41" r="8.5"/>
      <circle cx="427.53" cy="187.41" r="8.5" fill="none" stroke="#000" stroke-miterlimit="10"/>
    </g>
  </g>
  <g id="LED_18">
    <text transform="translate(374.23 214.65)" font-size="18" font-family="Biryani-SemiBold, Biryani" font-weight="600">18</text>
    <g id="BASE-18" data-name="BASE">
      <rect x="362.13" y="175.91" width="44" height="23" fill="#f2d4b6"/>
      <rect x="362.13" y="175.91" width="44" height="23" fill="none" stroke="#000" stroke-miterlimit="10"/>
    </g>
    <g id="LED-18" data-name="LED">
      <circle cx="384.13" cy="187.41" r="8.5"/>
      <circle cx="384.13" cy="187.41" r="8.5" fill="none" stroke="#000" stroke-miterlimit="10"/>
    </g>
  </g>
  <g id="LED_19">
    <text transform="translate(330.46 214.65)" font-size="18" font-family="Biryani-SemiBold, Biryani" font-weight="600">19</text>
    <g id="BASE-19" data-name="BASE">
      <rect x="318.36" y="175.91" width="44" height="23" fill="#f2d4b6"/>
      <rect x="318.36" y="175.91" width="44" height="23" fill="none" stroke="#000" stroke-miterlimit="10"/>
    </g>
    <g id="LED-19" data-name="LED">
      <circle cx="340.36" cy="187.41" r="8.5"/>
      <circle cx="340.36" cy="187.41" r="8.5" fill="none" stroke="#000" stroke-miterlimit="10"/>
    </g>
  </g>
  <g id="LED_20">
    <text transform="translate(286.7 214.65)" font-size="18" font-family="Biryani-SemiBold, Biryani" font-weight="600">20</text>
    <g id="BASE-20" data-name="BASE">
      <rect x="274.6" y="175.91" width="44" height="23" fill="#f2d4b6"/>
      <rect x="274.6" y="175.91" width="44" height="23" fill="none" stroke="#000" stroke-miterlimit="10"/>
    </g>
    <g id="LED-20" data-name="LED">
      <circle cx="296.6" cy="187.41" r="8.5"/>
      <circle cx="296.6" cy="187.41" r="8.5" fill="none" stroke="#000" stroke-miterlimit="10"/>
    </g>
  </g>
  <g id="LED_21">
    <g id="BASE-21" data-name="BASE">
      <rect x="230.53" y="175.91" width="44" height="23" fill="#f2d4b6"/>
      <rect x="230.53" y="175.91" width="44" height="23" fill="none" stroke="#000" stroke-miterlimit="10"/>
    </g>
    <g id="LED-21" data-name="LED">
      <circle cx="252.53" cy="187.41" r="8.5"/>
      <circle cx="252.53" cy="187.41" r="8.5" fill="none" stroke="#000" stroke-miterlimit="10"/>
    </g>
    <text transform="translate(242.63 214.65)" font-size="18" font-family="Biryani-SemiBold, Biryani" font-weight="600">21</text>
  </g>
  <g id="LED_22">
    <g id="BASE-22" data-name="BASE">
      <rect x="186.73" y="175.91" width="44" height="23" fill="#f2d4b6"/>
      <rect x="186.73" y="175.91" width="44" height="23" fill="none" stroke="#000" stroke-miterlimit="10"/>
    </g>
    <g id="LED-22" data-name="LED">
      <circle cx="208.73" cy="187.41" r="8.5"/>
      <circle cx="208.73" cy="187.41" r="8.5" fill="none" stroke="#000" stroke-miterlimit="10"/>
    </g>
    <text transform="translate(198.83 214.65)" font-size="18" font-family="Biryani-SemiBold, Biryani" font-weight="600">22</text>
  </g>
  <g id="LED_23">
    <g id="BASE-23" data-name="BASE">
      <rect x="142.73" y="175.91" width="44" height="23" fill="#f2d4b6"/>
      <rect x="142.73" y="175.91" width="44" height="23" fill="none" stroke="#000" stroke-miterlimit="10"/>
    </g>
    <g id="LED-23" data-name="LED">
      <circle cx="164.73" cy="187.41" r="8.5"/>
      <circle cx="164.73" cy="187.41" r="8.5" fill="none" stroke="#000" stroke-miterlimit="10"/>
    </g>
    <text transform="translate(154.83 214.65)" font-size="18" font-family="Biryani-SemiBold, Biryani" font-weight="600">23</text>
  </g>
  <g id="LED_24">
    <g id="BASE-24" data-name="BASE">
      <rect x="98.73" y="175.91" width="44" height="23" fill="#f2d4b6"/>
      <rect x="98.73" y="175.91" width="44" height="23" fill="none" stroke="#000" stroke-miterlimit="10"/>
    </g>
    <g id="LED-24" data-name="LED">
      <circle cx="120.73" cy="187.41" r="8.5"/>
      <circle cx="120.73" cy="187.41" r="8.5" fill="none" stroke="#000" stroke-miterlimit="10"/>
    </g>
    <text transform="translate(110.83 214.65)" font-size="18" font-family="Biryani-SemiBold, Biryani" font-weight="600">24</text>
  </g>
  <g id="LED_25">
    <g id="BASE-25" data-name="BASE">
      <rect x="98.73" y="117.5" width="44" height="23" fill="#f2d4b6"/>
      <rect x="98.73" y="117.5" width="44" height="23" fill="none" stroke="#000" stroke-miterlimit="10"/>
    </g>
    <g id="LED-25" data-name="LED">
      <circle cx="120.73" cy="129.41" r="8.5"/>
      <circle cx="120.73" cy="129.41" r="8.5" fill="none" stroke="#000" stroke-miterlimit="10"/>
    </g>
    <text transform="translate(110.83 156.65)" font-size="18" font-family="Biryani-SemiBold, Biryani" font-weight="600">25</text>
  </g>
  <g id="LED_26">
    <g id="BASE-26" data-name="BASE">
      <rect x="142.73" y="117.5" width="44" height="23" fill="#f2d4b6"/>
      <rect x="142.73" y="117.5" width="44" height="23" fill="none" stroke="#000" stroke-miterlimit="10"/>
    </g>
    <g id="LED-26" data-name="LED">
      <circle cx="164.73" cy="129.41" r="8.5"/>
      <circle cx="164.73" cy="129.41" r="8.5" fill="none" stroke="#000" stroke-miterlimit="10"/>
    </g>
    <text transform="translate(154.83 156.65)" font-size="18" font-family="Biryani-SemiBold, Biryani" font-weight="600">26</text>
  </g>
  <g id="LED_27">
    <g id="BASE-27" data-name="BASE">
      <rect x="186.73" y="117.5" width="44" height="23" fill="#f2d4b6"/>
      <rect x="186.73" y="117.5" width="44" height="23" fill="none" stroke="#000" stroke-miterlimit="10"/>
    </g>
    <g id="LED-27" data-name="LED">
      <circle cx="208.73" cy="129.41" r="8.5"/>
      <circle cx="208.73" cy="129.41" r="8.5" fill="none" stroke="#000" stroke-miterlimit="10"/>
    </g>
    <text transform="translate(198.83 156.65)" font-size="18" font-family="Biryani-SemiBold, Biryani" font-weight="600">27</text>
  </g>
  <g id="LED_28">
    <g id="BASE-28" data-name="BASE">
      <rect x="230.53" y="117.5" width="44" height="23" fill="#f2d4b6"/>
      <rect x="230.53" y="117.5" width="44" height="23" fill="none" stroke="#000" stroke-miterlimit="10"/>
    </g>
    <g id="LED-28" data-name="LED">
      <circle cx="252.53" cy="129.41" r="8.5"/>
      <circle cx="252.53" cy="129.41" r="8.5" fill="none" stroke="#000" stroke-miterlimit="10"/>
    </g>
    <text transform="translate(242.63 156.65)" font-size="18" font-family="Biryani-SemiBold, Biryani" font-weight="600">28</text>
  </g>
  <g id="LED_29">
    <g id="BASE-29" data-name="BASE">
      <rect x="274.6" y="117.5" width="44" height="23" fill="#f2d4b6"/>
      <rect x="274.6" y="117.5" width="44" height="23" fill="none" stroke="#000" stroke-miterlimit="10"/>
    </g>
    <g id="LED-29" data-name="LED">
      <circle cx="296.6" cy="129.41" r="8.5"/>
      <circle cx="296.6" cy="129.41" r="8.5" fill="none" stroke="#000" stroke-miterlimit="10"/>
    </g>
    <text transform="translate(286.7 156.65)" font-size="18" font-family="Biryani-SemiBold, Biryani" font-weight="600">29</text>
  </g>
  <g id="LED_30">
    <g id="BASE-30" data-name="BASE">
      <rect x="318.36" y="117.5" width="44" height="23" fill="#f2d4b6"/>
      <rect x="318.36" y="117.5" width="44" height="23" fill="none" stroke="#000" stroke-miterlimit="10"/>
    </g>
    <g id="LED-30" data-name="LED">
      <circle cx="340.36" cy="129.41" r="8.5"/>
      <circle cx="340.36" cy="129.41" r="8.5" fill="none" stroke="#000" stroke-miterlimit="10"/>
    </g>
    <text transform="translate(330.46 156.65)" font-size="18" font-family="Biryani-SemiBold, Biryani" font-weight="600">30</text>
  </g>
  <g id="LED_31">
    <g id="BASE-31" data-name="BASE">
      <rect x="362.13" y="117.5" width="44" height="23" fill="#f2d4b6"/>
      <rect x="362.13" y="117.5" width="44" height="23" fill="none" stroke="#000" stroke-miterlimit="10"/>
    </g>
    <g id="LED-31" data-name="LED">
      <circle cx="384.13" cy="129.41" r="8.5"/>
      <circle cx="384.13" cy="129.41" r="8.5" fill="none" stroke="#000" stroke-miterlimit="10"/>
    </g>
    <text transform="translate(374.23 156.65)" font-size="18" font-family="Biryani-SemiBold, Biryani" font-weight="600">31</text>
  </g>
  <g id="LED_32">
    <g id="BASE-32" data-name="BASE">
      <rect x="405.53" y="117.5" width="44" height="23" fill="#f2d4b6"/>
      <rect x="405.53" y="117.5" width="44" height="23" fill="none" stroke="#000" stroke-miterlimit="10"/>
    </g>
    <g id="LED-32" data-name="LED">
      <circle cx="427.53" cy="129.41" r="8.5"/>
      <circle cx="427.53" cy="129.41" r="8.5" fill="none" stroke="#000" stroke-miterlimit="10"/>
    </g>
    <text transform="translate(417.63 156.65)" font-size="18" font-family="Biryani-SemiBold, Biryani" font-weight="600">32</text>
  </g>
  <g id="LED_33">
    <g id="BASE-33" data-name="BASE">
      <rect x="449.53" y="117.5" width="44" height="23" fill="#f2d4b6"/>
      <rect x="449.53" y="117.5" width="44" height="23" fill="none" stroke="#000" stroke-miterlimit="10"/>
    </g>
    <g id="LED-33" data-name="LED">
      <circle cx="471.53" cy="129.41" r="8.5"/>
      <circle cx="471.53" cy="129.41" r="8.5" fill="none" stroke="#000" stroke-miterlimit="10"/>
    </g>
    <text transform="translate(461.63 156.65)" font-size="18" font-family="Biryani-SemiBold, Biryani" font-weight="600">33</text>
  </g>
  <g id="LED_34">
    <g id="BASE-34" data-name="BASE">
      <rect x="493.73" y="117.5" width="44" height="23" fill="#f2d4b6"/>
      <rect x="493.73" y="117.5" width="44" height="23" fill="none" stroke="#000" stroke-miterlimit="10"/>
    </g>
    <g id="LED-34" data-name="LED">
      <circle cx="515.73" cy="129.41" r="8.5"/>
      <circle cx="515.73" cy="129.41" r="8.5" fill="none" stroke="#000" stroke-miterlimit="10"/>
    </g>
    <text transform="translate(505.83 156.65)" font-size="18" font-family="Biryani-SemiBold, Biryani" font-weight="600">34</text>
  </g>
  <g id="LED_35">
    <g id="BASE-35" data-name="BASE">
      <rect x="537.64" y="117.5" width="44" height="23" fill="#f2d4b6"/>
      <rect x="537.64" y="117.5" width="44" height="23" fill="none" stroke="#000" stroke-miterlimit="10"/>
    </g>
    <g id="LED-35" data-name="LED">
      <circle cx="559.93" cy="129.41" r="8.5"/>
      <circle cx="559.93" cy="129.41" r="8.5" fill="none" stroke="#000" stroke-miterlimit="10"/>
    </g>
    <text transform="translate(549.74 156.65)" font-size="18" font-family="Biryani-SemiBold, Biryani" font-weight="600">35</text>
  </g>
  <g id="LED_36">
    <g id="BASE-36" data-name="BASE">
      <rect x="581.46" y="117.5" width="44" height="23" fill="#f2d4b6"/>
      <rect x="581.46" y="117.5" width="44" height="23" fill="none" stroke="#000" stroke-miterlimit="10"/>
    </g>
    <g id="LED-36" data-name="LED">
      <circle cx="603.46" cy="129.41" r="8.5"/>
      <circle cx="603.46" cy="129.41" r="8.5" fill="none" stroke="#000" stroke-miterlimit="10"/>
    </g>
    <text transform="translate(593.56 156.65)" font-size="18" font-family="Biryani-SemiBold, Biryani" font-weight="600">36</text>
  </g>
  <g id="LED_37">
    <g id="BASE-37" data-name="BASE">
      <rect x="581.46" y="58.5" width="44" height="23" fill="#f2d4b6"/>
      <rect x="581.46" y="58.5" width="44" height="23" fill="none" stroke="#000" stroke-miterlimit="10"/>
    </g>
    <g id="LED-37" data-name="LED">
      <circle cx="603.46" cy="70.41" r="8.5"/>
      <circle cx="603.46" cy="70.41" r="8.5" fill="none" stroke="#000" stroke-miterlimit="10"/>
    </g>
    <text transform="translate(593.56 97.65)" font-size="18" font-family="Biryani-SemiBold, Biryani" font-weight="600">37</text>
  </g>
  <g id="LED_38">
    <g id="BASE-38" data-name="BASE">
      <rect x="537.64" y="58.5" width="44" height="23" fill="#f2d4b6"/>
      <rect x="537.64" y="58.5" width="44" height="23" fill="none" stroke="#000" stroke-miterlimit="10"/>
    </g>
    <g id="LED-38" data-name="LED">
      <circle cx="559.64" cy="70.41" r="8.5"/>
      <circle cx="559.64" cy="70.41" r="8.5" fill="none" stroke="#000" stroke-miterlimit="10"/>
    </g>
    <text transform="translate(549.74 97.65)" font-size="18" font-family="Biryani-SemiBold, Biryani" font-weight="600">38</text>
  </g>
  <g id="LED_39">
    <g id="BASE-39" data-name="BASE">
      <rect x="493.73" y="58.5" width="44" height="23" fill="#f2d4b6"/>
      <rect x="493.73" y="58.5" width="44" height="23" fill="none" stroke="#000" stroke-miterlimit="10"/>
    </g>
    <g id="LED-39" data-name="LED">
      <circle cx="515.73" cy="70.41" r="8.5"/>
      <circle cx="515.73" cy="70.41" r="8.5" fill="none" stroke="#000" stroke-miterlimit="10"/>
    </g>
    <text transform="translate(505.83 97.65)" font-size="18" font-family="Biryani-SemiBold, Biryani" font-weight="600">39</text>
  </g>
  <g id="LED_40">
    <g id="BASE-40" data-name="BASE">
      <rect x="449.53" y="58.5" width="44" height="23" fill="#f2d4b6"/>
      <rect x="449.53" y="58.5" width="44" height="23" fill="none" stroke="#000" stroke-miterlimit="10"/>
    </g>
    <g id="LED-40" data-name="LED">
      <circle cx="471.53" cy="70.41" r="8.5"/>
      <circle cx="471.53" cy="70.41" r="8.5" fill="none" stroke="#000" stroke-miterlimit="10"/>
    </g>
    <text transform="translate(461.63 97.65)" font-size="18" font-family="Biryani-SemiBold, Biryani" font-weight="600">40</text>
  </g>
  <g id="LED_41">
    <g id="BASE-41" data-name="BASE">
      <rect x="405.53" y="58.5" width="44" height="23" fill="#f2d4b6"/>
      <rect x="405.53" y="58.5" width="44" height="23" fill="none" stroke="#000" stroke-miterlimit="10"/>
    </g>
    <g id="LED-41" data-name="LED">
      <circle cx="427.53" cy="70.41" r="8.5"/>
      <circle cx="427.53" cy="70.41" r="8.5" fill="none" stroke="#000" stroke-miterlimit="10"/>
    </g>
    <text transform="translate(417.63 97.65)" font-size="18" font-family="Biryani-SemiBold, Biryani" font-weight="600">41</text>
  </g>
  <g id="LED_42">
    <g id="BASE-42" data-name="BASE">
      <rect x="362.13" y="58.5" width="44" height="23" fill="#f2d4b6"/>
      <rect x="362.13" y="58.5" width="44" height="23" fill="none" stroke="#000" stroke-miterlimit="10"/>
    </g>
    <g id="LED-42" data-name="LED">
      <circle cx="384.13" cy="70.41" r="8.5"/>
      <circle cx="384.13" cy="70.41" r="8.5" fill="none" stroke="#000" stroke-miterlimit="10"/>
    </g>
    <text transform="translate(374.23 97.65)" font-size="18" font-family="Biryani-SemiBold, Biryani" font-weight="600">42</text>
  </g>
  <g id="LED_43">
    <g id="BASE-43" data-name="BASE">
      <rect x="318.36" y="58.5" width="44" height="23" fill="#f2d4b6"/>
      <rect x="318.36" y="58.5" width="44" height="23" fill="none" stroke="#000" stroke-miterlimit="10"/>
    </g>
    <g id="LED-43" data-name="LED">
      <circle cx="339.93" cy="70.41" r="8.5"/>
      <circle cx="339.93" cy="70.41" r="8.5" fill="none" stroke="#000" stroke-miterlimit="10"/>
    </g>
    <text transform="translate(330.46 97.65)" font-size="18" font-family="Biryani-SemiBold, Biryani" font-weight="600">43</text>
  </g>
  <g id="LED_44">
    <g id="BASE-44" data-name="BASE">
      <rect x="274.6" y="58.5" width="44" height="23" fill="#f2d4b6"/>
      <rect x="274.6" y="58.5" width="44" height="23" fill="none" stroke="#000" stroke-miterlimit="10"/>
    </g>
    <text transform="translate(286.7 97.65)" font-size="18" font-family="Biryani-SemiBold, Biryani" font-weight="600">44</text>
    <g id="LED-44" data-name="LED">
      <circle cx="297" cy="70.41" r="8.5"/>
      <circle cx="297" cy="70.41" r="8.5" fill="none" stroke="#000" stroke-miterlimit="10"/>
    </g>
  </g>
  <g id="LED_45">
    <g id="BASE-45" data-name="BASE">
      <rect x="230.53" y="58.5" width="44" height="23" fill="#f2d4b6"/>
      <rect x="230.53" y="58.5" width="44" height="23" fill="none" stroke="#000" stroke-miterlimit="10"/>
    </g>
    <g id="LED-45" data-name="LED">
      <circle cx="252.53" cy="70.41" r="8.5"/>
      <circle cx="252.53" cy="70.41" r="8.5" fill="none" stroke="#000" stroke-miterlimit="10"/>
    </g>
    <text transform="translate(242.63 97.65)" font-size="18" font-family="Biryani-SemiBold, Biryani" font-weight="600">45</text>
  </g>
  <g id="LED_46">
    <g id="BASE-46" data-name="BASE">
      <rect x="186.73" y="58.5" width="44" height="23" fill="#f2d4b6"/>
      <rect x="186.73" y="58.5" width="44" height="23" fill="none" stroke="#000" stroke-miterlimit="10"/>
    </g>
    <g id="LED-46" data-name="LED">
      <circle cx="208.73" cy="70.41" r="8.5"/>
      <circle cx="208.73" cy="70.41" r="8.5" fill="none" stroke="#000" stroke-miterlimit="10"/>
    </g>
    <text transform="translate(198.83 97.65)" font-size="18" font-family="Biryani-SemiBold, Biryani" font-weight="600">46</text>
  </g>
  <g id="LED_47">
    <g id="BASE-47" data-name="BASE">
      <rect x="142.73" y="58.5" width="44" height="23" fill="#f2d4b6"/>
      <rect x="142.73" y="58.5" width="44" height="23" fill="none" stroke="#000" stroke-miterlimit="10"/>
    </g>
    <g id="LED-47" data-name="LED">
      <circle cx="164.73" cy="70.41" r="8.5"/>
      <circle cx="164.73" cy="70.41" r="8.5" fill="none" stroke="#000" stroke-miterlimit="10"/>
    </g>
    <text transform="translate(154.83 97.65)" font-size="18" font-family="Biryani-SemiBold, Biryani" font-weight="600">47</text>
  </g>
  <g id="LED_48">
    <g id="BASE-48" data-name="BASE">
      <rect x="98.73" y="58.5" width="44" height="23" fill="#f2d4b6"/>
      <rect x="98.73" y="58.5" width="44" height="23" fill="none" stroke="#000" stroke-miterlimit="10"/>
    </g>
    <g id="LED-48" data-name="LED">
      <circle cx="120.73" cy="70.41" r="8.5"/>
      <circle cx="120.73" cy="70.41" r="8.5" fill="none" stroke="#000" stroke-miterlimit="10"/>
    </g>
    <text transform="translate(110.83 97.65)" font-size="18" font-family="Biryani-SemiBold, Biryani" font-weight="600">48</text>
  </g>
  <g id="LED_49">
    <g id="BASE-49" data-name="BASE">
      <rect x="98.73" y="0.5" width="44" height="23" fill="#f2d4b6"/>
      <rect x="98.73" y="0.5" width="44" height="23" fill="none" stroke="#000" stroke-miterlimit="10"/>
    </g>
    <g id="LED-49" data-name="LED">
      <circle cx="120.73" cy="12.41" r="8.5"/>
      <circle cx="120.73" cy="12.41" r="8.5" fill="none" stroke="#000" stroke-miterlimit="10"/>
    </g>
    <text transform="translate(110.83 39.65)" font-size="18" font-family="Biryani-SemiBold, Biryani" font-weight="600">49</text>
  </g>
  <g id="LED_50">
    <g id="BASE-50" data-name="BASE">
      <rect x="142.73" y="0.5" width="44" height="23" fill="#f2d4b6"/>
      <rect x="142.73" y="0.5" width="44" height="23" fill="none" stroke="#000" stroke-miterlimit="10"/>
    </g>
    <g id="LED-50" data-name="LED">
      <circle cx="164.73" cy="12.41" r="8.5"/>
      <circle cx="164.73" cy="12.41" r="8.5" fill="none" stroke="#000" stroke-miterlimit="10"/>
    </g>
    <text transform="translate(154.83 39.65)" font-size="18" font-family="Biryani-SemiBold, Biryani" font-weight="600">50</text>
  </g>
  <g id="LED_51">
    <g id="BASE-51" data-name="BASE">
      <rect x="186.73" y="0.5" width="44" height="23" fill="#f2d4b6"/>
      <rect x="186.73" y="0.5" width="44" height="23" fill="none" stroke="#000" stroke-miterlimit="10"/>
    </g>
    <g id="LED-51" data-name="LED">
      <circle cx="208.73" cy="12.41" r="8.5"/>
      <circle cx="208.73" cy="12.41" r="8.5" fill="none" stroke="#000" stroke-miterlimit="10"/>
    </g>
    <text transform="translate(198.83 39.65)" font-size="18" font-family="Biryani-SemiBold, Biryani" font-weight="600">51</text>
  </g>
  <g id="LED_52">
    <g id="BASE-52" data-name="BASE">
      <rect x="230.53" y="0.5" width="44" height="23" fill="#f2d4b6"/>
      <rect x="230.53" y="0.5" width="44" height="23" fill="none" stroke="#000" stroke-miterlimit="10"/>
    </g>
    <g id="LED-52" data-name="LED">
      <circle cx="252.53" cy="12.41" r="8.5"/>
      <circle cx="252.53" cy="12.41" r="8.5" fill="none" stroke="#000" stroke-miterlimit="10"/>
    </g>
    <text transform="translate(242.63 39.65)" font-size="18" font-family="Biryani-SemiBold, Biryani" font-weight="600">52</text>
  </g>
  <g id="LED_53">
    <g id="BASE-53" data-name="BASE">
      <rect x="274.6" y="0.5" width="44" height="23" fill="#f2d4b6"/>
      <rect x="274.6" y="0.5" width="44" height="23" fill="none" stroke="#000" stroke-miterlimit="10"/>
    </g>
    <g id="LED-53" data-name="LED">
      <circle cx="296.6" cy="12.41" r="8.5"/>
      <circle cx="296.6" cy="12.41" r="8.5" fill="none" stroke="#000" stroke-miterlimit="10"/>
    </g>
    <text transform="translate(286.7 39.65)" font-size="18" font-family="Biryani-SemiBold, Biryani" font-weight="600">53</text>
  </g>
  <g id="LED_54">
    <g id="BASE-54" data-name="BASE">
      <rect x="318.36" y="0.5" width="44" height="23" fill="#f2d4b6"/>
      <rect x="318.36" y="0.5" width="44" height="23" fill="none" stroke="#000" stroke-miterlimit="10"/>
    </g>
    <g id="LED-54" data-name="LED">
      <circle cx="340.36" cy="12.41" r="8.5"/>
      <circle cx="340.36" cy="12.41" r="8.5" fill="none" stroke="#000" stroke-miterlimit="10"/>
    </g>
    <text transform="translate(330.46 39.65)" font-size="18" font-family="Biryani-SemiBold, Biryani" font-weight="600">54</text>
  </g>
  <g id="LED_55">
    <g id="BASE-55" data-name="BASE">
      <rect x="362.13" y="0.5" width="44" height="23" fill="#f2d4b6"/>
      <rect x="362.13" y="0.5" width="44" height="23" fill="none" stroke="#000" stroke-miterlimit="10"/>
    </g>
    <g id="LED-55" data-name="LED">
      <circle cx="384.13" cy="12.41" r="8.5"/>
      <circle cx="384.13" cy="12.41" r="8.5" fill="none" stroke="#000" stroke-miterlimit="10"/>
    </g>
    <text transform="translate(374.23 39.65)" font-size="18" font-family="Biryani-SemiBold, Biryani" font-weight="600">55</text>
  </g>
  <g id="LED_56">
    <g id="BASE-56" data-name="BASE">
      <rect x="405.53" y="0.5" width="44" height="23" fill="#f2d4b6"/>
      <rect x="405.53" y="0.5" width="44" height="23" fill="none" stroke="#000" stroke-miterlimit="10"/>
    </g>
    <g id="LED-56" data-name="LED">
      <circle cx="427.53" cy="12.41" r="8.5"/>
      <circle cx="427.53" cy="12.41" r="8.5" fill="none" stroke="#000" stroke-miterlimit="10"/>
    </g>
    <text transform="translate(417.63 39.65)" font-size="18" font-family="Biryani-SemiBold, Biryani" font-weight="600">56</text>
  </g>
  <g id="LED_57">
    <g id="BASE-57" data-name="BASE">
      <rect x="449.53" y="0.5" width="44" height="23" fill="#f2d4b6"/>
      <rect x="449.53" y="0.5" width="44" height="23" fill="none" stroke="#000" stroke-miterlimit="10"/>
    </g>
    <g id="LED-57" data-name="LED">
      <circle cx="471.53" cy="12.41" r="8.5"/>
      <circle cx="471.53" cy="12.41" r="8.5" fill="none" stroke="#000" stroke-miterlimit="10"/>
    </g>
    <text transform="translate(461.63 39.65)" font-size="18" font-family="Biryani-SemiBold, Biryani" font-weight="600">57</text>
  </g>
  <g id="LED_58">
    <g id="BASE-58" data-name="BASE">
      <rect x="493.73" y="0.5" width="44" height="23" fill="#f2d4b6"/>
      <rect x="493.73" y="0.5" width="44" height="23" fill="none" stroke="#000" stroke-miterlimit="10"/>
    </g>
    <g id="LED-58" data-name="LED">
      <circle cx="515.73" cy="12.41" r="8.5"/>
      <circle cx="515.73" cy="12.41" r="8.5" fill="none" stroke="#000" stroke-miterlimit="10"/>
    </g>
    <text transform="translate(505.83 39.65)" font-size="18" font-family="Biryani-SemiBold, Biryani" font-weight="600">58</text>
  </g>
  <g id="LED_59">
    <g id="BASE-59" data-name="BASE">
      <rect x="537.64" y="0.5" width="44" height="23" fill="#f2d4b6"/>
      <rect x="537.64" y="0.5" width="44" height="23" fill="none" stroke="#000" stroke-miterlimit="10"/>
    </g>
    <g id="LED-59" data-name="LED">
      <circle cx="559.64" cy="12.41" r="8.5"/>
      <circle cx="559.64" cy="12.41" r="8.5" fill="none" stroke="#000" stroke-miterlimit="10"/>
    </g>
    <text transform="translate(549.74 39.65)" font-size="18" font-family="Biryani-SemiBold, Biryani" font-weight="600">59</text>
  </g>
  <g id="LED_60">
    <g id="BASE-60" data-name="BASE">
      <rect x="581.46" y="0.5" width="44" height="23" fill="#f2d4b6"/>
      <rect x="581.46" y="0.5" width="44" height="23" fill="none" stroke="#000" stroke-miterlimit="10"/>
    </g>
    <g id="LED-60" data-name="LED">
      <circle cx="603.46" cy="12.41" r="8.5"/>
      <circle cx="603.46" cy="12.41" r="8.5" fill="none" stroke="#000" stroke-miterlimit="10"/>
    </g>
    <text transform="translate(593.56 39.65)" font-size="18" font-family="Biryani-SemiBold, Biryani" font-weight="600">60</text>
  </g>
</svg>
