<svg xmlns="http://www.w3.org/2000/svg" width="177" height="395.5" viewBox="0 0 177 395.5">
  <title>ultrasonic-sensor</title>
  <g id="WIRES">
    <line id="PIN_GND" x1="162.56" y1="377.32" x2="162.56" y2="394.5" stroke-width="2" stroke="#000" stroke-linecap="round" stroke-linejoin="round" fill="none"/>
    <line id="PIN_ECHO" x1="114.93" y1="377.32" x2="114.93" y2="394.5" stroke-width="2" stroke="#919080" stroke-linecap="round" stroke-linejoin="round" fill="none"/>
    <line id="PIN_POWER" x1="15.07" y1="377.32" x2="15.07" y2="394.5" stroke-width="2" stroke="#e51313" stroke-linecap="round" stroke-linejoin="round" fill="none"/>
    <line id="PIN_TRIG" x1="58.47" y1="377.32" x2="58.47" y2="394.5" stroke-width="2" stroke="#919080" stroke-linecap="round" stroke-linejoin="round" fill="none"/>
  </g>
  <g id="Sensor">
    <g id="BASE">
      <rect x="2" y="305.17" width="173" height="70.15" fill="#208fd3"/>
      <path d="M183,309.67v66.15H14V309.67H183m4-4H10v74.15H187V305.67Z" transform="translate(-10 -2.5)"/>
    </g>
    <g id="RIGHT_EYE">
      <rect x="11.3" y="276.57" width="34.76" height="27.44" fill="#bbc2c4"/>
      <path d="M54.56,280.57V305H22.8V280.57H54.56m3-3H19.8V308H57.56V277.57Z" transform="translate(-10 -2.5)"/>
    </g>
    <g id="LEFT_EYE">
      <rect x="131.57" y="276.57" width="34.76" height="27.44" fill="#bbc2c4"/>
      <path d="M174.83,280.57V305H143.07V280.57h31.76m3-3H140.07V308h37.76V277.57Z" transform="translate(-10 -2.5)"/>
    </g>
  </g>
  <g id="DISTANCE">
    <text id="DISTANCE_TEXT" transform="translate(66.95 248.51) scale(0.81 1)" font-size="21" font-family="Biryani-SemiBold, Biryani" font-weight="600">1 cm </text>
    <g id="OBJECT">
      <rect x="0.5" y="251.4" width="176" height="12.27" fill="#d61632"/>
      <path d="M186,254.4v11.27H11V254.4H186m1-1H10v13.27H187V253.4Z" transform="translate(-10 -2.5)"/>
    </g>
  </g>
  <g id="WIRE_TEXT">
    <text id="VCC_TEXT" transform="translate(6.83 373.11) scale(0.81 1)" font-size="36" font-family="Biryani-SemiBold, Biryani" font-weight="600">+</text>
    <text id="TRIG_TEXT" transform="translate(40.65 368.11) scale(0.81 1)" font-size="18" font-family="Biryani-SemiBold, Biryani" font-weight="600">TRIG</text>
    <text id="ECHO_TEXT" transform="translate(93.22 368.11) scale(0.81 1)" font-size="18" font-family="Biryani-SemiBold, Biryani" font-weight="600">ECHO</text>
    <text id="GND_TEXT" transform="translate(155.62 373.11) scale(0.81 1)" font-size="36" font-family="Biryani-SemiBold, Biryani" font-weight="600">-</text>
    <rect x="71.5" width="25" height="14" fill="none"/>
  </g>
</svg>
