<svg height='100px' width='100px'  fill="#000000" xmlns:dc="http://purl.org/dc/elements/1.1/" xmlns:cc="http://creativecommons.org/ns#" xmlns:rdf="http://www.w3.org/1999/02/22-rdf-syntax-ns#" xmlns:svg="http://www.w3.org/2000/svg" xmlns="http://www.w3.org/2000/svg" xmlns:sodipodi="http://sodipodi.sourceforge.net/DTD/sodipodi-0.dtd" xmlns:inkscape="http://www.inkscape.org/namespaces/inkscape" version="1.1" x="0px" y="0px" viewBox="0 0 100 100"><g transform="translate(0,-952.36218)"><path style="text-indent:0;text-transform:none;direction:ltr;block-progression:tb;baseline-shift:baseline;color:#000000;enable-background:accumulate;" d="m 48,961.36216 0,10.09375 c -15.5038,0.99329 -27.9442,13.40251 -28.9375,28.90629 l -10.0625,0 0,4 10.0625,0 c 0.9895,15.5074 13.431,27.944 28.9375,28.9375 l 0,10.0625 4,0 0,-10.0625 c 15.5065,-0.9935 27.948,-13.4301 28.9375,-28.9375 l 10.0625,0 0,-4 -10.0625,0 C 79.9442,984.85842 67.5038,972.4492 52,971.45591 l 0,-10.09375 -4,0 z m 0,14.09375 0,9.90625 4,0 0,-9.90625 c 13.3319,0.97153 23.9576,11.57679 24.9375,24.90629 l -9.9375,0 0,4 9.9375,0 c -0.9657,13.344 -11.5953,23.9652 -24.9375,24.9375 l 0,-9.9375 -4,0 0,9.9375 c -13.3422,-0.9723 -23.9718,-11.5935 -24.9375,-24.9375 l 9.9375,0 0,-4 -9.9375,0 C 24.0424,987.0327 34.6681,976.42744 48,975.45591 z" fill="#000000" fill-opacity="1" stroke="none" marker="none" visibility="visible" display="inline" overflow="visible"></path></g></svg>