<svg id="Layer_1" data-name="Layer 1" xmlns="http://www.w3.org/2000/svg" width="161.05" height="146.59" viewBox="0 0 161.05 146.59">
  <line id="PIN_RED" x1="11.9" y1="89.5" x2="11.9" y2="117.55" fill="none" stroke="#f41c1c" stroke-linecap="round" stroke-miterlimit="10" stroke-width="2"/>
  <line id="PIN_GREEN" x1="76.92" y1="89.5" x2="76.92" y2="117.55" fill="none" stroke="#31bc3f" stroke-linecap="round" stroke-miterlimit="10" stroke-width="2"/>
  <line id="PIN_BLUE" x1="124.93" y1="89.5" x2="124.93" y2="117.55" fill="none" stroke="#152e9b" stroke-linecap="round" stroke-miterlimit="10" stroke-width="2"/>
  <line id="PIN_GND" x1="55.37" y1="89.5" x2="55.37" y2="145.59" fill="none" stroke="#ccc" stroke-linecap="round" stroke-miterlimit="10" stroke-width="2"/>
  <path id="COLOR_LED" d="M67.32,1H92.06a51.47,51.47,0,0,1,51.47,51.47V69.79a12.86,12.86,0,0,1-12.86,12.86h-102A12.86,12.86,0,0,1,15.85,69.79V52.47A51.47,51.47,0,0,1,67.32,1Z" fill="#1c1caf" stroke="#000" stroke-miterlimit="10" stroke-width="2"/>
  <path d="M165.94,91.44H9.56v-23H165.94Z" transform="translate(-8.06 -1.94)" fill="#fff" stroke="#000" stroke-miterlimit="10" stroke-width="3"/>
  <text transform="translate(4.39 86.51)" font-size="21" font-family="Biryani-SemiBold, Biryani" font-weight="600">R</text>
  <text id="PIN_RED_TEXT" transform="translate(13.25 110.9)" font-size="18" font-family="Biryani-SemiBold, Biryani" font-weight="600">A15</text>
  <text id="PIN_GREEN_TEXT" transform="translate(80.89 109.9)" font-size="18" font-family="Biryani-SemiBold, Biryani" font-weight="600">A15</text>
  <text id="PIN_BLUE_TEXT" transform="translate(127.68 108.9)" font-size="18" font-family="Biryani-SemiBold, Biryani" font-weight="600">A15</text>
  <text transform="translate(68.85 86.51)" font-size="21" font-family="Biryani-SemiBold, Biryani" font-weight="600">G</text>
  <text transform="translate(118.39 86.51)" font-size="21" font-family="Biryani-SemiBold, Biryani" font-weight="600">B</text>
  <text transform="translate(48 90.8)" font-size="48" font-family="MyriadPro-Regular, Myriad Pro">-</text>
</svg>
