<svg xmlns="http://www.w3.org/2000/svg" width="422.8" height="140.1" viewBox="0 0 422.8 140.1">
  <g id="WIRES">
    <line id="PIN_POWER" x1="256.8" y1="119.1" x2="256.81" y2="139.1" fill="#f7e8e8" stroke="gray" stroke-linecap="round" stroke-linejoin="round" stroke-width="2"/>
    <line id="PIN_GND" x1="233.69" y1="120.06" x2="233.69" y2="139.1" fill="#f7e8e8" stroke="gray" stroke-linecap="round" stroke-linejoin="round" stroke-width="2"/>
    <line id="PIN_SDA" x1="283.73" y1="121.1" x2="283.73" y2="139.1" fill="#f7e8e8" stroke="gray" stroke-linecap="round" stroke-linejoin="round" stroke-width="2"/>
    <line id="PIN_SCL" x1="310.78" y1="120.1" x2="310.78" y2="139.1" fill="#f7e8e8" stroke="gray" stroke-linecap="round" stroke-linejoin="round" stroke-width="2"/>
    <rect x="221.52" y="95.38" width="99.1" height="28.22" fill="#e5d6d6"/>
    <text id="VCC_TEXT" transform="translate(228.59 123.31)" font-size="21" fill="#2d2d2d" font-family="Biryani-SemiBold, Biryani" font-weight="600">-</text>
    <text id="GND_TEXT" transform="translate(263.65 122.23) rotate(-90)" font-size="21" fill="#2d2d2d" font-family="Biryani-SemiBold, Biryani" font-weight="600">+</text>
    <text id="GND_TEXT-2" data-name="GND_TEXT" x="-65.2" y="-5.9"/>    <text id="GND_TEXT-3" data-name="GND_TEXT" x="-65.2" y="-5.9"/>    <text id="PIN_SDA_TEXT" transform="translate(272.73 121.18)" font-size="14" font-family="Biryani-SemiBold, Biryani" font-weight="600">A4</text>
    <text id="PIN_SCL_TEXT" transform="translate(300.74 121.17)" font-size="14" font-family="Biryani-SemiBold, Biryani" font-weight="600">A5</text>
  </g>
  <g id="col-16">
    <g id="space-16-1">
      <rect x="401.61" y="25.6" width="20.69" height="31.83" fill="#fff"/>
      <path d="M487,32V62.83H467.31V32H487m1-1H466.31V63.83H488V31Z" transform="translate(-65.2 -5.9)"/>
    </g>
    <text id="letter-16-1" transform="translate(409.24 51.04) scale(0.56 1)" font-size="24" font-family="Helvetica">W</text>
    <g id="space-16-2">
      <rect x="401.61" y="57.77" width="20.69" height="31.83" fill="#fff"/>
      <path d="M487,64.17V95H467.31V64.17H487m1-1H466.31V96H488V63.17Z" transform="translate(-65.2 -5.9)"/>
    </g>
    <text id="letter-16-2" transform="translate(408.24 83.37) scale(0.56 1)" font-size="24" font-family="Helvetica">W</text>
  </g>
  <g id="col-15">
    <g id="space-15-1">
      <rect x="380.35" y="25.6" width="20.69" height="31.83" fill="#fff"/>
      <path d="M465.74,32V62.83H446.05V32h19.69m1-1H445.05V63.83h21.69V31Z" transform="translate(-65.2 -5.9)"/>
    </g>
    <text id="letter-15-1" transform="translate(386.98 51.04) scale(0.56 1)" font-size="24" font-family="Helvetica">W</text>
    <g id="space-15-2">
      <rect x="380.35" y="57.77" width="20.69" height="31.83" fill="#fff"/>
      <path d="M465.74,64.17V95H446.05V64.17h19.69m1-1H445.05V96h21.69V63.17Z" transform="translate(-65.2 -5.9)"/>
    </g>
    <text id="letter-15-2" transform="translate(383.98 83.37) scale(0.56 1)" font-size="24" font-family="Helvetica">W</text>
  </g>
  <g id="col-14">
    <g id="space-14-1">
      <rect x="359.08" y="25.6" width="20.69" height="31.83" fill="#fff"/>
      <path d="M444.47,32V62.83H424.79V32h19.68m1-1H423.79V63.83h21.68V31Z" transform="translate(-65.2 -5.9)"/>
    </g>
    <text id="letter-14-1" transform="translate(364.71 51.04) scale(0.56 1)" font-size="24" font-family="Helvetica">W</text>
    <g id="space-14-2">
      <rect x="359.08" y="57.77" width="20.69" height="31.83" fill="#fff"/>
      <path d="M444.47,64.17V95H424.79V64.17h19.68m1-1H423.79V96h21.68V63.17Z" transform="translate(-65.2 -5.9)"/>
    </g>
    <text id="letter-14-2" transform="translate(363.71 83.37) scale(0.56 1)" font-size="24" font-family="Helvetica">W</text>
  </g>
  <g id="col-13">
    <g id="space-13-1">
      <rect x="337.75" y="25.6" width="20.69" height="31.83" fill="#fff"/>
      <path d="M423.14,32V62.83H403.45V32h19.69m1-1H402.45V63.83h21.69V31Z" transform="translate(-65.2 -5.9)"/>
    </g>
    <text id="letter-13-1" transform="translate(344.44 51.04) scale(0.56 1)" font-size="24" font-family="Helvetica">W</text>
    <g id="space-13-2">
      <rect x="337.75" y="57.6" width="20.69" height="32" fill="#fff"/>
      <path d="M423.14,64V95H403.45V64h19.69m1-1H402.45V96h21.69V63Z" transform="translate(-65.2 -5.9)"/>
    </g>
    <text id="letter-13-2" transform="translate(344.44 83.37) scale(0.56 1)" font-size="24" font-family="Helvetica">W</text>
  </g>
  <g id="col-12">
    <g id="space-12-1">
      <rect x="316.53" y="25.6" width="20.69" height="31.83" fill="#fff"/>
      <path d="M401.92,32V62.83H382.23V32h19.69m1-1H381.23V63.83h21.69V31Z" transform="translate(-65.2 -5.9)"/>
    </g>
    <text id="letter-12-1" transform="translate(322.11 51.04) scale(0.56 1)" font-size="24" font-family="Helvetica">W</text>
    <g id="space-12-2">
      <rect x="316.53" y="57.77" width="20.69" height="31.83" fill="#fff"/>
      <path d="M401.92,64.17V95H382.23V64.17h19.69m1-1H381.23V96h21.69V63.17Z" transform="translate(-65.2 -5.9)"/>
    </g>
    <text id="letter-12-2" transform="translate(322.11 83.37) scale(0.56 1)" font-size="24" font-family="Helvetica">W</text>
  </g>
  <g id="col-11">
    <g id="space-11-1">
      <rect x="295.2" y="25.6" width="20.69" height="31.83" fill="#fff"/>
      <path d="M380.59,32V62.83H360.9V32h19.69m1-1H359.9V63.83h21.69V31Z" transform="translate(-65.2 -5.9)"/>
    </g>
    <text id="letter-11-1" transform="translate(300.68 51.04) scale(0.56 1)" font-size="24" font-family="Helvetica">W</text>
    <g id="space-11-2">
      <rect x="295.2" y="57.77" width="20.69" height="31.83" fill="#fff"/>
      <path d="M380.59,64.17V95H360.9V64.17h19.69m1-1H359.9V96h21.69V63.17Z" transform="translate(-65.2 -5.9)"/>
    </g>
    <text id="letter-11-2" transform="translate(302.68 83.37) scale(0.56 1)" font-size="24" font-family="Helvetica">W</text>
  </g>
  <g id="col-10">
    <g id="space-10-1">
      <rect x="273.94" y="25.6" width="20.69" height="31.65" fill="#fff"/>
      <path d="M359.33,32V62.65H339.64V32h19.69m1-1H338.64V63.65h21.69V31Z" transform="translate(-65.2 -5.9)"/>
    </g>
    <text id="letter-10-1" transform="translate(280.42 51.04) scale(0.56 1)" font-size="24" font-family="Helvetica">W</text>
    <g id="space-10-2">
      <rect x="273.94" y="57.77" width="20.69" height="31.83" fill="#fff"/>
      <path d="M359.33,64.17V95H339.64V64.17h19.69m1-1H338.64V96h21.69V63.17Z" transform="translate(-65.2 -5.9)"/>
    </g>
    <text id="letter-10-2" transform="translate(280.42 83.37) scale(0.56 1)" font-size="24" font-family="Helvetica">W</text>
  </g>
  <g id="col-9">
    <g id="space-9-1">
      <rect x="253.03" y="25.6" width="20.69" height="31.83" fill="#fff"/>
      <path d="M338.42,32V62.83H318.73V32h19.69m1-1H317.73V63.83h21.69V31Z" transform="translate(-65.2 -5.9)"/>
    </g>
    <text id="letter-9-1" transform="translate(259.02 51.04) scale(0.56 1)" font-size="24" font-family="Helvetica">W</text>
    <g id="space-9-2">
      <rect x="253.03" y="57.77" width="20.69" height="31.83" fill="#fff"/>
      <path d="M338.42,64.17V95H318.73V64.17h19.69m1-1H317.73V96h21.69V63.17Z" transform="translate(-65.2 -5.9)"/>
    </g>
    <text id="letter-9-2" transform="translate(259.02 83.37) scale(0.56 1)" font-size="24" font-family="Helvetica">W</text>
  </g>
  <g id="col-8">
    <g id="space-8-1">
      <rect x="231.77" y="25.6" width="20.69" height="31.83" fill="#fff"/>
      <path d="M317.16,32V62.83H297.47V32h19.69m1-1H296.47V63.83h21.69V31Z" transform="translate(-65.2 -5.9)"/>
    </g>
    <text id="letter-8-1" transform="translate(238.76 51.04) scale(0.56 1)" font-size="24" font-family="Helvetica">W</text>
    <g id="space-8-2">
      <rect x="231.77" y="57.77" width="20.69" height="31.83" fill="#fff"/>
      <path d="M317.16,64.17V95H297.47V64.17h19.69m1-1H296.47V96h21.69V63.17Z" transform="translate(-65.2 -5.9)"/>
    </g>
    <text id="letter-8-2" transform="translate(238.76 83.37) scale(0.56 1)" font-size="24" font-family="Helvetica">W</text>
  </g>
  <g id="col-7">
    <g id="space-7-1">
      <rect x="210.51" y="25.6" width="20.69" height="31.83" fill="#fff"/>
      <path d="M295.9,32V62.83H276.21V32H295.9m1-1H275.21V63.83H296.9V31Z" transform="translate(-65.2 -5.9)"/>
    </g>
    <text id="letter-7-1" transform="translate(217.5 51.04) scale(0.56 1)" font-size="24" font-family="Helvetica">W</text>
    <g id="space-7-2">
      <rect x="210.51" y="57.77" width="20.69" height="31.83" fill="#fff"/>
      <path d="M295.9,64.17V95H276.21V64.17H295.9m1-1H275.21V96H296.9V63.17Z" transform="translate(-65.2 -5.9)"/>
    </g>
    <text id="letter-7-2" transform="translate(217.5 83.37) scale(0.56 1)" font-size="24" font-family="Helvetica">W</text>
  </g>
  <g id="col-6">
    <g id="space-6-1">
      <rect x="189.25" y="25.6" width="20.69" height="31.83" fill="#fff"/>
      <path d="M274.64,32V62.83H255V32h19.69m1-1H254V63.83h21.69V31Z" transform="translate(-65.2 -5.9)"/>
    </g>
    <text id="letter-6-1" transform="translate(194.24 51.04) scale(0.56 1)" font-size="24" font-family="Helvetica">W</text>
    <g id="space-6-2">
      <rect x="189.25" y="57.77" width="20.69" height="31.83" fill="#fff"/>
      <path d="M274.64,64.17V95H255V64.17h19.69m1-1H254V96h21.69V63.17Z" transform="translate(-65.2 -5.9)"/>
    </g>
    <text id="letter-6-2" transform="translate(195.24 83.37) scale(0.56 1)" font-size="24" font-family="Helvetica">W</text>
  </g>
  <g id="col-5">
    <g id="space-5-1">
      <rect x="167.99" y="25.6" width="20.69" height="31.83" fill="#fff"/>
      <path d="M253.38,32V62.83H233.69V32h19.69m1-1H232.69V63.83h21.69V31Z" transform="translate(-65.2 -5.9)"/>
    </g>
    <text id="letter-5-1" transform="translate(174.98 51.04) scale(0.56 1)" font-size="24" font-family="Helvetica">W</text>
    <g id="space-5-2">
      <rect x="167.99" y="57.77" width="20.69" height="31.83" fill="#fff"/>
      <path d="M253.38,64.17V95H233.69V64.17h19.69m1-1H232.69V96h21.69V63.17Z" transform="translate(-65.2 -5.9)"/>
    </g>
    <text id="letter-5-2" transform="translate(174.98 83.37) scale(0.56 1)" font-size="24" font-family="Helvetica">W</text>
  </g>
  <g id="col-4">
    <g id="space-4-1">
      <rect x="146.85" y="25.6" width="20.69" height="31.83" fill="#fff"/>
      <path d="M232.24,32V62.83H212.55V32h19.69m1-1H211.55V63.83h21.69V31Z" transform="translate(-65.2 -5.9)"/>
    </g>
    <text id="letter-4-1" transform="translate(153.58 51.04) scale(0.56 1)" font-size="24" font-family="Helvetica">W</text>
    <g id="space-4-2">
      <rect x="146.85" y="57.77" width="20.69" height="31.83" fill="#fff"/>
      <path d="M232.24,64.17V95H212.55V64.17h19.69m1-1H211.55V96h21.69V63.17Z" transform="translate(-65.2 -5.9)"/>
    </g>
    <text id="letter-4-2" transform="translate(153.58 83.37) scale(0.56 1)" font-size="24" font-family="Helvetica">W</text>
  </g>
  <g id="col-3">
    <g id="space-3-1">
      <rect x="125.59" y="25.6" width="20.69" height="31.83" fill="#fff"/>
      <path d="M211,32V62.83H191.29V32H211m1-1H190.29V63.83H212V31Z" transform="translate(-65.2 -5.9)"/>
    </g>
    <text id="letter-3-1" transform="translate(132.32 51.04) scale(0.56 1)" font-size="24" font-family="Helvetica">W</text>
    <g id="space-3-2">
      <rect x="125.59" y="57.77" width="20.69" height="31.83" fill="#fff"/>
      <path d="M211,64.17V95H191.29V64.17H211m1-1H190.29V96H212V63.17Z" transform="translate(-65.2 -5.9)"/>
    </g>
    <text id="letter-3-2" transform="translate(133.32 83.37) scale(0.56 1)" font-size="24" font-family="Helvetica">W</text>
  </g>
  <g id="col-2">
    <g id="space-2-1">
      <rect x="104.56" y="25.6" width="20.69" height="31.83" fill="#fff"/>
      <path d="M190,32V62.83H170.26V32H190m1-1H169.26V63.83H191V31Z" transform="translate(-65.2 -5.9)"/>
    </g>
    <text id="letter-2-1" transform="matrix(0.56, 0.02, -0.01, 1, 111.18, 50.78)" font-size="24" font-family="Helvetica">W</text>
    <g id="space-2-2">
      <rect x="104.56" y="57.77" width="20.69" height="31.83" fill="#fff"/>
      <path d="M190,64.17V95H170.26V64.17H190m1-1H169.26V96H191V63.17Z" transform="translate(-65.2 -5.9)"/>
    </g>
    <text id="letter-2-2" transform="matrix(0.56, 0.02, -0.01, 1, 112.07, 83.11)" font-size="24" font-family="Helvetica">W</text>
  </g>
  <g id="col-1">
    <g id="space-1-1">
      <rect x="83.3" y="25.6" width="20.69" height="31.83" fill="#fff"/>
      <path d="M168.69,32V62.83H149V32h19.69m1-1H148V63.83h21.69V31Z" transform="translate(-65.2 -5.9)"/>
    </g>
    <text id="letter-1-1" transform="translate(89.48 51.04) scale(0.56 1)" font-size="24" font-family="Helvetica">W</text>
    <g id="space-1-2">
      <rect x="83.3" y="57.77" width="20.69" height="31.83" fill="#fff"/>
      <path d="M168.69,64.17V95H149V64.17h19.69m1-1H148V96h21.69V63.17Z" transform="translate(-65.2 -5.9)"/>
    </g>
    <text id="letter-1-2" transform="translate(89.48 83.37) scale(0.56 1)" font-size="24" font-family="Helvetica">W</text>
    <text transform="translate(169.4 17.58)" font-size="20" font-family="Biryani-Bold, Biryani" font-weight="700">16 x 2 LCD SCREEN</text>
  </g>
</svg>
