<svg xmlns="http://www.w3.org/2000/svg" width="250.18" height="281.27" viewBox="0 0 250.18 281.27">
  <g id="Base">
    <rect id="PIN_CLK" x="39.29" y="253.36" width="3.03" height="27.76" rx="1.51" fill="#b3b3b3"/>
    <rect id="PIN_CS" x="79.92" y="253.36" width="3.03" height="27.76" rx="1.51" fill="#b3b3b3"/>
    <rect id="PIN_DATA" x="123.6" y="253.36" width="3.03" height="27.76" rx="1.51" fill="#b3b3b3"/>
    <rect id="PIN_GND" x="167.15" y="253.36" width="3.03" height="27.76" rx="1.51" fill="#b3b3b3"/>
    <rect id="PIN_POWER" x="210.96" y="253.36" width="3.03" height="27.76" rx="1.51" fill="#b3b3b3"/>
    <rect x="16.88" y="226.88" width="233.3" height="29.5" fill="#b59191"/>
    <text transform="translate(203.56 250.92)" font-size="30.98" font-family="Biryani-Regular, Biryani">+</text>
    <text transform="translate(161.63 250.06)" font-size="30.98" font-family="Biryani-Regular, Biryani">-</text>
    <text transform="translate(70.55 250.06)" font-size="15.49" font-family="Biryani-Regular, Biryani">CS</text>
    <text transform="translate(107.6 250.06)" font-size="15.49" font-family="Biryani-Regular, Biryani">Data</text>
    <text transform="translate(25.46 250.06)" font-size="15.49" font-family="Biryani-Regular, Biryani">CLK</text>
    <text id="PIN_DATA_TEXT" transform="translate(128.61 272.1)" font-size="15.49" font-family="Biryani-Regular, Biryani">12</text>
    <text id="PIN_CS_TEXT" transform="translate(85.29 272.1)" font-size="15.49" font-family="Biryani-Regular, Biryani">10</text>
    <text id="PIN_CLK_TEXT" transform="translate(45.18 272.1)" font-size="15.49" font-family="Biryani-Regular, Biryani">11</text>
  </g>
  <g id="_8-8" data-name="8-8">
    <rect x="200.24" y="202.75" width="23.73" height="23.73"/>
    <circle cx="212.1" cy="214.62" r="8.31" fill="#fff"/>
  </g>
  <g id="_8-7" data-name="8-7">
    <rect x="176.51" y="202.75" width="23.73" height="23.73"/>
    <circle cx="188.37" cy="214.62" r="8.31" fill="#fff"/>
  </g>
  <g id="_8-6" data-name="8-6">
    <rect x="152.78" y="202.75" width="23.73" height="23.73"/>
    <circle cx="164.64" cy="214.62" r="8.31" fill="#fff"/>
  </g>
  <g id="_8-5" data-name="8-5">
    <rect x="129.05" y="202.75" width="23.73" height="23.73"/>
    <circle cx="140.91" cy="214.62" r="8.31" fill="#fff"/>
  </g>
  <g id="_8-4" data-name="8-4">
    <rect x="105.33" y="202.75" width="23.73" height="23.73"/>
    <circle cx="117.19" cy="214.62" r="8.31" fill="#fff"/>
  </g>
  <g id="_8-3" data-name="8-3">
    <rect x="81.6" y="202.75" width="23.73" height="23.73"/>
    <circle cx="93.46" cy="214.62" r="8.31" fill="#fff"/>
  </g>
  <g id="_8-2" data-name="8-2">
    <rect x="57.87" y="202.75" width="23.73" height="23.73"/>
    <circle cx="69.73" cy="214.62" r="8.31" fill="#fff"/>
  </g>
  <g id="_8-1" data-name="8-1">
    <rect x="34.14" y="202.75" width="23.73" height="23.73"/>
    <circle cx="46" cy="214.62" r="8.31" fill="#fff"/>
  </g>
  <g id="_7-8" data-name="7-8">
    <rect x="200.24" y="179.02" width="23.73" height="23.73"/>
    <circle cx="212.1" cy="190.89" r="8.31" fill="#fff"/>
  </g>
  <g id="_7-7" data-name="7-7">
    <rect x="176.51" y="179.02" width="23.73" height="23.73"/>
    <circle cx="188.37" cy="190.89" r="8.31" fill="#fff"/>
  </g>
  <g id="_7-6" data-name="7-6">
    <rect x="152.78" y="179.02" width="23.73" height="23.73"/>
    <circle cx="164.64" cy="190.89" r="8.31" fill="#fff"/>
  </g>
  <g id="_7-5" data-name="7-5">
    <rect x="129.05" y="179.02" width="23.73" height="23.73"/>
    <circle cx="140.91" cy="190.89" r="8.31" fill="#fff"/>
  </g>
  <g id="_7-4" data-name="7-4">
    <rect x="105.33" y="179.02" width="23.73" height="23.73"/>
    <circle cx="117.19" cy="190.89" r="8.31" fill="#fff"/>
  </g>
  <g id="_7-3" data-name="7-3">
    <rect x="81.6" y="179.02" width="23.73" height="23.73"/>
    <circle cx="93.46" cy="190.89" r="8.31" fill="#fff"/>
  </g>
  <g id="_7-2" data-name="7-2">
    <rect x="57.87" y="179.02" width="23.73" height="23.73"/>
    <circle cx="69.73" cy="190.89" r="8.31" fill="#fff"/>
  </g>
  <g id="_7-1" data-name="7-1">
    <rect x="34.14" y="179.02" width="23.73" height="23.73"/>
    <circle cx="46" cy="190.89" r="8.31" fill="#fff"/>
  </g>
  <g id="_6-8" data-name="6-8">
    <rect x="200.24" y="155.29" width="23.73" height="23.73"/>
    <circle cx="212.1" cy="167.16" r="8.31" fill="#fff"/>
  </g>
  <g id="_6-7" data-name="6-7">
    <rect x="176.51" y="155.29" width="23.73" height="23.73"/>
    <circle cx="188.37" cy="167.16" r="8.31" fill="#fff"/>
  </g>
  <g id="_6-6" data-name="6-6">
    <rect x="152.78" y="155.29" width="23.73" height="23.73"/>
    <circle cx="164.64" cy="167.16" r="8.31" fill="#fff"/>
  </g>
  <g id="_6-5" data-name="6-5">
    <rect x="129.05" y="155.29" width="23.73" height="23.73"/>
    <circle cx="140.91" cy="167.16" r="8.31" fill="#fff"/>
  </g>
  <g id="_6-4" data-name="6-4">
    <rect x="105.33" y="155.29" width="23.73" height="23.73"/>
    <circle cx="117.19" cy="167.16" r="8.31" fill="#fff"/>
  </g>
  <g id="_6-3" data-name="6-3">
    <rect x="81.6" y="155.29" width="23.73" height="23.73"/>
    <circle cx="93.46" cy="167.16" r="8.31" fill="#fff"/>
  </g>
  <g id="_6-2" data-name="6-2">
    <rect x="57.87" y="155.29" width="23.73" height="23.73"/>
    <circle cx="69.73" cy="167.16" r="8.31" fill="#fff"/>
  </g>
  <g id="_6-1" data-name="6-1">
    <rect x="34.14" y="155.29" width="23.73" height="23.73"/>
    <circle cx="46" cy="167.16" r="8.31" fill="#fff"/>
  </g>
  <g id="_5-8" data-name="5-8">
    <rect x="200.24" y="131.56" width="23.73" height="23.73"/>
    <circle cx="212.1" cy="143.43" r="8.31" fill="#fff"/>
  </g>
  <g id="_5-7" data-name="5-7">
    <rect x="176.51" y="131.56" width="23.73" height="23.73"/>
    <circle cx="188.37" cy="143.43" r="8.31" fill="#fff"/>
  </g>
  <g id="_5-6" data-name="5-6">
    <rect x="152.78" y="131.56" width="23.73" height="23.73"/>
    <circle cx="164.64" cy="143.43" r="8.31" fill="#fff"/>
  </g>
  <g id="_5-5" data-name="5-5">
    <rect x="129.05" y="131.56" width="23.73" height="23.73"/>
    <circle cx="140.91" cy="143.43" r="8.31" fill="#fff"/>
  </g>
  <g id="_5-4" data-name="5-4">
    <rect x="105.33" y="131.56" width="23.73" height="23.73"/>
    <circle cx="117.19" cy="143.43" r="8.31" fill="#fff"/>
  </g>
  <g id="_5-3" data-name="5-3">
    <rect x="81.6" y="131.56" width="23.73" height="23.73"/>
    <circle cx="93.46" cy="143.43" r="8.31" fill="#fff"/>
  </g>
  <g id="_5-2" data-name="5-2">
    <rect x="57.87" y="131.56" width="23.73" height="23.73"/>
    <circle cx="69.73" cy="143.43" r="8.31" fill="#fff"/>
  </g>
  <g id="_5-1" data-name="5-1">
    <rect x="34.14" y="131.56" width="23.73" height="23.73"/>
    <circle cx="46" cy="143.43" r="8.31" fill="#fff"/>
  </g>
  <g id="_4-8" data-name="4-8">
    <rect x="200.24" y="107.83" width="23.73" height="23.73"/>
    <circle cx="212.1" cy="119.7" r="8.31" fill="#fff"/>
  </g>
  <g id="_4-7" data-name="4-7">
    <rect x="176.51" y="107.83" width="23.73" height="23.73"/>
    <circle cx="188.37" cy="119.7" r="8.31" fill="#fff"/>
  </g>
  <g id="_4-6" data-name="4-6">
    <rect x="152.78" y="107.83" width="23.73" height="23.73"/>
    <circle cx="164.64" cy="119.7" r="8.31" fill="#fff"/>
  </g>
  <g id="_4-5" data-name="4-5">
    <rect x="129.05" y="107.83" width="23.73" height="23.73"/>
    <circle cx="140.91" cy="119.7" r="8.31" fill="#fff"/>
  </g>
  <g id="_4-4" data-name="4-4">
    <rect x="105.33" y="107.83" width="23.73" height="23.73"/>
    <circle cx="117.19" cy="119.7" r="8.31" fill="#fff"/>
  </g>
  <g id="_4-3" data-name="4-3">
    <rect x="81.6" y="107.83" width="23.73" height="23.73"/>
    <circle cx="93.46" cy="119.7" r="8.31" fill="#fff"/>
  </g>
  <g id="_4-2" data-name="4-2">
    <rect x="57.87" y="107.83" width="23.73" height="23.73"/>
    <circle cx="69.73" cy="119.7" r="8.31" fill="#fff"/>
  </g>
  <g id="_4-1" data-name="4-1">
    <rect x="34.14" y="107.83" width="23.73" height="23.73"/>
    <circle cx="46" cy="119.7" r="8.31" fill="#fff"/>
  </g>
  <g id="_3-8" data-name="3-8">
    <rect x="200.24" y="84.11" width="23.73" height="23.73"/>
    <circle cx="212.1" cy="95.97" r="8.31" fill="#fff"/>
  </g>
  <g id="_3-7" data-name="3-7">
    <rect x="176.51" y="84.11" width="23.73" height="23.73"/>
    <circle cx="188.37" cy="95.97" r="8.31" fill="#fff"/>
  </g>
  <g id="_3-6" data-name="3-6">
    <rect x="152.78" y="84.11" width="23.73" height="23.73"/>
    <circle cx="164.64" cy="95.97" r="8.31" fill="#fff"/>
  </g>
  <g id="_3-5" data-name="3-5">
    <rect x="129.05" y="84.11" width="23.73" height="23.73"/>
    <circle cx="140.91" cy="95.97" r="8.31" fill="#fff"/>
  </g>
  <g id="_3-4" data-name="3-4">
    <rect x="105.33" y="84.11" width="23.73" height="23.73"/>
    <circle cx="117.19" cy="95.97" r="8.31" fill="#fff"/>
  </g>
  <g id="_3-3" data-name="3-3">
    <rect x="81.6" y="84.11" width="23.73" height="23.73"/>
    <circle cx="93.46" cy="95.97" r="8.31" fill="#fff"/>
  </g>
  <g id="_3-2" data-name="3-2">
    <rect x="57.87" y="84.11" width="23.73" height="23.73"/>
    <circle cx="69.73" cy="95.97" r="8.31" fill="#fff"/>
  </g>
  <g id="_3-1" data-name="3-1">
    <rect x="34.14" y="84.11" width="23.73" height="23.73"/>
    <circle cx="46" cy="95.97" r="8.31" fill="#fff"/>
  </g>
  <g id="_2-8" data-name="2-8">
    <rect x="200.24" y="60.4" width="23.73" height="23.73"/>
    <circle cx="212.1" cy="72.26" r="8.31" fill="#fff"/>
  </g>
  <g id="_2-7" data-name="2-7">
    <rect x="176.51" y="60.4" width="23.73" height="23.73"/>
    <circle cx="188.37" cy="72.26" r="8.31" fill="#fff"/>
  </g>
  <g id="_2-6" data-name="2-6">
    <rect x="152.78" y="60.4" width="23.73" height="23.73"/>
    <circle cx="164.64" cy="72.26" r="8.31" fill="#fff"/>
  </g>
  <g id="_2-5" data-name="2-5">
    <rect x="129.05" y="60.4" width="23.73" height="23.73"/>
    <circle cx="140.91" cy="72.26" r="8.31" fill="#fff"/>
  </g>
  <g id="_2-4" data-name="2-4">
    <rect x="105.33" y="60.4" width="23.73" height="23.73"/>
    <circle cx="117.19" cy="72.26" r="8.31" fill="#fff"/>
  </g>
  <g id="_2-3" data-name="2-3">
    <rect x="81.6" y="60.4" width="23.73" height="23.73"/>
    <circle cx="93.46" cy="72.26" r="8.31" fill="#fff"/>
  </g>
  <g id="_2-2" data-name="2-2">
    <rect x="57.87" y="60.4" width="23.73" height="23.73"/>
    <circle cx="69.73" cy="72.26" r="8.31" fill="#fff"/>
  </g>
  <g id="_2-1" data-name="2-1">
    <rect x="34.14" y="60.4" width="23.73" height="23.73"/>
    <circle cx="46" cy="72.26" r="8.31" fill="#fff"/>
  </g>
  <g id="_1-8" data-name="1-8">
    <rect x="200.24" y="36.77" width="23.73" height="23.73"/>
    <circle cx="212.1" cy="48.63" r="8.31" fill="#fff"/>
  </g>
  <g id="_1-7" data-name="1-7">
    <rect x="176.51" y="36.77" width="23.73" height="23.73"/>
    <circle cx="188.37" cy="48.63" r="8.31" fill="#fff"/>
  </g>
  <g id="_1-6" data-name="1-6">
    <rect x="152.78" y="36.77" width="23.73" height="23.73"/>
    <circle cx="164.64" cy="48.63" r="8.31" fill="#fff"/>
  </g>
  <g id="_1-5" data-name="1-5">
    <rect x="129.05" y="36.77" width="23.73" height="23.73"/>
    <circle cx="140.91" cy="48.63" r="8.31" fill="#fff"/>
  </g>
  <g id="_1-4" data-name="1-4">
    <rect x="105.33" y="36.77" width="23.73" height="23.73"/>
    <circle cx="117.19" cy="48.63" r="8.31" fill="#fff"/>
  </g>
  <g id="_1-3" data-name="1-3">
    <rect x="81.6" y="36.77" width="23.73" height="23.73"/>
    <circle cx="93.46" cy="48.63" r="8.31" fill="#fff"/>
  </g>
  <g id="_1-2" data-name="1-2">
    <rect x="57.87" y="36.77" width="23.73" height="23.73"/>
    <circle cx="69.73" cy="48.63" r="8.31" fill="#fff"/>
  </g>
  <g id="_1-1" data-name="1-1">
    <rect x="34.14" y="36.77" width="23.73" height="23.73"/>
    <circle cx="46" cy="48.63" r="8.31" fill="#fff"/>
  </g>
  <g id="NUMBERS">
    <text transform="translate(23.57 54.26)" font-size="15.73" font-family="Biryani-SemiBold, Biryani" font-weight="600">1</text>
    <text transform="translate(41.68 31.43)" font-size="15.73" font-family="Biryani-SemiBold, Biryani" font-weight="600">1</text>
    <text transform="translate(65.41 31.43)" font-size="15.73" font-family="Biryani-SemiBold, Biryani" font-weight="600">2</text>
    <text transform="translate(89.14 31.43)" font-size="15.73" font-family="Biryani-SemiBold, Biryani" font-weight="600">3</text>
    <text transform="translate(112.87 31.43)" font-size="15.73" font-family="Biryani-SemiBold, Biryani" font-weight="600">4</text>
    <text transform="translate(136.87 31.42) scale(0.93 1)" font-size="15.73" font-family="Biryani-SemiBold, Biryani" font-weight="600">5</text>
    <text transform="translate(160.6 31.42) scale(0.93 1)" font-size="15.73" font-family="Biryani-SemiBold, Biryani" font-weight="600">6</text>
    <text transform="translate(184.33 31.42) scale(0.93 1)" font-size="15.73" font-family="Biryani-SemiBold, Biryani" font-weight="600">7</text>
    <text transform="translate(208.06 31.42) scale(0.93 1)" font-size="15.73" font-family="Biryani-SemiBold, Biryani" font-weight="600">8</text>
    <text transform="translate(23.57 78.76)" font-size="15.73" font-family="Biryani-SemiBold, Biryani" font-weight="600">2</text>
    <text transform="translate(23.57 102.81)" font-size="15.73" font-family="Biryani-SemiBold, Biryani" font-weight="600">3</text>
    <text transform="translate(23.57 126.54)" font-size="15.73" font-family="Biryani-SemiBold, Biryani" font-weight="600">4</text>
    <text transform="translate(23.57 149.39)" font-size="15.73" font-family="Biryani-SemiBold, Biryani" font-weight="600">5</text>
    <text transform="translate(23.95 173.12) scale(0.93 1)" font-size="15.73" font-family="Biryani-SemiBold, Biryani" font-weight="600">6</text>
    <text transform="translate(23.95 196.85) scale(0.93 1)" font-size="15.73" font-family="Biryani-SemiBold, Biryani" font-weight="600">7</text>
    <text transform="translate(23.95 220.58) scale(0.93 1)" font-size="15.73" font-family="Biryani-SemiBold, Biryani" font-weight="600">8</text>
    <text transform="translate(87.39 13.82)" font-size="15.73" font-family="Biryani-SemiBold, Biryani" font-weight="600">COLUMNS</text>
    <text transform="translate(13.82 152.88) rotate(-90)" font-size="15.73" font-family="Biryani-SemiBold, Biryani" font-weight="600">ROWS</text>
  </g>
</svg>
