<svg xmlns="http://www.w3.org/2000/svg" width="341.34" height="174.26" viewBox="0 0 341.34 174.26">
  <title>servo</title>
  <g id="Layer_3" data-name="Layer 3">
    <rect id="DATA_BOX" data-name="DATA BOX" x="74.95" y="145.19" width="6.63" height="20.54" fill="orange" stroke="#000" stroke-miterlimit="10"/>
    <rect id="_5V_BOX" x="58.38" y="145.19" width="6.63" height="20.54" fill="#ff422a" stroke="#000" stroke-miterlimit="10" stroke-width="0.25"/>
    <polygon id="GND_BOX" data-name="GND BOX" points="41.82 145.19 41.82 165.73 45.13 165.73 48.44 165.73 48.44 145.19 41.82 145.19" fill="#9e6b18" stroke="#020202" stroke-miterlimit="10" stroke-width="0.25"/>
  </g>
  <g id="base">
    <g>
      <rect x="35.52" y="42.54" width="52.35" height="103.74" fill="#2a90ff"/>
      <path d="M90,47.06V150.32H38.27V47.06H90m.66-.48h-53V150.8h53Z" transform="translate(-2.41 -4.28)"/>
    </g>
  </g>
  <g id="Angle_Text" data-name="Angle Text">
    <text id="servo_pin" transform="translate(41.82 138.36)" font-size="34.62" font-family="Biryani-ExtraLight, Biryani" font-weight="200">12</text>
    <text id="degrees" transform="translate(30.34 30.43)" font-size="34.62" font-family="Biryani-ExtraLight, Biryani" font-weight="200">180°</text>
  </g>
  <g id="HELPER_TEXT">
    <rect id="SMALL_BOX" x="26.56" y="142.93" width="72.98" height="29.83" fill="none" stroke="#c9bfb5" stroke-miterlimit="10" stroke-width="3"/>
    <line id="CONNECTION" x1="99.54" y1="155.52" x2="162.17" y2="112.2" fill="none" stroke="#c9bfb5" stroke-miterlimit="10" stroke-width="3"/>
    <text transform="translate(276.87 96.72)" font-size="24" font-family="Biryani-SemiBold, Biryani" font-weight="600">Data</text>
    <text transform="translate(228.12 96.72)" font-size="24" font-family="Biryani-SemiBold, Biryani" font-weight="600">(+)</text>
    <text transform="translate(171.12 96.72)" font-size="24" font-family="Biryani-SemiBold, Biryani" font-weight="600">(-)</text>
    <text id="CLOSE" transform="translate(330.22 62.48)" font-size="14" fill="#c9bfb5" font-family="Biryani-ExtraBold, Biryani" font-weight="800">X</text>
    <rect id="LARGE_BOX" x="162.17" y="66.55" width="177.24" height="91.3" fill="none" stroke="#c9bfb5" stroke-miterlimit="10" stroke-width="3"/>
    <rect id="HELPER_PIN_DATA" x="298.33" y="106.82" width="12.29" height="42.82" fill="orange" stroke="#000" stroke-miterlimit="10" stroke-width="0.25"/>
    <rect id="HELPER_PIN_VCC" x="237.12" y="105.82" width="12.29" height="42.82" fill="#ff422a" stroke="#000" stroke-miterlimit="10" stroke-width="0.25"/>
    <polygon id="HELPER_PIN_GND" points="178.97 105.82 178.97 148.63 185.11 148.63 191.26 148.63 191.26 105.82 178.97 105.82" fill="#9e6b18" stroke="#000" stroke-miterlimit="10" stroke-width="0.25"/>
  </g>
  <g id="spinning_part" data-name="spinning part">
    <rect id="black_fill" data-name="black fill" x="56.72" y="85.69" width="14.33" height="17.02" stroke="#000" stroke-miterlimit="10"/>
    <path id="moving_part" data-name="moving part" d="M109,99.14c-.19-4.78-3.43-8.88-7.7-9.36L61.07,83.69c-4.88,1.5-8.46,6.62-8.82,12.55-.37,6.21,2.87,12,7.85,13.86l40.56-.17C105.54,109.56,109.24,104.52,109,99.14Zm-44.15,5.3c-3.45-.18-6.09-3.55-5.89-7.54s3.18-7.06,6.64-6.89,6.09,3.55,5.89,7.53S68.33,104.61,64.87,104.44Z" transform="translate(-2.41 -4.28)" fill="#fbb03b" stroke="#000" stroke-miterlimit="10"/>
    <path id="CenterOfCicle" d="M65.24,96.89" transform="translate(-2.41 -4.28)" fill="#fbb03b" stroke="#000" stroke-miterlimit="10"/>
    <rect y="142.93" width="10.75" height="8.66" fill="none"/>
  </g>
</svg>
