<svg xmlns="http://www.w3.org/2000/svg" width="92" height="198.57" viewBox="0 0 92 198.57">
  <title>photosensor</title>
  <g id="wire">
    <path id="PIN_POWER" d="M11.8,174.68h1.25a.37.37,0,0,1,.37.37v22.52a1,1,0,0,1-1,1h0a1,1,0,0,1-1-1V175.06a.37.37,0,0,1,.37-.37Z" fill="#898883"/>
    <path id="PIN_GND" d="M37.45,174.68h1.25a.37.37,0,0,1,.37.37v22.52a1,1,0,0,1-1,1h0a1,1,0,0,1-1-1V175.06A.37.37,0,0,1,37.45,174.68Z" fill="#898883"/>
    <path id="PIN_DO" d="M71.3,174.68h1.25a.37.37,0,0,1,.37.37v22.52a1,1,0,0,1-1,1h0a1,1,0,0,1-1-1V175.06A.37.37,0,0,1,71.3,174.68Z" fill="#898883"/>
    <text id="POWER_NUMBER" transform="translate(24.89 18.46)" font-size="21" font-family="Biryani-Bold, Biryani" font-weight="700">332</text>
  </g>
  <g id="sensor">
    <g>
      <rect x="0.5" y="21.92" width="91" height="156.56" fill="#d9f4e0"/>
      <path d="M5,39.84H95V195.4H5V39.84m-1-1V196.4H96V38.84Z" transform="translate(-4 -17.43)"/>
    </g>
    <g>
      <path d="M48.94,82.34a16.58,16.58,0,0,1-11.75-28,16.09,16.09,0,0,1,11.45-5.05h.3a16.59,16.59,0,0,1,11.76,28,16.15,16.15,0,0,1-11.45,5Z" transform="translate(-4 -17.43)" fill="#f4bd87"/>
      <path d="M48.94,49.78a16,16,0,0,1,.3,32.06H49a16,16,0,0,1-.31-32.06h.3m0-1h-.31A17,17,0,0,0,49,82.84h.31a17,17,0,0,0-.32-34.06Z" transform="translate(-4 -17.43)"/>
    </g>
    <line x1="35.29" y1="40.18" x2="54.68" y2="40.18" stroke="#000" stroke-miterlimit="10" stroke-width="3"/>
    <line x1="31.85" y1="47.38" x2="58.12" y2="47.38" stroke="#000" stroke-miterlimit="10" stroke-width="3"/>
    <line x1="35.29" y1="55.51" x2="54.68" y2="55.51" stroke="#000" stroke-miterlimit="10" stroke-width="3"/>
    <text id="PIN_VCC" transform="translate(16.73 174.78) rotate(-90)" font-size="14" font-family="Biryani-Regular, Biryani">+</text>
    <text id="PIN_GND-2" data-name="PIN_GND" transform="translate(34.96 174.49)" font-size="14" font-family="Biryani-Regular, Biryani">-</text>
    <text id="PIN_TEXT" transform="translate(55.79 176.36)" font-size="21" font-family="Biryani-Regular, Biryani">DO</text>
  </g>
</svg>
