<svg xmlns="http://www.w3.org/2000/svg" width="92.36" height="198.57" viewBox="0 0 92.36 198.57">
  <title>photosensor</title>
  <g id="wire">
    <path id="PIN_POWER" d="M12.17,174.68h1.25a.37.37,0,0,1,.37.37v22.52a1,1,0,0,1-1,1h0a1,1,0,0,1-1-1V175.06A.37.37,0,0,1,12.17,174.68Z" fill="#898883"/>
    <path id="PIN_GND" d="M37.82,174.68h1.25a.37.37,0,0,1,.37.37v22.52a1,1,0,0,1-1,1h0a1,1,0,0,1-1-1V175.06A.37.37,0,0,1,37.82,174.68Z" fill="#898883"/>
    <path id="PIN_DATA" d="M71.66,174.68h1.25a.37.37,0,0,1,.37.37v22.52a1,1,0,0,1-1,1h0a1,1,0,0,1-1-1V175.06A.37.37,0,0,1,71.66,174.68Z" fill="#898883"/>
    <text id="READING_VALUE" transform="translate(25.26 18.46)" font-size="21" font-family="Biryani-Bold, Biryani" font-weight="700">332</text>
  </g>
  <g id="sensor">
    <g>
      <rect x="0.86" y="21.92" width="91" height="156.56" fill="#d9f4e0"/>
      <path d="M5,39.84H95V195.4H5V39.84m-1-1V196.4H96V38.84Z" transform="translate(-3.64 -17.43)"/>
    </g>
    <g>
      <path d="M48.94,82.34a16.58,16.58,0,0,1-11.75-28,16.09,16.09,0,0,1,11.45-5.05h.3a16.59,16.59,0,0,1,11.76,28,16.15,16.15,0,0,1-11.45,5Z" transform="translate(-3.64 -17.43)" fill="#f4bd87"/>
      <path d="M48.94,49.78a16,16,0,0,1,.3,32.06H49a16,16,0,0,1-.31-32.06h.3m0-1h-.31A17,17,0,0,0,49,82.84h.31a17,17,0,0,0-.32-34.06Z" transform="translate(-3.64 -17.43)"/>
    </g>
    <line x1="35.65" y1="40.18" x2="55.04" y2="40.18" stroke="#000" stroke-miterlimit="10" stroke-width="3"/>
    <line x1="32.21" y1="47.38" x2="58.49" y2="47.38" stroke="#000" stroke-miterlimit="10" stroke-width="3"/>
    <line x1="35.65" y1="55.51" x2="55.04" y2="55.51" stroke="#000" stroke-miterlimit="10" stroke-width="3"/>
    <text id="PIN_VCC" transform="translate(21.1 173.78) rotate(-90)" font-size="24" font-family="Biryani-Regular, Biryani">+</text>
    <text id="PIN_GND-2" data-name="PIN_GND" transform="translate(33.33 174.49)" font-size="24" font-family="Biryani-Regular, Biryani">-</text>
    <text id="PIN_TEXT" transform="translate(56.11 176.07) rotate(0.98)" font-size="21" font-family="Biryani-Regular, Biryani">DO</text>
  </g>
</svg>
