<svg id="Container" xmlns="http://www.w3.org/2000/svg" xmlns:xlink="http://www.w3.org/1999/xlink" width="42.63" height="81.83" viewBox="0 0 42.63 81.83">
  <defs>
    <radialGradient id="radial-gradient" cx="26" cy="34.5" r="14.75" gradientUnits="userSpaceOnUse">
      <stop offset="0" stop-color="#fff"/>
      <stop offset="1" stop-color="#39b54a"/>
    </radialGradient>
  </defs>
  <title>led</title>
  <rect y="59.83" width="5" height="7" fill="none"/>
  <g id="POWER">
    <line x1="18" y1="44.83" x2="18" y2="80.83" fill="none" stroke="#999" stroke-linecap="round" stroke-miterlimit="10" stroke-width="2"/>
  </g>
  <g id="PIN_GND">
    <line x1="32" y1="44.83" x2="32" y2="65.83" fill="none" stroke="#999" stroke-linecap="round" stroke-miterlimit="10" stroke-width="2"/>
  </g>
  <path id="COVER" d="M41,46v2a1,1,0,0,1-1,1H12a1,1,0,0,1-1-1V46a4,4,0,0,1,4-4,0,0,0,0,0,0,0c0-.48,0-1,0-1.48C15,29.32,19.8,20.23,25.77,20h.46C32.2,20.23,37,29.32,37,40.5c0,.5,0,1,0,1.48a0,0,0,0,0,0,0A4,4,0,0,1,41,46Z" transform="translate(-1 -4.17)" fill="none" stroke="#000" stroke-miterlimit="10" stroke-width="2"/>
  <path id="LED_LIGHT" d="M41,46v2a1,1,0,0,1-1,1H12a1,1,0,0,1-1-1V46a4,4,0,0,1,4-4,0,0,0,0,0,0,0c0-.48,0-1,0-1.48C15,29.32,19.8,20.23,25.77,20h.46C32.2,20.23,37,29.32,37,40.5c0,.5,0,1,0,1.48a0,0,0,0,0,0,0A4,4,0,0,1,41,46Z" transform="translate(-1 -4.17)" stroke="#000" stroke-miterlimit="10" stroke-width="2" fill="url(#radial-gradient)"/>
  <text transform="translate(10.46 55.72)" font-size="12" font-family="Biryani-SemiBold, Biryani" font-weight="600">+</text>
  <text id="PIN_NUMBER" transform="translate(9.46 72.72)" font-size="12" font-family="Biryani-SemiBold, Biryani" font-weight="600">1</text>
  <text transform="translate(34.46 57.72)" font-size="18" font-family="Biryani-SemiBold, Biryani" font-weight="600">-</text>
  <text id="LED_TEXT" transform="translate(14 10.55)" font-size="12" font-family="Biryani-SemiBold, Biryani" font-weight="600">ON</text>
</svg>
