<svg id="Container" xmlns="http://www.w3.org/2000/svg" xmlns:xlink="http://www.w3.org/1999/xlink" width="72.5" height="104.31" viewBox="0 0 72.5 104.31">
  <defs>
    <radialGradient id="radial-gradient" cx="24" cy="32.5" r="14.75" gradientUnits="userSpaceOnUse">
      <stop offset="0" stop-color="#fff"/>
      <stop offset="1" stop-color="#39b54a"/>
    </radialGradient>
  </defs>
  <g id="POWER">
    <line x1="25.54" y1="44.83" x2="25.54" y2="93.83" fill="none" stroke="#999" stroke-linecap="round" stroke-miterlimit="10" stroke-width="2"/>
  </g>
  <g id="PIN_GND">
    <line x1="11.54" y1="44.83" x2="11.54" y2="65.83" fill="none" stroke="#999" stroke-linecap="round" stroke-miterlimit="10" stroke-width="2"/>
  </g>
  <path id="COVER" d="M39,44v2a1,1,0,0,1-1,1H10a1,1,0,0,1-1-1V44a4,4,0,0,1,4-4,0,0,0,0,0,0,0c0-.48,0-1,0-1.48C13,27.32,17.8,18.23,23.77,18h.46C30.2,18.23,35,27.32,35,38.5c0,.5,0,1,0,1.48a0,0,0,0,0,0,0A4,4,0,0,1,39,44Z" transform="translate(-5.46 -2.17)" fill="none" stroke="#000" stroke-miterlimit="10" stroke-width="2"/>
  <path id="LED_LIGHT" d="M39,44v2a1,1,0,0,1-1,1H10a1,1,0,0,1-1-1V44a4,4,0,0,1,4-4,0,0,0,0,0,0,0c0-.48,0-1,0-1.48C13,27.32,17.8,18.23,23.77,18h.46C30.2,18.23,35,27.32,35,38.5c0,.5,0,1,0,1.48a0,0,0,0,0,0,0A4,4,0,0,1,39,44Z" transform="translate(-5.46 -2.17)" stroke="#000" stroke-miterlimit="10" stroke-width="2" fill="url(#radial-gradient)"/>
  <text transform="translate(27 60.72)" font-size="21" font-family="Biryani-SemiBold, Biryani" font-weight="600">+</text>
  <text id="PIN_NUMBER" transform="translate(28 89.72)" font-size="24" font-family="Biryani-SemiBold, Biryani" font-weight="600">A15</text>
  <text transform="translate(0 61.72)" font-size="24" font-family="Biryani-SemiBold, Biryani" font-weight="600">-</text>
  <text id="LED_TEXT" transform="translate(7.53 10.55)" font-size="12" font-family="Biryani-SemiBold, Biryani" font-weight="600">ON</text>
</svg>
