<svg xmlns="http://www.w3.org/2000/svg" width="347" height="183.85" viewBox="0 0 347 183.85">
  <title>rfid</title>
  <g id="RFID_READER" data-name="RFID READER">
    <g>
      <rect x="22.5" y="0.5" width="76" height="178" fill="#509364"/>
      <path d="M100,18V195H25V18h75m1-1H24V196h77V17Z" transform="translate(-2 -17)"/>
    </g>
    <g>
      <circle cx="92.9" cy="170.5" r="3" fill="#dda824"/>
      <path d="M94.9,185a2.5,2.5,0,1,1-2.5,2.5,2.5,2.5,0,0,1,2.5-2.5m0-1a3.5,3.5,0,1,0,3.5,3.5,3.5,3.5,0,0,0-3.5-3.5Z" transform="translate(-2 -17)"/>
    </g>
    <g>
      <circle cx="92.9" cy="153.75" r="3" fill="#dda824"/>
      <path d="M94.9,168.25a2.5,2.5,0,1,1-2.5,2.5,2.5,2.5,0,0,1,2.5-2.5m0-1a3.5,3.5,0,1,0,3.5,3.5,3.5,3.5,0,0,0-3.5-3.5Z" transform="translate(-2 -17)"/>
    </g>
    <g>
      <circle cx="29.5" cy="170.5" r="3" fill="#dda824"/>
      <path d="M31.5,185a2.5,2.5,0,1,1-2.5,2.5,2.5,2.5,0,0,1,2.5-2.5m0-1a3.5,3.5,0,1,0,3.5,3.5,3.5,3.5,0,0,0-3.5-3.5Z" transform="translate(-2 -17)"/>
    </g>
    <g>
      <circle cx="29.5" cy="153.75" r="3" fill="#dda824"/>
      <path d="M31.5,168.25a2.5,2.5,0,1,1-2.5,2.5,2.5,2.5,0,0,1,2.5-2.5m0-1a3.5,3.5,0,1,0,3.5,3.5,3.5,3.5,0,0,0-3.5-3.5Z" transform="translate(-2 -17)"/>
    </g>
    <g>
      <circle cx="92.9" cy="137" r="3" fill="#dda824"/>
      <path d="M94.9,151.5a2.5,2.5,0,1,1-2.5,2.5,2.5,2.5,0,0,1,2.5-2.5m0-1a3.5,3.5,0,1,0,3.5,3.5,3.5,3.5,0,0,0-3.5-3.5Z" transform="translate(-2 -17)"/>
    </g>
    <g>
      <circle cx="29.5" cy="137.25" r="3" fill="#dda824"/>
      <path d="M31.5,151.75a2.5,2.5,0,1,1-2.5,2.5,2.5,2.5,0,0,1,2.5-2.5m0-1a3.5,3.5,0,1,0,3.5,3.5,3.5,3.5,0,0,0-3.5-3.5Z" transform="translate(-2 -17)"/>
    </g>
    <g>
      <circle cx="92.9" cy="120.25" r="3" fill="#dda824"/>
      <path d="M94.9,134.75a2.5,2.5,0,1,1-2.5,2.5,2.5,2.5,0,0,1,2.5-2.5m0-1a3.5,3.5,0,1,0,3.5,3.5,3.5,3.5,0,0,0-3.5-3.5Z" transform="translate(-2 -17)"/>
    </g>
    <g>
      <circle cx="92.9" cy="103.5" r="3" fill="#dda824"/>
      <path d="M94.9,118a2.5,2.5,0,1,1-2.5,2.5,2.5,2.5,0,0,1,2.5-2.5m0-1a3.5,3.5,0,1,0,3.5,3.5,3.5,3.5,0,0,0-3.5-3.5Z" transform="translate(-2 -17)"/>
    </g>
    <g>
      <circle cx="88.5" cy="21.5" r="3" fill="#dda824"/>
      <path d="M90.5,36A2.5,2.5,0,1,1,88,38.5,2.5,2.5,0,0,1,90.5,36m0-1A3.5,3.5,0,1,0,94,38.5,3.5,3.5,0,0,0,90.5,35Z" transform="translate(-2 -17)"/>
    </g>
    <g>
      <circle cx="88.5" cy="10.5" r="3" fill="#dda824"/>
      <path d="M90.5,25A2.5,2.5,0,1,1,88,27.5,2.5,2.5,0,0,1,90.5,25m0-1A3.5,3.5,0,1,0,94,27.5,3.5,3.5,0,0,0,90.5,24Z" transform="translate(-2 -17)"/>
    </g>
    <path d="M10.5,154.72" transform="translate(-2 -17)" fill="#dda824" stroke="#dda824" stroke-miterlimit="10"/>
    <path d="M30.5,154.72" transform="translate(-2 -17)" fill="#dda824" stroke="#dda824" stroke-miterlimit="10"/>
    <line x1="29" y1="137.25" x2="1" y2="137.25" fill="#dda824" stroke="#dda824" stroke-linecap="round" stroke-miterlimit="10" stroke-width="2"/>
    <line id="PIN_GND" x1="1" y1="138" x2="1" y2="146" fill="none" stroke="#dda824" stroke-linecap="round" stroke-miterlimit="10" stroke-width="2"/>
    <line id="PIN_TX" x1="117" y1="171" x2="117" y2="179" fill="none" stroke="#dda824" stroke-linecap="round" stroke-miterlimit="10" stroke-width="2"/>
    <line x1="29" y1="153.75" x2="9" y2="153.75" fill="#dda824" stroke="#dda824" stroke-linecap="round" stroke-miterlimit="10" stroke-width="2"/>
    <line x1="117" y1="170.5" x2="94" y2="170.5" fill="#dda824" stroke="#dda824" stroke-linecap="round" stroke-miterlimit="10" stroke-width="2"/>
    <line id="PIN_POWER" x1="9" y1="154" x2="9" y2="162" fill="none" stroke="#dda824" stroke-linecap="round" stroke-miterlimit="10" stroke-width="2"/>
  </g>
  <g id="RFID">
    <g id="RFID_TAG_2">
      <ellipse cx="201" cy="137" rx="18.5" ry="19.5" fill="blue"/>
      <path d="M203,135c9.93,0,18,8.52,18,19s-8.07,19-18,19-18-8.52-18-19,8.07-19,18-19m0-1c-10.49,0-19,8.95-19,20s8.51,20,19,20,19-8.95,19-20-8.51-20-19-20Z" transform="translate(-2 -17)"/>
    </g>
    <g id="RFID_TAG_1">
      <ellipse cx="201.5" cy="147.5" rx="9" ry="5"/>
      <path d="M203.5,160c4.61,0,8.5,2.06,8.5,4.5s-3.89,4.5-8.5,4.5-8.5-2.06-8.5-4.5,3.89-4.5,8.5-4.5m0-1c-5.25,0-9.5,2.46-9.5,5.5s4.25,5.5,9.5,5.5,9.5-2.46,9.5-5.5-4.25-5.5-9.5-5.5Z" transform="translate(-2 -17)"/>
    </g>
    <text id="TAG_TEXT" transform="translate(109.85 64.05)" font-size="18" font-family="Biryani-Regular, Biryani">Tag #: </text>
    <text id="CARD_NUMBER_TEXT" transform="translate(110.85 99.05)" font-size="18" font-family="Biryani-Regular, Biryani">Card #:</text>
  </g>
  <g id="antenna">
    <path d="M90.5,38.5c11.61-17.84,88.57-8.3,95,20" transform="translate(-2 -17)" fill="none" stroke="#dda824" stroke-miterlimit="10" stroke-width="3"/>
    <path d="M90.5,27.5c11.61-17.84,105.57,2.7,112,31" transform="translate(-2 -17)" fill="none" stroke="#dda824" stroke-miterlimit="10" stroke-width="3"/>
    <path d="M259.52,147.5" transform="translate(-2 -17)" fill="none" stroke="#dda824" stroke-miterlimit="10" stroke-width="3"/>
    <path d="M117,170.69" transform="translate(-2 -17)" fill="none" stroke="#dda824" stroke-miterlimit="10" stroke-width="3"/>
    <rect x="194.44" y="-27.44" width="66.11" height="240" transform="translate(132.94 303.06) rotate(-90)" fill="none" stroke="#dda824" stroke-miterlimit="10" stroke-width="3"/>
  </g>
  <g id="wire_text" data-name="wire text">
    <text transform="translate(34.12 161.56)" font-size="21" font-family="Biryani-Regular, Biryani">+</text>
    <text transform="translate(34.12 143.56)" font-size="21" font-family="Biryani-Regular, Biryani">-</text>
    <text transform="translate(69.12 175.56)" font-size="14" font-family="Biryani-Regular, Biryani">TX</text>
    <text transform="translate(69.12 158.56)" font-size="14" font-family="Biryani-Regular, Biryani">RX</text>
  </g>
</svg>
