<svg xmlns="http://www.w3.org/2000/svg" width="347" height="173" viewBox="0 0 347 173">
  <g id="RFID_READER" data-name="RFID READER">
    <g>
      <rect x="22.5" y="0.5" width="76" height="157" style="fill: #509364"/>
      <path d="M100,12V168H25V12h75m1-1H24V169h77V11Z" transform="translate(-2 -11)"/>
    </g>
    <g>
      <circle cx="92.9" cy="149.5" r="3" style="fill: #dda824"/>
      <path d="M94.9,158a2.5,2.5,0,1,1-2.5,2.5,2.5,2.5,0,0,1,2.5-2.5m0-1a3.5,3.5,0,1,0,3.5,3.5,3.5,3.5,0,0,0-3.5-3.5Z" transform="translate(-2 -11)"/>
    </g>
    <g>
      <circle cx="92.9" cy="132.75" r="3" style="fill: #dda824"/>
      <path d="M94.9,141.25a2.5,2.5,0,1,1-2.5,2.5,2.5,2.5,0,0,1,2.5-2.5m0-1a3.5,3.5,0,1,0,3.5,3.5,3.5,3.5,0,0,0-3.5-3.5Z" transform="translate(-2 -11)"/>
    </g>
    <g>
      <circle cx="29.5" cy="149.5" r="3" style="fill: #dda824"/>
      <path d="M31.5,158a2.5,2.5,0,1,1-2.5,2.5,2.5,2.5,0,0,1,2.5-2.5m0-1a3.5,3.5,0,1,0,3.5,3.5,3.5,3.5,0,0,0-3.5-3.5Z" transform="translate(-2 -11)"/>
    </g>
    <g>
      <circle cx="29.5" cy="132.75" r="3" style="fill: #dda824"/>
      <path d="M31.5,141.25a2.5,2.5,0,1,1-2.5,2.5,2.5,2.5,0,0,1,2.5-2.5m0-1a3.5,3.5,0,1,0,3.5,3.5,3.5,3.5,0,0,0-3.5-3.5Z" transform="translate(-2 -11)"/>
    </g>
    <g>
      <circle cx="92.9" cy="116" r="3" style="fill: #dda824"/>
      <path d="M94.9,124.5a2.5,2.5,0,1,1-2.5,2.5,2.5,2.5,0,0,1,2.5-2.5m0-1a3.5,3.5,0,1,0,3.5,3.5,3.5,3.5,0,0,0-3.5-3.5Z" transform="translate(-2 -11)"/>
    </g>
    <g>
      <circle cx="29.5" cy="116.25" r="3" style="fill: #dda824"/>
      <path d="M31.5,124.75a2.5,2.5,0,1,1-2.5,2.5,2.5,2.5,0,0,1,2.5-2.5m0-1a3.5,3.5,0,1,0,3.5,3.5,3.5,3.5,0,0,0-3.5-3.5Z" transform="translate(-2 -11)"/>
    </g>
    <g>
      <circle cx="92.9" cy="99.25" r="3" style="fill: #dda824"/>
      <path d="M94.9,107.75a2.5,2.5,0,1,1-2.5,2.5,2.5,2.5,0,0,1,2.5-2.5m0-1a3.5,3.5,0,1,0,3.5,3.5,3.5,3.5,0,0,0-3.5-3.5Z" transform="translate(-2 -11)"/>
    </g>
    <g>
      <circle cx="92.9" cy="82.5" r="3" style="fill: #dda824"/>
      <path d="M94.9,91a2.5,2.5,0,1,1-2.5,2.5A2.5,2.5,0,0,1,94.9,91m0-1a3.5,3.5,0,1,0,3.5,3.5A3.5,3.5,0,0,0,94.9,90Z" transform="translate(-2 -11)"/>
    </g>
    <g>
      <circle cx="88.5" cy="25.5" r="3" style="fill: #dda824"/>
      <path d="M90.5,34A2.5,2.5,0,1,1,88,36.5,2.5,2.5,0,0,1,90.5,34m0-1A3.5,3.5,0,1,0,94,36.5,3.5,3.5,0,0,0,90.5,33Z" transform="translate(-2 -11)"/>
    </g>
    <g>
      <circle cx="88.5" cy="14.5" r="3" style="fill: #dda824"/>
      <path d="M90.5,23A2.5,2.5,0,1,1,88,25.5,2.5,2.5,0,0,1,90.5,23m0-1A3.5,3.5,0,1,0,94,25.5,3.5,3.5,0,0,0,90.5,22Z" transform="translate(-2 -11)"/>
    </g>
    <path d="M10.5,127.72" transform="translate(-2 -11)" style="fill: #dda824;stroke: #dda824;stroke-miterlimit: 10"/>
    <path d="M30.5,127.72" transform="translate(-2 -11)" style="fill: #dda824;stroke: #dda824;stroke-miterlimit: 10"/>
    <line x1="29" y1="116.25" x2="1" y2="116.25" style="fill: #dda824;stroke: #dda824;stroke-linecap: round;stroke-miterlimit: 10;stroke-width: 2px"/>
    <line id="PIN_GND" x1="1" y1="117" x2="1" y2="125" style="fill: none;stroke: #dda824;stroke-linecap: round;stroke-miterlimit: 10;stroke-width: 2px"/>
    <line id="PIN_TX" x1="117" y1="150" x2="117" y2="172" style="fill: none;stroke: #dda824;stroke-linecap: round;stroke-miterlimit: 10;stroke-width: 2px"/>
    <line x1="29" y1="132.75" x2="9" y2="132.75" style="fill: #dda824;stroke: #dda824;stroke-linecap: round;stroke-miterlimit: 10;stroke-width: 2px"/>
    <line x1="117" y1="149.5" x2="94" y2="149.5" style="fill: #dda824;stroke: #dda824;stroke-linecap: round;stroke-miterlimit: 10;stroke-width: 2px"/>
    <line id="PIN_POWER" x1="9" y1="133" x2="9" y2="141" style="fill: none;stroke: #dda824;stroke-linecap: round;stroke-miterlimit: 10;stroke-width: 2px"/>
  </g>
  <g id="RFID">
    <text id="PIN_TEXT_RX" transform="translate(119.11 164.38)" style="font-size: 14px;font-family: Biryani-SemiBold, Biryani;font-weight: 600">A5</text>
    <g id="RFID_TAG_2">
      <ellipse cx="201" cy="141" rx="18.5" ry="19.5" style="fill: blue"/>
      <path d="M203,133c9.93,0,18,8.52,18,19s-8.07,19-18,19-18-8.52-18-19,8.07-19,18-19m0-1c-10.49,0-19,8.95-19,20s8.51,20,19,20,19-8.95,19-20-8.51-20-19-20Z" transform="translate(-2 -11)"/>
    </g>
    <g id="RFID_TAG_1">
      <ellipse cx="201.5" cy="126.5" rx="9" ry="5"/>
      <path d="M203.5,133c4.61,0,8.5,2.06,8.5,4.5s-3.89,4.5-8.5,4.5-8.5-2.06-8.5-4.5,3.89-4.5,8.5-4.5m0-1c-5.25,0-9.5,2.46-9.5,5.5s4.25,5.5,9.5,5.5,9.5-2.46,9.5-5.5-4.25-5.5-9.5-5.5Z" transform="translate(-2 -11)"/>
    </g>
    <text id="TAG_TEXT" transform="translate(109.85 68.05)" style="font-size: 18px;font-family: Biryani-Regular, Biryani">Tag #: </text>
    <text id="CARD_NUMBER_TEXT" transform="translate(110.85 103.05)" style="font-size: 18px;font-family: Biryani-Regular, Biryani">Card #:</text>
  </g>
  <g id="antenna">
    <path d="M90.5,36.5c11.61-17.84,88.57-8.3,95,20" transform="translate(-2 -11)" style="fill: none;stroke: #dda824;stroke-miterlimit: 10;stroke-width: 3px"/>
    <path d="M90.5,25.5c11.61-17.84,105.57,2.7,112,31" transform="translate(-2 -11)" style="fill: none;stroke: #dda824;stroke-miterlimit: 10;stroke-width: 3px"/>
    <path d="M259.52,120.5" transform="translate(-2 -11)" style="fill: none;stroke: #dda824;stroke-miterlimit: 10;stroke-width: 3px"/>
    <path d="M117,143.69" transform="translate(-2 -11)" style="fill: none;stroke: #dda824;stroke-miterlimit: 10;stroke-width: 3px"/>
    <rect x="194.44" y="-29.44" width="66.11" height="240" transform="translate(134.94 307.06) rotate(-90)" style="fill: none;stroke: #dda824;stroke-miterlimit: 10;stroke-width: 3px"/>
  </g>
  <g id="wire_text" data-name="wire text">
    <text transform="translate(33.62 140.56)" style="font-size: 21px;font-family: Biryani-Regular, Biryani">+</text>
    <text transform="translate(34.62 122.56)" style="font-size: 21px;font-family: Biryani-Regular, Biryani">-</text>
    <text transform="translate(69.12 154.56)" style="font-size: 14px;font-family: Biryani-Regular, Biryani">TX</text>
    <text transform="translate(69.12 137.37) rotate(0.71)" style="font-size: 14px;font-family: Biryani-Regular, Biryani">RX</text>
  </g>
</svg>
