<?xml version="1.0" encoding="UTF-8" standalone="no"?>
<svg
   width="282"
   height="196.1"
   viewBox="0 0 282 196.1"
   version="1.1"
   id="svg23"
   sodipodi:docname="rfid.svg"
   inkscape:version="1.3.2 (091e20e, 2023-11-25)"
   xmlns:inkscape="http://www.inkscape.org/namespaces/inkscape"
   xmlns:sodipodi="http://sodipodi.sourceforge.net/DTD/sodipodi-0.dtd"
   xmlns="http://www.w3.org/2000/svg"
   xmlns:svg="http://www.w3.org/2000/svg">
  <defs
     id="defs23" />
  <sodipodi:namedview
     id="namedview23"
     pagecolor="#ffffff"
     bordercolor="#000000"
     borderopacity="0.25"
     inkscape:showpageshadow="2"
     inkscape:pageopacity="0.0"
     inkscape:pagecheckerboard="0"
     inkscape:deskcolor="#d1d1d1"
     inkscape:zoom="6.8078407"
     inkscape:cx="168.77598"
     inkscape:cy="130.80506"
     inkscape:window-width="1920"
     inkscape:window-height="1080"
     inkscape:window-x="0"
     inkscape:window-y="0"
     inkscape:window-maximized="0"
     inkscape:current-layer="svg23" />
  <g
     id="RFID_READER"
     data-name="RFID READER">
    <g
       id="g1">
      <rect
         x="22.5"
         y="23.6"
         width="76"
         height="157"
         fill="#509364"
         id="rect1" />
      <path
         d="M102,29V185H27V29h75m1-1H26V186h77V28Z"
         transform="translate(-4 -4.9)"
         id="path1" />
    </g>
    <g
       id="g2">
      <circle
         cx="92.9"
         cy="172.6"
         r="3"
         fill="#dda824"
         id="circle1" />
      <path
         d="M96.9,175a2.5,2.5,0,1,1-2.5,2.5,2.5,2.5,0,0,1,2.5-2.5m0-1a3.5,3.5,0,1,0,3.5,3.5,3.5,3.5,0,0,0-3.5-3.5Z"
         transform="translate(-4 -4.9)"
         id="path2" />
    </g>
    <g
       id="g3">
      <circle
         cx="92.9"
         cy="155.85"
         r="3"
         fill="#dda824"
         id="circle2" />
      <path
         d="M96.9,158.25a2.5,2.5,0,1,1-2.5,2.5,2.5,2.5,0,0,1,2.5-2.5m0-1a3.5,3.5,0,1,0,3.5,3.5,3.5,3.5,0,0,0-3.5-3.5Z"
         transform="translate(-4 -4.9)"
         id="path3" />
    </g>
    <g
       id="g4">
      <circle
         cx="29.5"
         cy="172.6"
         r="3"
         fill="#dda824"
         id="circle3" />
      <path
         d="M33.5,175a2.5,2.5,0,1,1-2.5,2.5,2.5,2.5,0,0,1,2.5-2.5m0-1a3.5,3.5,0,1,0,3.5,3.5,3.5,3.5,0,0,0-3.5-3.5Z"
         transform="translate(-4 -4.9)"
         id="path4" />
    </g>
    <g
       id="g5">
      <circle
         cx="29.5"
         cy="155.85"
         r="3"
         fill="#dda824"
         id="circle4" />
      <path
         d="M33.5,158.25a2.5,2.5,0,1,1-2.5,2.5,2.5,2.5,0,0,1,2.5-2.5m0-1a3.5,3.5,0,1,0,3.5,3.5,3.5,3.5,0,0,0-3.5-3.5Z"
         transform="translate(-4 -4.9)"
         id="path5" />
    </g>
    <g
       id="g6">
      <circle
         cx="92.9"
         cy="139.1"
         r="3"
         fill="#dda824"
         id="circle5" />
      <path
         d="M96.9,141.5a2.5,2.5,0,1,1-2.5,2.5,2.5,2.5,0,0,1,2.5-2.5m0-1a3.5,3.5,0,1,0,3.5,3.5,3.5,3.5,0,0,0-3.5-3.5Z"
         transform="translate(-4 -4.9)"
         id="path6" />
    </g>
    <g
       id="g7">
      <circle
         cx="29.5"
         cy="139.35"
         r="3"
         fill="#dda824"
         id="circle6" />
      <path
         d="M33.5,141.75a2.5,2.5,0,1,1-2.5,2.5,2.5,2.5,0,0,1,2.5-2.5m0-1a3.5,3.5,0,1,0,3.5,3.5,3.5,3.5,0,0,0-3.5-3.5Z"
         transform="translate(-4 -4.9)"
         id="path7" />
    </g>
    <g
       id="g8">
      <circle
         cx="92.9"
         cy="122.35"
         r="3"
         fill="#dda824"
         id="circle7" />
      <path
         d="M96.9,124.75a2.5,2.5,0,1,1-2.5,2.5,2.5,2.5,0,0,1,2.5-2.5m0-1a3.5,3.5,0,1,0,3.5,3.5,3.5,3.5,0,0,0-3.5-3.5Z"
         transform="translate(-4 -4.9)"
         id="path8" />
    </g>
    <g
       id="g9">
      <circle
         cx="92.9"
         cy="105.6"
         r="3"
         fill="#dda824"
         id="circle8" />
      <path
         d="M96.9,108a2.5,2.5,0,1,1-2.5,2.5,2.5,2.5,0,0,1,2.5-2.5m0-1a3.5,3.5,0,1,0,3.5,3.5,3.5,3.5,0,0,0-3.5-3.5Z"
         transform="translate(-4 -4.9)"
         id="path9" />
    </g>
    <g
       id="g10">
      <circle
         cx="88.5"
         cy="48.6"
         r="3"
         fill="#dda824"
         id="circle9" />
      <path
         d="M92.5,51A2.5,2.5,0,1,1,90,53.5,2.5,2.5,0,0,1,92.5,51m0-1A3.5,3.5,0,1,0,96,53.5,3.5,3.5,0,0,0,92.5,50Z"
         transform="translate(-4 -4.9)"
         id="path10" />
    </g>
    <g
       id="g11">
      <circle
         cx="88.5"
         cy="37.6"
         r="3"
         fill="#dda824"
         id="circle10" />
      <path
         d="M92.5,40A2.5,2.5,0,1,1,90,42.5,2.5,2.5,0,0,1,92.5,40m0-1A3.5,3.5,0,1,0,96,42.5,3.5,3.5,0,0,0,92.5,39Z"
         transform="translate(-4 -4.9)"
         id="path11" />
    </g>
    <path
       d="M12.5,144.72"
       transform="translate(-4 -4.9)"
       fill="#dda824"
       stroke="#dda824"
       stroke-miterlimit="10"
       id="path12" />
    <path
       d="M32.5,144.72"
       transform="translate(-4 -4.9)"
       fill="#dda824"
       stroke="#dda824"
       stroke-miterlimit="10"
       id="path13" />
    <line
       x1="29"
       y1="139.35"
       x2="1"
       y2="139.35"
       fill="#dda824"
       stroke="#dda824"
       stroke-linecap="round"
       stroke-miterlimit="10"
       stroke-width="2"
       id="line13" />
    <line
       id="PIN_GND"
       x1="1"
       y1="140.1"
       x2="1"
       y2="148.1"
       fill="none"
       stroke="#dda824"
       stroke-linecap="round"
       stroke-miterlimit="10"
       stroke-width="2" />
    <line
       id="PIN_TX"
       x1="117"
       y1="173.1"
       x2="117"
       y2="195.1"
       fill="none"
       stroke="#dda824"
       stroke-linecap="round"
       stroke-miterlimit="10"
       stroke-width="2" />
    <line
       id="PIN_RX"
       x1="158.79301"
       y1="155.73007"
       x2="158.79301"
       y2="177.73009"
       fill="none"
       stroke="#dda824"
       stroke-linecap="round"
       stroke-miterlimit="10"
       stroke-width="2"
       inkscape:label="PIN_RX" />
    <line
       x1="29"
       y1="155.85"
       x2="9"
       y2="155.85"
       fill="#dda824"
       stroke="#dda824"
       stroke-linecap="round"
       stroke-miterlimit="10"
       stroke-width="2"
       id="line14" />
    <line
       x1="117"
       y1="172.6"
       x2="94"
       y2="172.6"
       fill="#dda824"
       stroke="#dda824"
       stroke-linecap="round"
       stroke-miterlimit="10"
       stroke-width="2"
       id="line15" />
    <line
       x1="158.31438"
       y1="155.65274"
       x2="96.010864"
       y2="155.65274"
       fill="#dda824"
       stroke="#dda824"
       stroke-linecap="round"
       stroke-miterlimit="10"
       stroke-width="2.00001"
       id="line15-9" />
    <line
       id="PIN_POWER"
       x1="9"
       y1="156.1"
       x2="9"
       y2="164.1"
       fill="none"
       stroke="#dda824"
       stroke-linecap="round"
       stroke-miterlimit="10"
       stroke-width="2" />
  </g>
  <g
     id="RFID"
     transform="translate(20.417634,1.615784)">
    <text
       id="PIN_TEXT_TX"
       font-size="14px"
       font-family="Biryani-SemiBold, Biryani"
       font-weight="600"
       x="102.07082"
       y="189.53645"
       inkscape:label="PIN_TEXT_TX">A5</text>
    <text
       id="PIN_TEXT_RX"
       font-size="14px"
       font-family="Biryani-SemiBold, Biryani"
       font-weight="600"
       x="144.17195"
       y="169.90793"
       inkscape:label="PIN_TEXT_RX">A5</text>
    <g
       id="RFID_TAG_2">
      <ellipse
         cx="201"
         cy="164.10001"
         rx="18.5"
         ry="19.5"
         fill="#0000ff"
         id="ellipse15" />
      <path
         d="m 205,150 c 9.93,0 18,8.52 18,19 0,10.48 -8.07,19 -18,19 -9.93,0 -18,-8.52 -18,-19 0,-10.48 8.07,-19 18,-19 m 0,-1 c -10.49,0 -19,8.95 -19,20 0,11.05 8.51,20 19,20 10.49,0 19,-8.95 19,-20 0,-11.05 -8.51,-20 -19,-20 z"
         transform="translate(-4,-4.9)"
         id="path15" />
    </g>
    <g
       id="RFID_TAG_1">
      <ellipse
         cx="201.5"
         cy="149.60001"
         rx="9"
         ry="5"
         id="ellipse16" />
      <path
         d="m 205.5,150 c 4.61,0 8.5,2.06 8.5,4.5 0,2.44 -3.89,4.5 -8.5,4.5 -4.61,0 -8.5,-2.06 -8.5,-4.5 0,-2.44 3.89,-4.5 8.5,-4.5 m 0,-1 c -5.25,0 -9.5,2.46 -9.5,5.5 0,3.04 4.25,5.5 9.5,5.5 5.25,0 9.5,-2.46 9.5,-5.5 0,-3.04 -4.25,-5.5 -9.5,-5.5 z"
         transform="translate(-4,-4.9)"
         id="path16" />
    </g>
    <text
       id="TAG_TEXT"
       transform="translate(109.85,91.15)"
       font-size="18px"
       font-family="Biryani-Regular, Biryani">Tag #:</text>
    <text
       id="CARD_NUMBER_TEXT"
       transform="translate(110.85,126.15)"
       font-size="18px"
       font-family="Biryani-Regular, Biryani">Card #:</text>
    <text
       transform="translate(114.71,21.1)"
       font-size="24px"
       font-family="Biryani-SemiBold, Biryani"
       font-weight="600"
       id="text16">RFID Reader</text>
  </g>
  <g
     id="antenna">
    <path
       d="M92.5,53.5c11.61-17.84,88.57-8.3,95,20"
       transform="translate(-4 -4.9)"
       fill="none"
       stroke="#dda824"
       stroke-miterlimit="10"
       stroke-width="3"
       id="path17" />
    <path
       d="M92.5,42.5c11.61-17.84,105.57,2.7,112,31"
       transform="translate(-4 -4.9)"
       fill="none"
       stroke="#dda824"
       stroke-miterlimit="10"
       stroke-width="3"
       id="path18" />
    <path
       d="M261.52,137.5"
       transform="translate(-4 -4.9)"
       fill="none"
       stroke="#dda824"
       stroke-miterlimit="10"
       stroke-width="3"
       id="path19" />
    <path
       d="M119,160.69"
       transform="translate(-4 -4.9)"
       fill="none"
       stroke="#dda824"
       stroke-miterlimit="10"
       stroke-width="3"
       id="path20" />
    <rect
       x="164.44"
       y="20.56"
       width="66.11"
       height="174"
       transform="translate(85.94 300.16) rotate(-90)"
       fill="none"
       stroke="#dda824"
       stroke-miterlimit="10"
       stroke-width="3"
       id="rect20" />
  </g>
  <g
     id="wire_text"
     data-name="wire text">
    <text
       transform="translate(33.62 163.66)"
       font-size="21"
       font-family="Biryani-Regular, Biryani"
       id="text20">+</text>
    <text
       transform="translate(34.62 145.66)"
       font-size="21"
       font-family="Biryani-Regular, Biryani"
       id="text21">-</text>
    <text
       transform="translate(69.12 177.66)"
       font-size="14"
       font-family="Biryani-Regular, Biryani"
       id="text22">TX</text>
    <text
       transform="translate(69.12 160.47) rotate(0.71)"
       font-size="14"
       font-family="Biryani-Regular, Biryani"
       id="text23">RX</text>
  </g>
</svg>
