<svg xmlns="http://www.w3.org/2000/svg" width="282" height="196.1" viewBox="0 0 282 196.1">
  <g id="RFID_READER" data-name="RFID READER">
    <g>
      <rect x="22.5" y="23.6" width="76" height="157" fill="#509364"/>
      <path d="M102,29V185H27V29h75m1-1H26V186h77V28Z" transform="translate(-4 -4.9)"/>
    </g>
    <g>
      <circle cx="92.9" cy="172.6" r="3" fill="#dda824"/>
      <path d="M96.9,175a2.5,2.5,0,1,1-2.5,2.5,2.5,2.5,0,0,1,2.5-2.5m0-1a3.5,3.5,0,1,0,3.5,3.5,3.5,3.5,0,0,0-3.5-3.5Z" transform="translate(-4 -4.9)"/>
    </g>
    <g>
      <circle cx="92.9" cy="155.85" r="3" fill="#dda824"/>
      <path d="M96.9,158.25a2.5,2.5,0,1,1-2.5,2.5,2.5,2.5,0,0,1,2.5-2.5m0-1a3.5,3.5,0,1,0,3.5,3.5,3.5,3.5,0,0,0-3.5-3.5Z" transform="translate(-4 -4.9)"/>
    </g>
    <g>
      <circle cx="29.5" cy="172.6" r="3" fill="#dda824"/>
      <path d="M33.5,175a2.5,2.5,0,1,1-2.5,2.5,2.5,2.5,0,0,1,2.5-2.5m0-1a3.5,3.5,0,1,0,3.5,3.5,3.5,3.5,0,0,0-3.5-3.5Z" transform="translate(-4 -4.9)"/>
    </g>
    <g>
      <circle cx="29.5" cy="155.85" r="3" fill="#dda824"/>
      <path d="M33.5,158.25a2.5,2.5,0,1,1-2.5,2.5,2.5,2.5,0,0,1,2.5-2.5m0-1a3.5,3.5,0,1,0,3.5,3.5,3.5,3.5,0,0,0-3.5-3.5Z" transform="translate(-4 -4.9)"/>
    </g>
    <g>
      <circle cx="92.9" cy="139.1" r="3" fill="#dda824"/>
      <path d="M96.9,141.5a2.5,2.5,0,1,1-2.5,2.5,2.5,2.5,0,0,1,2.5-2.5m0-1a3.5,3.5,0,1,0,3.5,3.5,3.5,3.5,0,0,0-3.5-3.5Z" transform="translate(-4 -4.9)"/>
    </g>
    <g>
      <circle cx="29.5" cy="139.35" r="3" fill="#dda824"/>
      <path d="M33.5,141.75a2.5,2.5,0,1,1-2.5,2.5,2.5,2.5,0,0,1,2.5-2.5m0-1a3.5,3.5,0,1,0,3.5,3.5,3.5,3.5,0,0,0-3.5-3.5Z" transform="translate(-4 -4.9)"/>
    </g>
    <g>
      <circle cx="92.9" cy="122.35" r="3" fill="#dda824"/>
      <path d="M96.9,124.75a2.5,2.5,0,1,1-2.5,2.5,2.5,2.5,0,0,1,2.5-2.5m0-1a3.5,3.5,0,1,0,3.5,3.5,3.5,3.5,0,0,0-3.5-3.5Z" transform="translate(-4 -4.9)"/>
    </g>
    <g>
      <circle cx="92.9" cy="105.6" r="3" fill="#dda824"/>
      <path d="M96.9,108a2.5,2.5,0,1,1-2.5,2.5,2.5,2.5,0,0,1,2.5-2.5m0-1a3.5,3.5,0,1,0,3.5,3.5,3.5,3.5,0,0,0-3.5-3.5Z" transform="translate(-4 -4.9)"/>
    </g>
    <g>
      <circle cx="88.5" cy="48.6" r="3" fill="#dda824"/>
      <path d="M92.5,51A2.5,2.5,0,1,1,90,53.5,2.5,2.5,0,0,1,92.5,51m0-1A3.5,3.5,0,1,0,96,53.5,3.5,3.5,0,0,0,92.5,50Z" transform="translate(-4 -4.9)"/>
    </g>
    <g>
      <circle cx="88.5" cy="37.6" r="3" fill="#dda824"/>
      <path d="M92.5,40A2.5,2.5,0,1,1,90,42.5,2.5,2.5,0,0,1,92.5,40m0-1A3.5,3.5,0,1,0,96,42.5,3.5,3.5,0,0,0,92.5,39Z" transform="translate(-4 -4.9)"/>
    </g>
    <path d="M12.5,144.72" transform="translate(-4 -4.9)" fill="#dda824" stroke="#dda824" stroke-miterlimit="10"/>
    <path d="M32.5,144.72" transform="translate(-4 -4.9)" fill="#dda824" stroke="#dda824" stroke-miterlimit="10"/>
    <line x1="29" y1="139.35" x2="1" y2="139.35" fill="#dda824" stroke="#dda824" stroke-linecap="round" stroke-miterlimit="10" stroke-width="2"/>
    <line id="PIN_GND" x1="1" y1="140.1" x2="1" y2="148.1" fill="none" stroke="#dda824" stroke-linecap="round" stroke-miterlimit="10" stroke-width="2"/>
    <line id="PIN_TX" x1="117" y1="173.1" x2="117" y2="195.1" fill="none" stroke="#dda824" stroke-linecap="round" stroke-miterlimit="10" stroke-width="2"/>
    <line x1="29" y1="155.85" x2="9" y2="155.85" fill="#dda824" stroke="#dda824" stroke-linecap="round" stroke-miterlimit="10" stroke-width="2"/>
    <line x1="117" y1="172.6" x2="94" y2="172.6" fill="#dda824" stroke="#dda824" stroke-linecap="round" stroke-miterlimit="10" stroke-width="2"/>
    <line id="PIN_POWER" x1="9" y1="156.1" x2="9" y2="164.1" fill="none" stroke="#dda824" stroke-linecap="round" stroke-miterlimit="10" stroke-width="2"/>
  </g>
  <g id="RFID">
    <text id="PIN_TEXT_RX" transform="translate(119.11 187.48)" font-size="14" font-family="Biryani-SemiBold, Biryani" font-weight="600">A5</text>
    <g id="RFID_TAG_2">
      <ellipse cx="201" cy="164.1" rx="18.5" ry="19.5" fill="blue"/>
      <path d="M205,150c9.93,0,18,8.52,18,19s-8.07,19-18,19-18-8.52-18-19,8.07-19,18-19m0-1c-10.49,0-19,8.95-19,20s8.51,20,19,20,19-8.95,19-20-8.51-20-19-20Z" transform="translate(-4 -4.9)"/>
    </g>
    <g id="RFID_TAG_1">
      <ellipse cx="201.5" cy="149.6" rx="9" ry="5"/>
      <path d="M205.5,150c4.61,0,8.5,2.06,8.5,4.5s-3.89,4.5-8.5,4.5-8.5-2.06-8.5-4.5,3.89-4.5,8.5-4.5m0-1c-5.25,0-9.5,2.46-9.5,5.5s4.25,5.5,9.5,5.5,9.5-2.46,9.5-5.5-4.25-5.5-9.5-5.5Z" transform="translate(-4 -4.9)"/>
    </g>
    <text id="TAG_TEXT" transform="translate(109.85 91.15)" font-size="18" font-family="Biryani-Regular, Biryani">Tag #: </text>
    <text id="CARD_NUMBER_TEXT" transform="translate(110.85 126.15)" font-size="18" font-family="Biryani-Regular, Biryani">Card #:</text>
    <text transform="translate(114.71 21.1)" font-size="24" font-family="Biryani-SemiBold, Biryani" font-weight="600">RFID Reader</text>
  </g>
  <g id="antenna">
    <path d="M92.5,53.5c11.61-17.84,88.57-8.3,95,20" transform="translate(-4 -4.9)" fill="none" stroke="#dda824" stroke-miterlimit="10" stroke-width="3"/>
    <path d="M92.5,42.5c11.61-17.84,105.57,2.7,112,31" transform="translate(-4 -4.9)" fill="none" stroke="#dda824" stroke-miterlimit="10" stroke-width="3"/>
    <path d="M261.52,137.5" transform="translate(-4 -4.9)" fill="none" stroke="#dda824" stroke-miterlimit="10" stroke-width="3"/>
    <path d="M119,160.69" transform="translate(-4 -4.9)" fill="none" stroke="#dda824" stroke-miterlimit="10" stroke-width="3"/>
    <rect x="164.44" y="20.56" width="66.11" height="174" transform="translate(85.94 300.16) rotate(-90)" fill="none" stroke="#dda824" stroke-miterlimit="10" stroke-width="3"/>
  </g>
  <g id="wire_text" data-name="wire text">
    <text transform="translate(33.62 163.66)" font-size="21" font-family="Biryani-Regular, Biryani">+</text>
    <text transform="translate(34.62 145.66)" font-size="21" font-family="Biryani-Regular, Biryani">-</text>
    <text transform="translate(69.12 177.66)" font-size="14" font-family="Biryani-Regular, Biryani">TX</text>
    <text transform="translate(69.12 160.47) rotate(0.71)" font-size="14" font-family="Biryani-Regular, Biryani">RX</text>
  </g>
</svg>
