<svg xmlns="http://www.w3.org/2000/svg" width="110.88" height="293.08" viewBox="0 0 110.88 293.08">
  <defs>
    <style>
      .cls-1 {
        fill: #2a90ff;
      }

      .cls-2 {
        font-size: 18px;
      }

      .cls-2, .cls-7 {
        font-family: Biryani-SemiBold, Biryani;
        font-weight: 600;
      }

      .cls-3, .cls-4, .cls-5, .cls-6, .cls-8 {
        stroke: #000;
        stroke-miterlimit: 10;
      }

      .cls-4 {
        fill: #fbb03b;
      }

      .cls-5 {
        fill: orange;
      }

      .cls-6 {
        fill: #ff422a;
      }

      .cls-7 {
        isolation: isolate;
        font-size: 7.03px;
      }

      .cls-8 {
        fill: #d6ad65;
      }
    </style>
  </defs>
  <title>servo</title>
  <g id="base">
    <g>
      <rect class="cls-1" x="0.5" y="42.58" width="79" height="219"/>
      <path d="M135.56,46.19v218h-78v-218h78m1-1h-80v220h80Z" transform="translate(-56.56 -3.11)"/>
    </g>
  </g>
  <g id="Angle_Text" data-name="Angle Text">
    <text id="servo_name" class="cls-2" transform="translate(6.93 15.82)">Servo 3</text>
    <text id="servo_degree" class="cls-2" transform="translate(6.93 36.25)">Servo 3</text>
  </g>
  <g id="spinning_part" data-name="spinning part">
    <rect id="black_fill" data-name="black fill" class="cls-3" x="32.5" y="133.58" width="25" height="27"/>
    <path id="moving_part" data-name="moving part" class="cls-4" d="M166.91,152c-.4-7.21-5.39-13.31-11.85-13.94l-60.88-8.21c-7.33,2.38-12.61,10.2-13,19.16-.42,9.38,4.61,18,12.18,20.71l61.2-1.24C161.91,167.8,167.37,160.11,166.91,152Zm-66.49,9.07c-5.22-.18-9.28-5.21-9.07-11.23s4.62-10.74,9.84-10.56,9.28,5.22,9.07,11.22S105.64,161.24,100.42,161.06Z" transform="translate(-56.56 -3.11)"/>
    <path id="CenterOfCicle" class="cls-4" d="M102.06,149.69" transform="translate(-56.56 -3.11)"/>
  </g>
  <g id="Layer_3" data-name="Layer 3">
    <rect id="DATA_BOX" data-name="DATA BOX" class="cls-5" x="60" y="261.58" width="10" height="31"/>
    <rect id="_5V_BOX" data-name=" 5V BOX" class="cls-6" x="35" y="261.58" width="10" height="31"/>
    <text class="cls-7" transform="translate(37.58 267.38) rotate(90)">5V</text>
    <text class="cls-7" transform="translate(62.26 267.38) rotate(90)">Data</text>
    <polygon id="GND_BOX" data-name="GND BOX" class="cls-8" points="10 261.58 10 292.58 15 292.58 20 292.58 20 261.58 10 261.58"/>
    <text id="GND_TEXT" data-name="GND TEXT" class="cls-7" transform="translate(12.68 267.38) rotate(90)">GND</text>
  </g>
</svg>
