<svg xmlns="http://www.w3.org/2000/svg" width="169.19" height="243.78" viewBox="0 0 169.19 243.78">
  <g id="sensor_text">
    <text id="code" transform="translate(41.98 75.05)" font-size="36" font-family="Biryani-SemiBold, Biryani" font-weight="600">E932B</text>
  </g>
  <g id="base">
    <path id="PIN_GND" d="M40.34,220.26h2a0,0,0,0,1,0,0v22a1,1,0,0,1-1,1h0a1,1,0,0,1-1-1v-22a0,0,0,0,1,0,0Z" fill="#191919" stroke="#191919" stroke-miterlimit="10"/>
    <path id="PIN_POWER" d="M89.61,219.78h2a0,0,0,0,1,0,0v22a1,1,0,0,1-1,1h0a1,1,0,0,1-1-1v-22A0,0,0,0,1,89.61,219.78Z" fill="#191919" stroke="#191919" stroke-miterlimit="10"/>
    <path id="PIN_DATA" d="M144.05,220.26h2a0,0,0,0,1,0,0v22a1,1,0,0,1-1,1h0a1,1,0,0,1-1-1v-22a0,0,0,0,1,0,0Z" fill="#191919" stroke="#191919" stroke-miterlimit="10"/>
    <g>
      <rect x="25.69" y="86.78" width="143" height="133" fill="#7f9ce5"/>
      <path d="M171.5,90V222H29.5V90h142m1-1H28.5V223h144V89Z" transform="translate(-3.31 -2.72)"/>
    </g>
    <g>
      <circle cx="97.19" cy="122.28" r="24.5" fill="#fcd156"/>
      <path d="M100.5,101a24,24,0,1,1-24,24,24,24,0,0,1,24-24m0-1a25,25,0,1,0,25,25,25,25,0,0,0-25-25Z" transform="translate(-3.31 -2.72)"/>
    </g>
    <text transform="translate(33.17 218.11)" font-size="36" font-family="Biryani-SemiBold, Biryani" font-weight="600">-</text>
    <text transform="translate(80.71 216.21)" font-size="36" font-family="Biryani-SemiBold, Biryani" font-weight="600">+</text>
    <text id="PIN_TEXT" transform="translate(121.93 213.87)" font-size="24" font-family="Biryani-SemiBold, Biryani" font-weight="600">A15</text>
    <g>
      <rect x="40.19" y="107.28" width="18" height="30" fill="#58f968"/>
      <path d="M61,110.5v29H44v-29H61m1-1H43v31H62v-31Z" transform="translate(-3.31 -2.72)"/>
    </g>
    <g id="FOUND_SOMETHING">
      <rect x="137.19" y="107.28" width="18" height="30" fill="#dee2de"/>
      <path d="M158,110.5v29H141v-29h17m1-1H140v31h19v-31Z" transform="translate(-3.31 -2.72)"/>
    </g>
  </g>
  <g id="remote">
    <path d="M30.87,33.67a6.61,6.61,0,0,0,4.18-3.33l4.54-8.61a6.65,6.65,0,0,0-3.3-9.22L14,3a4,4,0,0,0-5.1,1.8L3.76,14.63a4,4,0,0,0,1.41,5.22l20.42,13A6.6,6.6,0,0,0,30.87,33.67Z" transform="translate(-3.31 -2.72)" fill="#3e5959"/>
    <path d="M35.09,18.85a1.33,1.33,0,1,0-1.8.56A1.34,1.34,0,0,0,35.09,18.85Z" transform="translate(-3.31 -2.72)" fill="#ff3939"/>
    <path d="M30.13,28.26a1.31,1.31,0,0,0-.55-1.79,1.33,1.33,0,1,0,.55,1.79Z" transform="translate(-3.31 -2.72)" fill="#fdbf00"/>
    <path d="M30.38,16.37a1.34,1.34,0,0,0-.56-1.8,1.33,1.33,0,1,0,.56,1.8Z" transform="translate(-3.31 -2.72)" fill="#ececf1"/>
    <path d="M26.11,21.64a1.33,1.33,0,1,1,1.23-2.35,1.33,1.33,0,1,1-1.23,2.35Z" transform="translate(-3.31 -2.72)" fill="#ececf1"/>
    <path d="M25.43,25.79a1.33,1.33,0,1,0-1.8.56A1.34,1.34,0,0,0,25.43,25.79Z" transform="translate(-3.31 -2.72)" fill="#e2e2e7"/>
    <path d="M25.67,13.89a1.32,1.32,0,0,0-.55-1.79,1.33,1.33,0,1,0,.55,1.79Z" transform="translate(-3.31 -2.72)" fill="#ececf1"/>
    <path d="M21.4,19.16a1.31,1.31,0,0,1-.56-1.79,1.32,1.32,0,0,1,1.8-.56,1.33,1.33,0,0,1-1.24,2.35Z" transform="translate(-3.31 -2.72)" fill="#ececf1"/>
    <path d="M20.72,23.31a1.33,1.33,0,1,0-1.8.56A1.34,1.34,0,0,0,20.72,23.31Z" transform="translate(-3.31 -2.72)" fill="#e2e2e7"/>
    <path d="M13.1,17.8a1.32,1.32,0,0,1-.56-1.8l.62-1.17L12,14.21a1.33,1.33,0,0,1,1.24-2.36l1.18.62L15,11.3a1.33,1.33,0,1,1,2.35,1.23l-.62,1.18,1.18.62a1.33,1.33,0,1,1-1.24,2.36l-1.18-.62-.62,1.17A1.31,1.31,0,0,1,13.1,17.8Z" transform="translate(-3.31 -2.72)" fill="#ececf1"/>
    <g id="Signnal">
      <path d="M41.16,39.75A1.32,1.32,0,0,1,42,38.08a11.94,11.94,0,0,0,7.88-15,1.32,1.32,0,0,1,.88-1.67,1.36,1.36,0,0,1,1.67.88,14.64,14.64,0,0,1-9.63,18.31A1.37,1.37,0,0,1,41.16,39.75Z" transform="translate(-3.31 -2.72)" fill="#091412"/>
      <path d="M39.6,34.66A1.29,1.29,0,0,1,40.47,33a6.82,6.82,0,0,0,4.39-8.33,1.31,1.31,0,1,1,2.51-.78,9.46,9.46,0,0,1-6.12,11.63A1.29,1.29,0,0,1,39.6,34.66Z" transform="translate(-3.31 -2.72)" fill="#091412"/>
      <path d="M38,29.58a1.36,1.36,0,0,1,.88-1.67,1.34,1.34,0,0,0,.86-1.64,1.38,1.38,0,0,1,.88-1.68,1.32,1.32,0,0,1,1.67.88,3.94,3.94,0,0,1-.3,3,4,4,0,0,1-2.32,2A1.31,1.31,0,0,1,38,29.58Z" transform="translate(-3.31 -2.72)" fill="#091412"/>
    </g>
  </g>
</svg>
